<?xml version="1.0" encoding="UTF-8" standalone="no"?>
<svg
   xmlns:dc="http://purl.org/dc/elements/1.1/"
   xmlns:cc="http://creativecommons.org/ns#"
   xmlns:rdf="http://www.w3.org/1999/02/22-rdf-syntax-ns#"
   xmlns:svg="http://www.w3.org/2000/svg"
   xmlns="http://www.w3.org/2000/svg"
   version="1.1"
   id="svg2"
   viewBox="0 0 615.1044 266.5712"
   height="75.232315mm"
   width="173.59613mm">
  <defs
     id="defs4">
    <marker
       orient="auto"
       refY="0"
       refX="0"
       id="marker6141"
       style="overflow:visible">
      <path
         id="path6143"
         d="M 0,0 5,-5 -12.5,0 5,5 0,0 Z"
         style="fill:#000000;fill-opacity:1;fill-rule:evenodd;stroke:#000000;stroke-width:1pt;stroke-opacity:1"
         transform="matrix(0.4,0,0,0.4,4,0)" />
    </marker>
    <marker
       style="overflow:visible"
       id="Arrow1Lstart"
       refX="0"
       refY="0"
       orient="auto">
      <path
         transform="matrix(0.8,0,0,0.8,10,0)"
         style="fill:#000000;fill-opacity:1;fill-rule:evenodd;stroke:#000000;stroke-width:1pt;stroke-opacity:1"
         d="M 0,0 5,-5 -12.5,0 5,5 0,0 Z"
         id="path4230" />
    </marker>
    <marker
       style="overflow:visible"
       id="Arrow1Mstart-9"
       refX="0"
       refY="0"
       orient="auto">
      <path
         transform="matrix(0.4,0,0,0.4,4,0)"
         style="fill:#000000;fill-opacity:1;fill-rule:evenodd;stroke:#000000;stroke-width:1pt;stroke-opacity:1"
         d="M 0,0 5,-5 -12.5,0 5,5 0,0 Z"
         id="path4236-9" />
    </marker>
    <marker
       orient="auto"
       refY="0"
       refX="0"
       id="marker6141-6"
       style="overflow:visible">
      <path
         id="path6143-5"
         d="M 0,0 5,-5 -12.5,0 5,5 0,0 Z"
         style="fill:#000000;fill-opacity:1;fill-rule:evenodd;stroke:#000000;stroke-width:1pt;stroke-opacity:1"
         transform="matrix(0.4,0,0,0.4,4,0)" />
    </marker>
  </defs>
  <metadata
     id="metadata7">
    <rdf:RDF>
      <cc:Work
         rdf:about="">
        <dc:format>image/svg+xml</dc:format>
        <dc:type
           rdf:resource="http://purl.org/dc/dcmitype/StillImage" />
        <dc:title></dc:title>
      </cc:Work>
    </rdf:RDF>
  </metadata>
  <g
     transform="translate(-16.89559,-176.93376)"
     id="layer1">
    <rect
       ry="15.000001"
       rx="15.000001"
       y="190.49509"
       x="248.3669"
       height="109.05892"
       width="148.35222"
       id="rect3336"
       style="opacity:1;fill:#ffffff;fill-opacity:1;stroke:#000000;stroke-width:1.12266529;stroke-linecap:round;stroke-linejoin:round;stroke-miterlimit:4;stroke-dasharray:none;stroke-dashoffset:0;stroke-opacity:1" />
    <path
       id="rect3336-2"
       d="m 256.72826,190.62838 c -4.66467,0 -8.41999,3.75532 -8.41999,8.41999 l 0,13.95986 148.35191,0 0,-13.95986 c 0,-4.66467 -3.75531,-8.41999 -8.41999,-8.41999 l -131.51193,0 z"
       style="opacity:1;fill:#89a02c;fill-opacity:1;stroke:#000000;stroke-width:1.12266529;stroke-linecap:round;stroke-linejoin:round;stroke-miterlimit:4;stroke-dasharray:none;stroke-dashoffset:0;stroke-opacity:1" />
    <rect
       ry="15.000001"
       rx="15.000001"
       y="320.88464"
       x="47.512615"
       height="109.05892"
       width="148.35222"
       id="rect3336-3"
       style="opacity:1;fill:#ffffff;fill-opacity:1;stroke:#000000;stroke-width:1.12266529;stroke-linecap:round;stroke-linejoin:round;stroke-miterlimit:4;stroke-dasharray:none;stroke-dashoffset:0;stroke-opacity:1" />
    <path
       id="rect3336-2-7"
       d="m 55.873994,321.01794 c -4.664675,0 -8.419991,3.75532 -8.419991,8.41999 l 0,13.95986 148.351907,0 0,-13.95986 c 0,-4.66467 -3.75532,-8.41999 -8.41999,-8.41999 l -131.511926,0 z"
       style="opacity:1;fill:#d35f5f;fill-opacity:1;stroke:#000000;stroke-width:1.12266529;stroke-linecap:round;stroke-linejoin:round;stroke-miterlimit:4;stroke-dasharray:none;stroke-dashoffset:0;stroke-opacity:1" />
    <rect
       ry="15.000001"
       rx="15.000001"
       y="320.88467"
       x="453.08939"
       height="109.05892"
       width="148.35222"
       id="rect3336-6"
       style="opacity:1;fill:#ffffff;fill-opacity:1;stroke:#000000;stroke-width:1.12266529;stroke-linecap:round;stroke-linejoin:round;stroke-miterlimit:4;stroke-dasharray:none;stroke-dashoffset:0;stroke-opacity:1" />
    <path
       id="rect3336-2-4"
       d="m 461.45076,321.01795 c -4.66468,0 -8.41999,3.75532 -8.41999,8.41999 l 0,13.95986 148.3519,0 0,-13.95986 c 0,-4.66467 -3.75532,-8.41999 -8.41999,-8.41999 l -131.51192,0 z"
       style="opacity:1;fill:#6f6f91;fill-opacity:1;stroke:#000000;stroke-width:1.12266529;stroke-linecap:round;stroke-linejoin:round;stroke-miterlimit:4;stroke-dasharray:none;stroke-dashoffset:0;stroke-opacity:1" />
    <g
       id="g4393">
      <path
         id="path6125"
         d="m 228.76953,232.3125 -72.97461,72.97266 1.19141,1.1914 72.97265,-72.97265 -1.18945,-1.19141 z"
         style="color:#000000;font-style:normal;font-variant:normal;font-weight:normal;font-stretch:normal;font-size:medium;line-height:normal;font-family:sans-serif;text-indent:0;text-align:start;text-decoration:none;text-decoration-line:none;text-decoration-style:solid;text-decoration-color:#000000;letter-spacing:normal;word-spacing:normal;text-transform:none;direction:ltr;block-progression:tb;writing-mode:lr-tb;baseline-shift:baseline;text-anchor:start;white-space:normal;clip-rule:nonzero;display:inline;overflow:visible;visibility:visible;opacity:1;isolation:auto;mix-blend-mode:normal;color-interpolation:sRGB;color-interpolation-filters:linearRGB;solid-color:#000000;solid-opacity:1;fill:#000000;fill-opacity:1;fill-rule:evenodd;stroke:none;stroke-width:1.68399811;stroke-linecap:butt;stroke-linejoin:miter;stroke-miterlimit:4;stroke-dasharray:none;stroke-dashoffset:0;stroke-opacity:1;color-rendering:auto;image-rendering:auto;shape-rendering:auto;text-rendering:auto;enable-background:accumulate" />
      <path
         id="path4399"
         d="m 224.60111,237.67131 0,4.76306 5.95384,-10.7169 -10.7169,5.95383 4.76306,1e-5 z"
         style="fill:#000000;fill-opacity:1;fill-rule:evenodd;stroke:#000000;stroke-width:0.67359924pt;stroke-opacity:1" />
    </g>
    <g
       id="g4407">
      <path
         id="path6127"
         d="m 239.3457,253.01367 -56.13281,56.13477 1.19141,1.18945 56.13281,-56.13281 -1.19141,-1.19141 z"
         style="color:#000000;font-style:normal;font-variant:normal;font-weight:normal;font-stretch:normal;font-size:medium;line-height:normal;font-family:sans-serif;text-indent:0;text-align:start;text-decoration:none;text-decoration-line:none;text-decoration-style:solid;text-decoration-color:#000000;letter-spacing:normal;word-spacing:normal;text-transform:none;direction:ltr;block-progression:tb;writing-mode:lr-tb;baseline-shift:baseline;text-anchor:start;white-space:normal;clip-rule:nonzero;display:inline;overflow:visible;visibility:visible;opacity:1;isolation:auto;mix-blend-mode:normal;color-interpolation:sRGB;color-interpolation-filters:linearRGB;solid-color:#000000;solid-opacity:1;fill:#000000;fill-opacity:1;fill-rule:evenodd;stroke:none;stroke-width:1.68399811;stroke-linecap:butt;stroke-linejoin:miter;stroke-miterlimit:4;stroke-dasharray:none;stroke-dashoffset:0;stroke-opacity:1;color-rendering:auto;image-rendering:auto;shape-rendering:auto;text-rendering:auto;enable-background:accumulate" />
      <path
         style="fill:#000000;fill-opacity:1;fill-rule:evenodd;stroke:#000000;stroke-width:0.67359924pt;stroke-opacity:1"
         d="m 188.5717,304.98013 0,-4.76306 -5.95384,10.7169 10.7169,-5.95384 -4.76306,0 z"
         id="path4413" />
    </g>
    <g
       id="g4423">
      <path
         id="path6125-6"
         d="m 416.72266,231.75586 -1.18946,1.19141 72.97266,72.97265 1.19141,-1.18945 -72.97461,-72.97461 z"
         style="color:#000000;font-style:normal;font-variant:normal;font-weight:normal;font-stretch:normal;font-size:medium;line-height:normal;font-family:sans-serif;text-indent:0;text-align:start;text-decoration:none;text-decoration-line:none;text-decoration-style:solid;text-decoration-color:#000000;letter-spacing:normal;word-spacing:normal;text-transform:none;direction:ltr;block-progression:tb;writing-mode:lr-tb;baseline-shift:baseline;text-anchor:start;white-space:normal;clip-rule:nonzero;display:inline;overflow:visible;visibility:visible;opacity:1;isolation:auto;mix-blend-mode:normal;color-interpolation:sRGB;color-interpolation-filters:linearRGB;solid-color:#000000;solid-opacity:1;fill:#000000;fill-opacity:1;fill-rule:evenodd;stroke:none;stroke-width:1.68399811;stroke-linecap:butt;stroke-linejoin:miter;stroke-miterlimit:4;stroke-dasharray:none;stroke-dashoffset:0;stroke-opacity:1;color-rendering:auto;image-rendering:auto;shape-rendering:auto;text-rendering:auto;enable-background:accumulate" />
      <path
         id="path4429"
         d="m 484.33794,300.56208 -4.76306,0 10.7169,5.95384 -5.95384,-10.7169 0,4.76306 z"
         style="fill:#000000;fill-opacity:1;fill-rule:evenodd;stroke:#000000;stroke-width:0.67359924pt;stroke-opacity:1" />
    </g>
    <g
       id="g4415">
      <path
         id="path6127-5"
         d="m 409.50391,255.81641 -1.19141,1.1914 56.13281,56.13281 1.19141,-1.1914 -56.13281,-56.13281 z"
         style="color:#000000;font-style:normal;font-variant:normal;font-weight:normal;font-stretch:normal;font-size:medium;line-height:normal;font-family:sans-serif;text-indent:0;text-align:start;text-decoration:none;text-decoration-line:none;text-decoration-style:solid;text-decoration-color:#000000;letter-spacing:normal;word-spacing:normal;text-transform:none;direction:ltr;block-progression:tb;writing-mode:lr-tb;baseline-shift:baseline;text-anchor:start;white-space:normal;clip-rule:nonzero;display:inline;overflow:visible;visibility:visible;opacity:1;isolation:auto;mix-blend-mode:normal;color-interpolation:sRGB;color-interpolation-filters:linearRGB;solid-color:#000000;solid-opacity:1;fill:#000000;fill-opacity:1;fill-rule:evenodd;stroke:none;stroke-width:1.68399811;stroke-linecap:butt;stroke-linejoin:miter;stroke-miterlimit:4;stroke-dasharray:none;stroke-dashoffset:0;stroke-opacity:1;color-rendering:auto;image-rendering:auto;shape-rendering:auto;text-rendering:auto;enable-background:accumulate" />
      <path
         style="fill:#000000;fill-opacity:1;fill-rule:evenodd;stroke:#000000;stroke-width:0.67359924pt;stroke-opacity:1"
         d="m 413.67111,261.17467 4.76306,0 -10.7169,-5.95384 5.95384,10.7169 0,-4.76306 z"
         id="path4421" />
    </g>
    <text
       id="text6385"
       y="205.89165"
       x="293.2735"
       style="font-style:normal;font-variant:normal;font-weight:normal;font-stretch:normal;font-size:12.62998581px;line-height:125%;font-family:Avenir;-inkscape-font-specification:Avenir;text-align:start;letter-spacing:0px;word-spacing:0px;writing-mode:lr-tb;text-anchor:start;fill:#ffffff;fill-opacity:1;stroke:none;stroke-width:1px;stroke-linecap:butt;stroke-linejoin:miter;stroke-opacity:1"
       xml:space="preserve"><tspan
         style="font-style:normal;font-variant:normal;font-weight:900;font-stretch:normal;font-family:Avenir;-inkscape-font-specification:'Avenir Heavy'"
         y="205.89165"
         x="293.2735"
         id="tspan6387">Controller</tspan></text>
    <text
       id="text6385-1"
       y="336.12082"
       x="107.01389"
       style="font-style:normal;font-variant:normal;font-weight:normal;font-stretch:normal;font-size:12.62998581px;line-height:125%;font-family:Avenir;-inkscape-font-specification:Avenir;text-align:start;letter-spacing:0px;word-spacing:0px;writing-mode:lr-tb;text-anchor:start;fill:#ffffff;fill-opacity:1;stroke:none;stroke-width:1px;stroke-linecap:butt;stroke-linejoin:miter;stroke-opacity:1"
       xml:space="preserve"><tspan
         style="font-style:normal;font-variant:normal;font-weight:900;font-stretch:normal;font-family:Avenir;-inkscape-font-specification:'Avenir Heavy'"
         y="336.12082"
         x="107.01389"
         id="tspan6387-7">View</tspan></text>
    <text
       id="text6385-6"
       y="337.2435"
       x="512.1897"
       style="font-style:normal;font-variant:normal;font-weight:normal;font-stretch:normal;font-size:12.62998581px;line-height:125%;font-family:Avenir;-inkscape-font-specification:Avenir;text-align:start;letter-spacing:0px;word-spacing:0px;writing-mode:lr-tb;text-anchor:start;fill:#ffffff;fill-opacity:1;stroke:none;stroke-width:1px;stroke-linecap:butt;stroke-linejoin:miter;stroke-opacity:1"
       xml:space="preserve"><tspan
         style="font-style:normal;font-variant:normal;font-weight:900;font-stretch:normal;font-family:Avenir;-inkscape-font-specification:'Avenir Heavy'"
         y="337.2435"
         x="512.1897"
         id="tspan6387-2">Model</tspan></text>
    <g
       id="text6554"
       style="font-style:normal;font-variant:normal;font-weight:normal;font-stretch:normal;font-size:17.16372299px;line-height:125%;font-family:Avenir;-inkscape-font-specification:Avenir;text-align:start;letter-spacing:0px;word-spacing:0px;writing-mode:lr-tb;text-anchor:start;fill:#000000;fill-opacity:1;stroke:none;stroke-width:1px;stroke-linecap:butt;stroke-linejoin:miter;stroke-opacity:1">
      <path
         id="path4335"
         style="text-align:center;text-anchor:middle"
         d="m 154.06391,227.78566 q 0,0.7552 -0.1888,1.61339 -0.17164,0.84102 -0.66938,1.5619 -0.49775,0.72087 -1.3731,1.20146 -0.85819,0.46342 -2.21412,0.46342 -1.3731,0 -2.23129,-0.46342 -0.85818,-0.48059 -1.35593,-1.20146 -0.49775,-0.72088 -0.68655,-1.5619 -0.17164,-0.85819 -0.17164,-1.61339 l 0,-7.6207 1.23579,0 0,7.48339 q 0,0.87535 0.17164,1.5104 0.17164,0.6179 0.44626,1.04699 0.29178,0.42909 0.63505,0.68655 0.36044,0.24029 0.70372,0.3776 0.36043,0.13731 0.68654,0.1888 0.32612,0.0343 0.56641,0.0343 0.22313,0 0.54924,-0.0343 0.34327,-0.0515 0.68655,-0.1888 0.36043,-0.13731 0.70371,-0.3776 0.36044,-0.25746 0.63506,-0.68655 0.29178,-0.42909 0.46342,-1.04699 0.17163,-0.63505 0.17163,-1.5104 l 0,-7.48339 1.23579,0 0,7.6207 z" />
      <path
         id="path4337"
         style="text-align:center;text-anchor:middle"
         d="m 160.99028,226.18943 q -0.25746,-0.49775 -0.68655,-0.78953 -0.42909,-0.29178 -1.04699,-0.29178 -0.29178,0 -0.60073,0.0686 -0.29178,0.0687 -0.53207,0.22313 -0.2403,0.13731 -0.39477,0.36044 -0.13731,0.22313 -0.13731,0.54924 0,0.5664 0.39477,0.82385 0.39476,0.25746 1.18429,0.44626 l 1.14997,0.27462 q 0.84103,0.1888 1.39026,0.77237 0.56641,0.5664 0.56641,1.42459 0,0.65222 -0.27462,1.1328 -0.25746,0.46342 -0.70371,0.77237 -0.4291,0.29178 -0.9955,0.42909 -0.5664,0.13731 -1.14997,0.13731 -0.92684,0 -1.73354,-0.34327 -0.78953,-0.36044 -1.35593,-1.21862 l 0.97833,-0.66939 q 0.34328,0.54924 0.85819,0.87535 0.53207,0.32611 1.25295,0.32611 0.34327,0 0.68655,-0.0686 0.34327,-0.0858 0.60073,-0.2403 0.27462,-0.17163 0.42909,-0.42909 0.17164,-0.25746 0.17164,-0.60073 0,-0.60073 -0.44626,-0.85819 -0.44625,-0.27462 -1.08131,-0.42909 l -1.09848,-0.25745 q -0.20596,-0.0515 -0.5664,-0.17164 -0.34328,-0.12015 -0.68655,-0.36044 -0.32611,-0.24029 -0.5664,-0.61789 -0.2403,-0.39477 -0.2403,-0.96117 0,-0.6179 0.2403,-1.08132 0.25745,-0.46342 0.66938,-0.7552 0.42909,-0.29178 0.96117,-0.42909 0.53207,-0.15448 1.09848,-0.15448 0.84102,0 1.5619,0.32611 0.72087,0.32611 1.11564,1.11564 l -1.01266,0.66939 z" />
      <path
         id="path4339"
         style="text-align:center;text-anchor:middle"
         d="m 170.32278,227.68267 q 0,-1.14997 -0.68654,-1.85368 -0.68655,-0.72087 -1.92234,-0.72087 -0.54924,0 -1.06415,0.22312 -0.51491,0.20597 -0.90968,0.56641 -0.3776,0.36044 -0.61789,0.82386 -0.22313,0.46342 -0.22313,0.96116 l 5.42373,0 z m -5.45806,0.92685 q 0.0515,0.60073 0.29178,1.1328 0.2403,0.53208 0.63506,0.92684 0.39477,0.3776 0.90968,0.60073 0.51491,0.22313 1.11564,0.22313 0.90968,0 1.5619,-0.41193 0.66939,-0.42909 1.01266,-0.97833 l 0.87535,0.72088 q -0.72088,0.90967 -1.59623,1.30444 -0.85818,0.39476 -1.85368,0.39476 -0.89251,0 -1.66488,-0.30894 -0.7552,-0.32611 -1.30444,-0.89252 -0.54924,-0.5664 -0.87535,-1.33877 -0.30895,-0.77236 -0.30895,-1.68204 0,-0.90968 0.30895,-1.68205 0.30894,-0.77236 0.85818,-1.33877 0.54924,-0.5664 1.28728,-0.87535 0.73804,-0.32611 1.59623,-0.32611 0.90968,0 1.63055,0.32611 0.72088,0.32611 1.20146,0.87535 0.49775,0.53208 0.75521,1.27012 0.25745,0.72087 0.25745,1.54473 l 0,0.51492 -6.69385,0 z" />
      <path
         id="path4341"
         style="text-align:center;text-anchor:middle"
         d="m 173.74936,226.79016 q 0,-0.53207 -0.0343,-1.08131 -0.0172,-0.54924 -0.0343,-1.42459 l 1.11564,0 0,1.49324 0.0343,0 q 0.12014,-0.32611 0.34327,-0.61789 0.22313,-0.30895 0.53208,-0.54924 0.32611,-0.24029 0.73804,-0.3776 0.42909,-0.15448 0.96116,-0.15448 0.48059,0 0.84103,0.10298 l -0.22313,1.11565 q -0.22313,-0.0858 -0.65222,-0.0858 -0.65222,0 -1.11565,0.25745 -0.46342,0.2403 -0.77236,0.63506 -0.30895,0.3776 -0.46342,0.82386 -0.13731,0.44626 -0.13731,0.85819 l 0,4.53122 -1.13281,0 0,-5.52672 z" />
      <path
         id="path4343"
         style="text-align:center;text-anchor:middle"
         d="m 139.34883,249.44627 5.26927,0 -2.62605,-6.3849 -2.64322,6.3849 z m -1.80219,4.32526 -1.44175,0 5.28643,-12.15191 1.20146,0 5.28643,12.15191 -1.44176,0 -1.33877,-3.19245 -6.21327,0 -1.33877,3.19245 z" />
      <path
         id="path4345"
         style="text-align:center;text-anchor:middle"
         d="m 154.96005,247.62692 q -0.29179,-0.44626 -0.82386,-0.7552 -0.51491,-0.30895 -1.1843,-0.30895 -0.70371,-0.0172 -1.27012,0.22313 -0.54923,0.24029 -0.944,0.66938 -0.39477,0.4291 -0.60073,1.02983 -0.20597,0.58356 -0.20597,1.27011 0,0.68655 0.20597,1.28728 0.20596,0.58357 0.60073,1.01266 0.39477,0.42909 0.944,0.66939 0.56641,0.24029 1.27012,0.22312 0.66939,0 1.1843,-0.30894 0.53207,-0.30895 0.82386,-0.75521 l 0.92684,0.70372 q -0.60073,0.70371 -1.35594,1.04698 -0.7552,0.32611 -1.57906,0.34328 -0.97833,0.0172 -1.76786,-0.29179 -0.78953,-0.32611 -1.35594,-0.89251 -0.54924,-0.5664 -0.84102,-1.33877 -0.29178,-0.78953 -0.29178,-1.69921 0,-0.90968 0.29178,-1.68204 0.29178,-0.78953 0.84102,-1.35594 0.56641,-0.5664 1.35594,-0.87535 0.78953,-0.32611 1.76786,-0.30894 0.82386,0.0172 1.57906,0.36043 0.75521,0.32611 1.35594,1.02983 l -0.92684,0.70371 z" />
      <path
         id="path4347"
         style="text-align:center;text-anchor:middle"
         d="m 161.54099,246.76873 -2.3171,0 0,4.73719 q 0,0.44626 0.0858,0.73804 0.0858,0.27462 0.24029,0.42909 0.15447,0.15448 0.36044,0.22313 0.22313,0.0515 0.48058,0.0515 0.29179,0 0.60073,-0.0858 0.30895,-0.0858 0.56641,-0.22313 l 0.0515,1.04698 q -0.63506,0.29179 -1.52757,0.29179 -0.32611,0 -0.68655,-0.0858 -0.34328,-0.0858 -0.63506,-0.32611 -0.29178,-0.24029 -0.48059,-0.65222 -0.1888,-0.41193 -0.1888,-1.08132 l 0,-5.0633 -1.6992,0 0,-1.02982 1.6992,0 0,-2.26561 1.13281,0 0,2.26561 2.3171,0 0,1.02982 z" />
      <path
         id="path4349"
         style="text-align:center;text-anchor:middle"
         d="m 164.73398,242.64944 q 0,0.36044 -0.25745,0.60073 -0.25746,0.22313 -0.56641,0.22313 -0.30894,0 -0.5664,-0.22313 -0.25746,-0.24029 -0.25746,-0.60073 0,-0.36044 0.25746,-0.58357 0.25746,-0.24029 0.5664,-0.24029 0.30895,0 0.56641,0.24029 0.25745,0.22313 0.25745,0.58357 z m -0.25745,11.12209 -1.13281,0 0,-8.03262 1.13281,0 0,8.03262 z" />
      <path
         id="path4351"
         style="text-align:center;text-anchor:middle"
         d="m 174.09223,249.75522 q 0,-0.66938 -0.22313,-1.25295 -0.20596,-0.58357 -0.60073,-1.01266 -0.39476,-0.42909 -0.96116,-0.66938 -0.54924,-0.25746 -1.25296,-0.25746 -0.70371,0 -1.27011,0.25746 -0.54924,0.24029 -0.94401,0.66938 -0.3776,0.42909 -0.60073,1.01266 -0.20596,0.58357 -0.20596,1.25295 0,0.66939 0.20596,1.25295 0.22313,0.58357 0.60073,1.01266 0.39477,0.4291 0.94401,0.68655 0.5664,0.24029 1.27011,0.24029 0.70372,0 1.25296,-0.24029 0.5664,-0.25745 0.96116,-0.68655 0.39477,-0.42909 0.60073,-1.01266 0.22313,-0.58356 0.22313,-1.25295 z m 1.23579,0 q 0,0.90968 -0.32611,1.68205 -0.30895,0.77236 -0.87535,1.33877 -0.5664,0.5664 -1.35593,0.89251 -0.77237,0.30895 -1.71638,0.30895 -0.92684,0 -1.71637,-0.30895 -0.77237,-0.32611 -1.33877,-0.89251 -0.5664,-0.56641 -0.89251,-1.33877 -0.30895,-0.77237 -0.30895,-1.68205 0,-0.90968 0.30895,-1.68204 0.32611,-0.77237 0.89251,-1.33877 0.5664,-0.56641 1.33877,-0.87535 0.78953,-0.32611 1.71637,-0.32611 0.94401,0 1.71638,0.32611 0.78953,0.30894 1.35593,0.87535 0.5664,0.5664 0.87535,1.33877 0.32611,0.77236 0.32611,1.68204 z" />
      <path
         id="path4353"
         style="text-align:center;text-anchor:middle"
         d="m 178.48185,245.73891 q 0.0343,0.32611 0.0343,0.65222 0.0172,0.30895 0.0172,0.63506 l 0.0343,0 q 0.1888,-0.32611 0.48059,-0.60073 0.29178,-0.27462 0.65222,-0.46342 0.36044,-0.20597 0.7552,-0.30895 0.41193,-0.12014 0.8067,-0.12014 1.54473,0 2.28277,0.82385 0.73804,0.8067 0.73804,2.31711 l 0,5.09762 -1.1328,0 0,-4.4454 q 0,-1.33877 -0.46342,-2.04248 -0.46342,-0.72088 -1.71638,-0.72088 -0.0858,0 -0.48058,0.0686 -0.39477,0.0687 -0.84102,0.37761 -0.4291,0.30894 -0.77237,0.92684 -0.34327,0.61789 -0.34327,1.71637 l 0,4.11929 -1.13281,0 0,-6.26476 q 0,-0.32611 -0.0343,-0.82385 -0.0172,-0.49775 -0.0515,-0.94401 l 1.16713,0 z" />
    </g>
    <g
       id="text6554-2"
       style="font-style:normal;font-variant:normal;font-weight:normal;font-stretch:normal;font-size:17.16372299px;line-height:125%;font-family:Avenir;-inkscape-font-specification:Avenir;text-align:start;letter-spacing:0px;word-spacing:0px;writing-mode:lr-tb;text-anchor:start;fill:#000000;fill-opacity:1;stroke:none;stroke-width:1px;stroke-linecap:butt;stroke-linejoin:miter;stroke-opacity:1">
      <path
         id="path4456"
         style="text-align:center;text-anchor:middle"
         d="m 218.07224,309.42929 q 0,0.7552 -0.1888,1.61339 -0.17164,0.84102 -0.66939,1.5619 -0.49775,0.72087 -1.3731,1.20146 -0.85818,0.46342 -2.21412,0.46342 -1.3731,0 -2.23128,-0.46342 -0.85819,-0.48059 -1.35594,-1.20146 -0.49774,-0.72088 -0.68654,-1.5619 -0.17164,-0.85819 -0.17164,-1.61339 l 0,-7.6207 1.23579,0 0,7.48339 q 0,0.87535 0.17163,1.51041 0.17164,0.61789 0.44626,1.04698 0.29178,0.4291 0.63506,0.68655 0.36044,0.24029 0.70371,0.3776 0.36044,0.13731 0.68655,0.1888 0.32611,0.0343 0.5664,0.0343 0.22313,0 0.54924,-0.0343 0.34328,-0.0515 0.68655,-0.1888 0.36044,-0.13731 0.70371,-0.3776 0.36044,-0.25745 0.63506,-0.68655 0.29178,-0.42909 0.46342,-1.04698 0.17164,-0.63506 0.17164,-1.51041 l 0,-7.48339 1.23579,0 0,7.6207 z" />
      <path
         id="path4458"
         style="text-align:center;text-anchor:middle"
         d="m 228.07091,309.9442 q 0,-0.66939 -0.22313,-1.25295 -0.20596,-0.58357 -0.60073,-1.01266 -0.39476,-0.4291 -0.96117,-0.66939 -0.54924,-0.25745 -1.25295,-0.25745 -0.70371,0 -1.28728,0.25745 -0.58356,0.24029 -1.01266,0.66939 -0.42909,0.42909 -0.66938,1.01266 -0.2403,0.58356 -0.2403,1.25295 0,0.66938 0.2403,1.25295 0.24029,0.58357 0.66938,1.01266 0.4291,0.42909 1.01266,0.68655 0.58357,0.24029 1.28728,0.24029 0.70371,0 1.25295,-0.24029 0.56641,-0.25746 0.96117,-0.68655 0.39477,-0.42909 0.60073,-1.01266 0.22313,-0.58357 0.22313,-1.25295 z m -7.32891,-4.01631 1.13281,0 0,1.33877 0.0343,0 q 0.27462,-0.41193 0.65222,-0.70371 0.37761,-0.29179 0.78954,-0.48059 0.41193,-0.1888 0.84102,-0.27462 0.44626,-0.0858 0.84102,-0.0858 0.94401,0 1.71637,0.32611 0.78953,0.30895 1.35594,0.87535 0.5664,0.56641 0.87535,1.33877 0.32611,0.77237 0.32611,1.68205 0,0.90968 -0.32611,1.68204 -0.30895,0.77237 -0.87535,1.33877 -0.56641,0.56641 -1.35594,0.89252 -0.77236,0.30894 -1.71637,0.30894 -0.39476,0 -0.84102,-0.0858 -0.42909,-0.0858 -0.84102,-0.27462 -0.41193,-0.1888 -0.78954,-0.48059 -0.3776,-0.29178 -0.65222,-0.70371 l -0.0343,0 0,6.28192 -1.13281,0 0,-12.97577 z" />
      <path
         id="path4460"
         style="text-align:center;text-anchor:middle"
         d="m 231.92122,309.9442 q 0,0.66938 0.20596,1.25295 0.22313,0.58357 0.61789,1.01266 0.39477,0.42909 0.94401,0.68655 0.5664,0.24029 1.27011,0.24029 0.68655,0 1.27012,-0.24029 0.60073,-0.25746 1.02982,-0.68655 0.4291,-0.42909 0.66939,-1.01266 0.24029,-0.58357 0.24029,-1.25295 0,-0.66939 -0.24029,-1.25295 -0.24029,-0.58357 -0.66939,-1.01266 -0.42909,-0.4291 -1.02982,-0.66939 -0.58357,-0.25745 -1.27012,-0.25745 -0.70371,0 -1.27011,0.25745 -0.54924,0.24029 -0.94401,0.66939 -0.39476,0.42909 -0.61789,1.01266 -0.20596,0.58356 -0.20596,1.25295 z m 7.32891,4.01631 -1.13281,0 0,-1.33877 -0.0343,0 q -0.27462,0.41193 -0.65222,0.70371 -0.3776,0.29179 -0.78953,0.48059 -0.41193,0.1888 -0.85819,0.27462 -0.42909,0.0858 -0.82386,0.0858 -0.944,0 -1.73353,-0.30894 -0.77237,-0.32611 -1.33877,-0.89252 -0.5664,-0.5664 -0.89252,-1.33877 -0.30894,-0.77236 -0.30894,-1.68204 0,-0.90968 0.30894,-1.68205 0.32612,-0.77236 0.89252,-1.33877 0.5664,-0.5664 1.33877,-0.87535 0.78953,-0.32611 1.73353,-0.32611 0.39477,0 0.82386,0.0858 0.44626,0.0858 0.85819,0.27462 0.41193,0.1888 0.78953,0.48059 0.3776,0.29178 0.65222,0.70371 l 0.0343,0 0,-6.28192 1.13281,0 0,12.97577 z" />
      <path
         id="path4462"
         style="text-align:center;text-anchor:middle"
         d="m 246.25936,309.96136 q -0.42909,0 -1.08132,0.0515 -0.63505,0.0343 -1.23578,0.20597 -0.58357,0.15447 -1.01266,0.49775 -0.41193,0.34327 -0.41193,0.944 0,0.39477 0.15447,0.68655 0.17164,0.27462 0.44626,0.46342 0.27462,0.17164 0.60073,0.25746 0.34327,0.0686 0.68655,0.0686 0.61789,0 1.06415,-0.20596 0.46342,-0.20597 0.77237,-0.54924 0.30894,-0.36044 0.44625,-0.82386 0.15448,-0.48059 0.15448,-1.01266 l 0,-0.58357 -0.58357,0 z m 0.58357,-0.92684 0,-0.20596 q 0,-2.07681 -2.05965,-2.07681 -1.40743,0 -2.45441,0.944 l -0.68655,-0.80669 q 1.1328,-1.16714 3.39842,-1.16714 0.58356,0 1.11564,0.17164 0.54924,0.17164 0.944,0.53208 0.39477,0.34327 0.63506,0.87535 0.24029,0.53207 0.24029,1.27011 l 0,3.58722 q 0,0.46342 0.0343,0.97833 0.0515,0.49775 0.10298,0.82386 l -1.09848,0 q -0.0515,-0.29178 -0.0858,-0.63506 -0.0172,-0.34327 -0.0172,-0.66938 l -0.0343,0 q -0.49774,0.80669 -1.18429,1.16713 -0.66939,0.34327 -1.64772,0.34327 -0.53208,0 -1.02982,-0.15447 -0.49775,-0.13731 -0.89252,-0.42909 -0.3776,-0.30895 -0.61789,-0.73804 -0.22313,-0.44626 -0.22313,-1.02983 0,-0.97833 0.49775,-1.52757 0.51491,-0.5664 1.27011,-0.84102 0.77237,-0.27462 1.63056,-0.34327 0.87535,-0.0687 1.59622,-0.0687 l 0.56641,0 z" />
      <path
         id="path4464"
         style="text-align:center;text-anchor:middle"
         d="m 254.76452,306.95771 -2.3171,0 0,4.73719 q 0,0.44626 0.0858,0.73804 0.0858,0.27462 0.24029,0.42909 0.15447,0.15448 0.36044,0.22313 0.22313,0.0515 0.48058,0.0515 0.29179,0 0.60073,-0.0858 0.30895,-0.0858 0.56641,-0.22313 l 0.0515,1.04699 q -0.63506,0.29178 -1.52757,0.29178 -0.32612,0 -0.68655,-0.0858 -0.34328,-0.0858 -0.63506,-0.32611 -0.29178,-0.2403 -0.48059,-0.65223 -0.1888,-0.41193 -0.1888,-1.08131 l 0,-5.0633 -1.69921,0 0,-1.02982 1.69921,0 0,-2.26561 1.13281,0 0,2.26561 2.3171,0 0,1.02982 z" />
      <path
         id="path4466"
         style="text-align:center;text-anchor:middle"
         d="m 262.55739,309.32631 q 0,-1.14997 -0.68655,-1.85369 -0.68655,-0.72087 -1.92234,-0.72087 -0.54924,0 -1.06415,0.22312 -0.51491,0.20597 -0.90968,0.56641 -0.3776,0.36044 -0.61789,0.82386 -0.22313,0.46342 -0.22313,0.96117 l 5.42374,0 z m -5.45807,0.92684 q 0.0515,0.60073 0.29179,1.1328 0.24029,0.53208 0.63505,0.92684 0.39477,0.3776 0.90968,0.60073 0.51491,0.22313 1.11564,0.22313 0.90968,0 1.5619,-0.41193 0.66939,-0.42909 1.01266,-0.97833 l 0.87535,0.72088 q -0.72088,0.90967 -1.59623,1.30444 -0.85818,0.39476 -1.85368,0.39476 -0.89251,0 -1.66488,-0.30894 -0.7552,-0.32611 -1.30444,-0.89252 -0.54924,-0.5664 -0.87535,-1.33877 -0.30895,-0.77236 -0.30895,-1.68204 0,-0.90968 0.30895,-1.68205 0.30895,-0.77236 0.85819,-1.33877 0.54923,-0.5664 1.28727,-0.87535 0.73804,-0.32611 1.59623,-0.32611 0.90968,0 1.63055,0.32611 0.72088,0.32611 1.20146,0.87535 0.49775,0.53208 0.75521,1.27012 0.25745,0.72088 0.25745,1.54473 l 0,0.51492 -6.69385,0 z" />
    </g>
    <g
       id="text6554-2-7"
       style="font-style:normal;font-variant:normal;font-weight:normal;font-stretch:normal;font-size:17.16372299px;line-height:125%;font-family:Avenir;-inkscape-font-specification:Avenir;text-align:start;letter-spacing:0px;word-spacing:0px;writing-mode:lr-tb;text-anchor:start;fill:#000000;fill-opacity:1;stroke:none;stroke-width:1px;stroke-linecap:butt;stroke-linejoin:miter;stroke-opacity:1">
      <path
         id="path4369"
         style="text-align:center;text-anchor:middle"
         d="m 462.49898,255.8811 q 0,0.7552 -0.1888,1.61339 -0.17164,0.84102 -0.66939,1.5619 -0.49774,0.72088 -1.37309,1.20146 -0.85819,0.46342 -2.21412,0.46342 -1.3731,0 -2.23129,-0.46342 -0.85819,-0.48058 -1.35593,-1.20146 -0.49775,-0.72088 -0.68655,-1.5619 -0.17164,-0.85819 -0.17164,-1.61339 l 0,-7.62069 1.23579,0 0,7.48338 q 0,0.87535 0.17164,1.51041 0.17163,0.61789 0.44625,1.04699 0.29179,0.42909 0.63506,0.68654 0.36044,0.2403 0.70371,0.37761 0.36044,0.13731 0.68655,0.1888 0.32611,0.0343 0.56641,0.0343 0.22312,0 0.54923,-0.0343 0.34328,-0.0515 0.68655,-0.1888 0.36044,-0.13731 0.70372,-0.37761 0.36043,-0.25745 0.63505,-0.68654 0.29179,-0.4291 0.46342,-1.04699 0.17164,-0.63506 0.17164,-1.51041 l 0,-7.48338 1.23579,0 0,7.62069 z" />
      <path
         id="path4371"
         style="text-align:center;text-anchor:middle"
         d="m 472.49765,256.39601 q 0,-0.66938 -0.22313,-1.25295 -0.20596,-0.58357 -0.60073,-1.01266 -0.39476,-0.42909 -0.96116,-0.66938 -0.54924,-0.25746 -1.25296,-0.25746 -0.70371,0 -1.28728,0.25746 -0.58356,0.24029 -1.01266,0.66938 -0.42909,0.42909 -0.66938,1.01266 -0.24029,0.58357 -0.24029,1.25295 0,0.66939 0.24029,1.25295 0.24029,0.58357 0.66938,1.01266 0.4291,0.4291 1.01266,0.68655 0.58357,0.24029 1.28728,0.24029 0.70372,0 1.25296,-0.24029 0.5664,-0.25745 0.96116,-0.68655 0.39477,-0.42909 0.60073,-1.01266 0.22313,-0.58356 0.22313,-1.25295 z m -7.32891,-4.01631 1.13281,0 0,1.33877 0.0343,0 q 0.27462,-0.41193 0.65222,-0.70371 0.3776,-0.29178 0.78953,-0.48059 0.41193,-0.1888 0.84102,-0.27462 0.44626,-0.0858 0.84102,-0.0858 0.94401,0 1.71638,0.32611 0.78953,0.30894 1.35593,0.87535 0.5664,0.5664 0.87535,1.33877 0.32611,0.77236 0.32611,1.68204 0,0.90968 -0.32611,1.68205 -0.30895,0.77236 -0.87535,1.33877 -0.5664,0.5664 -1.35593,0.89251 -0.77237,0.30895 -1.71638,0.30895 -0.39476,0 -0.84102,-0.0858 -0.42909,-0.0858 -0.84102,-0.27462 -0.41193,-0.1888 -0.78953,-0.48058 -0.3776,-0.29179 -0.65222,-0.70372 l -0.0343,0 0,6.28193 -1.13281,0 0,-12.97578 z" />
      <path
         id="path4373"
         style="text-align:center;text-anchor:middle"
         d="m 476.34796,256.39601 q 0,0.66939 0.20596,1.25295 0.22313,0.58357 0.6179,1.01266 0.39476,0.4291 0.944,0.68655 0.5664,0.24029 1.27012,0.24029 0.68655,0 1.27011,-0.24029 0.60073,-0.25745 1.02983,-0.68655 0.42909,-0.42909 0.66938,-1.01266 0.24029,-0.58356 0.24029,-1.25295 0,-0.66938 -0.24029,-1.25295 -0.24029,-0.58357 -0.66938,-1.01266 -0.4291,-0.42909 -1.02983,-0.66938 -0.58356,-0.25746 -1.27011,-0.25746 -0.70372,0 -1.27012,0.25746 -0.54924,0.24029 -0.944,0.66938 -0.39477,0.42909 -0.6179,1.01266 -0.20596,0.58357 -0.20596,1.25295 z m 7.32891,4.01631 -1.13281,0 0,-1.33877 -0.0343,0 q -0.27462,0.41193 -0.65222,0.70372 -0.3776,0.29178 -0.78953,0.48058 -0.41193,0.1888 -0.85818,0.27462 -0.4291,0.0858 -0.82386,0.0858 -0.94401,0 -1.73354,-0.30895 -0.77237,-0.32611 -1.33877,-0.89251 -0.5664,-0.56641 -0.89251,-1.33877 -0.30895,-0.77237 -0.30895,-1.68205 0,-0.90968 0.30895,-1.68204 0.32611,-0.77237 0.89251,-1.33877 0.5664,-0.56641 1.33877,-0.87535 0.78953,-0.32611 1.73354,-0.32611 0.39476,0 0.82386,0.0858 0.44625,0.0858 0.85818,0.27462 0.41193,0.18881 0.78953,0.48059 0.3776,0.29178 0.65222,0.70371 l 0.0343,0 0,-6.28192 1.13281,0 0,12.97577 z" />
      <path
         id="path4375"
         style="text-align:center;text-anchor:middle"
         d="m 490.6861,256.41318 q -0.42909,0 -1.08131,0.0515 -0.63506,0.0343 -1.23579,0.20596 -0.58357,0.15447 -1.01266,0.49775 -0.41193,0.34327 -0.41193,0.944 0,0.39477 0.15447,0.68655 0.17164,0.27462 0.44626,0.46342 0.27462,0.17164 0.60073,0.25746 0.34328,0.0686 0.68655,0.0686 0.61789,0 1.06415,-0.20596 0.46342,-0.20597 0.77237,-0.54924 0.30895,-0.36044 0.44626,-0.82386 0.15447,-0.48058 0.15447,-1.01266 l 0,-0.58356 -0.58357,0 z m 0.58357,-0.92685 0,-0.20596 q 0,-2.07681 -2.05965,-2.07681 -1.40742,0 -2.45441,0.944 l -0.68655,-0.80669 q 1.13281,-1.16713 3.39842,-1.16713 0.58356,0 1.11564,0.17163 0.54924,0.17164 0.944,0.53208 0.39477,0.34327 0.63506,0.87535 0.24029,0.53207 0.24029,1.27011 l 0,3.58722 q 0,0.46342 0.0343,0.97833 0.0515,0.49775 0.10298,0.82386 l -1.09847,0 q -0.0515,-0.29178 -0.0858,-0.63505 -0.0172,-0.34328 -0.0172,-0.66939 l -0.0343,0 q -0.49775,0.8067 -1.1843,1.16713 -0.66939,0.34328 -1.64772,0.34328 -0.53207,0 -1.02982,-0.15448 -0.49775,-0.13731 -0.89252,-0.42909 -0.3776,-0.30895 -0.61789,-0.73804 -0.22313,-0.44626 -0.22313,-1.02982 0,-0.97833 0.49775,-1.52757 0.51491,-0.56641 1.27012,-0.84103 0.77236,-0.27462 1.63055,-0.34327 0.87535,-0.0687 1.59623,-0.0687 l 0.5664,0 z" />
      <path
         id="path4377"
         style="text-align:center;text-anchor:middle"
         d="m 499.19126,253.40952 -2.3171,0 0,4.73719 q 0,0.44626 0.0858,0.73804 0.0858,0.27462 0.24029,0.42909 0.15448,0.15448 0.36044,0.22313 0.22313,0.0515 0.48058,0.0515 0.29179,0 0.60073,-0.0858 0.30895,-0.0858 0.56641,-0.22313 l 0.0515,1.04698 q -0.63506,0.29179 -1.52757,0.29179 -0.32611,0 -0.68655,-0.0858 -0.34328,-0.0858 -0.63506,-0.32611 -0.29178,-0.24029 -0.48058,-0.65222 -0.1888,-0.41193 -0.1888,-1.08132 l 0,-5.0633 -1.69921,0 0,-1.02982 1.69921,0 0,-2.26561 1.1328,0 0,2.26561 2.3171,0 0,1.02982 z" />
      <path
         id="path4379"
         style="text-align:center;text-anchor:middle"
         d="m 506.98413,255.77812 q 0,-1.14997 -0.68655,-1.85368 -0.68655,-0.72088 -1.92234,-0.72088 -0.54924,0 -1.06415,0.22313 -0.51491,0.20596 -0.90968,0.5664 -0.3776,0.36044 -0.61789,0.82386 -0.22313,0.46342 -0.22313,0.96117 l 5.42374,0 z m -5.45806,0.92684 q 0.0515,0.60073 0.29178,1.1328 0.24029,0.53208 0.63506,0.92685 0.39476,0.3776 0.90967,0.60073 0.51492,0.22312 1.11565,0.22312 0.90967,0 1.56189,-0.41193 0.66939,-0.42909 1.01266,-0.97833 l 0.87535,0.72088 q -0.72087,0.90968 -1.59622,1.30444 -0.85819,0.39477 -1.85368,0.39477 -0.89252,0 -1.66489,-0.30895 -0.7552,-0.32611 -1.30444,-0.89251 -0.54924,-0.56641 -0.87535,-1.33877 -0.30895,-0.77237 -0.30895,-1.68205 0,-0.90968 0.30895,-1.68204 0.30895,-0.77237 0.85819,-1.33877 0.54924,-0.56641 1.28728,-0.87535 0.73804,-0.32611 1.59622,-0.32611 0.90968,0 1.63056,0.32611 0.72087,0.32611 1.20146,0.87535 0.49775,0.53207 0.7552,1.27011 0.25746,0.72088 0.25746,1.54474 l 0,0.51491 -6.69385,0 z" />
    </g>
    <g
       id="text6554-2-7-1"
       style="font-style:normal;font-variant:normal;font-weight:normal;font-stretch:normal;font-size:17.16372299px;line-height:125%;font-family:Avenir;-inkscape-font-specification:Avenir;text-align:start;letter-spacing:0px;word-spacing:0px;writing-mode:lr-tb;text-anchor:start;fill:#000000;fill-opacity:1;stroke:none;stroke-width:1px;stroke-linecap:butt;stroke-linejoin:miter;stroke-opacity:1">
      <path
         id="path4356"
         style="text-align:center;text-anchor:middle"
         d="m 411.30221,313.28856 0.0343,0 0,-10.29823 1.23578,0 0,12.15191 -1.54473,0 -7.24309,-10.40121 -0.0343,0 0,10.40121 -1.23579,0 0,-12.15191 1.54474,0 7.24309,10.29823 z" />
      <path
         id="path4358"
         style="text-align:center;text-anchor:middle"
         d="m 422.32722,311.12593 q 0,-0.66938 -0.22313,-1.25295 -0.20596,-0.58357 -0.60073,-1.01266 -0.39477,-0.42909 -0.96117,-0.66939 -0.54924,-0.25745 -1.25295,-0.25745 -0.70371,0 -1.27012,0.25745 -0.54923,0.2403 -0.944,0.66939 -0.3776,0.42909 -0.60073,1.01266 -0.20597,0.58357 -0.20597,1.25295 0,0.66939 0.20597,1.25295 0.22313,0.58357 0.60073,1.01266 0.39477,0.4291 0.944,0.68655 0.56641,0.24029 1.27012,0.24029 0.70371,0 1.25295,-0.24029 0.5664,-0.25745 0.96117,-0.68655 0.39477,-0.42909 0.60073,-1.01266 0.22313,-0.58356 0.22313,-1.25295 z m 1.23579,0 q 0,0.90968 -0.32611,1.68205 -0.30895,0.77236 -0.87535,1.33877 -0.56641,0.5664 -1.35594,0.89251 -0.77237,0.30895 -1.71637,0.30895 -0.92684,0 -1.71637,-0.30895 -0.77237,-0.32611 -1.33877,-0.89251 -0.56641,-0.56641 -0.89252,-1.33877 -0.30894,-0.77237 -0.30894,-1.68205 0,-0.90968 0.30894,-1.68204 0.32611,-0.77237 0.89252,-1.33877 0.5664,-0.56641 1.33877,-0.87535 0.78953,-0.32611 1.71637,-0.32611 0.944,0 1.71637,0.32611 0.78953,0.30894 1.35594,0.87535 0.5664,0.5664 0.87535,1.33877 0.32611,0.77236 0.32611,1.68204 z" />
      <path
         id="path4360"
         style="text-align:center;text-anchor:middle"
         d="m 429.78915,308.13944 -2.31711,0 0,4.73719 q 0,0.44626 0.0858,0.73804 0.0858,0.27462 0.2403,0.42909 0.15447,0.15448 0.36043,0.22313 0.22313,0.0515 0.48059,0.0515 0.29178,0 0.60073,-0.0858 0.30895,-0.0858 0.5664,-0.22313 l 0.0515,1.04698 q -0.63506,0.29179 -1.52757,0.29179 -0.32611,0 -0.68655,-0.0858 -0.34327,-0.0858 -0.63506,-0.32611 -0.29178,-0.24029 -0.48058,-0.65222 -0.1888,-0.41193 -0.1888,-1.08132 l 0,-5.0633 -1.69921,0 0,-1.02982 1.69921,0 0,-2.26561 1.1328,0 0,2.26561 2.31711,0 0,1.02982 z" />
      <path
         id="path4362"
         style="text-align:center;text-anchor:middle"
         d="m 432.98214,304.02015 q 0,0.36044 -0.25746,0.60073 -0.25746,0.22313 -0.5664,0.22313 -0.30895,0 -0.5664,-0.22313 -0.25746,-0.24029 -0.25746,-0.60073 0,-0.36044 0.25746,-0.58357 0.25745,-0.24029 0.5664,-0.24029 0.30894,0 0.5664,0.24029 0.25746,0.22313 0.25746,0.58357 z m -0.25746,11.12209 -1.1328,0 0,-8.03262 1.1328,0 0,8.03262 z" />
      <path
         id="path4364"
         style="text-align:center;text-anchor:middle"
         d="m 439.19943,308.13944 -1.90518,0 0,7.0028 -1.1328,0 0,-7.0028 -1.69921,0 0,-1.02982 1.69921,0 0,-2.19696 q 0,-1.59622 0.73804,-2.26561 0.73804,-0.68655 1.95666,-0.68655 0.24029,0 0.48059,0.0343 0.25745,0.0343 0.49774,0.0858 l -0.20596,1.02982 q -0.20596,-0.0515 -0.42909,-0.0858 -0.22313,-0.0343 -0.44626,-0.0343 -0.46342,0 -0.7552,0.15447 -0.29179,0.15447 -0.44626,0.44626 -0.15447,0.27462 -0.20597,0.65222 -0.0515,0.3776 -0.0515,0.80669 l 0,2.05965 1.90518,0 0,1.02982 z" />
      <path
         id="path4366"
         style="text-align:center;text-anchor:middle"
         d="m 443.50618,313.75198 2.45441,-6.64236 1.3731,0 -4.01631,10.1266 q -0.36044,0.92684 -0.92684,1.47608 -0.54924,0.54924 -1.59623,0.54924 -0.25745,0 -0.53207,-0.0172 -0.25746,-0.0172 -0.51491,-0.10298 l 0.12014,-1.09848 q 0.36044,0.1888 0.85819,0.1888 0.60073,0 0.944,-0.3776 0.34328,-0.3776 0.60073,-1.06415 l 0.58357,-1.54474 -3.29544,-8.1356 1.42459,0 2.52307,6.64236 z" />
    </g>
  </g>
</svg>
