<?xml version="1.0" encoding="UTF-8" standalone="no"?>
<svg
   xmlns:dc="http://purl.org/dc/elements/1.1/"
   xmlns:cc="http://creativecommons.org/ns#"
   xmlns:rdf="http://www.w3.org/1999/02/22-rdf-syntax-ns#"
   xmlns:svg="http://www.w3.org/2000/svg"
   xmlns="http://www.w3.org/2000/svg"
   version="1.1"
   id="svg2"
   viewBox="0 0 483.39242 198.78572"
   height="56.101746mm"
   width="136.42409mm">
  <defs
     id="defs4" />
  <metadata
     id="metadata7">
    <rdf:RDF>
      <cc:Work
         rdf:about="">
        <dc:format>image/svg+xml</dc:format>
        <dc:type
           rdf:resource="http://purl.org/dc/dcmitype/StillImage" />
        <dc:title></dc:title>
      </cc:Work>
    </rdf:RDF>
  </metadata>
  <g
     transform="translate(-110.80247,-426.56958)"
     id="layer1">
    <path
       id="path4144"
       d="m 397.57434,477.56958 a 25,25 0 0 1 -25,-25 25,25 0 0 1 25,-25 25,25 0 0 1 25,25 25,25 0 0 1 -25,25 z"
       style="opacity:1;fill:#ffffff;fill-opacity:0.14649682;stroke:#000000;stroke-width:2;stroke-linecap:round;stroke-linejoin:round;stroke-miterlimit:4;stroke-dasharray:none;stroke-dashoffset:0;stroke-opacity:1" />
    <path
       id="path4144-1"
       d="m 396.5029,624.35531 a 25,25 0 0 1 -25,-25 25,25 0 0 1 25,-25 25,25 0 0 1 25,25 25,25 0 0 1 -25,25 z"
       style="opacity:1;fill:#ffffff;fill-opacity:0.14649682;stroke:#000000;stroke-width:2;stroke-linecap:round;stroke-linejoin:round;stroke-miterlimit:4;stroke-dasharray:none;stroke-dashoffset:0;stroke-opacity:1" />
    <g
       id="text4183"
       style="font-style:normal;font-variant:normal;font-weight:normal;font-stretch:normal;font-size:22px;line-height:125%;font-family:Avenir;-inkscape-font-specification:Avenir;text-align:center;letter-spacing:0px;word-spacing:0px;writing-mode:lr-tb;text-anchor:middle;fill:#000000;fill-opacity:1;stroke:none;stroke-width:1px;stroke-linecap:butt;stroke-linejoin:miter;stroke-opacity:1"
       transform="matrix(0,1,-1,0,15.224108,0)">
      <path
         id="path4476"
         d="m 526.72575,-292.9257 4.95,0 0,1.32 -4.95,0 0,4.95 -1.32,0 0,-4.95 -4.95,0 0,-1.32 4.95,0 0,-4.95 1.32,0 0,4.95 z" />
    </g>
    <g
       transform="translate(-72.633035,0)"
       id="text4187"
       style="font-style:normal;font-variant:normal;font-weight:normal;font-stretch:normal;font-size:22px;line-height:125%;font-family:Avenir;-inkscape-font-specification:Avenir;text-align:center;letter-spacing:0px;word-spacing:0px;writing-mode:lr-tb;text-anchor:middle;fill:#000000;fill-opacity:1;stroke:none;stroke-width:1px;stroke-linecap:butt;stroke-linejoin:miter;stroke-opacity:1">
      <path
         id="path4479"
         d="m 473.17935,459.92084 -1.584,0 0,-13.596 -2.794,2.464 -0.99,-1.188 3.96,-3.256 1.408,0 0,15.576 z" />
    </g>
    <path
       id="path4195-7"
       d="m 379.71721,470.24815 -51.42857,39.28571"
       style="color:#000000;clip-rule:nonzero;display:inline;overflow:visible;visibility:visible;opacity:1;isolation:auto;mix-blend-mode:normal;color-interpolation:sRGB;color-interpolation-filters:linearRGB;solid-color:#000000;solid-opacity:1;fill:none;fill-opacity:1;fill-rule:evenodd;stroke:#000000;stroke-width:2;stroke-linecap:butt;stroke-linejoin:miter;stroke-miterlimit:4;stroke-dasharray:none;stroke-dashoffset:0;stroke-opacity:1;color-rendering:auto;image-rendering:auto;shape-rendering:auto;text-rendering:auto;enable-background:accumulate" />
    <path
       id="path4195-7-5"
       d="M 379.00292,580.96243 327.57435,541.67672"
       style="color:#000000;clip-rule:nonzero;display:inline;overflow:visible;visibility:visible;opacity:1;isolation:auto;mix-blend-mode:normal;color-interpolation:sRGB;color-interpolation-filters:linearRGB;solid-color:#000000;solid-opacity:1;fill:none;fill-opacity:1;fill-rule:evenodd;stroke:#000000;stroke-width:2;stroke-linecap:butt;stroke-linejoin:miter;stroke-miterlimit:4;stroke-dasharray:none;stroke-dashoffset:0;stroke-opacity:1;color-rendering:auto;image-rendering:auto;shape-rendering:auto;text-rendering:auto;enable-background:accumulate" />
    <g
       transform="translate(-29.775892,23.571429)"
       id="text4227"
       style="font-style:normal;font-variant:normal;font-weight:normal;font-stretch:normal;font-size:22px;line-height:125%;font-family:Avenir;-inkscape-font-specification:Avenir;text-align:center;letter-spacing:0px;word-spacing:0px;writing-mode:lr-tb;text-anchor:middle;fill:#000000;fill-opacity:1;stroke:none;stroke-width:1px;stroke-linecap:butt;stroke-linejoin:miter;stroke-opacity:1">
      <path
         id="path4485"
         d="m 333.00224,548.49695 -1.584,0 0,-14.124 -5.214,0 0,-1.452 12.012,0 0,1.452 -5.214,0 0,14.124 z" />
      <path
         id="path4487"
         d="m 344.64505,534.10895 q -1.276,0 -2.024,0.682 -0.726,0.682 -1.1,1.694 -0.374,1.012 -0.484,2.156 -0.088,1.144 -0.088,2.068 0,0.924 0.088,2.068 0.11,1.144 0.484,2.156 0.374,1.012 1.1,1.694 0.748,0.682 2.024,0.682 1.276,0 2.002,-0.682 0.748,-0.682 1.122,-1.694 0.374,-1.012 0.462,-2.156 0.11,-1.144 0.11,-2.068 0,-0.924 -0.11,-2.068 -0.088,-1.144 -0.462,-2.156 -0.374,-1.012 -1.122,-1.694 -0.726,-0.682 -2.002,-0.682 z m 0,-1.452 q 1.672,0 2.706,0.77 1.034,0.77 1.606,1.958 0.572,1.188 0.77,2.618 0.198,1.408 0.198,2.706 0,1.298 -0.198,2.728 -0.198,1.408 -0.77,2.596 -0.572,1.188 -1.606,1.958 -1.034,0.77 -2.706,0.77 -1.672,0 -2.706,-0.77 -1.034,-0.77 -1.606,-1.958 -0.572,-1.188 -0.77,-2.596 -0.198,-1.43 -0.198,-2.728 0,-1.298 0.198,-2.706 0.198,-1.43 0.77,-2.618 0.572,-1.188 1.606,-1.958 1.034,-0.77 2.706,-0.77 z" />
    </g>
    <g
       transform="translate(-46.918749,-8.5714286)"
       id="text4227-4"
       style="font-style:normal;font-variant:normal;font-weight:normal;font-stretch:normal;font-size:22px;line-height:125%;font-family:Avenir;-inkscape-font-specification:Avenir;text-align:center;letter-spacing:0px;word-spacing:0px;writing-mode:lr-tb;text-anchor:middle;fill:#000000;fill-opacity:1;stroke:none;stroke-width:1px;stroke-linecap:butt;stroke-linejoin:miter;stroke-opacity:1">
      <path
         id="path4490"
         d="m 440.16011,506.78796 -1.584,0 0,-14.124 -5.214,0 0,-1.452 12.012,0 0,1.452 -5.214,0 0,14.124 z" />
      <path
         id="path4492"
         d="m 453.34292,506.78796 -1.584,0 0,-13.596 -2.794,2.464 -0.99,-1.188 3.96,-3.256 1.408,0 0,15.576 z" />
    </g>
    <g
       transform="translate(36.226678,8.5714291)"
       id="text4227-5"
       style="font-style:normal;font-variant:normal;font-weight:normal;font-stretch:normal;font-size:22px;line-height:125%;font-family:Avenir;-inkscape-font-specification:Avenir;text-align:center;letter-spacing:0px;word-spacing:0px;writing-mode:lr-tb;text-anchor:middle;fill:#000000;fill-opacity:1;stroke:none;stroke-width:1px;stroke-linecap:butt;stroke-linejoin:miter;stroke-opacity:1">
      <path
         id="path4495"
         d="m 438.28496,559.28424 -1.584,0 0,-14.124 -5.214,0 0,-1.452 12.012,0 0,1.452 -5.214,0 0,14.124 z" />
      <path
         id="path4497"
         d="m 454.76777,559.28424 -9.9,0 0,-1.826 6.204,-6.314 q 0.352,-0.352 0.704,-0.748 0.352,-0.396 0.638,-0.836 0.286,-0.44 0.462,-0.924 0.176,-0.484 0.176,-1.012 0,-0.638 -0.242,-1.144 -0.22,-0.506 -0.638,-0.858 -0.418,-0.352 -0.968,-0.528 -0.55,-0.198 -1.166,-0.198 -1.188,0 -2.024,0.66 -0.836,0.66 -1.078,1.782 l -1.672,-0.176 q 0.33,-1.738 1.584,-2.728 1.276,-0.99 3.08,-0.99 0.946,0 1.782,0.264 0.858,0.242 1.496,0.748 0.66,0.506 1.034,1.276 0.396,0.748 0.396,1.76 0,0.902 -0.286,1.65 -0.264,0.748 -0.704,1.408 -0.44,0.66 -1.012,1.254 -0.55,0.594 -1.144,1.166 l -4.906,4.862 8.184,0 0,1.452 z" />
    </g>
    <path
       id="path4144-9-0"
       d="m 333.61965,525.4129 a 25,25 0 0 1 -25,25 25,25 0 0 1 -25,-25 25,25 0 0 1 25,-25 25,25 0 0 1 25,25 z"
       style="opacity:1;fill:#ffffff;fill-opacity:0.14649682;stroke:#000000;stroke-width:2;stroke-linecap:round;stroke-linejoin:round;stroke-miterlimit:4;stroke-dasharray:none;stroke-dashoffset:0;stroke-opacity:1" />
    <path
       id="path4144-9-0-8"
       d="m 223.16536,550.91797 a 25,25 0 0 1 -25,-25 25,25 0 0 1 25,-25 25,25 0 0 1 25,25 25,25 0 0 1 -25,25 z"
       style="opacity:1;fill:#ffffff;fill-opacity:0.14649682;stroke:#000000;stroke-width:2;stroke-linecap:round;stroke-linejoin:round;stroke-miterlimit:4;stroke-dasharray:none;stroke-dashoffset:0;stroke-opacity:1" />
    <g
       transform="translate(231.2004,18.861747)"
       id="text4227-7-0"
       style="font-style:normal;font-variant:normal;font-weight:normal;font-stretch:normal;font-size:22px;line-height:125%;font-family:Avenir;-inkscape-font-specification:Avenir;text-align:center;letter-spacing:0px;word-spacing:0px;writing-mode:lr-tb;text-anchor:middle;fill:#000000;fill-opacity:1;stroke:none;stroke-width:1px;stroke-linecap:butt;stroke-linejoin:miter;stroke-opacity:1">
      <path
         id="path4507"
         d="m 158.85753,549.81171 -1.584,0 0,-14.124 -5.214,0 0,-1.452 12.012,0 0,1.452 -5.214,0 0,14.124 z" />
      <path
         id="path4509"
         d="m 171.95234,535.81971 -0.044,0 -5.368,8.844 5.412,0 0,-8.844 z m 1.584,8.844 2.244,0 0,1.452 -2.244,0 0,3.696 -1.584,0 0,-3.696 -6.732,0 0,-1.804 6.292,-10.076 2.024,0 0,10.428 z" />
    </g>
    <path
       id="path4144-9-0-8-0"
       d="m 136.80245,551.42303 a 25,25 0 0 1 -25,-25 25,25 0 0 1 25,-25 25,25 0 0 1 25,25 25,25 0 0 1 -25,25 z"
       style="opacity:1;fill:#ffffff;fill-opacity:0.14649682;stroke:#000000;stroke-width:2;stroke-linecap:round;stroke-linejoin:round;stroke-miterlimit:4;stroke-dasharray:none;stroke-dashoffset:0;stroke-opacity:1" />
    <g
       transform="translate(15.224108,0)"
       id="text4179"
       style="font-style:normal;font-variant:normal;font-weight:normal;font-stretch:normal;font-size:22px;line-height:125%;font-family:Avenir;-inkscape-font-specification:Avenir;text-align:center;letter-spacing:0px;word-spacing:0px;writing-mode:lr-tb;text-anchor:middle;fill:#000000;fill-opacity:1;stroke:none;stroke-width:1px;stroke-linecap:butt;stroke-linejoin:miter;stroke-opacity:1">
      <path
         id="path4513"
         d="m 213.67581,528.17404 0,1.32 -11.22,0 0,-1.32 11.22,0 z m 0,-3.3 0,1.32 -11.22,0 0,-1.32 11.22,0 z" />
    </g>
    <path
       id="path4449"
       d="m 162.00982,525.93363 36.42857,0"
       style="color:#000000;clip-rule:nonzero;display:inline;overflow:visible;visibility:visible;opacity:1;isolation:auto;mix-blend-mode:normal;color-interpolation:sRGB;color-interpolation-filters:linearRGB;solid-color:#000000;solid-opacity:1;fill:none;fill-opacity:1;fill-rule:evenodd;stroke:#000000;stroke-width:2;stroke-linecap:butt;stroke-linejoin:miter;stroke-miterlimit:4;stroke-dasharray:none;stroke-dashoffset:0;stroke-opacity:1;color-rendering:auto;image-rendering:auto;shape-rendering:auto;text-rendering:auto;enable-background:accumulate" />
    <path
       id="path4449-4"
       d="m 248.08125,525.93363 36.42857,0"
       style="color:#000000;clip-rule:nonzero;display:inline;overflow:visible;visibility:visible;opacity:1;isolation:auto;mix-blend-mode:normal;color-interpolation:sRGB;color-interpolation-filters:linearRGB;solid-color:#000000;solid-opacity:1;fill:none;fill-opacity:1;fill-rule:evenodd;stroke:#000000;stroke-width:2;stroke-linecap:butt;stroke-linejoin:miter;stroke-miterlimit:4;stroke-dasharray:none;stroke-dashoffset:0;stroke-opacity:1;color-rendering:auto;image-rendering:auto;shape-rendering:auto;text-rendering:auto;enable-background:accumulate" />
    <g
       transform="translate(-39.06161,0)"
       id="text4687"
       style="font-style:normal;font-variant:normal;font-weight:normal;font-stretch:normal;font-size:22px;line-height:125%;font-family:Avenir;-inkscape-font-specification:Avenir;text-align:center;letter-spacing:0px;word-spacing:0px;writing-mode:lr-tb;text-anchor:middle;fill:#000000;fill-opacity:1;stroke:none;stroke-width:1px;stroke-linecap:butt;stroke-linejoin:miter;stroke-opacity:1">
      <path
         id="path4692"
         d="m 178.39521,526.67814 q -0.55,0 -1.386,0.066 -0.814,0.044 -1.584,0.264 -0.748,0.198 -1.298,0.638 -0.528,0.44 -0.528,1.21 0,0.506 0.198,0.88 0.22,0.352 0.572,0.594 0.352,0.22 0.77,0.33 0.44,0.088 0.88,0.088 0.792,0 1.364,-0.264 0.594,-0.264 0.99,-0.704 0.396,-0.462 0.572,-1.056 0.198,-0.616 0.198,-1.298 l 0,-0.748 -0.748,0 z m 0.748,-1.188 0,-0.264 q 0,-2.662 -2.64,-2.662 -1.804,0 -3.146,1.21 l -0.88,-1.034 q 1.452,-1.496 4.356,-1.496 0.748,0 1.43,0.22 0.704,0.22 1.21,0.682 0.506,0.44 0.814,1.122 0.308,0.682 0.308,1.628 l 0,4.598 q 0,0.594 0.044,1.254 0.066,0.638 0.132,1.056 l -1.408,0 q -0.066,-0.374 -0.11,-0.814 -0.022,-0.44 -0.022,-0.858 l -0.044,0 q -0.638,1.034 -1.518,1.496 -0.858,0.44 -2.112,0.44 -0.682,0 -1.32,-0.198 -0.638,-0.176 -1.144,-0.55 -0.484,-0.396 -0.792,-0.946 -0.286,-0.572 -0.286,-1.32 0,-1.254 0.638,-1.958 0.66,-0.726 1.628,-1.078 0.99,-0.352 2.09,-0.44 1.122,-0.088 2.046,-0.088 l 0.726,0 z" />
    </g>
    <path
       id="path4144-9-0-2"
       d="m 507.01221,599.27466 a 25.000001,25.000001 0 0 1 -25,25 25.000001,25.000001 0 0 1 -25,-25 25.000001,25.000001 0 0 1 25,-25 25.000001,25.000001 0 0 1 25,25 z"
       style="opacity:1;fill:#ffffff;fill-opacity:0.14649682;stroke:#000000;stroke-width:2;stroke-linecap:round;stroke-linejoin:round;stroke-miterlimit:4;stroke-dasharray:none;stroke-dashoffset:0;stroke-opacity:1" />
    <path
       id="path4449-4-4"
       d="m 421.4738,599.79539 36.42858,0"
       style="color:#000000;clip-rule:nonzero;display:inline;overflow:visible;visibility:visible;opacity:1;isolation:auto;mix-blend-mode:normal;color-interpolation:sRGB;color-interpolation-filters:linearRGB;solid-color:#000000;solid-opacity:1;fill:none;fill-opacity:1;fill-rule:evenodd;stroke:#000000;stroke-width:2;stroke-linecap:butt;stroke-linejoin:miter;stroke-miterlimit:4;stroke-dasharray:none;stroke-dashoffset:0;stroke-opacity:1;color-rendering:auto;image-rendering:auto;shape-rendering:auto;text-rendering:auto;enable-background:accumulate" />
    <g
       transform="translate(35.871373,9.1294518)"
       id="text4227-5-6"
       style="font-style:normal;font-variant:normal;font-weight:normal;font-stretch:normal;font-size:22px;line-height:125%;font-family:Avenir;-inkscape-font-specification:Avenir;text-align:center;letter-spacing:0px;word-spacing:0px;writing-mode:lr-tb;text-anchor:middle;fill:#000000;fill-opacity:1;stroke:none;stroke-width:1px;stroke-linecap:butt;stroke-linejoin:miter;stroke-opacity:1" />
    <g
       transform="translate(47.431955,0)"
       id="text4811"
       style="font-style:normal;font-variant:normal;font-weight:normal;font-stretch:normal;font-size:22px;line-height:125%;font-family:Avenir;-inkscape-font-specification:Avenir;text-align:center;letter-spacing:0px;word-spacing:0px;writing-mode:lr-tb;text-anchor:middle;fill:#000000;fill-opacity:1;stroke:none;stroke-width:1px;stroke-linecap:butt;stroke-linejoin:miter;stroke-opacity:1">
      <path
         id="path4816"
         d="m 430.10541,598.99863 11,0 0,1.1 -11,0 0,-1.1 z" />
    </g>
    <g
       transform="translate(52.454162,-6.138253)"
       id="text4818"
       style="font-style:normal;font-variant:normal;font-weight:normal;font-stretch:normal;font-size:22px;line-height:125%;font-family:Avenir;-inkscape-font-specification:Avenir;text-align:center;letter-spacing:0px;word-spacing:0px;writing-mode:lr-tb;text-anchor:middle;fill:#000000;fill-opacity:1;stroke:none;stroke-width:1px;stroke-linecap:butt;stroke-linejoin:miter;stroke-opacity:1">
      <path
         id="path4823"
         d="m 164.66653,577.36218 -1.584,0 0,-14.124 -5.214,0 0,-1.452 12.012,0 0,1.452 -5.214,0 0,14.124 z" />
      <path
         id="path4825"
         d="m 180.42334,563.23818 -6.38,0 -0.088,4.686 q 0.506,-0.198 1.034,-0.286 0.528,-0.088 1.056,-0.088 1.1,0 2.002,0.374 0.902,0.374 1.54,1.056 0.66,0.66 1.012,1.584 0.374,0.902 0.374,1.98 0,1.122 -0.396,2.068 -0.396,0.924 -1.1,1.606 -0.704,0.66 -1.672,1.034 -0.946,0.374 -2.068,0.374 -1.474,0 -2.662,-0.704 -1.188,-0.704 -1.826,-2.068 l 1.562,-0.682 q 0.44,0.924 1.232,1.474 0.792,0.528 1.826,0.528 0.748,0 1.386,-0.264 0.638,-0.286 1.1,-0.748 0.484,-0.462 0.748,-1.1 0.286,-0.638 0.286,-1.364 0,-0.814 -0.286,-1.496 -0.286,-0.682 -0.792,-1.166 -0.506,-0.506 -1.21,-0.77 -0.704,-0.264 -1.54,-0.264 -0.836,0 -1.672,0.242 -0.814,0.22 -1.562,0.616 l 0.154,-8.074 7.942,0 0,1.452 z" />
    </g>
    <g
       transform="translate(98.92713,1.6522721)"
       id="text4191-4"
       style="font-style:normal;font-variant:normal;font-weight:normal;font-stretch:normal;font-size:22px;line-height:125%;font-family:Avenir;-inkscape-font-specification:Avenir;text-align:center;letter-spacing:0px;word-spacing:0px;writing-mode:lr-tb;text-anchor:middle;fill:#000000;fill-opacity:1;stroke:none;stroke-width:1px;stroke-linecap:butt;stroke-linejoin:miter;stroke-opacity:1">
      <path
         id="path4482-9"
         d="m 474.14878,604.30109 -9.9,0 0,-1.826 6.204,-6.314 q 0.352,-0.352 0.704,-0.748 0.352,-0.396 0.638,-0.836 0.286,-0.44 0.462,-0.924 0.176,-0.484 0.176,-1.012 0,-0.638 -0.242,-1.144 -0.22,-0.506 -0.638,-0.858 -0.418,-0.352 -0.968,-0.528 -0.55,-0.198 -1.166,-0.198 -1.188,0 -2.024,0.66 -0.836,0.66 -1.078,1.782 l -1.672,-0.176 q 0.33,-1.738 1.584,-2.728 1.276,-0.99 3.08,-0.99 0.946,0 1.782,0.264 0.858,0.242 1.496,0.748 0.66,0.506 1.034,1.276 0.396,0.748 0.396,1.76 0,0.902 -0.286,1.65 -0.264,0.748 -0.704,1.408 -0.44,0.66 -1.012,1.254 -0.55,0.594 -1.144,1.166 l -4.906,4.862 8.184,0 0,1.452 z" />
    </g>
    <g
       transform="translate(320.17318,18.304132)"
       id="text4227-7-3"
       style="font-style:normal;font-variant:normal;font-weight:normal;font-stretch:normal;font-size:22px;line-height:125%;font-family:Avenir;-inkscape-font-specification:Avenir;text-align:center;letter-spacing:0px;word-spacing:0px;writing-mode:lr-tb;text-anchor:middle;fill:#000000;fill-opacity:1;stroke:none;stroke-width:1px;stroke-linecap:butt;stroke-linejoin:miter;stroke-opacity:1">
      <path
         id="path4502-2"
         d="m 241.52597,550.07477 -1.584,0 0,-14.124 -5.214,0 0,-1.452 12.012,0 0,1.452 -5.214,0 0,14.124 z" />
      <path
         id="path4504-6"
         d="m 251.54078,541.18677 0.814,0 q 0.682,0 1.298,-0.154 0.638,-0.154 1.1,-0.484 0.462,-0.352 0.726,-0.902 0.286,-0.55 0.286,-1.32 0,-1.254 -0.77,-1.936 -0.748,-0.704 -2.112,-0.704 -0.99,0 -1.738,0.44 -0.748,0.44 -1.232,1.276 l -1.386,-0.704 q 0.704,-1.254 1.782,-1.848 1.1,-0.616 2.53,-0.616 0.924,0 1.738,0.264 0.814,0.264 1.43,0.792 0.616,0.506 0.968,1.276 0.374,0.748 0.374,1.716 0,0.638 -0.22,1.21 -0.198,0.572 -0.572,1.034 -0.352,0.462 -0.836,0.814 -0.484,0.33 -1.012,0.506 l 0.066,0.044 q 0.66,0.132 1.21,0.506 0.55,0.352 0.946,0.88 0.396,0.528 0.616,1.188 0.22,0.66 0.22,1.386 0,1.078 -0.396,1.914 -0.396,0.836 -1.078,1.408 -0.682,0.572 -1.584,0.88 -0.902,0.286 -1.914,0.286 -1.716,0 -2.992,-0.748 -1.276,-0.748 -1.914,-2.398 l 1.672,-0.506 q 0.396,1.122 1.166,1.672 0.792,0.528 2.2,0.528 0.66,0 1.254,-0.22 0.594,-0.22 1.034,-0.616 0.462,-0.418 0.704,-0.99 0.264,-0.572 0.264,-1.254 0,-0.88 -0.33,-1.474 -0.33,-0.616 -0.88,-0.99 -0.55,-0.374 -1.276,-0.528 -0.704,-0.176 -1.474,-0.176 l -0.682,0 0,-1.452 z" />
    </g>
    <path
       id="path4144-9-0-2-6"
       d="m 593.19489,599.18587 a 25.000002,25.000002 0 0 1 -25,25 25.000002,25.000002 0 0 1 -25,-25 25.000002,25.000002 0 0 1 25,-25 25.000002,25.000002 0 0 1 25,25 z"
       style="opacity:1;fill:#ffffff;fill-opacity:0.14649682;stroke:#000000;stroke-width:2;stroke-linecap:round;stroke-linejoin:round;stroke-miterlimit:4;stroke-dasharray:none;stroke-dashoffset:0;stroke-opacity:1" />
    <path
       id="path4449-4-4-4"
       d="m 507.65648,599.7066 36.42858,0"
       style="color:#000000;clip-rule:nonzero;display:inline;overflow:visible;visibility:visible;opacity:1;isolation:auto;mix-blend-mode:normal;color-interpolation:sRGB;color-interpolation-filters:linearRGB;solid-color:#000000;solid-opacity:1;fill:none;fill-opacity:1;fill-rule:evenodd;stroke:#000000;stroke-width:2;stroke-linecap:butt;stroke-linejoin:miter;stroke-miterlimit:4;stroke-dasharray:none;stroke-dashoffset:0;stroke-opacity:1;color-rendering:auto;image-rendering:auto;shape-rendering:auto;text-rendering:auto;enable-background:accumulate" />
  </g>
</svg>
