<?xml version="1.0" encoding="UTF-8" standalone="no"?>
<svg
   xmlns:dc="http://purl.org/dc/elements/1.1/"
   xmlns:cc="http://creativecommons.org/ns#"
   xmlns:rdf="http://www.w3.org/1999/02/22-rdf-syntax-ns#"
   xmlns:svg="http://www.w3.org/2000/svg"
   xmlns="http://www.w3.org/2000/svg"
   version="1.1"
   id="svg2"
   viewBox="0 0 424.9272 72.67007"
   height="20.509109mm"
   width="119.9239mm">
  <defs
     id="defs4" />
  <metadata
     id="metadata7">
    <rdf:RDF>
      <cc:Work
         rdf:about="">
        <dc:format>image/svg+xml</dc:format>
        <dc:type
           rdf:resource="http://purl.org/dc/dcmitype/StillImage" />
        <dc:title></dc:title>
      </cc:Work>
    </rdf:RDF>
  </metadata>
  <g
     transform="translate(-22.253815,-641.26055)"
     id="layer1">
    <g
       transform="matrix(0.6204924,0,0,0.6204924,8.4454919,270.9421)"
       id="text4230"
       style="font-style:normal;font-variant:normal;font-weight:normal;font-stretch:normal;font-size:40px;line-height:125%;font-family:Avenir;-inkscape-font-specification:Avenir;text-align:center;letter-spacing:0px;word-spacing:0px;writing-mode:lr-tb;text-anchor:middle;fill:#000000;fill-opacity:1;stroke:none;stroke-width:1px;stroke-linecap:butt;stroke-linejoin:miter;stroke-opacity:1" />
    <path
       id="rect4161-7"
       d="m 24.115292,643.12203 70.200695,0 0,68.94712 -70.200695,0 z"
       style="opacity:1;fill:#cccccc;fill-opacity:1;stroke:#000000;stroke-width:3.72295451;stroke-linecap:round;stroke-linejoin:round;stroke-miterlimit:4;stroke-dasharray:none;stroke-dashoffset:0;stroke-opacity:1" />
    <path
       id="rect4161-6-3"
       d="m 94.315993,643.12203 70.200697,0 0,68.94712 -70.200697,0 z"
       style="opacity:1;fill:none;fill-opacity:1;stroke:#000000;stroke-width:3.72295451;stroke-linecap:round;stroke-linejoin:round;stroke-miterlimit:4;stroke-dasharray:none;stroke-dashoffset:0;stroke-opacity:1" />
    <path
       id="rect4161-3-3"
       d="m 164.5167,643.12203 70.2007,0 0,68.94712 -70.2007,0 z"
       style="opacity:1;fill:none;fill-opacity:1;stroke:#000000;stroke-width:3.72295451;stroke-linecap:round;stroke-linejoin:round;stroke-miterlimit:4;stroke-dasharray:none;stroke-dashoffset:0;stroke-opacity:1" />
    <path
       id="rect4161-6-4-1"
       d="m 234.71741,643.12203 70.2007,0 0,68.94712 -70.2007,0 z"
       style="opacity:1;fill:#cccccc;fill-opacity:1;stroke:#000000;stroke-width:3.72295451;stroke-linecap:round;stroke-linejoin:round;stroke-miterlimit:4;stroke-dasharray:none;stroke-dashoffset:0;stroke-opacity:1" />
    <path
       id="rect4161-3-1-4"
       d="m 304.91809,643.12203 70.2007,0 0,68.94712 -70.2007,0 z"
       style="opacity:1;fill:#cccccc;fill-opacity:1;stroke:#000000;stroke-width:3.72295451;stroke-linecap:round;stroke-linejoin:round;stroke-miterlimit:4;stroke-dasharray:none;stroke-dashoffset:0;stroke-opacity:1" />
    <path
       id="rect4161-6-4-3-4"
       d="m 375.11882,643.12203 70.2007,0 0,68.94712 -70.2007,0 z"
       style="opacity:1;fill:#cccccc;fill-opacity:1;stroke:#000000;stroke-width:3.72295451;stroke-linecap:round;stroke-linejoin:round;stroke-miterlimit:4;stroke-dasharray:none;stroke-dashoffset:0;stroke-opacity:1" />
    <g
       transform="matrix(0.6204924,0,0,0.6204924,8.4454919,270.9421)"
       id="text4230-7"
       style="font-style:normal;font-variant:normal;font-weight:normal;font-stretch:normal;font-size:40px;line-height:125%;font-family:Avenir;-inkscape-font-specification:Avenir;text-align:center;letter-spacing:0px;word-spacing:0px;writing-mode:lr-tb;text-anchor:middle;fill:#000000;fill-opacity:1;stroke:none;stroke-width:1px;stroke-linecap:butt;stroke-linejoin:miter;stroke-opacity:1">
      <path
         id="path4310"
         d="m 421.2208,643.37223 q -2.32,0 -3.68,1.24 -1.32,1.24 -2,3.08 -0.68,1.84 -0.88,3.92 -0.16,2.08 -0.16,3.76 0,1.68 0.16,3.76 0.2,2.08 0.88,3.92 0.68,1.84 2,3.08 1.36,1.24 3.68,1.24 2.32,0 3.64,-1.24 1.36,-1.24 2.04,-3.08 0.68,-1.84 0.84,-3.92 0.2,-2.08 0.2,-3.76 0,-1.68 -0.2,-3.76 -0.16,-2.08 -0.84,-3.92 -0.68,-1.84 -2.04,-3.08 -1.32,-1.24 -3.64,-1.24 z m 0,-2.64 q 3.04,0 4.92,1.4 1.88,1.4 2.92,3.56 1.04,2.16 1.4,4.76 0.36,2.56 0.36,4.92 0,2.36 -0.36,4.96 -0.36,2.56 -1.4,4.72 -1.04,2.16 -2.92,3.56 -1.88,1.4 -4.92,1.4 -3.04,0 -4.92,-1.4 -1.88,-1.4 -2.92,-3.56 -1.04,-2.16 -1.4,-4.72 -0.36,-2.6 -0.36,-4.96 0,-2.36 0.36,-4.92 0.36,-2.6 1.4,-4.76 1.04,-2.16 2.92,-3.56 1.88,-1.4 4.92,-1.4 z" />
    </g>
    <g
       transform="matrix(0.6204924,0,0,0.6204924,8.4454919,270.9421)"
       id="text4234-7"
       style="font-style:normal;font-variant:normal;font-weight:normal;font-stretch:normal;font-size:40px;line-height:125%;font-family:Avenir;-inkscape-font-specification:Avenir;text-align:center;letter-spacing:0px;word-spacing:0px;writing-mode:lr-tb;text-anchor:middle;fill:#000000;fill-opacity:1;stroke:none;stroke-width:1px;stroke-linecap:butt;stroke-linejoin:miter;stroke-opacity:1">
      <path
         id="path4307"
         d="m 537.097,669.53223 -2.88,0 0,-24.72 -5.08,4.48 -1.8,-2.16 7.2,-5.92 2.56,0 0,28.32 z" />
    </g>
    <g
       transform="matrix(0.6204924,0,0,0.6204924,8.4454919,270.9421)"
       id="text4238-9"
       style="font-style:normal;font-variant:normal;font-weight:normal;font-stretch:normal;font-size:40px;line-height:125%;font-family:Avenir;-inkscape-font-specification:Avenir;text-align:center;letter-spacing:0px;word-spacing:0px;writing-mode:lr-tb;text-anchor:middle;fill:#000000;fill-opacity:1;stroke:none;stroke-width:1px;stroke-linecap:butt;stroke-linejoin:miter;stroke-opacity:1">
      <path
         id="path4304"
         d="m 658.33559,669.77222 -18,0 0,-3.32 11.28,-11.48 q 0.64,-0.64 1.28,-1.36 0.64,-0.72 1.16,-1.52 0.52,-0.8 0.84,-1.68 0.32,-0.88 0.32,-1.84 0,-1.16 -0.44,-2.08 -0.4,-0.92 -1.16,-1.56 -0.76,-0.64 -1.76,-0.96 -1,-0.36 -2.12,-0.36 -2.16,0 -3.68,1.2 -1.52,1.2 -1.96,3.24 l -3.04,-0.32 q 0.6,-3.16 2.88,-4.96 2.32,-1.8 5.6,-1.8 1.72,0 3.24,0.48 1.56,0.44 2.72,1.36 1.2,0.92 1.88,2.32 0.72,1.36 0.72,3.2 0,1.64 -0.52,3 -0.48,1.36 -1.28,2.56 -0.8,1.2 -1.84,2.28 -1,1.08 -2.08,2.12 l -8.92,8.84 14.88,0 0,2.64 z" />
    </g>
    <g
       transform="matrix(0.6204924,0,0,0.6204924,8.4454919,270.9421)"
       id="text4242-4"
       style="font-style:normal;font-variant:normal;font-weight:normal;font-stretch:normal;font-size:40px;line-height:125%;font-family:Avenir;-inkscape-font-specification:Avenir;text-align:center;letter-spacing:0px;word-spacing:0px;writing-mode:lr-tb;text-anchor:middle;fill:#000000;fill-opacity:1;stroke:none;stroke-width:1px;stroke-linecap:butt;stroke-linejoin:miter;stroke-opacity:1">
      <path
         id="path4301"
         d="m 79.819111,653.37223 1.48,0 q 1.24,0 2.36,-0.28 1.16,-0.28 2,-0.88 0.84,-0.64 1.32,-1.64 0.52,-1 0.52,-2.4 0,-2.28 -1.4,-3.52 -1.36,-1.28 -3.84,-1.28 -1.8,0 -3.16,0.8 -1.36,0.8 -2.24,2.32 l -2.52,-1.28 q 1.28,-2.28 3.24,-3.36 2,-1.12 4.6,-1.12 1.68,0 3.16,0.48 1.48,0.48 2.6,1.44 1.12,0.92 1.76,2.32 0.68,1.36 0.68,3.12 0,1.16 -0.4,2.2 -0.36,1.04 -1.04,1.88 -0.64,0.84 -1.52,1.48 -0.88,0.6 -1.84,0.92 l 0.12,0.08 q 1.2,0.24 2.2,0.92 1,0.64 1.72,1.6 0.72,0.96 1.12,2.16 0.4,1.2 0.4,2.52 0,1.96 -0.72,3.48 -0.72,1.52 -1.96,2.56 -1.24,1.04 -2.88,1.6 -1.64,0.52 -3.48,0.52 -3.12,0 -5.44,-1.36 -2.32,-1.36 -3.48,-4.36 l 3.04,-0.92 q 0.72,2.04 2.12,3.04 1.44,0.96 4,0.96 1.2,0 2.28,-0.4 1.08,-0.4 1.88,-1.12 0.84,-0.76 1.28,-1.8 0.48,-1.04 0.48,-2.28 0,-1.6 -0.6,-2.68 -0.6,-1.12 -1.6,-1.8 -1,-0.68 -2.32,-0.96 -1.28,-0.32 -2.68,-0.32 l -1.24,0 0,-2.64 z" />
    </g>
  </g>
</svg>
