<?xml version="1.0" encoding="UTF-8" standalone="no"?>
<svg
   xmlns:dc="http://purl.org/dc/elements/1.1/"
   xmlns:cc="http://creativecommons.org/ns#"
   xmlns:rdf="http://www.w3.org/1999/02/22-rdf-syntax-ns#"
   xmlns:svg="http://www.w3.org/2000/svg"
   xmlns="http://www.w3.org/2000/svg"
   version="1.1"
   id="svg16998"
   viewBox="0 0 504.66834 101.35937"
   height="28.605867mm"
   width="142.42862mm">
  <defs
     id="defs17000" />
  <metadata
     id="metadata17003">
    <rdf:RDF>
      <cc:Work
         rdf:about="">
        <dc:format>image/svg+xml</dc:format>
        <dc:type
           rdf:resource="http://purl.org/dc/dcmitype/StillImage" />
        <dc:title></dc:title>
      </cc:Work>
    </rdf:RDF>
  </metadata>
  <g
     transform="translate(29.477,-381.68252)"
     id="layer1">
    <path
       id="rect8475"
       d="m 19.087483,415.24502 c -8.4902,0 -15.3359997,6.8458 -15.3359997,15.33593 l 0,3.5625 c 0,8.49014 6.8457997,15.33594 15.3359997,15.33594 l 53.9062,0 c 8.4901,0 15.336,-6.8458 15.336,-15.33594 l 0,-3.5625 c 0,-8.49013 -6.8459,-15.33593 -15.336,-15.33593 l -53.9062,0 z m 0,0.67187 53.9062,0 c 8.1299,0 14.666,6.5342 14.666,14.66406 l 0,3.5625 c 0,8.12987 -6.5361,14.66407 -14.666,14.66407 l -53.9062,0 c -8.1299,0 -14.6660997,-6.5342 -14.6660997,-14.66407 l 0,-3.5625 c 0,-8.12986 6.5361997,-14.66406 14.6660997,-14.66406 z"
       style="color:#000000;font-style:normal;font-variant:normal;font-weight:normal;font-stretch:normal;font-size:medium;line-height:normal;font-family:sans-serif;text-indent:0;text-align:start;text-decoration:none;text-decoration-line:none;text-decoration-style:solid;text-decoration-color:#000000;letter-spacing:normal;word-spacing:normal;text-transform:none;direction:ltr;block-progression:tb;writing-mode:lr-tb;baseline-shift:baseline;text-anchor:start;white-space:normal;clip-rule:nonzero;display:inline;overflow:visible;visibility:visible;opacity:1;isolation:auto;mix-blend-mode:normal;color-interpolation:sRGB;color-interpolation-filters:linearRGB;solid-color:#000000;solid-opacity:1;fill:#000000;fill-opacity:1;fill-rule:nonzero;stroke:none;stroke-width:0.67126107;stroke-linecap:round;stroke-linejoin:round;stroke-miterlimit:4;stroke-dasharray:none;stroke-dashoffset:0;stroke-opacity:1;color-rendering:auto;image-rendering:auto;shape-rendering:auto;text-rendering:auto;enable-background:accumulate" />
    <g
       id="flowRoot8477"
       style="font-style:normal;font-variant:normal;font-weight:normal;font-stretch:normal;font-size:22px;line-height:125%;font-family:Avenir;-inkscape-font-specification:Avenir;text-align:center;letter-spacing:0px;word-spacing:0px;writing-mode:lr-tb;text-anchor:middle;fill:#000000;fill-opacity:1;stroke:none;stroke-width:1px;stroke-linecap:butt;stroke-linejoin:miter;stroke-opacity:1"
       transform="matrix(0.67126109,0,0,0.67126109,-63.039317,453.66055)">
      <path
         id="path12498"
         d="m 143.41998,-35.3829 q -0.374,-0.572 -1.056,-0.968 -0.66,-0.396 -1.518,-0.396 -0.902,-0.022 -1.628,0.286 -0.704,0.308 -1.21,0.858 -0.506,0.55 -0.77,1.32 -0.264,0.748 -0.264,1.628 0,0.88 0.264,1.65 0.264,0.748 0.77,1.298 0.506,0.55 1.21,0.858 0.726,0.308 1.628,0.286 0.858,0 1.518,-0.396 0.682,-0.396 1.056,-0.968 l 1.188,0.902 q -0.77,0.902 -1.738,1.342 -0.968,0.418 -2.024,0.44 -1.254,0.022 -2.266,-0.374 -1.012,-0.418 -1.738,-1.144 -0.704,-0.726 -1.078,-1.716 -0.374,-1.012 -0.374,-2.178 0,-1.166 0.374,-2.156 0.374,-1.012 1.078,-1.738 0.726,-0.726 1.738,-1.122 1.012,-0.418 2.266,-0.396 1.056,0.022 2.024,0.462 0.968,0.418 1.738,1.32 l -1.188,0.902 z" />
      <path
         id="path12500"
         d="m 146.53127,-44.1389 1.452,0 0,7.986 0.044,0 q 0.242,-0.418 0.616,-0.77 0.374,-0.352 0.836,-0.594 0.462,-0.264 0.968,-0.396 0.528,-0.154 1.034,-0.154 1.98,0 2.926,1.056 0.946,1.034 0.946,2.97 l 0,6.534 -1.452,0 0,-5.698 q 0,-1.716 -0.594,-2.618 -0.594,-0.924 -2.2,-0.924 -0.11,0 -0.616,0.088 -0.506,0.088 -1.078,0.484 -0.55,0.396 -0.99,1.188 -0.44,0.792 -0.44,2.2 l 0,5.28 -1.452,0 0,-16.632 z" />
      <path
         id="path12502"
         d="m 166.78536,-33.4469 q 0,-1.474 -0.88,-2.376 -0.88,-0.924 -2.464,-0.924 -0.704,0 -1.364,0.286 -0.66,0.264 -1.166,0.726 -0.484,0.462 -0.792,1.056 -0.286,0.594 -0.286,1.232 l 6.952,0 z m -6.996,1.188 q 0.066,0.77 0.374,1.452 0.308,0.682 0.814,1.188 0.506,0.484 1.166,0.77 0.66,0.286 1.43,0.286 1.166,0 2.002,-0.528 0.858,-0.55 1.298,-1.254 l 1.122,0.924 q -0.924,1.166 -2.046,1.672 -1.1,0.506 -2.376,0.506 -1.144,0 -2.134,-0.396 -0.968,-0.418 -1.672,-1.144 -0.704,-0.726 -1.122,-1.716 -0.396,-0.99 -0.396,-2.156 0,-1.166 0.396,-2.156 0.396,-0.99 1.1,-1.716 0.704,-0.726 1.65,-1.122 0.946,-0.418 2.046,-0.418 1.166,0 2.09,0.418 0.924,0.418 1.54,1.122 0.638,0.682 0.968,1.628 0.33,0.924 0.33,1.98 l 0,0.66 -8.58,0 z" />
      <path
         id="path12504"
         d="m 178.52545,-35.3829 q -0.374,-0.572 -1.056,-0.968 -0.66,-0.396 -1.518,-0.396 -0.902,-0.022 -1.628,0.286 -0.704,0.308 -1.21,0.858 -0.506,0.55 -0.77,1.32 -0.264,0.748 -0.264,1.628 0,0.88 0.264,1.65 0.264,0.748 0.77,1.298 0.506,0.55 1.21,0.858 0.726,0.308 1.628,0.286 0.858,0 1.518,-0.396 0.682,-0.396 1.056,-0.968 l 1.188,0.902 q -0.77,0.902 -1.738,1.342 -0.968,0.418 -2.024,0.44 -1.254,0.022 -2.266,-0.374 -1.012,-0.418 -1.738,-1.144 -0.704,-0.726 -1.078,-1.716 -0.374,-1.012 -0.374,-2.178 0,-1.166 0.374,-2.156 0.374,-1.012 1.078,-1.738 0.726,-0.726 1.738,-1.122 1.012,-0.418 2.266,-0.396 1.056,0.022 2.024,0.462 0.968,0.418 1.738,1.32 l -1.188,0.902 z" />
      <path
         id="path12506"
         d="m 183.08873,-33.1609 4.862,-4.642 2.178,0 -5.126,4.708 5.676,5.588 -2.244,0 -5.346,-5.412 0,5.412 -1.452,0 0,-16.632 1.452,0 0,10.978 z" />
    </g>
    <path
       id="rect8485"
       d="m 254.02888,381.68252 c -8.4902,0 -15.336,6.84385 -15.336,15.33398 l 0,3.56445 c 0,8.49014 6.8458,15.33594 15.336,15.33594 l 53.9062,0 c 8.4902,0 15.336,-6.8458 15.336,-15.33594 l 0,-3.56445 c 0,-8.49013 -6.8458,-15.33398 -15.336,-15.33398 l -53.9062,0 z m 0,0.66992 53.9062,0 c 8.1299,0 14.666,6.5342 14.666,14.66406 l 0,3.56445 c 0,8.12987 -6.5361,14.66407 -14.666,14.66407 l -53.9062,0 c -8.1299,0 -14.666,-6.5342 -14.666,-14.66407 l 0,-3.56445 c 0,-8.12986 6.5361,-14.66406 14.666,-14.66406 z"
       style="color:#000000;font-style:normal;font-variant:normal;font-weight:normal;font-stretch:normal;font-size:medium;line-height:normal;font-family:sans-serif;text-indent:0;text-align:start;text-decoration:none;text-decoration-line:none;text-decoration-style:solid;text-decoration-color:#000000;letter-spacing:normal;word-spacing:normal;text-transform:none;direction:ltr;block-progression:tb;writing-mode:lr-tb;baseline-shift:baseline;text-anchor:start;white-space:normal;clip-rule:nonzero;display:inline;overflow:visible;visibility:visible;opacity:1;isolation:auto;mix-blend-mode:normal;color-interpolation:sRGB;color-interpolation-filters:linearRGB;solid-color:#000000;solid-opacity:1;fill:#000000;fill-opacity:1;fill-rule:nonzero;stroke:none;stroke-width:0.67126107;stroke-linecap:round;stroke-linejoin:round;stroke-miterlimit:4;stroke-dasharray:none;stroke-dashoffset:0;stroke-opacity:1;color-rendering:auto;image-rendering:auto;shape-rendering:auto;text-rendering:auto;enable-background:accumulate" />
    <g
       id="flowRoot8487"
       style="font-style:normal;font-variant:normal;font-weight:normal;font-stretch:normal;font-size:22px;line-height:125%;font-family:Avenir;-inkscape-font-specification:Avenir;text-align:center;letter-spacing:0px;word-spacing:0px;writing-mode:lr-tb;text-anchor:middle;fill:#000000;fill-opacity:1;stroke:none;stroke-width:1px;stroke-linecap:butt;stroke-linejoin:miter;stroke-opacity:1"
       transform="matrix(0.67126109,0,0,0.67126109,171.90208,420.0975)">
      <path
         id="path12478"
         d="m 120.07833,-33.4469 q 0,-1.474 -0.88,-2.376 -0.88,-0.924 -2.464,-0.924 -0.704,0 -1.364,0.286 -0.66,0.264 -1.166,0.726 -0.484,0.462 -0.792,1.056 -0.286,0.594 -0.286,1.232 l 6.952,0 z m -6.996,1.188 q 0.066,0.77 0.374,1.452 0.308,0.682 0.814,1.188 0.506,0.484 1.166,0.77 0.66,0.286 1.43,0.286 1.166,0 2.002,-0.528 0.858,-0.55 1.298,-1.254 l 1.122,0.924 q -0.924,1.166 -2.046,1.672 -1.1,0.506 -2.376,0.506 -1.144,0 -2.134,-0.396 -0.968,-0.418 -1.672,-1.144 -0.704,-0.726 -1.122,-1.716 -0.396,-0.99 -0.396,-2.156 0,-1.166 0.396,-2.156 0.396,-0.99 1.1,-1.716 0.704,-0.726 1.65,-1.122 0.946,-0.418 2.046,-0.418 1.166,0 2.09,0.418 0.924,0.418 1.54,1.122 0.638,0.682 0.968,1.628 0.33,0.924 0.33,1.98 l 0,0.66 -8.58,0 z" />
      <path
         id="path12480"
         d="m 128.84842,-27.5069 -1.628,0 -4.18,-10.296 1.738,0 3.278,8.668 0.044,0 3.278,-8.668 1.65,0 -4.18,10.296 z" />
      <path
         id="path12482"
         d="m 140.7817,-32.6329 q -0.55,0 -1.386,0.066 -0.814,0.044 -1.584,0.264 -0.748,0.198 -1.298,0.638 -0.528,0.44 -0.528,1.21 0,0.506 0.198,0.88 0.22,0.352 0.572,0.594 0.352,0.22 0.77,0.33 0.44,0.088 0.88,0.088 0.792,0 1.364,-0.264 0.594,-0.264 0.99,-0.704 0.396,-0.462 0.572,-1.056 0.198,-0.616 0.198,-1.298 l 0,-0.748 -0.748,0 z m 0.748,-1.188 0,-0.264 q 0,-2.662 -2.64,-2.662 -1.804,0 -3.146,1.21 l -0.88,-1.034 q 1.452,-1.496 4.356,-1.496 0.748,0 1.43,0.22 0.704,0.22 1.21,0.682 0.506,0.44 0.814,1.122 0.308,0.682 0.308,1.628 l 0,4.598 q 0,0.594 0.044,1.254 0.066,0.638 0.132,1.056 l -1.408,0 q -0.066,-0.374 -0.11,-0.814 -0.022,-0.44 -0.022,-0.858 l -0.044,0 q -0.638,1.034 -1.518,1.496 -0.858,0.44 -2.112,0.44 -0.682,0 -1.32,-0.198 -0.638,-0.176 -1.144,-0.55 -0.484,-0.396 -0.792,-0.946 -0.286,-0.572 -0.286,-1.32 0,-1.254 0.638,-1.958 0.66,-0.726 1.628,-1.078 0.99,-0.352 2.09,-0.44 1.122,-0.088 2.046,-0.088 l 0.726,0 z" />
      <path
         id="path12484"
         d="m 148.14139,-27.5069 -1.452,0 0,-16.632 1.452,0 0,16.632 z" />
      <path
         id="path12486"
         d="m 159.12352,-27.5069 q -0.044,-0.418 -0.066,-0.814 0,-0.418 0,-0.836 l -0.044,0 q -0.242,0.418 -0.616,0.77 -0.374,0.352 -0.836,0.616 -0.462,0.242 -0.99,0.374 -0.506,0.154 -1.012,0.154 -1.98,0 -2.926,-1.034 -0.946,-1.056 -0.946,-2.992 l 0,-6.534 1.452,0 0,5.698 q 0,0.858 0.132,1.518 0.132,0.66 0.44,1.122 0.33,0.44 0.858,0.682 0.55,0.22 1.364,0.22 0.11,0 0.616,-0.088 0.506,-0.088 1.056,-0.484 0.572,-0.396 1.012,-1.188 0.44,-0.792 0.44,-2.2 l 0,-5.28 1.452,0 0,8.03 q 0,0.418 0.022,1.056 0.044,0.638 0.088,1.21 l -1.496,0 z" />
      <path
         id="path12488"
         d="m 169.78561,-32.6329 q -0.55,0 -1.386,0.066 -0.814,0.044 -1.584,0.264 -0.748,0.198 -1.298,0.638 -0.528,0.44 -0.528,1.21 0,0.506 0.198,0.88 0.22,0.352 0.572,0.594 0.352,0.22 0.77,0.33 0.44,0.088 0.88,0.088 0.792,0 1.364,-0.264 0.594,-0.264 0.99,-0.704 0.396,-0.462 0.572,-1.056 0.198,-0.616 0.198,-1.298 l 0,-0.748 -0.748,0 z m 0.748,-1.188 0,-0.264 q 0,-2.662 -2.64,-2.662 -1.804,0 -3.146,1.21 l -0.88,-1.034 q 1.452,-1.496 4.356,-1.496 0.748,0 1.43,0.22 0.704,0.22 1.21,0.682 0.506,0.44 0.814,1.122 0.308,0.682 0.308,1.628 l 0,4.598 q 0,0.594 0.044,1.254 0.066,0.638 0.132,1.056 l -1.408,0 q -0.066,-0.374 -0.11,-0.814 -0.022,-0.44 -0.022,-0.858 l -0.044,0 q -0.638,1.034 -1.518,1.496 -0.858,0.44 -2.112,0.44 -0.682,0 -1.32,-0.198 -0.638,-0.176 -1.144,-0.55 -0.484,-0.396 -0.792,-0.946 -0.286,-0.572 -0.286,-1.32 0,-1.254 0.638,-1.958 0.66,-0.726 1.628,-1.078 0.99,-0.352 2.09,-0.44 1.122,-0.088 2.046,-0.088 l 0.726,0 z" />
      <path
         id="path12490"
         d="m 180.6873,-36.4829 -2.97,0 0,6.072 q 0,0.572 0.11,0.946 0.11,0.352 0.308,0.55 0.198,0.198 0.462,0.286 0.286,0.066 0.616,0.066 0.374,0 0.77,-0.11 0.396,-0.11 0.726,-0.286 l 0.066,1.342 q -0.814,0.374 -1.958,0.374 -0.418,0 -0.88,-0.11 -0.44,-0.11 -0.814,-0.418 -0.374,-0.308 -0.616,-0.836 -0.242,-0.528 -0.242,-1.386 l 0,-6.49 -2.178,0 0,-1.32 2.178,0 0,-2.904 1.452,0 0,2.904 2.97,0 0,1.32 z" />
      <path
         id="path12492"
         d="m 190.67598,-33.4469 q 0,-1.474 -0.88,-2.376 -0.88,-0.924 -2.464,-0.924 -0.704,0 -1.364,0.286 -0.66,0.264 -1.166,0.726 -0.484,0.462 -0.792,1.056 -0.286,0.594 -0.286,1.232 l 6.952,0 z m -6.996,1.188 q 0.066,0.77 0.374,1.452 0.308,0.682 0.814,1.188 0.506,0.484 1.166,0.77 0.66,0.286 1.43,0.286 1.166,0 2.002,-0.528 0.858,-0.55 1.298,-1.254 l 1.122,0.924 q -0.924,1.166 -2.046,1.672 -1.1,0.506 -2.376,0.506 -1.144,0 -2.134,-0.396 -0.968,-0.418 -1.672,-1.144 -0.704,-0.726 -1.122,-1.716 -0.396,-0.99 -0.396,-2.156 0,-1.166 0.396,-2.156 0.396,-0.99 1.1,-1.716 0.704,-0.726 1.65,-1.122 0.946,-0.418 2.046,-0.418 1.166,0 2.09,0.418 0.924,0.418 1.54,1.122 0.638,0.682 0.968,1.628 0.33,0.924 0.33,1.98 l 0,0.66 -8.58,0 z" />
      <path
         id="path12494"
         d="m 203.58964,-33.0509 6.754,0 -3.366,-8.184 -3.388,8.184 z m -2.31,5.544 -1.848,0 6.776,-15.576 1.54,0 6.776,15.576 -1.848,0 -1.716,-4.092 -7.964,0 -1.716,4.092 z" />
    </g>
    <path
       id="rect8495"
       d="m 371.49958,415.24502 c -8.4902,0 -15.336,6.8458 -15.336,15.33593 l 0,3.5625 c 0,8.49014 6.8458,15.33594 15.336,15.33594 l 53.9062,0 c 8.4902,0 15.336,-6.8458 15.336,-15.33594 l 0,-3.5625 c 0,-8.49013 -6.8458,-15.33593 -15.336,-15.33593 l -53.9062,0 z m 0,0.67187 53.9062,0 c 8.1299,0 14.666,6.5342 14.666,14.66406 l 0,3.5625 c 0,8.12987 -6.5361,14.66407 -14.666,14.66407 l -53.9062,0 c -8.1299,0 -14.666,-6.5342 -14.666,-14.66407 l 0,-3.5625 c 0,-8.12986 6.5361,-14.66406 14.666,-14.66406 z"
       style="color:#000000;font-style:normal;font-variant:normal;font-weight:normal;font-stretch:normal;font-size:medium;line-height:normal;font-family:sans-serif;text-indent:0;text-align:start;text-decoration:none;text-decoration-line:none;text-decoration-style:solid;text-decoration-color:#000000;letter-spacing:normal;word-spacing:normal;text-transform:none;direction:ltr;block-progression:tb;writing-mode:lr-tb;baseline-shift:baseline;text-anchor:start;white-space:normal;clip-rule:nonzero;display:inline;overflow:visible;visibility:visible;opacity:1;isolation:auto;mix-blend-mode:normal;color-interpolation:sRGB;color-interpolation-filters:linearRGB;solid-color:#000000;solid-opacity:1;fill:#000000;fill-opacity:1;fill-rule:nonzero;stroke:none;stroke-width:0.67126107;stroke-linecap:round;stroke-linejoin:round;stroke-miterlimit:4;stroke-dasharray:none;stroke-dashoffset:0;stroke-opacity:1;color-rendering:auto;image-rendering:auto;shape-rendering:auto;text-rendering:auto;enable-background:accumulate" />
    <g
       id="flowRoot8497"
       style="font-style:normal;font-variant:normal;font-weight:normal;font-stretch:normal;font-size:22px;line-height:125%;font-family:Avenir;-inkscape-font-specification:Avenir;text-align:center;letter-spacing:0px;word-spacing:0px;writing-mode:lr-tb;text-anchor:middle;fill:#000000;fill-opacity:1;stroke:none;stroke-width:1px;stroke-linecap:butt;stroke-linejoin:miter;stroke-opacity:1"
       transform="matrix(0.67126109,0,0,0.67126109,289.37278,453.66055)">
      <path
         id="path12464"
         d="m 134.91183,-34.5909 q 0,-0.682 -0.044,-1.386 -0.022,-0.704 -0.044,-1.826 l 1.43,0 0,1.914 0.044,0 q 0.154,-0.418 0.44,-0.792 0.286,-0.396 0.682,-0.704 0.418,-0.308 0.946,-0.484 0.55,-0.198 1.232,-0.198 0.616,0 1.078,0.132 l -0.286,1.43 q -0.286,-0.11 -0.836,-0.11 -0.836,0 -1.43,0.33 -0.594,0.308 -0.99,0.814 -0.396,0.484 -0.594,1.056 -0.176,0.572 -0.176,1.1 l 0,5.808 -1.452,0 0,-7.084 z" />
      <path
         id="path12466"
         d="m 149.6838,-33.4469 q 0,-1.474 -0.88,-2.376 -0.88,-0.924 -2.464,-0.924 -0.704,0 -1.364,0.286 -0.66,0.264 -1.166,0.726 -0.484,0.462 -0.792,1.056 -0.286,0.594 -0.286,1.232 l 6.952,0 z m -6.996,1.188 q 0.066,0.77 0.374,1.452 0.308,0.682 0.814,1.188 0.506,0.484 1.166,0.77 0.66,0.286 1.43,0.286 1.166,0 2.002,-0.528 0.858,-0.55 1.298,-1.254 l 1.122,0.924 q -0.924,1.166 -2.046,1.672 -1.1,0.506 -2.376,0.506 -1.144,0 -2.134,-0.396 -0.968,-0.418 -1.672,-1.144 -0.704,-0.726 -1.122,-1.716 -0.396,-0.99 -0.396,-2.156 0,-1.166 0.396,-2.156 0.396,-0.99 1.1,-1.716 0.704,-0.726 1.65,-1.122 0.946,-0.418 2.046,-0.418 1.166,0 2.09,0.418 0.924,0.418 1.54,1.122 0.638,0.682 0.968,1.628 0.33,0.924 0.33,1.98 l 0,0.66 -8.58,0 z" />
      <path
         id="path12468"
         d="m 159.24589,-36.4829 -2.97,0 0,6.072 q 0,0.572 0.11,0.946 0.11,0.352 0.308,0.55 0.198,0.198 0.462,0.286 0.286,0.066 0.616,0.066 0.374,0 0.77,-0.11 0.396,-0.11 0.726,-0.286 l 0.066,1.342 q -0.814,0.374 -1.958,0.374 -0.418,0 -0.88,-0.11 -0.44,-0.11 -0.814,-0.418 -0.374,-0.308 -0.616,-0.836 -0.242,-0.528 -0.242,-1.386 l 0,-6.49 -2.178,0 0,-1.32 2.178,0 0,-2.904 1.452,0 0,2.904 2.97,0 0,1.32 z" />
      <path
         id="path12470"
         d="m 168.66258,-27.5069 q -0.044,-0.418 -0.066,-0.814 0,-0.418 0,-0.836 l -0.044,0 q -0.242,0.418 -0.616,0.77 -0.374,0.352 -0.836,0.616 -0.462,0.242 -0.99,0.374 -0.506,0.154 -1.012,0.154 -1.98,0 -2.926,-1.034 -0.946,-1.056 -0.946,-2.992 l 0,-6.534 1.452,0 0,5.698 q 0,0.858 0.132,1.518 0.132,0.66 0.44,1.122 0.33,0.44 0.858,0.682 0.55,0.22 1.364,0.22 0.11,0 0.616,-0.088 0.506,-0.088 1.056,-0.484 0.572,-0.396 1.012,-1.188 0.44,-0.792 0.44,-2.2 l 0,-5.28 1.452,0 0,8.03 q 0,0.418 0.022,1.056 0.044,0.638 0.088,1.21 l -1.496,0 z" />
      <path
         id="path12472"
         d="m 173.62667,-34.5909 q 0,-0.682 -0.044,-1.386 -0.022,-0.704 -0.044,-1.826 l 1.43,0 0,1.914 0.044,0 q 0.154,-0.418 0.44,-0.792 0.286,-0.396 0.682,-0.704 0.418,-0.308 0.946,-0.484 0.55,-0.198 1.232,-0.198 0.616,0 1.078,0.132 l -0.286,1.43 q -0.286,-0.11 -0.836,-0.11 -0.836,0 -1.43,0.33 -0.594,0.308 -0.99,0.814 -0.396,0.484 -0.594,1.056 -0.176,0.572 -0.176,1.1 l 0,5.808 -1.452,0 0,-7.084 z" />
      <path
         id="path12474"
         d="m 182.55008,-37.8029 q 0.044,0.418 0.044,0.836 0.022,0.396 0.022,0.814 l 0.044,0 q 0.242,-0.418 0.616,-0.77 0.374,-0.352 0.836,-0.594 0.462,-0.264 0.968,-0.396 0.528,-0.154 1.034,-0.154 1.98,0 2.926,1.056 0.946,1.034 0.946,2.97 l 0,6.534 -1.452,0 0,-5.698 q 0,-1.716 -0.594,-2.618 -0.594,-0.924 -2.2,-0.924 -0.11,0 -0.616,0.088 -0.506,0.088 -1.078,0.484 -0.55,0.396 -0.99,1.188 -0.44,0.792 -0.44,2.2 l 0,5.28 -1.452,0 0,-8.03 q 0,-0.418 -0.044,-1.056 -0.022,-0.638 -0.066,-1.21 l 1.496,0 z" />
    </g>
    <g
       id="g16137"
       transform="translate(-2056.9848,513.75283)">
      <path
         id="path8505"
         d="m 2027.5078,-81.726562 0,0.671874 33.5645,0 0,-0.671874 -33.5645,0 z"
         style="color:#000000;font-style:normal;font-variant:normal;font-weight:normal;font-stretch:normal;font-size:medium;line-height:normal;font-family:sans-serif;text-indent:0;text-align:start;text-decoration:none;text-decoration-line:none;text-decoration-style:solid;text-decoration-color:#000000;letter-spacing:normal;word-spacing:normal;text-transform:none;direction:ltr;block-progression:tb;writing-mode:lr-tb;baseline-shift:baseline;text-anchor:start;white-space:normal;clip-rule:nonzero;display:inline;overflow:visible;visibility:visible;opacity:1;isolation:auto;mix-blend-mode:normal;color-interpolation:sRGB;color-interpolation-filters:linearRGB;solid-color:#000000;solid-opacity:1;fill:#000000;fill-opacity:1;fill-rule:evenodd;stroke:none;stroke-width:0.67126107px;stroke-linecap:butt;stroke-linejoin:miter;stroke-miterlimit:4;stroke-dasharray:none;stroke-dashoffset:0;stroke-opacity:1;color-rendering:auto;image-rendering:auto;shape-rendering:auto;text-rendering:auto;enable-background:accumulate" />
      <path
         id="path16143"
         d="m 2054.3591,-81.39084 -2.6851,2.685044 9.3977,-2.685044 -9.3977,-2.685044 2.6851,2.685044 z"
         style="fill:#000000;fill-opacity:1;fill-rule:evenodd;stroke:#000000;stroke-width:0.53700886pt;stroke-opacity:1" />
    </g>
    <g
       id="g16145"
       transform="translate(-2056.9848,513.75283)">
      <path
         id="path8507"
         d="m 2497.3906,-81.726562 0,0.671874 33.5645,0 0,-0.671874 -33.5645,0 z"
         style="color:#000000;font-style:normal;font-variant:normal;font-weight:normal;font-stretch:normal;font-size:medium;line-height:normal;font-family:sans-serif;text-indent:0;text-align:start;text-decoration:none;text-decoration-line:none;text-decoration-style:solid;text-decoration-color:#000000;letter-spacing:normal;word-spacing:normal;text-transform:none;direction:ltr;block-progression:tb;writing-mode:lr-tb;baseline-shift:baseline;text-anchor:start;white-space:normal;clip-rule:nonzero;display:inline;overflow:visible;visibility:visible;opacity:1;isolation:auto;mix-blend-mode:normal;color-interpolation:sRGB;color-interpolation-filters:linearRGB;solid-color:#000000;solid-opacity:1;fill:#000000;fill-opacity:1;fill-rule:evenodd;stroke:none;stroke-width:0.67126107px;stroke-linecap:butt;stroke-linejoin:miter;stroke-miterlimit:4;stroke-dasharray:none;stroke-dashoffset:0;stroke-opacity:1;color-rendering:auto;image-rendering:auto;shape-rendering:auto;text-rendering:auto;enable-background:accumulate" />
      <path
         id="path16151"
         d="m 2524.2418,-81.39084 -2.6851,2.685044 9.3977,-2.685044 -9.3977,-2.685044 2.6851,2.685044 z"
         style="fill:#000000;fill-opacity:1;fill-rule:evenodd;stroke:#000000;stroke-width:0.53700886pt;stroke-opacity:1" />
    </g>
    <path
       id="rect8509"
       d="m 254.02888,448.80752 c -8.4902,0 -15.336,6.8458 -15.336,15.33593 l 0,3.5625 c 0,8.49014 6.8458,15.33594 15.336,15.33594 l 53.9062,0 c 8.4902,0 15.336,-6.8458 15.336,-15.33594 l 0,-3.5625 c 0,-8.49013 -6.8458,-15.33593 -15.336,-15.33593 l -53.9062,0 z m 0,0.67187 53.9062,0 c 8.1299,0 14.666,6.5342 14.666,14.66406 l 0,3.5625 c 0,8.12987 -6.5361,14.66407 -14.666,14.66407 l -53.9062,0 c -8.1299,0 -14.666,-6.5342 -14.666,-14.66407 l 0,-3.5625 c 0,-8.12986 6.5361,-14.66406 14.666,-14.66406 z"
       style="color:#000000;font-style:normal;font-variant:normal;font-weight:normal;font-stretch:normal;font-size:medium;line-height:normal;font-family:sans-serif;text-indent:0;text-align:start;text-decoration:none;text-decoration-line:none;text-decoration-style:solid;text-decoration-color:#000000;letter-spacing:normal;word-spacing:normal;text-transform:none;direction:ltr;block-progression:tb;writing-mode:lr-tb;baseline-shift:baseline;text-anchor:start;white-space:normal;clip-rule:nonzero;display:inline;overflow:visible;visibility:visible;opacity:1;isolation:auto;mix-blend-mode:normal;color-interpolation:sRGB;color-interpolation-filters:linearRGB;solid-color:#000000;solid-opacity:1;fill:#000000;fill-opacity:1;fill-rule:nonzero;stroke:none;stroke-width:0.67126107;stroke-linecap:round;stroke-linejoin:round;stroke-miterlimit:4;stroke-dasharray:none;stroke-dashoffset:0;stroke-opacity:1;color-rendering:auto;image-rendering:auto;shape-rendering:auto;text-rendering:auto;enable-background:accumulate" />
    <g
       id="flowRoot8511"
       style="font-style:normal;font-variant:normal;font-weight:normal;font-stretch:normal;font-size:22px;line-height:125%;font-family:Avenir;-inkscape-font-specification:Avenir;text-align:center;letter-spacing:0px;word-spacing:0px;writing-mode:lr-tb;text-anchor:middle;fill:#000000;fill-opacity:1;stroke:none;stroke-width:1px;stroke-linecap:butt;stroke-linejoin:miter;stroke-opacity:1"
       transform="matrix(0.67126109,0,0,0.67126109,171.90208,487.2236)">
      <path
         id="path12444"
         d="m 120.67989,-33.4469 q 0,-1.474 -0.88,-2.376 -0.88,-0.924 -2.464,-0.924 -0.704,0 -1.364,0.286 -0.66,0.264 -1.166,0.726 -0.484,0.462 -0.792,1.056 -0.286,0.594 -0.286,1.232 l 6.952,0 z m -6.996,1.188 q 0.066,0.77 0.374,1.452 0.308,0.682 0.814,1.188 0.506,0.484 1.166,0.77 0.66,0.286 1.43,0.286 1.166,0 2.002,-0.528 0.858,-0.55 1.298,-1.254 l 1.122,0.924 q -0.924,1.166 -2.046,1.672 -1.1,0.506 -2.376,0.506 -1.144,0 -2.134,-0.396 -0.968,-0.418 -1.672,-1.144 -0.704,-0.726 -1.122,-1.716 -0.396,-0.99 -0.396,-2.156 0,-1.166 0.396,-2.156 0.396,-0.99 1.1,-1.716 0.704,-0.726 1.65,-1.122 0.946,-0.418 2.046,-0.418 1.166,0 2.09,0.418 0.924,0.418 1.54,1.122 0.638,0.682 0.968,1.628 0.33,0.924 0.33,1.98 l 0,0.66 -8.58,0 z" />
      <path
         id="path12446"
         d="m 129.44998,-27.5069 -1.628,0 -4.18,-10.296 1.738,0 3.278,8.668 0.044,0 3.278,-8.668 1.65,0 -4.18,10.296 z" />
      <path
         id="path12448"
         d="m 141.38327,-32.6329 q -0.55,0 -1.386,0.066 -0.814,0.044 -1.584,0.264 -0.748,0.198 -1.298,0.638 -0.528,0.44 -0.528,1.21 0,0.506 0.198,0.88 0.22,0.352 0.572,0.594 0.352,0.22 0.77,0.33 0.44,0.088 0.88,0.088 0.792,0 1.364,-0.264 0.594,-0.264 0.99,-0.704 0.396,-0.462 0.572,-1.056 0.198,-0.616 0.198,-1.298 l 0,-0.748 -0.748,0 z m 0.748,-1.188 0,-0.264 q 0,-2.662 -2.64,-2.662 -1.804,0 -3.146,1.21 l -0.88,-1.034 q 1.452,-1.496 4.356,-1.496 0.748,0 1.43,0.22 0.704,0.22 1.21,0.682 0.506,0.44 0.814,1.122 0.308,0.682 0.308,1.628 l 0,4.598 q 0,0.594 0.044,1.254 0.066,0.638 0.132,1.056 l -1.408,0 q -0.066,-0.374 -0.11,-0.814 -0.022,-0.44 -0.022,-0.858 l -0.044,0 q -0.638,1.034 -1.518,1.496 -0.858,0.44 -2.112,0.44 -0.682,0 -1.32,-0.198 -0.638,-0.176 -1.144,-0.55 -0.484,-0.396 -0.792,-0.946 -0.286,-0.572 -0.286,-1.32 0,-1.254 0.638,-1.958 0.66,-0.726 1.628,-1.078 0.99,-0.352 2.09,-0.44 1.122,-0.088 2.046,-0.088 l 0.726,0 z" />
      <path
         id="path12450"
         d="m 148.74295,-27.5069 -1.452,0 0,-16.632 1.452,0 0,16.632 z" />
      <path
         id="path12452"
         d="m 159.72508,-27.5069 q -0.044,-0.418 -0.066,-0.814 0,-0.418 0,-0.836 l -0.044,0 q -0.242,0.418 -0.616,0.77 -0.374,0.352 -0.836,0.616 -0.462,0.242 -0.99,0.374 -0.506,0.154 -1.012,0.154 -1.98,0 -2.926,-1.034 -0.946,-1.056 -0.946,-2.992 l 0,-6.534 1.452,0 0,5.698 q 0,0.858 0.132,1.518 0.132,0.66 0.44,1.122 0.33,0.44 0.858,0.682 0.55,0.22 1.364,0.22 0.11,0 0.616,-0.088 0.506,-0.088 1.056,-0.484 0.572,-0.396 1.012,-1.188 0.44,-0.792 0.44,-2.2 l 0,-5.28 1.452,0 0,8.03 q 0,0.418 0.022,1.056 0.044,0.638 0.088,1.21 l -1.496,0 z" />
      <path
         id="path12454"
         d="m 170.38717,-32.6329 q -0.55,0 -1.386,0.066 -0.814,0.044 -1.584,0.264 -0.748,0.198 -1.298,0.638 -0.528,0.44 -0.528,1.21 0,0.506 0.198,0.88 0.22,0.352 0.572,0.594 0.352,0.22 0.77,0.33 0.44,0.088 0.88,0.088 0.792,0 1.364,-0.264 0.594,-0.264 0.99,-0.704 0.396,-0.462 0.572,-1.056 0.198,-0.616 0.198,-1.298 l 0,-0.748 -0.748,0 z m 0.748,-1.188 0,-0.264 q 0,-2.662 -2.64,-2.662 -1.804,0 -3.146,1.21 l -0.88,-1.034 q 1.452,-1.496 4.356,-1.496 0.748,0 1.43,0.22 0.704,0.22 1.21,0.682 0.506,0.44 0.814,1.122 0.308,0.682 0.308,1.628 l 0,4.598 q 0,0.594 0.044,1.254 0.066,0.638 0.132,1.056 l -1.408,0 q -0.066,-0.374 -0.11,-0.814 -0.022,-0.44 -0.022,-0.858 l -0.044,0 q -0.638,1.034 -1.518,1.496 -0.858,0.44 -2.112,0.44 -0.682,0 -1.32,-0.198 -0.638,-0.176 -1.144,-0.55 -0.484,-0.396 -0.792,-0.946 -0.286,-0.572 -0.286,-1.32 0,-1.254 0.638,-1.958 0.66,-0.726 1.628,-1.078 0.99,-0.352 2.09,-0.44 1.122,-0.088 2.046,-0.088 l 0.726,0 z" />
      <path
         id="path12456"
         d="m 181.28886,-36.4829 -2.97,0 0,6.072 q 0,0.572 0.11,0.946 0.11,0.352 0.308,0.55 0.198,0.198 0.462,0.286 0.286,0.066 0.616,0.066 0.374,0 0.77,-0.11 0.396,-0.11 0.726,-0.286 l 0.066,1.342 q -0.814,0.374 -1.958,0.374 -0.418,0 -0.88,-0.11 -0.44,-0.11 -0.814,-0.418 -0.374,-0.308 -0.616,-0.836 -0.242,-0.528 -0.242,-1.386 l 0,-6.49 -2.178,0 0,-1.32 2.178,0 0,-2.904 1.452,0 0,2.904 2.97,0 0,1.32 z" />
      <path
         id="path12458"
         d="m 191.27755,-33.4469 q 0,-1.474 -0.88,-2.376 -0.88,-0.924 -2.464,-0.924 -0.704,0 -1.364,0.286 -0.66,0.264 -1.166,0.726 -0.484,0.462 -0.792,1.056 -0.286,0.594 -0.286,1.232 l 6.952,0 z m -6.996,1.188 q 0.066,0.77 0.374,1.452 0.308,0.682 0.814,1.188 0.506,0.484 1.166,0.77 0.66,0.286 1.43,0.286 1.166,0 2.002,-0.528 0.858,-0.55 1.298,-1.254 l 1.122,0.924 q -0.924,1.166 -2.046,1.672 -1.1,0.506 -2.376,0.506 -1.144,0 -2.134,-0.396 -0.968,-0.418 -1.672,-1.144 -0.704,-0.726 -1.122,-1.716 -0.396,-0.99 -0.396,-2.156 0,-1.166 0.396,-2.156 0.396,-0.99 1.1,-1.716 0.704,-0.726 1.65,-1.122 0.946,-0.418 2.046,-0.418 1.166,0 2.09,0.418 0.924,0.418 1.54,1.122 0.638,0.682 0.968,1.628 0.33,0.924 0.33,1.98 l 0,0.66 -8.58,0 z" />
      <path
         id="path12460"
         d="m 203.7292,-28.9589 3.036,0 q 0.858,0 1.606,-0.176 0.748,-0.176 1.298,-0.528 0.55,-0.374 0.858,-0.924 0.33,-0.55 0.33,-1.32 0,-1.54 -0.99,-2.288 -0.99,-0.748 -2.904,-0.748 l -3.234,0 0,5.984 z m 0,-7.304 3.19,0 q 0.572,0 1.122,-0.132 0.572,-0.154 1.012,-0.484 0.462,-0.33 0.748,-0.836 0.286,-0.528 0.286,-1.276 0,-0.242 -0.11,-0.682 -0.088,-0.44 -0.44,-0.88 -0.33,-0.44 -0.99,-0.748 -0.66,-0.33 -1.782,-0.33 l -3.036,0 0,5.368 z m -1.584,-6.82 4.642,0 q 0.968,0 1.87,0.198 0.902,0.198 1.606,0.66 0.704,0.462 1.122,1.21 0.418,0.748 0.418,1.848 0,1.276 -0.726,2.2 -0.704,0.902 -2.024,1.21 l 0,0.044 q 1.65,0.132 2.574,1.166 0.946,1.012 0.946,2.728 0,0.374 -0.198,1.1 -0.176,0.726 -0.77,1.452 -0.594,0.704 -1.716,1.232 -1.122,0.528 -2.992,0.528 l -4.752,0 0,-15.576 z" />
    </g>
    <path
       id="rect8519"
       d="m 136.55818,415.24502 c -8.4902,0 -15.336,6.8458 -15.336,15.33593 l 0,3.5625 c 0,8.49014 6.8458,15.33594 15.336,15.33594 l 53.9062,0 c 8.4902,0 15.336,-6.8458 15.336,-15.33594 l 0,-3.5625 c 0,-8.49013 -6.8458,-15.33593 -15.336,-15.33593 l -53.9062,0 z m 0,0.67187 53.9062,0 c 8.1299,0 14.666,6.5342 14.666,14.66406 l 0,3.5625 c 0,8.12987 -6.5361,14.66407 -14.666,14.66407 l -53.9062,0 c -8.1299,0 -14.6641,-6.5342 -14.6641,-14.66407 l 0,-3.5625 c 0,-8.12986 6.5342,-14.66406 14.6641,-14.66406 z"
       style="color:#000000;font-style:normal;font-variant:normal;font-weight:normal;font-stretch:normal;font-size:medium;line-height:normal;font-family:sans-serif;text-indent:0;text-align:start;text-decoration:none;text-decoration-line:none;text-decoration-style:solid;text-decoration-color:#000000;letter-spacing:normal;word-spacing:normal;text-transform:none;direction:ltr;block-progression:tb;writing-mode:lr-tb;baseline-shift:baseline;text-anchor:start;white-space:normal;clip-rule:nonzero;display:inline;overflow:visible;visibility:visible;opacity:1;isolation:auto;mix-blend-mode:normal;color-interpolation:sRGB;color-interpolation-filters:linearRGB;solid-color:#000000;solid-opacity:1;fill:#000000;fill-opacity:1;fill-rule:nonzero;stroke:none;stroke-width:0.67126107;stroke-linecap:round;stroke-linejoin:round;stroke-miterlimit:4;stroke-dasharray:none;stroke-dashoffset:0;stroke-opacity:1;color-rendering:auto;image-rendering:auto;shape-rendering:auto;text-rendering:auto;enable-background:accumulate" />
    <g
       id="flowRoot8521"
       style="font-style:normal;font-variant:normal;font-weight:normal;font-stretch:normal;font-size:22px;line-height:125%;font-family:Avenir;-inkscape-font-specification:Avenir;text-align:center;letter-spacing:0px;word-spacing:0px;writing-mode:lr-tb;text-anchor:middle;fill:#000000;fill-opacity:1;stroke:none;stroke-width:1px;stroke-linecap:butt;stroke-linejoin:miter;stroke-opacity:1"
       transform="matrix(0.67126109,0,0,0.67126109,54.431383,453.66055)">
      <path
         id="path12424"
         d="m 132.14206,-32.6549 q 0,-0.858 -0.286,-1.606 -0.264,-0.748 -0.77,-1.298 -0.506,-0.55 -1.232,-0.858 -0.704,-0.33 -1.606,-0.33 -0.902,0 -1.65,0.33 -0.748,0.308 -1.298,0.858 -0.55,0.55 -0.858,1.298 -0.308,0.748 -0.308,1.606 0,0.858 0.308,1.606 0.308,0.748 0.858,1.298 0.55,0.55 1.298,0.88 0.748,0.308 1.65,0.308 0.902,0 1.606,-0.308 0.726,-0.33 1.232,-0.88 0.506,-0.55 0.77,-1.298 0.286,-0.748 0.286,-1.606 z m -9.394,-5.148 1.452,0 0,1.716 0.044,0 q 0.352,-0.528 0.836,-0.902 0.484,-0.374 1.012,-0.616 0.528,-0.242 1.078,-0.352 0.572,-0.11 1.078,-0.11 1.21,0 2.2,0.418 1.012,0.396 1.738,1.122 0.726,0.726 1.122,1.716 0.418,0.99 0.418,2.156 0,1.166 -0.418,2.156 -0.396,0.99 -1.122,1.716 -0.726,0.726 -1.738,1.144 -0.99,0.396 -2.2,0.396 -0.506,0 -1.078,-0.11 -0.55,-0.11 -1.078,-0.352 -0.528,-0.242 -1.012,-0.616 -0.484,-0.374 -0.836,-0.902 l -0.044,0 0,8.052 -1.452,0 0,-16.632 z" />
      <path
         id="path12426"
         d="m 142.04928,-32.6329 q -0.55,0 -1.386,0.066 -0.814,0.044 -1.584,0.264 -0.748,0.198 -1.298,0.638 -0.528,0.44 -0.528,1.21 0,0.506 0.198,0.88 0.22,0.352 0.572,0.594 0.352,0.22 0.77,0.33 0.44,0.088 0.88,0.088 0.792,0 1.364,-0.264 0.594,-0.264 0.99,-0.704 0.396,-0.462 0.572,-1.056 0.198,-0.616 0.198,-1.298 l 0,-0.748 -0.748,0 z m 0.748,-1.188 0,-0.264 q 0,-2.662 -2.64,-2.662 -1.804,0 -3.146,1.21 l -0.88,-1.034 q 1.452,-1.496 4.356,-1.496 0.748,0 1.43,0.22 0.704,0.22 1.21,0.682 0.506,0.44 0.814,1.122 0.308,0.682 0.308,1.628 l 0,4.598 q 0,0.594 0.044,1.254 0.066,0.638 0.132,1.056 l -1.408,0 q -0.066,-0.374 -0.11,-0.814 -0.022,-0.44 -0.022,-0.858 l -0.044,0 q -0.638,1.034 -1.518,1.496 -0.858,0.44 -2.112,0.44 -0.682,0 -1.32,-0.198 -0.638,-0.176 -1.144,-0.55 -0.484,-0.396 -0.792,-0.946 -0.286,-0.572 -0.286,-1.32 0,-1.254 0.638,-1.958 0.66,-0.726 1.628,-1.078 0.99,-0.352 2.09,-0.44 1.122,-0.088 2.046,-0.088 l 0.726,0 z" />
      <path
         id="path12428"
         d="m 147.78097,-34.5909 q 0,-0.682 -0.044,-1.386 -0.022,-0.704 -0.044,-1.826 l 1.43,0 0,1.914 0.044,0 q 0.154,-0.418 0.44,-0.792 0.286,-0.396 0.682,-0.704 0.418,-0.308 0.946,-0.484 0.55,-0.198 1.232,-0.198 0.616,0 1.078,0.132 l -0.286,1.43 q -0.286,-0.11 -0.836,-0.11 -0.836,0 -1.43,0.33 -0.594,0.308 -0.99,0.814 -0.396,0.484 -0.594,1.056 -0.176,0.572 -0.176,1.1 l 0,5.808 -1.452,0 0,-7.084 z" />
      <path
         id="path12430"
         d="m 160.25566,-36.4829 -2.97,0 0,6.072 q 0,0.572 0.11,0.946 0.11,0.352 0.308,0.55 0.198,0.198 0.462,0.286 0.286,0.066 0.616,0.066 0.374,0 0.77,-0.11 0.396,-0.11 0.726,-0.286 l 0.066,1.342 q -0.814,0.374 -1.958,0.374 -0.418,0 -0.88,-0.11 -0.44,-0.11 -0.814,-0.418 -0.374,-0.308 -0.616,-0.836 -0.242,-0.528 -0.242,-1.386 l 0,-6.49 -2.178,0 0,-1.32 2.178,0 0,-2.904 1.452,0 0,2.904 2.97,0 0,1.32 z" />
      <path
         id="path12432"
         d="m 164.34834,-41.7629 q 0,0.462 -0.33,0.77 -0.33,0.286 -0.726,0.286 -0.396,0 -0.726,-0.286 -0.33,-0.308 -0.33,-0.77 0,-0.462 0.33,-0.748 0.33,-0.308 0.726,-0.308 0.396,0 0.726,0.308 0.33,0.286 0.33,0.748 z m -0.33,14.256 -1.452,0 0,-10.296 1.452,0 0,10.296 z" />
      <path
         id="path12434"
         d="m 172.8455,-36.4829 -2.97,0 0,6.072 q 0,0.572 0.11,0.946 0.11,0.352 0.308,0.55 0.198,0.198 0.462,0.286 0.286,0.066 0.616,0.066 0.374,0 0.77,-0.11 0.396,-0.11 0.726,-0.286 l 0.066,1.342 q -0.814,0.374 -1.958,0.374 -0.418,0 -0.88,-0.11 -0.44,-0.11 -0.814,-0.418 -0.374,-0.308 -0.616,-0.836 -0.242,-0.528 -0.242,-1.386 l 0,-6.49 -2.178,0 0,-1.32 2.178,0 0,-2.904 1.452,0 0,2.904 2.97,0 0,1.32 z" />
      <path
         id="path12436"
         d="m 176.93819,-41.7629 q 0,0.462 -0.33,0.77 -0.33,0.286 -0.726,0.286 -0.396,0 -0.726,-0.286 -0.33,-0.308 -0.33,-0.77 0,-0.462 0.33,-0.748 0.33,-0.308 0.726,-0.308 0.396,0 0.726,0.308 0.33,0.286 0.33,0.748 z m -0.33,14.256 -1.452,0 0,-10.296 1.452,0 0,10.296 z" />
      <path
         id="path12438"
         d="m 188.93334,-32.6549 q 0,-0.858 -0.286,-1.606 -0.264,-0.748 -0.77,-1.298 -0.506,-0.55 -1.232,-0.858 -0.704,-0.33 -1.606,-0.33 -0.902,0 -1.628,0.33 -0.704,0.308 -1.21,0.858 -0.484,0.55 -0.77,1.298 -0.264,0.748 -0.264,1.606 0,0.858 0.264,1.606 0.286,0.748 0.77,1.298 0.506,0.55 1.21,0.88 0.726,0.308 1.628,0.308 0.902,0 1.606,-0.308 0.726,-0.33 1.232,-0.88 0.506,-0.55 0.77,-1.298 0.286,-0.748 0.286,-1.606 z m 1.584,0 q 0,1.166 -0.418,2.156 -0.396,0.99 -1.122,1.716 -0.726,0.726 -1.738,1.144 -0.99,0.396 -2.2,0.396 -1.188,0 -2.2,-0.396 -0.99,-0.418 -1.716,-1.144 -0.726,-0.726 -1.144,-1.716 -0.396,-0.99 -0.396,-2.156 0,-1.166 0.396,-2.156 0.418,-0.99 1.144,-1.716 0.726,-0.726 1.716,-1.122 1.012,-0.418 2.2,-0.418 1.21,0 2.2,0.418 1.012,0.396 1.738,1.122 0.726,0.726 1.122,1.716 0.418,0.99 0.418,2.156 z" />
      <path
         id="path12440"
         d="m 194.55984,-37.8029 q 0.044,0.418 0.044,0.836 0.022,0.396 0.022,0.814 l 0.044,0 q 0.242,-0.418 0.616,-0.77 0.374,-0.352 0.836,-0.594 0.462,-0.264 0.968,-0.396 0.528,-0.154 1.034,-0.154 1.98,0 2.926,1.056 0.946,1.034 0.946,2.97 l 0,6.534 -1.452,0 0,-5.698 q 0,-1.716 -0.594,-2.618 -0.594,-0.924 -2.2,-0.924 -0.11,0 -0.616,0.088 -0.506,0.088 -1.078,0.484 -0.55,0.396 -0.99,1.188 -0.44,0.792 -0.44,2.2 l 0,5.28 -1.452,0 0,-8.03 q 0,-0.418 -0.044,-1.056 -0.022,-0.638 -0.066,-1.21 l 1.496,0 z" />
    </g>
    <g
       id="g16153"
       transform="translate(-2056.9848,513.75283)">
      <path
         id="path8529"
         d="m 2144.9785,-81.726562 0,0.671874 33.5645,0 0,-0.671874 -33.5645,0 z"
         style="color:#000000;font-style:normal;font-variant:normal;font-weight:normal;font-stretch:normal;font-size:medium;line-height:normal;font-family:sans-serif;text-indent:0;text-align:start;text-decoration:none;text-decoration-line:none;text-decoration-style:solid;text-decoration-color:#000000;letter-spacing:normal;word-spacing:normal;text-transform:none;direction:ltr;block-progression:tb;writing-mode:lr-tb;baseline-shift:baseline;text-anchor:start;white-space:normal;clip-rule:nonzero;display:inline;overflow:visible;visibility:visible;opacity:1;isolation:auto;mix-blend-mode:normal;color-interpolation:sRGB;color-interpolation-filters:linearRGB;solid-color:#000000;solid-opacity:1;fill:#000000;fill-opacity:1;fill-rule:evenodd;stroke:none;stroke-width:0.67126107px;stroke-linecap:butt;stroke-linejoin:miter;stroke-miterlimit:4;stroke-dasharray:none;stroke-dashoffset:0;stroke-opacity:1;color-rendering:auto;image-rendering:auto;shape-rendering:auto;text-rendering:auto;enable-background:accumulate" />
      <path
         id="path16159"
         d="m 2171.8297,-81.39083 -2.6851,2.685044 9.3977,-2.685044 -9.3977,-2.685044 2.6851,2.685044 z"
         style="fill:#000000;fill-opacity:1;fill-rule:evenodd;stroke:#000000;stroke-width:0.53700886pt;stroke-opacity:1" />
    </g>
    <g
       id="g16161"
       transform="translate(-2056.9848,513.75283)">
      <path
         id="path8531"
         d="m 2296.0137,-115.28906 c 0,0 -4.2656,-0.005 -8.541,2.13281 -4.2755,2.13772 -8.5762,6.48173 -8.5762,14.984375 0,8.278888 -4.0898,12.325148 -8.2051,14.382813 -4.1153,2.057664 -8.2422,2.0625 -8.2422,2.0625 l 0,0.671874 c 0,0 4.2656,0.0049 8.541,-2.132812 4.2755,-2.137718 8.5762,-6.481733 8.5762,-14.984375 0,-8.278895 4.0898,-12.327095 8.2051,-14.384765 4.1153,-2.05767 8.2422,-2.0625 8.2422,-2.0625 l 0,-0.66992 z"
         style="color:#000000;font-style:normal;font-variant:normal;font-weight:normal;font-stretch:normal;font-size:medium;line-height:normal;font-family:sans-serif;text-indent:0;text-align:start;text-decoration:none;text-decoration-line:none;text-decoration-style:solid;text-decoration-color:#000000;letter-spacing:normal;word-spacing:normal;text-transform:none;direction:ltr;block-progression:tb;writing-mode:lr-tb;baseline-shift:baseline;text-anchor:start;white-space:normal;clip-rule:nonzero;display:inline;overflow:visible;visibility:visible;opacity:1;isolation:auto;mix-blend-mode:normal;color-interpolation:sRGB;color-interpolation-filters:linearRGB;solid-color:#000000;solid-opacity:1;fill:#000000;fill-opacity:1;fill-rule:evenodd;stroke:none;stroke-width:0.67126107px;stroke-linecap:butt;stroke-linejoin:miter;stroke-miterlimit:4;stroke-dasharray:none;stroke-dashoffset:0;stroke-opacity:1;color-rendering:auto;image-rendering:auto;shape-rendering:auto;text-rendering:auto;enable-background:accumulate" />
      <path
         style="fill:#000000;fill-opacity:1;fill-rule:evenodd;stroke:#000000;stroke-width:0.53700886pt;stroke-opacity:1"
         d="m 2289.3004,-114.9539 -2.6851,2.68504 9.3977,-2.68504 -9.3977,-2.68504 2.6851,2.68504 z"
         id="path16167" />
    </g>
    <g
       id="g16169"
       transform="translate(-2056.9848,513.75283)">
      <path
         id="path8533"
         d="m 2262.4492,-81.726562 0,0.671874 c 0,0 4.1269,0.0048 8.2422,2.0625 4.1153,2.057665 8.2051,6.103925 8.2051,14.382813 0,8.502637 4.3007,12.846659 8.5762,14.984375 4.2754,2.137716 8.541,2.132812 8.541,2.132812 l 0,-0.671874 c 0,0 -4.1269,-0.0048 -8.2422,-2.0625 -4.1153,-2.057664 -8.2051,-6.10393 -8.2051,-14.382813 0,-8.502642 -4.3007,-12.846657 -8.5762,-14.984375 -4.2754,-2.137718 -8.541,-2.132812 -8.541,-2.132812 z"
         style="color:#000000;font-style:normal;font-variant:normal;font-weight:normal;font-stretch:normal;font-size:medium;line-height:normal;font-family:sans-serif;text-indent:0;text-align:start;text-decoration:none;text-decoration-line:none;text-decoration-style:solid;text-decoration-color:#000000;letter-spacing:normal;word-spacing:normal;text-transform:none;direction:ltr;block-progression:tb;writing-mode:lr-tb;baseline-shift:baseline;text-anchor:start;white-space:normal;clip-rule:nonzero;display:inline;overflow:visible;visibility:visible;opacity:1;isolation:auto;mix-blend-mode:normal;color-interpolation:sRGB;color-interpolation-filters:linearRGB;solid-color:#000000;solid-opacity:1;fill:#000000;fill-opacity:1;fill-rule:evenodd;stroke:none;stroke-width:0.67126107px;stroke-linecap:butt;stroke-linejoin:miter;stroke-miterlimit:4;stroke-dasharray:none;stroke-dashoffset:0;stroke-opacity:1;color-rendering:auto;image-rendering:auto;shape-rendering:auto;text-rendering:auto;enable-background:accumulate" />
      <path
         style="fill:#000000;fill-opacity:1;fill-rule:evenodd;stroke:#000000;stroke-width:0.53700886pt;stroke-opacity:1"
         d="m 2289.3004,-47.82778 -2.6851,2.685044 9.3977,-2.685044 -9.3977,-2.685044 2.6851,2.685044 z"
         id="path16175" />
    </g>
    <g
       id="g16177"
       transform="translate(-2056.9848,513.75283)">
      <path
         id="path8535"
         d="m 2413.4844,-81.726562 c 0,0 -4.2656,-0.0049 -8.541,2.132812 -4.2755,2.137718 -8.5762,6.481733 -8.5762,14.984375 0,8.278883 -4.0898,12.325149 -8.2051,14.382813 -4.1153,2.057663 -8.2422,2.0625 -8.2422,2.0625 l 0,0.671874 c 0,0 4.2656,0.0049 8.541,-2.132812 4.2755,-2.137716 8.5762,-6.481738 8.5762,-14.984375 0,-8.278888 4.0898,-12.325148 8.2051,-14.382813 4.1153,-2.057664 8.2422,-2.0625 8.2422,-2.0625 l 0,-0.671874 z"
         style="color:#000000;font-style:normal;font-variant:normal;font-weight:normal;font-stretch:normal;font-size:medium;line-height:normal;font-family:sans-serif;text-indent:0;text-align:start;text-decoration:none;text-decoration-line:none;text-decoration-style:solid;text-decoration-color:#000000;letter-spacing:normal;word-spacing:normal;text-transform:none;direction:ltr;block-progression:tb;writing-mode:lr-tb;baseline-shift:baseline;text-anchor:start;white-space:normal;clip-rule:nonzero;display:inline;overflow:visible;visibility:visible;opacity:1;isolation:auto;mix-blend-mode:normal;color-interpolation:sRGB;color-interpolation-filters:linearRGB;solid-color:#000000;solid-opacity:1;fill:#000000;fill-opacity:1;fill-rule:evenodd;stroke:none;stroke-width:0.67126107px;stroke-linecap:butt;stroke-linejoin:miter;stroke-miterlimit:4;stroke-dasharray:none;stroke-dashoffset:0;stroke-opacity:1;color-rendering:auto;image-rendering:auto;shape-rendering:auto;text-rendering:auto;enable-background:accumulate" />
      <path
         style="fill:#000000;fill-opacity:1;fill-rule:evenodd;stroke:#000000;stroke-width:0.53700886pt;stroke-opacity:1"
         d="m 2406.7711,-81.39083 -2.6851,2.685044 9.3977,-2.685044 -9.3977,-2.685044 2.6851,2.685044 z"
         id="path16183" />
    </g>
    <g
       id="g16185"
       transform="translate(-2056.9848,513.75283)">
      <path
         id="path8537"
         d="m 2379.9199,-115.28906 0,0.66992 c 8.2789,0 12.3271,4.0917 14.3848,8.20703 2.0576,4.11533 2.0625,8.240235 2.0625,8.240235 0,0 0,4.265581 2.1328,8.541016 2.1377,4.275435 6.4817,8.576172 14.9844,8.576171 l 0,-0.671874 c -8.2789,0 -12.3271,-4.089749 -14.3848,-8.205079 -2.0577,-4.11533 -2.0625,-8.240234 -2.0625,-8.240234 0,0 0,-4.265575 -2.1328,-8.541015 -2.1377,-4.27544 -6.4818,-8.57617 -14.9844,-8.57617 z"
         style="color:#000000;font-style:normal;font-variant:normal;font-weight:normal;font-stretch:normal;font-size:medium;line-height:normal;font-family:sans-serif;text-indent:0;text-align:start;text-decoration:none;text-decoration-line:none;text-decoration-style:solid;text-decoration-color:#000000;letter-spacing:normal;word-spacing:normal;text-transform:none;direction:ltr;block-progression:tb;writing-mode:lr-tb;baseline-shift:baseline;text-anchor:start;white-space:normal;clip-rule:nonzero;display:inline;overflow:visible;visibility:visible;opacity:1;isolation:auto;mix-blend-mode:normal;color-interpolation:sRGB;color-interpolation-filters:linearRGB;solid-color:#000000;solid-opacity:1;fill:#000000;fill-opacity:1;fill-rule:evenodd;stroke:none;stroke-width:0.67126107px;stroke-linecap:butt;stroke-linejoin:miter;stroke-miterlimit:4;stroke-dasharray:none;stroke-dashoffset:0;stroke-opacity:1;color-rendering:auto;image-rendering:auto;shape-rendering:auto;text-rendering:auto;enable-background:accumulate" />
      <path
         id="path16191"
         d="m 2406.7711,-81.39083 -2.6851,2.685044 9.3977,-2.685044 -9.3977,-2.685044 2.6851,2.685044 z"
         style="fill:#000000;fill-opacity:1;fill-rule:evenodd;stroke:#000000;stroke-width:0.53700886pt;stroke-opacity:1" />
    </g>
  </g>
</svg>
