<?xml version="1.0" encoding="UTF-8" standalone="no"?>
<svg
   xmlns:dc="http://purl.org/dc/elements/1.1/"
   xmlns:cc="http://creativecommons.org/ns#"
   xmlns:rdf="http://www.w3.org/1999/02/22-rdf-syntax-ns#"
   xmlns:svg="http://www.w3.org/2000/svg"
   xmlns="http://www.w3.org/2000/svg"
   version="1.1"
   id="svg7085"
   viewBox="0 0 388.95938 34.38867"
   height="9.7052469mm"
   width="109.77298mm">
  <defs
     id="defs7087" />
  <metadata
     id="metadata7090">
    <rdf:RDF>
      <cc:Work
         rdf:about="">
        <dc:format>image/svg+xml</dc:format>
        <dc:type
           rdf:resource="http://purl.org/dc/dcmitype/StillImage" />
        <dc:title></dc:title>
      </cc:Work>
    </rdf:RDF>
  </metadata>
  <g
     transform="translate(-5.5203,-292.31073)"
     id="layer1">
    <path
       id="rect6687"
       d="m 54.235115,292.31073 c -8.4909,0 -15.3359,6.84498 -15.3359,15.33593 l 0,3.7168 c 0,8.49095 6.845,15.33594 15.3359,15.33594 l 54.291095,0 c 8.4909,0 15.3359,-6.84499 15.3359,-15.33594 l 0,-3.7168 c 0,-8.49095 -6.845,-15.33593 -15.3359,-15.33593 l -54.291095,0 z m 0,0.67382 54.291095,0 c 8.129,0 14.6621,6.53307 14.6621,14.66211 l 0,3.7168 c 0,8.12905 -6.5331,14.66211 -14.6621,14.66211 l -54.291095,0 c -8.129,0 -14.6621,-6.53306 -14.6621,-14.66211 l 0,-3.7168 c 0,-8.12904 6.5331,-14.66211 14.6621,-14.66211 z"
       style="color:#000000;font-style:normal;font-variant:normal;font-weight:normal;font-stretch:normal;font-size:medium;line-height:normal;font-family:sans-serif;text-indent:0;text-align:start;text-decoration:none;text-decoration-line:none;text-decoration-style:solid;text-decoration-color:#000000;letter-spacing:normal;word-spacing:normal;text-transform:none;direction:ltr;block-progression:tb;writing-mode:lr-tb;baseline-shift:baseline;text-anchor:start;white-space:normal;clip-rule:nonzero;display:inline;overflow:visible;visibility:visible;opacity:1;isolation:auto;mix-blend-mode:normal;color-interpolation:sRGB;color-interpolation-filters:linearRGB;solid-color:#000000;solid-opacity:1;fill:#000000;fill-opacity:1;fill-rule:nonzero;stroke:none;stroke-width:0.67431659;stroke-linecap:round;stroke-linejoin:round;stroke-miterlimit:4;stroke-dasharray:none;stroke-dashoffset:0;stroke-opacity:1;color-rendering:auto;image-rendering:auto;shape-rendering:auto;text-rendering:auto;enable-background:accumulate" />
    <path
       id="path6956"
       style="font-style:normal;font-variant:normal;font-weight:normal;font-stretch:normal;font-size:22px;line-height:125%;font-family:Avenir;-inkscape-font-specification:Avenir;text-align:center;letter-spacing:0px;word-spacing:0px;writing-mode:lr-tb;text-anchor:middle;fill:#000000;fill-opacity:1;stroke:none;stroke-width:1px;stroke-linecap:butt;stroke-linejoin:miter;stroke-opacity:1"
       d="m 69.196589,306.29968 -1.646681,0 0,6.05267 -0.979108,0 0,-6.05267 -1.468662,0 0,-0.8901 1.468662,0 0,-1.89887 q 0,-1.37965 0.637904,-1.95822 0.637903,-0.5934 1.691186,-0.5934 0.207689,0 0.415379,0.0297 0.222524,0.0297 0.430214,0.0742 l -0.17802,0.8901 q -0.17802,-0.0445 -0.370874,-0.0742 -0.192855,-0.0297 -0.385709,-0.0297 -0.400544,0 -0.652739,0.13352 -0.252194,0.13351 -0.385709,0.38571 -0.133514,0.23735 -0.178019,0.56372 -0.04451,0.32637 -0.04451,0.69725 l 0,1.78019 1.646681,0 0,0.8901 z" />
    <path
       id="path6958"
       style="font-style:normal;font-variant:normal;font-weight:normal;font-stretch:normal;font-size:22px;line-height:125%;font-family:Avenir;-inkscape-font-specification:Avenir;text-align:center;letter-spacing:0px;word-spacing:0px;writing-mode:lr-tb;text-anchor:middle;fill:#000000;fill-opacity:1;stroke:none;stroke-width:1px;stroke-linecap:butt;stroke-linejoin:miter;stroke-opacity:1"
       d="m 75.737649,308.34691 q 0,-0.99395 -0.593399,-1.60218 -0.593398,-0.62307 -1.661516,-0.62307 -0.474719,0 -0.919768,0.19286 -0.445049,0.17802 -0.786253,0.48955 -0.326369,0.31153 -0.534059,0.71208 -0.192854,0.40054 -0.192854,0.83076 l 4.687849,0 z m -4.717519,0.80108 q 0.04451,0.51923 0.252194,0.97911 0.20769,0.45989 0.548894,0.80109 0.341204,0.32637 0.786253,0.51922 0.445049,0.19286 0.964273,0.19286 0.786253,0 1.349982,-0.35604 0.578563,-0.37087 0.875263,-0.84559 l 0.756583,0.62306 q -0.623069,0.78626 -1.379652,1.12746 -0.741748,0.34121 -1.602176,0.34121 -0.771418,0 -1.438992,-0.26703 -0.652738,-0.28187 -1.127457,-0.77142 -0.474719,-0.48956 -0.756583,-1.15713 -0.26703,-0.66757 -0.26703,-1.45383 0,-0.78625 0.26703,-1.45382 0.267029,-0.66758 0.741748,-1.15713 0.474719,-0.48955 1.112622,-0.75658 0.637904,-0.28187 1.379652,-0.28187 0.786253,0 1.409322,0.28187 0.623068,0.28186 1.038447,0.75658 0.430214,0.45988 0.652739,1.09779 0.222524,0.62307 0.222524,1.33515 l 0,0.44504 -5.785636,0 z" />
    <path
       id="path6960"
       style="font-style:normal;font-variant:normal;font-weight:normal;font-stretch:normal;font-size:22px;line-height:125%;font-family:Avenir;-inkscape-font-specification:Avenir;text-align:center;letter-spacing:0px;word-spacing:0px;writing-mode:lr-tb;text-anchor:middle;fill:#000000;fill-opacity:1;stroke:none;stroke-width:1px;stroke-linecap:butt;stroke-linejoin:miter;stroke-opacity:1"
       d="m 82.185532,306.29968 -2.002721,0 0,4.09445 q 0,0.38571 0.07417,0.6379 0.07417,0.23736 0.20769,0.37088 0.133514,0.13351 0.311534,0.19285 0.192855,0.0445 0.415379,0.0445 0.252194,0 0.519224,-0.0742 0.267029,-0.0742 0.489554,-0.19285 l 0.04451,0.90493 q -0.548894,0.2522 -1.320312,0.2522 -0.281865,0 -0.593399,-0.0742 -0.296699,-0.0742 -0.548894,-0.28187 -0.252194,-0.20769 -0.415379,-0.56373 -0.163184,-0.35604 -0.163184,-0.9346 l 0,-4.37631 -1.468662,0 0,-0.8901 1.468662,0 0,-1.95822 0.979107,0 0,1.95822 2.002721,0 0,0.8901 z" />
    <path
       id="path6962"
       style="font-style:normal;font-variant:normal;font-weight:normal;font-stretch:normal;font-size:22px;line-height:125%;font-family:Avenir;-inkscape-font-specification:Avenir;text-align:center;letter-spacing:0px;word-spacing:0px;writing-mode:lr-tb;text-anchor:middle;fill:#000000;fill-opacity:1;stroke:none;stroke-width:1px;stroke-linecap:butt;stroke-linejoin:miter;stroke-opacity:1"
       d="m 88.57986,307.04143 q -0.252194,-0.38571 -0.712078,-0.65274 -0.445049,-0.26703 -1.023613,-0.26703 -0.608233,-0.0148 -1.097787,0.19286 -0.474719,0.20769 -0.815923,0.57856 -0.341204,0.37087 -0.519224,0.8901 -0.17802,0.50439 -0.17802,1.09778 0,0.5934 0.17802,1.11263 0.17802,0.50439 0.519224,0.87526 0.341204,0.37087 0.815923,0.57856 0.489554,0.20769 1.097787,0.19286 0.578564,0 1.023613,-0.26703 0.459884,-0.26703 0.712078,-0.65274 l 0.801088,0.60823 q -0.519223,0.60824 -1.171962,0.90494 -0.652738,0.28186 -1.364817,0.2967 -0.845593,0.0148 -1.528001,-0.2522 -0.682408,-0.28186 -1.171962,-0.77142 -0.474719,-0.48955 -0.726914,-1.15712 -0.252194,-0.68241 -0.252194,-1.46867 0,-0.78625 0.252194,-1.45382 0.252195,-0.68241 0.726914,-1.17196 0.489554,-0.48956 1.171962,-0.75659 0.682408,-0.28186 1.528001,-0.26703 0.712079,0.0148 1.364817,0.31154 0.652739,0.28186 1.171962,0.8901 l -0.801088,0.60823 z" />
    <path
       id="path6964"
       style="font-style:normal;font-variant:normal;font-weight:normal;font-stretch:normal;font-size:22px;line-height:125%;font-family:Avenir;-inkscape-font-specification:Avenir;text-align:center;letter-spacing:0px;word-spacing:0px;writing-mode:lr-tb;text-anchor:middle;fill:#000000;fill-opacity:1;stroke:none;stroke-width:1px;stroke-linecap:butt;stroke-linejoin:miter;stroke-opacity:1"
       d="m 90.677848,301.13711 0.979108,0 0,5.3851 0.02967,0 q 0.163184,-0.28187 0.415379,-0.51923 0.252194,-0.23736 0.563729,-0.40054 0.311534,-0.17802 0.652738,-0.26703 0.356039,-0.10385 0.697243,-0.10385 1.335147,0 1.973051,0.71208 0.637903,0.69725 0.637903,2.00272 l 0,4.40599 -0.979107,0 0,-3.84226 q 0,-1.15713 -0.400538,-1.76536 -0.400551,-0.62307 -1.483503,-0.62307 -0.07417,0 -0.415379,0.0593 -0.341204,0.0593 -0.726913,0.32637 -0.370875,0.26703 -0.667574,0.80109 -0.296699,0.53406 -0.296699,1.4835 l 0,3.56039 -0.979108,0 0,-11.21524 z" />
    <path
       id="rect6697"
       d="m 172.24101,292.31073 c -8.491,0 -15.3359,6.84498 -15.3359,15.33593 l 0,3.7168 c 0,8.49095 6.8449,15.33594 15.3359,15.33594 l 54.291,0 c 8.491,0 15.336,-6.84499 15.336,-15.33594 l 0,-3.7168 c 0,-8.49095 -6.845,-15.33593 -15.336,-15.33593 l -54.291,0 z m 0,0.67382 54.291,0 c 8.1291,0 14.6621,6.53307 14.6621,14.66211 l 0,3.7168 c 0,8.12905 -6.533,14.66211 -14.6621,14.66211 l -54.291,0 c -8.129,0 -14.6621,-6.53306 -14.6621,-14.66211 l 0,-3.7168 c 0,-8.12904 6.5331,-14.66211 14.6621,-14.66211 z"
       style="color:#000000;font-style:normal;font-variant:normal;font-weight:normal;font-stretch:normal;font-size:medium;line-height:normal;font-family:sans-serif;text-indent:0;text-align:start;text-decoration:none;text-decoration-line:none;text-decoration-style:solid;text-decoration-color:#000000;letter-spacing:normal;word-spacing:normal;text-transform:none;direction:ltr;block-progression:tb;writing-mode:lr-tb;baseline-shift:baseline;text-anchor:start;white-space:normal;clip-rule:nonzero;display:inline;overflow:visible;visibility:visible;opacity:1;isolation:auto;mix-blend-mode:normal;color-interpolation:sRGB;color-interpolation-filters:linearRGB;solid-color:#000000;solid-opacity:1;fill:#000000;fill-opacity:1;fill-rule:nonzero;stroke:none;stroke-width:0.67431659;stroke-linecap:round;stroke-linejoin:round;stroke-miterlimit:4;stroke-dasharray:none;stroke-dashoffset:0;stroke-opacity:1;color-rendering:auto;image-rendering:auto;shape-rendering:auto;text-rendering:auto;enable-background:accumulate" />
    <g
       id="flowRoot6699"
       style="font-style:normal;font-variant:normal;font-weight:normal;font-stretch:normal;font-size:14.83496571px;line-height:125%;font-family:Avenir;-inkscape-font-specification:Avenir;text-align:center;letter-spacing:0px;word-spacing:0px;writing-mode:lr-tb;text-anchor:middle;fill:#000000;fill-opacity:1;stroke:none;stroke-width:1px;stroke-linecap:butt;stroke-linejoin:miter;stroke-opacity:1"
       transform="translate(-2019.4797,298.83807)">
      <path
         id="path6938"
         d="m 2197.4028,9.5092006 q 0,-0.9939427 -0.5934,-1.6021763 -0.5934,-0.6230685 -1.6615,-0.6230685 -0.4747,0 -0.9198,0.1928545 -0.445,0.1780196 -0.7862,0.4895539 -0.3264,0.3115343 -0.5341,0.7120783 -0.1929,0.4005441 -0.1929,0.8307581 l 4.6879,0 z m -4.7175,0.8010884 q 0.044,0.519224 0.2522,0.979108 0.2077,0.459883 0.5489,0.801088 0.3412,0.326369 0.7862,0.519223 0.4451,0.192855 0.9643,0.192855 0.7862,0 1.35,-0.356039 0.5785,-0.370874 0.8752,-0.845593 l 0.7566,0.623068 q -0.623,0.786254 -1.3796,1.127458 -0.7418,0.341204 -1.6022,0.341204 -0.7714,0 -1.439,-0.267029 -0.6527,-0.281865 -1.1275,-0.771419 -0.4747,-0.489554 -0.7565,-1.157127 -0.2671,-0.667573 -0.2671,-1.453827 0,-0.7862528 0.2671,-1.4538263 0.267,-0.6675734 0.7417,-1.1571273 0.4747,-0.4895538 1.1126,-0.7565832 0.6379,-0.2818644 1.3797,-0.2818644 0.7862,0 1.4093,0.2818644 0.6231,0.2818643 1.0385,0.7565832 0.4302,0.459884 0.6527,1.0977875 0.2225,0.6230685 0.2225,1.3351469 l 0,0.4450492 -5.7856,0 z" />
      <path
         id="path6940"
         d="m 2203.3166,13.514641 -1.0978,0 -2.8186,-6.9427636 1.1719,0 2.2105,5.8449766 0.03,0 2.2104,-5.8449766 1.1127,0 -2.8187,6.9427636 z" />
      <path
         id="path6942"
         d="m 2211.3634,10.058094 q -0.3708,0 -0.9346,0.0445 -0.5489,0.02967 -1.0681,0.17802 -0.5044,0.133515 -0.8753,0.430214 -0.356,0.296699 -0.356,0.815923 0,0.341204 0.1335,0.593399 0.1484,0.237359 0.3857,0.400544 0.2374,0.148349 0.5193,0.222524 0.2967,0.05934 0.5934,0.05934 0.534,0 0.9197,-0.17802 0.4006,-0.178019 0.6676,-0.474718 0.267,-0.311535 0.3857,-0.712079 0.1335,-0.415379 0.1335,-0.875263 l 0,-0.504389 -0.5044,0 z m 0.5044,-0.8010878 0,-0.1780196 q 0,-1.7950308 -1.7802,-1.7950308 -1.2164,0 -2.1214,0.8159231 l -0.5934,-0.6972434 q 0.9791,-1.0087777 2.9373,-1.0087777 0.5044,0 0.9643,0.1483497 0.4747,0.1483496 0.8159,0.4598839 0.3412,0.2966993 0.5489,0.7565833 0.2077,0.4598839 0.2077,1.0977874 l 0,3.1005079 q 0,0.400544 0.03,0.845593 0.044,0.430214 0.089,0.712078 l -0.9494,0 q -0.044,-0.252194 -0.074,-0.548893 -0.015,-0.2967 -0.015,-0.578564 l -0.03,0 q -0.4302,0.697243 -1.0236,1.008778 -0.5786,0.296699 -1.4242,0.296699 -0.4599,0 -0.8901,-0.133515 -0.4302,-0.118679 -0.7714,-0.370874 -0.3264,-0.267029 -0.5341,-0.637903 -0.1928,-0.38571 -0.1928,-0.890098 0,-0.845593 0.4302,-1.320312 0.4451,-0.4895542 1.0978,-0.7269136 0.6676,-0.2373595 1.4093,-0.2966993 0.7566,-0.05934 1.3797,-0.05934 l 0.4895,0 z" />
      <path
         id="path6944"
         d="m 2216.3262,13.514641 -0.9791,0 0,-11.2152337 0.9791,0 0,11.2152337 z" />
      <path
         id="path6946"
         d="m 2223.7316,13.514641 q -0.03,-0.281864 -0.044,-0.548893 0,-0.281865 0,-0.563729 l -0.03,0 q -0.1631,0.281864 -0.4153,0.519224 -0.2522,0.237359 -0.5638,0.415379 -0.3115,0.163184 -0.6675,0.252194 -0.3412,0.103845 -0.6824,0.103845 -1.3352,0 -1.9731,-0.697243 -0.6379,-0.712079 -0.6379,-2.017556 l 0,-4.4059846 0.9791,0 0,3.8422566 q 0,0.578563 0.089,1.023612 0.089,0.445049 0.2967,0.756583 0.2225,0.2967 0.5786,0.459884 0.3709,0.14835 0.9197,0.14835 0.074,0 0.4154,-0.05934 0.3412,-0.05934 0.7121,-0.326369 0.3857,-0.267029 0.6824,-0.801088 0.2967,-0.534059 0.2967,-1.483497 l 0,-3.5603916 0.9791,0 0,5.4147626 q 0,0.281864 0.015,0.712078 0.03,0.430214 0.059,0.815923 l -1.0088,0 z" />
      <path
         id="path6948"
         d="m 2230.9212,10.058094 q -0.3708,0 -0.9346,0.0445 -0.5489,0.02967 -1.0681,0.17802 -0.5044,0.133515 -0.8752,0.430214 -0.3561,0.296699 -0.3561,0.815923 0,0.341204 0.1335,0.593399 0.1484,0.237359 0.3857,0.400544 0.2374,0.148349 0.5193,0.222524 0.2967,0.05934 0.5934,0.05934 0.534,0 0.9197,-0.17802 0.4006,-0.178019 0.6676,-0.474718 0.267,-0.311535 0.3857,-0.712079 0.1335,-0.415379 0.1335,-0.875263 l 0,-0.504389 -0.5044,0 z m 0.5044,-0.8010878 0,-0.1780196 q 0,-1.7950308 -1.7802,-1.7950308 -1.2164,0 -2.1214,0.8159231 l -0.5934,-0.6972434 q 0.9791,-1.0087777 2.9374,-1.0087777 0.5044,0 0.9642,0.1483497 0.4748,0.1483496 0.816,0.4598839 0.3412,0.2966993 0.5489,0.7565833 0.2076,0.4598839 0.2076,1.0977874 l 0,3.1005079 q 0,0.400544 0.03,0.845593 0.044,0.430214 0.089,0.712078 l -0.9494,0 q -0.044,-0.252194 -0.074,-0.548893 -0.015,-0.2967 -0.015,-0.578564 l -0.03,0 q -0.4302,0.697243 -1.0236,1.008778 -0.5786,0.296699 -1.4242,0.296699 -0.4598,0 -0.8901,-0.133515 -0.4302,-0.118679 -0.7714,-0.370874 -0.3264,-0.267029 -0.534,-0.637903 -0.1929,-0.38571 -0.1929,-0.890098 0,-0.845593 0.4302,-1.320312 0.4451,-0.4895542 1.0978,-0.7269136 0.6676,-0.2373595 1.4093,-0.2966993 0.7566,-0.05934 1.3797,-0.05934 l 0.4895,0 z" />
      <path
         id="path6950"
         d="m 2238.2724,7.4619754 -2.0027,0 0,4.0944506 q 0,0.385709 0.074,0.637903 0.074,0.23736 0.2077,0.370875 0.1335,0.133514 0.3115,0.192854 0.1929,0.0445 0.4154,0.0445 0.2522,0 0.5192,-0.07417 0.267,-0.07418 0.4896,-0.192854 l 0.044,0.904933 q -0.5489,0.252194 -1.3203,0.252194 -0.2819,0 -0.5934,-0.07417 -0.2967,-0.07418 -0.5489,-0.281864 -0.2522,-0.20769 -0.4154,-0.563729 -0.1632,-0.356039 -0.1632,-0.934603 l 0,-4.3763146 -1.4687,0 0,-0.890098 1.4687,0 0,-1.9582155 0.9791,0 0,1.9582155 2.0027,0 0,0.890098 z" />
      <path
         id="path6952"
         d="m 2245.008,9.5092006 q 0,-0.9939427 -0.5934,-1.6021763 -0.5934,-0.6230685 -1.6615,-0.6230685 -0.4748,0 -0.9198,0.1928545 -0.4451,0.1780196 -0.7863,0.4895539 -0.3263,0.3115343 -0.534,0.7120783 -0.1929,0.4005441 -0.1929,0.8307581 l 4.6879,0 z m -4.7175,0.8010884 q 0.044,0.519224 0.2521,0.979108 0.2077,0.459883 0.5489,0.801088 0.3412,0.326369 0.7863,0.519223 0.445,0.192855 0.9643,0.192855 0.7862,0 1.3499,-0.356039 0.5786,-0.370874 0.8753,-0.845593 l 0.7566,0.623068 q -0.6231,0.786254 -1.3797,1.127458 -0.7417,0.341204 -1.6021,0.341204 -0.7715,0 -1.439,-0.267029 -0.6528,-0.281865 -1.1275,-0.771419 -0.4747,-0.489554 -0.7566,-1.157127 -0.267,-0.667573 -0.267,-1.453827 0,-0.7862528 0.267,-1.4538263 0.2671,-0.6675734 0.7418,-1.1571273 0.4747,-0.4895538 1.1126,-0.7565832 0.6379,-0.2818644 1.3797,-0.2818644 0.7862,0 1.4093,0.2818644 0.623,0.2818643 1.0384,0.7565832 0.4302,0.459884 0.6528,1.0977875 0.2225,0.6230685 0.2225,1.3351469 l 0,0.4450492 -5.7856,0 z" />
    </g>
    <path
       id="rect6707"
       d="m 290.24691,292.31073 c -8.491,0 -15.3379,6.84498 -15.3379,15.33593 l 0,3.7168 c 0,8.49095 6.8469,15.33594 15.3379,15.33594 l 54.289,0 c 8.491,0 15.3379,-6.84499 15.3379,-15.33594 l 0,-3.7168 c 0,-8.49095 -6.8469,-15.33593 -15.3379,-15.33593 l -54.289,0 z m 0,0.67382 54.289,0 c 8.1291,0 14.6641,6.53307 14.6641,14.66211 l 0,3.7168 c 0,8.12905 -6.535,14.66211 -14.6641,14.66211 l -54.289,0 c -8.1291,0 -14.6621,-6.53306 -14.6621,-14.66211 l 0,-3.7168 c 0,-8.12904 6.533,-14.66211 14.6621,-14.66211 z"
       style="color:#000000;font-style:normal;font-variant:normal;font-weight:normal;font-stretch:normal;font-size:medium;line-height:normal;font-family:sans-serif;text-indent:0;text-align:start;text-decoration:none;text-decoration-line:none;text-decoration-style:solid;text-decoration-color:#000000;letter-spacing:normal;word-spacing:normal;text-transform:none;direction:ltr;block-progression:tb;writing-mode:lr-tb;baseline-shift:baseline;text-anchor:start;white-space:normal;clip-rule:nonzero;display:inline;overflow:visible;visibility:visible;opacity:1;isolation:auto;mix-blend-mode:normal;color-interpolation:sRGB;color-interpolation-filters:linearRGB;solid-color:#000000;solid-opacity:1;fill:#000000;fill-opacity:1;fill-rule:nonzero;stroke:none;stroke-width:0.67431659;stroke-linecap:round;stroke-linejoin:round;stroke-miterlimit:4;stroke-dasharray:none;stroke-dashoffset:0;stroke-opacity:1;color-rendering:auto;image-rendering:auto;shape-rendering:auto;text-rendering:auto;enable-background:accumulate" />
    <g
       id="flowRoot6709"
       style="font-style:normal;font-variant:normal;font-weight:normal;font-stretch:normal;font-size:14.83496571px;line-height:125%;font-family:Avenir;-inkscape-font-specification:Avenir;text-align:center;letter-spacing:0px;word-spacing:0px;writing-mode:lr-tb;text-anchor:middle;fill:#000000;fill-opacity:1;stroke:none;stroke-width:1px;stroke-linecap:butt;stroke-linejoin:miter;stroke-opacity:1"
       transform="translate(-2019.4797,298.83807)">
      <path
         id="path6924"
         d="m 2318.2679,8.7377824 q 0,-0.4598839 -0.03,-0.9346028 -0.015,-0.4747189 -0.03,-1.2313022 l 0.9643,0 0,1.290642 0.03,0 q 0.1039,-0.2818643 0.2967,-0.5340587 0.1929,-0.2670294 0.4599,-0.4747189 0.2819,-0.2076896 0.6379,-0.3263693 0.3709,-0.1335147 0.8308,-0.1335147 0.4154,0 0.7269,0.08901 l -0.1929,0.9642728 q -0.1928,-0.074175 -0.5637,-0.074175 -0.5637,0 -0.9643,0.2225244 -0.4005,0.2076896 -0.6675,0.5488938 -0.2671,0.3263692 -0.4006,0.7120783 -0.1187,0.3857091 -0.1187,0.7417483 l 0,3.9164306 -0.9791,0 0,-4.7768586 z" />
      <path
         id="path6926"
         d="m 2328.2289,9.5092006 q 0,-0.9939427 -0.5934,-1.6021763 -0.5934,-0.6230685 -1.6615,-0.6230685 -0.4747,0 -0.9198,0.1928545 -0.445,0.1780196 -0.7862,0.4895539 -0.3264,0.3115343 -0.5341,0.7120783 -0.1928,0.4005441 -0.1928,0.8307581 l 4.6878,0 z m -4.7175,0.8010884 q 0.044,0.519224 0.2522,0.979108 0.2077,0.459883 0.5489,0.801088 0.3412,0.326369 0.7862,0.519223 0.4451,0.192855 0.9643,0.192855 0.7863,0 1.35,-0.356039 0.5786,-0.370874 0.8753,-0.845593 l 0.7565,0.623068 q -0.623,0.786254 -1.3796,1.127458 -0.7418,0.341204 -1.6022,0.341204 -0.7714,0 -1.439,-0.267029 -0.6527,-0.281865 -1.1274,-0.771419 -0.4748,-0.489554 -0.7566,-1.157127 -0.2671,-0.667573 -0.2671,-1.453827 0,-0.7862528 0.2671,-1.4538263 0.267,-0.6675734 0.7417,-1.1571273 0.4747,-0.4895538 1.1126,-0.7565832 0.638,-0.2818644 1.3797,-0.2818644 0.7863,0 1.4093,0.2818644 0.6231,0.2818643 1.0385,0.7565832 0.4302,0.459884 0.6527,1.0977875 0.2225,0.6230685 0.2225,1.3351469 l 0,0.4450492 -5.7856,0 z" />
      <path
         id="path6928"
         d="m 2334.6768,7.4619754 -2.0027,0 0,4.0944506 q 0,0.385709 0.074,0.637903 0.074,0.23736 0.2077,0.370875 0.1336,0.133514 0.3116,0.192854 0.1928,0.0445 0.4154,0.0445 0.2521,0 0.5192,-0.07417 0.267,-0.07418 0.4895,-0.192854 l 0.044,0.904933 q -0.5489,0.252194 -1.3203,0.252194 -0.2818,0 -0.5934,-0.07417 -0.2967,-0.07418 -0.5489,-0.281864 -0.2522,-0.20769 -0.4154,-0.563729 -0.1631,-0.356039 -0.1631,-0.934603 l 0,-4.3763146 -1.4687,0 0,-0.890098 1.4687,0 0,-1.9582155 0.9791,0 0,1.9582155 2.0027,0 0,0.890098 z" />
      <path
         id="path6930"
         d="m 2341.0266,13.514641 q -0.03,-0.281864 -0.044,-0.548893 0,-0.281865 0,-0.563729 l -0.03,0 q -0.1631,0.281864 -0.4153,0.519224 -0.2522,0.237359 -0.5638,0.415379 -0.3115,0.163184 -0.6675,0.252194 -0.3412,0.103845 -0.6824,0.103845 -1.3352,0 -1.9731,-0.697243 -0.6379,-0.712079 -0.6379,-2.017556 l 0,-4.4059846 0.9791,0 0,3.8422566 q 0,0.578563 0.089,1.023612 0.089,0.445049 0.2967,0.756583 0.2225,0.2967 0.5786,0.459884 0.3709,0.14835 0.9198,0.14835 0.074,0 0.4153,-0.05934 0.3412,-0.05934 0.7121,-0.326369 0.3857,-0.267029 0.6824,-0.801088 0.2967,-0.534059 0.2967,-1.483497 l 0,-3.5603916 0.9791,0 0,5.4147626 q 0,0.281864 0.015,0.712078 0.03,0.430214 0.059,0.815923 l -1.0088,0 z" />
      <path
         id="path6932"
         d="m 2344.374,8.7377824 q 0,-0.4598839 -0.03,-0.9346028 -0.015,-0.4747189 -0.03,-1.2313022 l 0.9642,0 0,1.290642 0.03,0 q 0.1038,-0.2818643 0.2967,-0.5340587 0.1929,-0.2670294 0.4599,-0.4747189 0.2818,-0.2076896 0.6379,-0.3263693 0.3709,-0.1335147 0.8307,-0.1335147 0.4154,0 0.727,0.08901 l -0.1929,0.9642728 q -0.1929,-0.074175 -0.5637,-0.074175 -0.5638,0 -0.9643,0.2225244 -0.4005,0.2076896 -0.6676,0.5488938 -0.267,0.3263692 -0.4005,0.7120783 -0.1187,0.3857091 -0.1187,0.7417483 l 0,3.9164306 -0.9791,0 0,-4.7768586 z" />
      <path
         id="path6934"
         d="m 2350.3912,6.5718774 q 0.03,0.2818644 0.03,0.5637287 0.015,0.2670294 0.015,0.5488937 l 0.03,0 q 0.1632,-0.2818643 0.4153,-0.5192238 0.2522,-0.2373594 0.5638,-0.400544 0.3115,-0.1780196 0.6527,-0.2670294 0.3561,-0.1038448 0.6973,-0.1038448 1.3351,0 1.973,0.7120784 0.6379,0.6972434 0.6379,2.0027203 l 0,4.4059845 -0.9791,0 0,-3.8422558 q 0,-1.1571273 -0.4005,-1.7653609 -0.4006,-0.6230685 -1.4835,-0.6230685 -0.074,0 -0.4154,0.05934 -0.3412,0.05934 -0.7269,0.3263693 -0.3709,0.2670294 -0.6676,0.8010881 -0.2967,0.5340588 -0.2967,1.4834966 l 0,3.5603912 -0.9791,0 0,-5.4147619 q 0,-0.2818644 -0.03,-0.7120784 -0.015,-0.430214 -0.044,-0.8159231 l 1.0088,0 z" />
    </g>
    <g
       id="g7025"
       transform="translate(-2019.4797,298.83807)">
      <path
         d="m 2025,10.330078 0,0.673828 33.7148,0 0,-0.673828 -33.7148,0 z"
         style="color:#000000;font-style:normal;font-variant:normal;font-weight:normal;font-stretch:normal;font-size:medium;line-height:normal;font-family:sans-serif;text-indent:0;text-align:start;text-decoration:none;text-decoration-line:none;text-decoration-style:solid;text-decoration-color:#000000;letter-spacing:normal;word-spacing:normal;text-transform:none;direction:ltr;block-progression:tb;writing-mode:lr-tb;baseline-shift:baseline;text-anchor:start;white-space:normal;clip-rule:nonzero;display:inline;overflow:visible;visibility:visible;opacity:1;isolation:auto;mix-blend-mode:normal;color-interpolation:sRGB;color-interpolation-filters:linearRGB;solid-color:#000000;solid-opacity:1;fill:#000000;fill-opacity:1;fill-rule:evenodd;stroke:none;stroke-width:0.67431659px;stroke-linecap:butt;stroke-linejoin:miter;stroke-miterlimit:4;stroke-dasharray:none;stroke-dashoffset:0;stroke-opacity:1;color-rendering:auto;image-rendering:auto;shape-rendering:auto;text-rendering:auto;enable-background:accumulate"
         id="path7070" />
      <path
         id="path7029"
         d="m 2051.9726,10.667131 -2.6972,2.697266 9.4404,-2.697266 -9.4404,-2.6972663 2.6972,2.6972663 z"
         style="fill:#000000;fill-opacity:1;fill-rule:evenodd;stroke:#000000;stroke-width:0.53945327pt;stroke-opacity:1" />
    </g>
    <g
       id="g7019"
       transform="translate(-2019.4797,298.83807)">
      <path
         d="m 2143.0059,10.330078 0,0.673828 33.7148,0 0,-0.673828 -33.7148,0 z"
         style="color:#000000;font-style:normal;font-variant:normal;font-weight:normal;font-stretch:normal;font-size:medium;line-height:normal;font-family:sans-serif;text-indent:0;text-align:start;text-decoration:none;text-decoration-line:none;text-decoration-style:solid;text-decoration-color:#000000;letter-spacing:normal;word-spacing:normal;text-transform:none;direction:ltr;block-progression:tb;writing-mode:lr-tb;baseline-shift:baseline;text-anchor:start;white-space:normal;clip-rule:nonzero;display:inline;overflow:visible;visibility:visible;opacity:1;isolation:auto;mix-blend-mode:normal;color-interpolation:sRGB;color-interpolation-filters:linearRGB;solid-color:#000000;solid-opacity:1;fill:#000000;fill-opacity:1;fill-rule:evenodd;stroke:none;stroke-width:0.67431659px;stroke-linecap:butt;stroke-linejoin:miter;stroke-miterlimit:4;stroke-dasharray:none;stroke-dashoffset:0;stroke-opacity:1;color-rendering:auto;image-rendering:auto;shape-rendering:auto;text-rendering:auto;enable-background:accumulate"
         id="path7074" />
      <path
         style="fill:#000000;fill-opacity:1;fill-rule:evenodd;stroke:#000000;stroke-width:0.53945327pt;stroke-opacity:1"
         d="m 2169.978,10.667131 -2.6972,2.697266 9.4404,-2.697266 -9.4404,-2.6972663 2.6972,2.6972663 z"
         id="path7023" />
    </g>
    <g
       id="g7013"
       transform="translate(-2019.4797,298.83807)">
      <path
         d="m 2261.0117,10.330078 0,0.673828 33.7149,0 0,-0.673828 -33.7149,0 z"
         style="color:#000000;font-style:normal;font-variant:normal;font-weight:normal;font-stretch:normal;font-size:medium;line-height:normal;font-family:sans-serif;text-indent:0;text-align:start;text-decoration:none;text-decoration-line:none;text-decoration-style:solid;text-decoration-color:#000000;letter-spacing:normal;word-spacing:normal;text-transform:none;direction:ltr;block-progression:tb;writing-mode:lr-tb;baseline-shift:baseline;text-anchor:start;white-space:normal;clip-rule:nonzero;display:inline;overflow:visible;visibility:visible;opacity:1;isolation:auto;mix-blend-mode:normal;color-interpolation:sRGB;color-interpolation-filters:linearRGB;solid-color:#000000;solid-opacity:1;fill:#000000;fill-opacity:1;fill-rule:evenodd;stroke:none;stroke-width:0.67431659px;stroke-linecap:butt;stroke-linejoin:miter;stroke-miterlimit:4;stroke-dasharray:none;stroke-dashoffset:0;stroke-opacity:1;color-rendering:auto;image-rendering:auto;shape-rendering:auto;text-rendering:auto;enable-background:accumulate"
         id="path7078" />
      <path
         id="path7017"
         d="m 2287.9834,10.667131 -2.6972,2.697266 9.4404,-2.697266 -9.4404,-2.6972663 2.6972,2.6972663 z"
         style="fill:#000000;fill-opacity:1;fill-rule:evenodd;stroke:#000000;stroke-width:0.53945327pt;stroke-opacity:1" />
    </g>
    <g
       id="g6995"
       transform="translate(-2019.4797,298.83807)">
      <path
         d="m 2379.0156,10.330078 0,0.673828 33.7168,0 0,-0.673828 -33.7168,0 z"
         style="color:#000000;font-style:normal;font-variant:normal;font-weight:normal;font-stretch:normal;font-size:medium;line-height:normal;font-family:sans-serif;text-indent:0;text-align:start;text-decoration:none;text-decoration-line:none;text-decoration-style:solid;text-decoration-color:#000000;letter-spacing:normal;word-spacing:normal;text-transform:none;direction:ltr;block-progression:tb;writing-mode:lr-tb;baseline-shift:baseline;text-anchor:start;white-space:normal;clip-rule:nonzero;display:inline;overflow:visible;visibility:visible;opacity:1;isolation:auto;mix-blend-mode:normal;color-interpolation:sRGB;color-interpolation-filters:linearRGB;solid-color:#000000;solid-opacity:1;fill:#000000;fill-opacity:1;fill-rule:evenodd;stroke:none;stroke-width:0.67431659px;stroke-linecap:butt;stroke-linejoin:miter;stroke-miterlimit:4;stroke-dasharray:none;stroke-dashoffset:0;stroke-opacity:1;color-rendering:auto;image-rendering:auto;shape-rendering:auto;text-rendering:auto;enable-background:accumulate"
         id="path7082" />
      <path
         id="path6999"
         d="m 2405.9889,10.667131 -2.6972,2.697266 9.4404,-2.697266 -9.4404,-2.6972663 2.6972,2.6972663 z"
         style="fill:#000000;fill-opacity:1;fill-rule:evenodd;stroke:#000000;stroke-width:0.53945327pt;stroke-opacity:1" />
    </g>
  </g>
</svg>
