<?xml version="1.0" encoding="UTF-8" standalone="no"?>
<svg
   xmlns:dc="http://purl.org/dc/elements/1.1/"
   xmlns:cc="http://creativecommons.org/ns#"
   xmlns:rdf="http://www.w3.org/1999/02/22-rdf-syntax-ns#"
   xmlns:svg="http://www.w3.org/2000/svg"
   xmlns="http://www.w3.org/2000/svg"
   version="1.1"
   id="svg26929"
   viewBox="0 0 508.04642 85.144529"
   height="24.029678mm"
   width="143.38199mm">
  <defs
     id="defs26931" />
  <metadata
     id="metadata26934">
    <rdf:RDF>
      <cc:Work
         rdf:about="">
        <dc:format>image/svg+xml</dc:format>
        <dc:type
           rdf:resource="http://purl.org/dc/dcmitype/StillImage" />
        <dc:title></dc:title>
      </cc:Work>
    </rdf:RDF>
  </metadata>
  <g
     transform="translate(-112.1704,-423.16912)"
     id="layer1">
    <path
       id="rect19676"
       d="m 160.95751,423.16912 c -8.4913,0 -15.3379,6.84655 -15.3378,15.33789 l 0,3.78711 c 0,8.49134 6.8465,15.33789 15.3378,15.33789 l 54.4688,0 c 8.4913,0 15.3379,-6.84655 15.3379,-15.33789 l 0,-3.78711 c 0,-8.49134 -6.8466,-15.33789 -15.3379,-15.33789 l -54.4688,0 z m 0,0.67578 54.4688,0 c 8.1287,0 14.6621,6.53345 14.6621,14.66211 l 0,3.78711 c 0,8.12866 -6.5334,14.66211 -14.6621,14.66211 l -54.4688,0 c -8.1286,0 -14.6621,-6.53345 -14.6621,-14.66211 l 0,-3.78711 c 0,-8.12866 6.5335,-14.66211 14.6621,-14.66211 z"
       style="color:#000000;font-style:normal;font-variant:normal;font-weight:normal;font-stretch:normal;font-size:medium;line-height:normal;font-family:sans-serif;text-indent:0;text-align:start;text-decoration:none;text-decoration-line:none;text-decoration-style:solid;text-decoration-color:#000000;letter-spacing:normal;word-spacing:normal;text-transform:none;direction:ltr;block-progression:tb;writing-mode:lr-tb;baseline-shift:baseline;text-anchor:start;white-space:normal;clip-rule:nonzero;display:inline;overflow:visible;visibility:visible;opacity:1;isolation:auto;mix-blend-mode:normal;color-interpolation:sRGB;color-interpolation-filters:linearRGB;solid-color:#000000;solid-opacity:1;fill:#000000;fill-opacity:1;fill-rule:nonzero;stroke:none;stroke-width:0.67575616;stroke-linecap:round;stroke-linejoin:round;stroke-miterlimit:4;stroke-dasharray:none;stroke-dashoffset:0;stroke-opacity:1;color-rendering:auto;image-rendering:auto;shape-rendering:auto;text-rendering:auto;enable-background:accumulate" />
    <g
       id="flowRoot19678"
       style="font-style:normal;font-variant:normal;font-weight:normal;font-stretch:normal;font-size:22px;line-height:125%;font-family:Avenir;-inkscape-font-specification:Avenir;text-align:center;letter-spacing:0px;word-spacing:0px;writing-mode:lr-tb;text-anchor:middle;fill:#000000;fill-opacity:1;stroke:none;stroke-width:1px;stroke-linecap:butt;stroke-linejoin:miter;stroke-opacity:1"
       transform="matrix(0.67575616,0,0,0.67575616,78.382006,461.84149)">
      <path
         id="path22252"
         d="m 144.43078,-36.4829 -2.442,0 0,8.976 -1.452,0 0,-8.976 -2.178,0 0,-1.32 2.178,0 0,-2.816 q 0,-2.046 0.946,-2.904 0.946,-0.88 2.508,-0.88 0.308,0 0.616,0.044 0.33,0.044 0.638,0.11 l -0.264,1.32 q -0.264,-0.066 -0.55,-0.11 -0.286,-0.044 -0.572,-0.044 -0.594,0 -0.968,0.198 -0.374,0.198 -0.572,0.572 -0.198,0.352 -0.264,0.836 -0.066,0.484 -0.066,1.034 l 0,2.64 2.442,0 0,1.32 z" />
      <path
         id="path22254"
         d="m 154.13106,-33.4469 q 0,-1.474 -0.88,-2.376 -0.88,-0.924 -2.464,-0.924 -0.704,0 -1.364,0.286 -0.66,0.264 -1.166,0.726 -0.484,0.462 -0.792,1.056 -0.286,0.594 -0.286,1.232 l 6.952,0 z m -6.996,1.188 q 0.066,0.77 0.374,1.452 0.308,0.682 0.814,1.188 0.506,0.484 1.166,0.77 0.66,0.286 1.43,0.286 1.166,0 2.002,-0.528 0.858,-0.55 1.298,-1.254 l 1.122,0.924 q -0.924,1.166 -2.046,1.672 -1.1,0.506 -2.376,0.506 -1.144,0 -2.134,-0.396 -0.968,-0.418 -1.672,-1.144 -0.704,-0.726 -1.122,-1.716 -0.396,-0.99 -0.396,-2.156 0,-1.166 0.396,-2.156 0.396,-0.99 1.1,-1.716 0.704,-0.726 1.65,-1.122 0.946,-0.418 2.046,-0.418 1.166,0 2.09,0.418 0.924,0.418 1.54,1.122 0.638,0.682 0.968,1.628 0.33,0.924 0.33,1.98 l 0,0.66 -8.58,0 z" />
      <path
         id="path22256"
         d="m 163.69316,-36.4829 -2.97,0 0,6.072 q 0,0.572 0.11,0.946 0.11,0.352 0.308,0.55 0.198,0.198 0.462,0.286 0.286,0.066 0.616,0.066 0.374,0 0.77,-0.11 0.396,-0.11 0.726,-0.286 l 0.066,1.342 q -0.814,0.374 -1.958,0.374 -0.418,0 -0.88,-0.11 -0.44,-0.11 -0.814,-0.418 -0.374,-0.308 -0.616,-0.836 -0.242,-0.528 -0.242,-1.386 l 0,-6.49 -2.178,0 0,-1.32 2.178,0 0,-2.904 1.452,0 0,2.904 2.97,0 0,1.32 z" />
      <path
         id="path22258"
         d="m 173.17584,-35.3829 q -0.374,-0.572 -1.056,-0.968 -0.66,-0.396 -1.518,-0.396 -0.902,-0.022 -1.628,0.286 -0.704,0.308 -1.21,0.858 -0.506,0.55 -0.77,1.32 -0.264,0.748 -0.264,1.628 0,0.88 0.264,1.65 0.264,0.748 0.77,1.298 0.506,0.55 1.21,0.858 0.726,0.308 1.628,0.286 0.858,0 1.518,-0.396 0.682,-0.396 1.056,-0.968 l 1.188,0.902 q -0.77,0.902 -1.738,1.342 -0.968,0.418 -2.024,0.44 -1.254,0.022 -2.266,-0.374 -1.012,-0.418 -1.738,-1.144 -0.704,-0.726 -1.078,-1.716 -0.374,-1.012 -0.374,-2.178 0,-1.166 0.374,-2.156 0.374,-1.012 1.078,-1.738 0.726,-0.726 1.738,-1.122 1.012,-0.418 2.266,-0.396 1.056,0.022 2.024,0.462 0.968,0.418 1.738,1.32 l -1.188,0.902 z" />
      <path
         id="path22260"
         d="m 176.28712,-44.1389 1.452,0 0,7.986 0.044,0 q 0.242,-0.418 0.616,-0.77 0.374,-0.352 0.836,-0.594 0.462,-0.264 0.968,-0.396 0.528,-0.154 1.034,-0.154 1.98,0 2.926,1.056 0.946,1.034 0.946,2.97 l 0,6.534 -1.452,0 0,-5.698 q 0,-1.716 -0.59399,-2.618 -0.59401,-0.924 -2.20001,-0.924 -0.11,0 -0.616,0.088 -0.506,0.088 -1.078,0.484 -0.55,0.396 -0.99,1.188 -0.44,0.792 -0.44,2.2 l 0,5.28 -1.452,0 0,-16.632 z" />
    </g>
    <path
       id="rect19686"
       d="m 397.47321,423.16912 c -8.4914,0 -15.3379,6.84655 -15.3379,15.33789 l 0,3.78711 c 0,8.49134 6.8465,15.33789 15.3379,15.33789 l 54.4687,0 c 8.4914,0 15.3379,-6.84655 15.3379,-15.33789 l 0,-3.78711 c 0,-8.49134 -6.8465,-15.33789 -15.3379,-15.33789 l -54.4687,0 z m 0,0.67578 54.4687,0 c 8.1287,0 14.6621,6.53345 14.6621,14.66211 l 0,3.78711 c 0,8.12866 -6.5334,14.66211 -14.6621,14.66211 l -54.4687,0 c -8.1287,0 -14.6641,-6.53345 -14.6641,-14.66211 l 0,-3.78711 c 0,-8.12866 6.5354,-14.66211 14.6641,-14.66211 z"
       style="color:#000000;font-style:normal;font-variant:normal;font-weight:normal;font-stretch:normal;font-size:medium;line-height:normal;font-family:sans-serif;text-indent:0;text-align:start;text-decoration:none;text-decoration-line:none;text-decoration-style:solid;text-decoration-color:#000000;letter-spacing:normal;word-spacing:normal;text-transform:none;direction:ltr;block-progression:tb;writing-mode:lr-tb;baseline-shift:baseline;text-anchor:start;white-space:normal;clip-rule:nonzero;display:inline;overflow:visible;visibility:visible;opacity:1;isolation:auto;mix-blend-mode:normal;color-interpolation:sRGB;color-interpolation-filters:linearRGB;solid-color:#000000;solid-opacity:1;fill:#000000;fill-opacity:1;fill-rule:nonzero;stroke:none;stroke-width:0.67575616;stroke-linecap:round;stroke-linejoin:round;stroke-miterlimit:4;stroke-dasharray:none;stroke-dashoffset:0;stroke-opacity:1;color-rendering:auto;image-rendering:auto;shape-rendering:auto;text-rendering:auto;enable-background:accumulate" />
    <g
       id="flowRoot19688"
       style="font-style:normal;font-variant:normal;font-weight:normal;font-stretch:normal;font-size:22px;line-height:125%;font-family:Avenir;-inkscape-font-specification:Avenir;text-align:center;letter-spacing:0px;word-spacing:0px;writing-mode:lr-tb;text-anchor:middle;fill:#000000;fill-opacity:1;stroke:none;stroke-width:1px;stroke-linecap:butt;stroke-linejoin:miter;stroke-opacity:1"
       transform="matrix(0.67575616,0,0,0.67575616,314.89671,461.84149)">
      <path
         id="path22234"
         d="m 130.67013,-33.4469 q 0,-1.474 -0.88001,-2.376 -0.88,-0.924 -2.46399,-0.924 -0.70401,0 -1.364,0.286 -0.66,0.264 -1.166,0.726 -0.48401,0.462 -0.792,1.056 -0.286,0.594 -0.286,1.232 l 6.952,0 z m -6.996,1.188 q 0.066,0.77 0.374,1.452 0.308,0.682 0.814,1.188 0.506,0.484 1.166,0.77 0.66,0.286 1.42999,0.286 1.166,0 2.002,-0.528 0.858,-0.55 1.298,-1.254 l 1.122,0.924 q -0.924,1.166 -2.046,1.672 -1.1,0.506 -2.376,0.506 -1.14399,0 -2.134,-0.396 -0.96799,-0.418 -1.672,-1.144 -0.70399,-0.726 -1.122,-1.716 -0.396,-0.99 -0.396,-2.156 0,-1.166 0.396,-2.156 0.39601,-0.99 1.10001,-1.716 0.704,-0.726 1.64999,-1.122 0.946,-0.418 2.04601,-0.418 1.16599,0 2.08999,0.418 0.924,0.418 1.54,1.122 0.638,0.682 0.968,1.628 0.33,0.924 0.33,1.98 l 0,0.66 -8.57999,0 z" />
      <path
         id="path22236"
         d="m 139.44022,-27.5069 -1.628,0 -4.18,-10.296 1.738,0 3.278,8.668 0.044,0 3.278,-8.668 1.65,0 -4.18,10.296 z" />
      <path
         id="path22238"
         d="m 151.3735,-32.6329 q -0.55,0 -1.386,0.066 -0.814,0.044 -1.584,0.264 -0.748,0.198 -1.298,0.638 -0.528,0.44 -0.528,1.21 0,0.506 0.198,0.88 0.22,0.352 0.572,0.594 0.352,0.22 0.77,0.33 0.44,0.088 0.88,0.088 0.792,0 1.364,-0.264 0.594,-0.264 0.99,-0.704 0.396,-0.462 0.572,-1.056 0.198,-0.616 0.198,-1.298 l 0,-0.748 -0.748,0 z m 0.748,-1.188 0,-0.264 q 0,-2.662 -2.64,-2.662 -1.804,0 -3.146,1.21 l -0.88,-1.034 q 1.452,-1.496 4.356,-1.496 0.748,0 1.43,0.22 0.704,0.22 1.21,0.682 0.506,0.44 0.814,1.122 0.308,0.682 0.308,1.628 l 0,4.598 q 0,0.594 0.044,1.254 0.066,0.638 0.132,1.056 l -1.408,0 q -0.066,-0.374 -0.11,-0.814 -0.022,-0.44 -0.022,-0.858 l -0.044,0 q -0.638,1.034 -1.518,1.496 -0.858,0.44 -2.112,0.44 -0.682,0 -1.32,-0.198 -0.638,-0.176 -1.144,-0.55 -0.484,-0.396 -0.792,-0.946 -0.286,-0.572 -0.286,-1.32 0,-1.254 0.638,-1.958 0.66,-0.726 1.628,-1.078 0.99,-0.352 2.09,-0.44 1.122,-0.088 2.046,-0.088 l 0.726,0 z" />
      <path
         id="path22240"
         d="m 158.73319,-27.5069 -1.452,0 0,-16.632 1.452,0 0,16.632 z" />
      <path
         id="path22242"
         d="m 169.71531,-27.5069 q -0.044,-0.418 -0.066,-0.814 0,-0.418 0,-0.836 l -0.044,0 q -0.242,0.418 -0.616,0.77 -0.374,0.352 -0.836,0.616 -0.462,0.242 -0.99,0.374 -0.506,0.154 -1.012,0.154 -1.98,0 -2.926,-1.034 -0.946,-1.056 -0.946,-2.992 l 0,-6.534 1.452,0 0,5.698 q 0,0.858 0.132,1.518 0.132,0.66 0.44,1.122 0.33,0.44 0.858,0.682 0.55,0.22 1.364,0.22 0.11,0 0.616,-0.088 0.506,-0.088 1.056,-0.484 0.572,-0.396 1.012,-1.188 0.44,-0.792 0.44,-2.2 l 0,-5.28 1.452,0 0,8.03 q 0,0.418 0.022,1.056 0.044,0.638 0.088,1.21 l -1.496,0 z" />
      <path
         id="path22244"
         d="m 180.37741,-32.6329 q -0.55,0 -1.386,0.066 -0.814,0.044 -1.584,0.264 -0.748,0.198 -1.298,0.638 -0.528,0.44 -0.528,1.21 0,0.506 0.198,0.88 0.22,0.352 0.572,0.594 0.352,0.22 0.77,0.33 0.44,0.088 0.88,0.088 0.792,0 1.364,-0.264 0.594,-0.264 0.99,-0.704 0.396,-0.462 0.572,-1.056 0.198,-0.616 0.198,-1.298 l 0,-0.748 -0.748,0 z m 0.748,-1.188 0,-0.264 q 0,-2.662 -2.64,-2.662 -1.804,0 -3.146,1.21 l -0.88,-1.034 q 1.452,-1.496 4.356,-1.496 0.748,0 1.43,0.22 0.704,0.22 1.21,0.682 0.506,0.44 0.814,1.122 0.308,0.682 0.308,1.628 l 0,4.598 q 0,0.594 0.044,1.254 0.066,0.638 0.132,1.056 l -1.408,0 q -0.066,-0.374 -0.11,-0.814 -0.022,-0.44 -0.022,-0.858 l -0.044,0 q -0.638,1.034 -1.518,1.496 -0.858,0.44 -2.112,0.44 -0.682,0 -1.32,-0.198 -0.638,-0.176 -1.144,-0.55 -0.484,-0.396 -0.792,-0.946 -0.286,-0.572 -0.286,-1.32 0,-1.254 0.638,-1.958 0.66,-0.726 1.628,-1.078 0.99,-0.352 2.09,-0.44 1.122,-0.088 2.046,-0.088 l 0.726,0 z" />
      <path
         id="path22246"
         d="m 191.27909,-36.4829 -2.97,0 0,6.072 q 0,0.572 0.11,0.946 0.11,0.352 0.308,0.55 0.198,0.198 0.462,0.286 0.286,0.066 0.616,0.066 0.374,0 0.77,-0.11 0.396,-0.11 0.726,-0.286 l 0.066,1.342 q -0.814,0.374 -1.958,0.374 -0.418,0 -0.88,-0.11 -0.44,-0.11 -0.814,-0.418 -0.374,-0.308 -0.616,-0.836 -0.242,-0.528 -0.242,-1.386 l 0,-6.49 -2.178,0 0,-1.32 2.178,0 0,-2.904 1.452,0 0,2.904 2.97,0 0,1.32 z" />
      <path
         id="path22248"
         d="m 201.26778,-33.4469 q 0,-1.474 -0.88,-2.376 -0.88,-0.924 -2.464,-0.924 -0.704,0 -1.364,0.286 -0.66,0.264 -1.166,0.726 -0.484,0.462 -0.792,1.056 -0.286,0.594 -0.286,1.232 l 6.952,0 z m -6.996,1.188 q 0.066,0.77 0.374,1.452 0.308,0.682 0.814,1.188 0.506,0.484 1.166,0.77 0.66,0.286 1.43,0.286 1.166,0 2.002,-0.528 0.858,-0.55 1.298,-1.254 l 1.122,0.924 q -0.924,1.166 -2.046,1.672 -1.1,0.506 -2.376,0.506 -1.144,0 -2.134,-0.396 -0.968,-0.418 -1.672,-1.144 -0.704,-0.726 -1.122,-1.716 -0.396,-0.99 -0.396,-2.156 0,-1.166 0.396,-2.156 0.396,-0.99 1.1,-1.716 0.704,-0.726 1.65,-1.122 0.946,-0.418 2.046,-0.418 1.166,0 2.09,0.418 0.924,0.418 1.54,1.122 0.638,0.682 0.968,1.628 0.33,0.924 0.33,1.98 l 0,0.66 -8.58,0 z" />
    </g>
    <path
       id="rect19696"
       d="m 515.72901,423.16912 c -8.4913,0 -15.3379,6.84655 -15.3379,15.33789 l 0,3.78711 c 0,8.49134 6.8466,15.33789 15.3379,15.33789 l 54.4707,0 c 8.4914,0 15.3379,-6.84655 15.3379,-15.33789 l 0,-3.78711 c 0,-8.49134 -6.8465,-15.33789 -15.3379,-15.33789 l -54.4707,0 z m 0,0.67578 54.4707,0 c 8.1287,0 14.6621,6.53345 14.6621,14.66211 l 0,3.78711 c 0,8.12866 -6.5334,14.66211 -14.6621,14.66211 l -54.4707,0 c -8.1286,0 -14.6621,-6.53345 -14.6621,-14.66211 l 0,-3.78711 c 0,-8.12866 6.5335,-14.66211 14.6621,-14.66211 z"
       style="color:#000000;font-style:normal;font-variant:normal;font-weight:normal;font-stretch:normal;font-size:medium;line-height:normal;font-family:sans-serif;text-indent:0;text-align:start;text-decoration:none;text-decoration-line:none;text-decoration-style:solid;text-decoration-color:#000000;letter-spacing:normal;word-spacing:normal;text-transform:none;direction:ltr;block-progression:tb;writing-mode:lr-tb;baseline-shift:baseline;text-anchor:start;white-space:normal;clip-rule:nonzero;display:inline;overflow:visible;visibility:visible;opacity:1;isolation:auto;mix-blend-mode:normal;color-interpolation:sRGB;color-interpolation-filters:linearRGB;solid-color:#000000;solid-opacity:1;fill:#000000;fill-opacity:1;fill-rule:nonzero;stroke:none;stroke-width:0.67575616;stroke-linecap:round;stroke-linejoin:round;stroke-miterlimit:4;stroke-dasharray:none;stroke-dashoffset:0;stroke-opacity:1;color-rendering:auto;image-rendering:auto;shape-rendering:auto;text-rendering:auto;enable-background:accumulate" />
    <g
       id="flowRoot19698"
       style="font-style:normal;font-variant:normal;font-weight:normal;font-stretch:normal;font-size:22px;line-height:125%;font-family:Avenir;-inkscape-font-specification:Avenir;text-align:center;letter-spacing:0px;word-spacing:0px;writing-mode:lr-tb;text-anchor:middle;fill:#000000;fill-opacity:1;stroke:none;stroke-width:1px;stroke-linecap:butt;stroke-linejoin:miter;stroke-opacity:1"
       transform="matrix(0.67575616,0,0,0.67575616,433.15401,461.84149)">
      <path
         id="path22220"
         d="m 134.91183,-34.5909 q 0,-0.682 -0.044,-1.386 -0.022,-0.704 -0.044,-1.826 l 1.43,0 0,1.914 0.044,0 q 0.154,-0.418 0.44,-0.792 0.286,-0.396 0.682,-0.704 0.418,-0.308 0.946,-0.484 0.55,-0.198 1.232,-0.198 0.616,0 1.078,0.132 l -0.286,1.43 q -0.286,-0.11 -0.836,-0.11 -0.836,0 -1.43,0.33 -0.594,0.308 -0.99,0.814 -0.396,0.484 -0.594,1.056 -0.176,0.572 -0.176,1.1 l 0,5.808 -1.452,0 0,-7.084 z" />
      <path
         id="path22222"
         d="m 149.6838,-33.4469 q 0,-1.474 -0.88,-2.376 -0.88,-0.924 -2.464,-0.924 -0.704,0 -1.364,0.286 -0.66,0.264 -1.166,0.726 -0.484,0.462 -0.792,1.056 -0.286,0.594 -0.286,1.232 l 6.952,0 z m -6.996,1.188 q 0.066,0.77 0.374,1.452 0.308,0.682 0.814,1.188 0.506,0.484 1.166,0.77 0.66,0.286 1.43,0.286 1.166,0 2.002,-0.528 0.858,-0.55 1.298,-1.254 l 1.122,0.924 q -0.924,1.166 -2.046,1.672 -1.1,0.506 -2.376,0.506 -1.144,0 -2.134,-0.396 -0.968,-0.418 -1.672,-1.144 -0.704,-0.726 -1.122,-1.716 -0.396,-0.99 -0.396,-2.156 0,-1.166 0.396,-2.156 0.396,-0.99 1.1,-1.716 0.704,-0.726 1.65,-1.122 0.946,-0.418 2.046,-0.418 1.166,0 2.09,0.418 0.924,0.418 1.54,1.122 0.638,0.682 0.968,1.628 0.33,0.924 0.33,1.98 l 0,0.66 -8.58,0 z" />
      <path
         id="path22224"
         d="m 159.24589,-36.4829 -2.97,0 0,6.072 q 0,0.572 0.11,0.946 0.11,0.352 0.308,0.55 0.198,0.198 0.462,0.286 0.286,0.066 0.616,0.066 0.374,0 0.77,-0.11 0.396,-0.11 0.726,-0.286 l 0.066,1.342 q -0.814,0.374 -1.958,0.374 -0.418,0 -0.88,-0.11 -0.44,-0.11 -0.814,-0.418 -0.374,-0.308 -0.616,-0.836 -0.242,-0.528 -0.242,-1.386 l 0,-6.49 -2.178,0 0,-1.32 2.178,0 0,-2.904 1.452,0 0,2.904 2.97,0 0,1.32 z" />
      <path
         id="path22226"
         d="m 168.66258,-27.5069 q -0.044,-0.418 -0.066,-0.814 0,-0.418 0,-0.836 l -0.044,0 q -0.242,0.418 -0.616,0.77 -0.374,0.352 -0.836,0.616 -0.462,0.242 -0.99,0.374 -0.506,0.154 -1.012,0.154 -1.98,0 -2.926,-1.034 -0.946,-1.056 -0.946,-2.992 l 0,-6.534 1.452,0 0,5.698 q 0,0.858 0.132,1.518 0.132,0.66 0.44,1.122 0.33,0.44 0.858,0.682 0.55,0.22 1.364,0.22 0.11,0 0.616,-0.088 0.506,-0.088 1.056,-0.484 0.572,-0.396 1.012,-1.188 0.44,-0.792 0.44,-2.2 l 0,-5.28 1.452,0 0,8.03 q 0,0.418 0.022,1.056 0.044,0.638 0.088,1.21 l -1.496,0 z" />
      <path
         id="path22228"
         d="m 173.62667,-34.5909 q 0,-0.682 -0.044,-1.386 -0.022,-0.704 -0.044,-1.826 l 1.43,0 0,1.914 0.044,0 q 0.154,-0.418 0.44,-0.792 0.286,-0.396 0.682,-0.704 0.418,-0.308 0.946,-0.484 0.55,-0.198 1.232,-0.198 0.616,0 1.078,0.132 l -0.286,1.43 q -0.286,-0.11 -0.836,-0.11 -0.836,0 -1.43,0.33 -0.594,0.308 -0.99,0.814 -0.396,0.484 -0.594,1.056 -0.176,0.572 -0.176,1.1 l 0,5.808 -1.452,0 0,-7.084 z" />
      <path
         id="path22230"
         d="m 182.55008,-37.8029 q 0.044,0.418 0.044,0.836 0.022,0.396 0.022,0.814 l 0.044,0 q 0.242,-0.418 0.616,-0.77 0.374,-0.352 0.836,-0.594 0.462,-0.264 0.968,-0.396 0.528,-0.154 1.034,-0.154 1.98,0 2.926,1.056 0.946,1.034 0.946,2.97 l 0,6.534 -1.452,0 0,-5.698 q 0,-1.716 -0.594,-2.618 -0.594,-0.924 -2.2,-0.924 -0.11,0 -0.616,0.088 -0.506,0.088 -1.078,0.484 -0.55,0.396 -0.99,1.188 -0.44,0.792 -0.44,2.2 l 0,5.28 -1.452,0 0,-8.03 q 0,-0.418 -0.044,-1.056 -0.022,-0.638 -0.066,-1.21 l 1.496,0 z" />
    </g>
    <g
       id="g25954"
       transform="translate(-1879.7241,16.534346)">
      <path
         id="path19706"
         d="m 1991.8945,423.52734 0,0.67578 33.7871,0 0,-0.67578 -33.7871,0 z"
         style="color:#000000;font-style:normal;font-variant:normal;font-weight:normal;font-stretch:normal;font-size:medium;line-height:normal;font-family:sans-serif;text-indent:0;text-align:start;text-decoration:none;text-decoration-line:none;text-decoration-style:solid;text-decoration-color:#000000;letter-spacing:normal;word-spacing:normal;text-transform:none;direction:ltr;block-progression:tb;writing-mode:lr-tb;baseline-shift:baseline;text-anchor:start;white-space:normal;clip-rule:nonzero;display:inline;overflow:visible;visibility:visible;opacity:1;isolation:auto;mix-blend-mode:normal;color-interpolation:sRGB;color-interpolation-filters:linearRGB;solid-color:#000000;solid-opacity:1;fill:#000000;fill-opacity:1;fill-rule:evenodd;stroke:none;stroke-width:0.67575616px;stroke-linecap:butt;stroke-linejoin:miter;stroke-miterlimit:4;stroke-dasharray:none;stroke-dashoffset:0;stroke-opacity:1;color-rendering:auto;image-rendering:auto;shape-rendering:auto;text-rendering:auto;enable-background:accumulate" />
      <path
         style="fill:#000000;fill-opacity:1;fill-rule:evenodd;stroke:#000000;stroke-width:0.54060497pt;stroke-opacity:1"
         d="m 2018.9241,423.86595 -2.703,2.70302 9.4606,-2.70302 -9.4606,-2.70302 2.703,2.70302 z"
         id="path25960" />
    </g>
    <g
       id="g25962"
       transform="translate(-1879.7241,16.534346)">
      <path
         id="path19708"
         d="m 2464.9238,423.52734 0,0.67578 33.7871,0 0,-0.67578 -33.7871,0 z"
         style="color:#000000;font-style:normal;font-variant:normal;font-weight:normal;font-stretch:normal;font-size:medium;line-height:normal;font-family:sans-serif;text-indent:0;text-align:start;text-decoration:none;text-decoration-line:none;text-decoration-style:solid;text-decoration-color:#000000;letter-spacing:normal;word-spacing:normal;text-transform:none;direction:ltr;block-progression:tb;writing-mode:lr-tb;baseline-shift:baseline;text-anchor:start;white-space:normal;clip-rule:nonzero;display:inline;overflow:visible;visibility:visible;opacity:1;isolation:auto;mix-blend-mode:normal;color-interpolation:sRGB;color-interpolation-filters:linearRGB;solid-color:#000000;solid-opacity:1;fill:#000000;fill-opacity:1;fill-rule:evenodd;stroke:none;stroke-width:0.67575616px;stroke-linecap:butt;stroke-linejoin:miter;stroke-miterlimit:4;stroke-dasharray:none;stroke-dashoffset:0;stroke-opacity:1;color-rendering:auto;image-rendering:auto;shape-rendering:auto;text-rendering:auto;enable-background:accumulate" />
      <path
         style="fill:#000000;fill-opacity:1;fill-rule:evenodd;stroke:#000000;stroke-width:0.54060497pt;stroke-opacity:1"
         d="m 2491.9534,423.86595 -2.703,2.70302 9.4606,-2.70302 -9.4606,-2.70302 2.703,2.70302 z"
         id="path25968" />
    </g>
    <path
       id="rect19710"
       d="m 397.47321,473.85076 c -8.4914,0 -15.3379,6.84655 -15.3379,15.33789 l 0,3.78711 c 0,8.49134 6.8465,15.33789 15.3379,15.33789 l 54.4687,0 c 8.4914,0 15.3379,-6.84655 15.3379,-15.33789 l 0,-3.78711 c 0,-8.49134 -6.8465,-15.33789 -15.3379,-15.33789 l -54.4687,0 z m 0,0.67578 54.4687,0 c 8.1287,0 14.6621,6.53345 14.6621,14.66211 l 0,3.78711 c 0,8.12866 -6.5334,14.66211 -14.6621,14.66211 l -54.4687,0 c -8.1287,0 -14.6641,-6.53345 -14.6641,-14.66211 l 0,-3.78711 c 0,-8.12866 6.5354,-14.66211 14.6641,-14.66211 z"
       style="color:#000000;font-style:normal;font-variant:normal;font-weight:normal;font-stretch:normal;font-size:medium;line-height:normal;font-family:sans-serif;text-indent:0;text-align:start;text-decoration:none;text-decoration-line:none;text-decoration-style:solid;text-decoration-color:#000000;letter-spacing:normal;word-spacing:normal;text-transform:none;direction:ltr;block-progression:tb;writing-mode:lr-tb;baseline-shift:baseline;text-anchor:start;white-space:normal;clip-rule:nonzero;display:inline;overflow:visible;visibility:visible;opacity:1;isolation:auto;mix-blend-mode:normal;color-interpolation:sRGB;color-interpolation-filters:linearRGB;solid-color:#000000;solid-opacity:1;fill:#000000;fill-opacity:1;fill-rule:nonzero;stroke:none;stroke-width:0.67575616;stroke-linecap:round;stroke-linejoin:round;stroke-miterlimit:4;stroke-dasharray:none;stroke-dashoffset:0;stroke-opacity:1;color-rendering:auto;image-rendering:auto;shape-rendering:auto;text-rendering:auto;enable-background:accumulate" />
    <g
       id="flowRoot19712"
       style="font-style:normal;font-variant:normal;font-weight:normal;font-stretch:normal;font-size:22px;line-height:125%;font-family:Avenir;-inkscape-font-specification:Avenir;text-align:center;letter-spacing:0px;word-spacing:0px;writing-mode:lr-tb;text-anchor:middle;fill:#000000;fill-opacity:1;stroke:none;stroke-width:1px;stroke-linecap:butt;stroke-linejoin:miter;stroke-opacity:1"
       transform="matrix(0.67575616,0,0,0.67575616,314.89671,512.52319)">
      <path
         id="path22208"
         d="m 148.67403,-33.4469 q 0,-1.474 -0.88,-2.376 -0.88,-0.924 -2.464,-0.924 -0.704,0 -1.364,0.286 -0.66,0.264 -1.166,0.726 -0.484,0.462 -0.792,1.056 -0.286,0.594 -0.286,1.232 l 6.952,0 z m -6.996,1.188 q 0.066,0.77 0.374,1.452 0.308,0.682 0.814,1.188 0.506,0.484 1.166,0.77 0.66,0.286 1.43,0.286 1.166,0 2.002,-0.528 0.858,-0.55 1.298,-1.254 l 1.122,0.924 q -0.924,1.166 -2.046,1.672 -1.1,0.506 -2.376,0.506 -1.144,0 -2.134,-0.396 -0.968,-0.418 -1.672,-1.144 -0.704,-0.726 -1.122,-1.716 -0.396,-0.99 -0.396,-2.156 0,-1.166 0.396,-2.156 0.396,-0.99 1.1,-1.716 0.704,-0.726 1.65,-1.122 0.946,-0.418 2.046,-0.418 1.166,0 2.09,0.418 0.924,0.418 1.54,1.122 0.638,0.682 0.968,1.628 0.33,0.924 0.33,1.98 l 0,0.66 -8.58,0 z" />
      <path
         id="path22210"
         d="m 153.06612,-34.5909 q 0,-0.682 -0.044,-1.386 -0.022,-0.704 -0.044,-1.826 l 1.43,0 0,1.914 0.044,0 q 0.154,-0.418 0.44,-0.792 0.286,-0.396 0.682,-0.704 0.418,-0.308 0.946,-0.484 0.55,-0.198 1.232,-0.198 0.616,0 1.078,0.132 l -0.286,1.43 q -0.286,-0.11 -0.836,-0.11 -0.836,0 -1.43,0.33 -0.594,0.308 -0.99,0.814 -0.396,0.484 -0.59399,1.056 -0.17601,0.572 -0.17601,1.1 l 0,5.808 -1.452,0 0,-7.084 z" />
      <path
         id="path22212"
         d="m 160.37081,-34.5909 q 0,-0.682 -0.044,-1.386 -0.022,-0.704 -0.044,-1.826 l 1.43,0 0,1.914 0.044,0 q 0.154,-0.418 0.44,-0.792 0.286,-0.396 0.682,-0.704 0.418,-0.308 0.946,-0.484 0.55,-0.198 1.232,-0.198 0.616,0 1.078,0.132 l -0.286,1.43 q -0.286,-0.11 -0.836,-0.11 -0.836,0 -1.43,0.33 -0.594,0.308 -0.99,0.814 -0.396,0.484 -0.594,1.056 -0.176,0.572 -0.176,1.1 l 0,5.808 -1.452,0 0,-7.084 z" />
      <path
         id="path22214"
         d="m 175.95678,-32.6549 q 0,-0.858 -0.286,-1.606 -0.264,-0.748 -0.77,-1.298 -0.506,-0.55 -1.232,-0.858 -0.704,-0.33 -1.606,-0.33 -0.902,0 -1.628,0.33 -0.704,0.308 -1.21,0.858 -0.484,0.55 -0.77,1.298 -0.264,0.748 -0.264,1.606 0,0.858 0.264,1.606 0.286,0.748 0.77,1.298 0.506,0.55 1.21,0.88 0.726,0.308 1.628,0.308 0.902,0 1.606,-0.308 0.726,-0.33 1.232,-0.88 0.506,-0.55 0.77,-1.298 0.286,-0.748 0.286,-1.606 z m 1.584,0 q 0,1.166 -0.418,2.156 -0.396,0.99 -1.122,1.716 -0.726,0.726 -1.738,1.144 -0.99,0.396 -2.2,0.396 -1.188,0 -2.2,-0.396 -0.99,-0.418 -1.716,-1.144 -0.726,-0.726 -1.144,-1.716 -0.396,-0.99 -0.396,-2.156 0,-1.166 0.396,-2.156 0.418,-0.99 1.144,-1.716 0.726,-0.726 1.716,-1.122 1.012,-0.418 2.2,-0.418 1.21,0 2.2,0.418 1.012,0.396 1.738,1.122 0.726,0.726 1.122,1.716 0.418,0.99 0.418,2.156 z" />
      <path
         id="path22216"
         d="m 180.35128,-34.5909 q 0,-0.682 -0.044,-1.386 -0.022,-0.704 -0.044,-1.826 l 1.43,0 0,1.914 0.044,0 q 0.154,-0.418 0.44,-0.792 0.286,-0.396 0.682,-0.704 0.418,-0.308 0.946,-0.484 0.55,-0.198 1.232,-0.198 0.616,0 1.078,0.132 l -0.286,1.43 q -0.286,-0.11 -0.836,-0.11 -0.836,0 -1.43,0.33 -0.594,0.308 -0.99,0.814 -0.396,0.484 -0.594,1.056 -0.176,0.572 -0.176,1.1 l 0,5.808 -1.452,0 0,-7.084 z" />
    </g>
    <path
       id="rect19720"
       d="m 279.21541,423.16912 c -8.4914,0 -15.3379,6.84655 -15.3379,15.33789 l 0,3.78711 c 0,8.49134 6.8465,15.33789 15.3379,15.33789 l 54.4687,0 c 8.4913,0 15.3379,-6.84655 15.3379,-15.33789 l 0,-3.78711 c 0,-8.49134 -6.8466,-15.33789 -15.3379,-15.33789 l -54.4687,0 z m 0,0.67578 54.4687,0 c 8.1287,0 14.6621,6.53345 14.6621,14.66211 l 0,3.78711 c 0,8.12866 -6.5334,14.66211 -14.6621,14.66211 l -54.4687,0 c -8.1287,0 -14.6622,-6.53345 -14.6622,-14.66211 l 0,-3.78711 c 0,-8.12866 6.5335,-14.66211 14.6622,-14.66211 z"
       style="color:#000000;font-style:normal;font-variant:normal;font-weight:normal;font-stretch:normal;font-size:medium;line-height:normal;font-family:sans-serif;text-indent:0;text-align:start;text-decoration:none;text-decoration-line:none;text-decoration-style:solid;text-decoration-color:#000000;letter-spacing:normal;word-spacing:normal;text-transform:none;direction:ltr;block-progression:tb;writing-mode:lr-tb;baseline-shift:baseline;text-anchor:start;white-space:normal;clip-rule:nonzero;display:inline;overflow:visible;visibility:visible;opacity:1;isolation:auto;mix-blend-mode:normal;color-interpolation:sRGB;color-interpolation-filters:linearRGB;solid-color:#000000;solid-opacity:1;fill:#000000;fill-opacity:1;fill-rule:nonzero;stroke:none;stroke-width:0.67575616;stroke-linecap:round;stroke-linejoin:round;stroke-miterlimit:4;stroke-dasharray:none;stroke-dashoffset:0;stroke-opacity:1;color-rendering:auto;image-rendering:auto;shape-rendering:auto;text-rendering:auto;enable-background:accumulate" />
    <g
       id="flowRoot19722"
       style="font-style:normal;font-variant:normal;font-weight:normal;font-stretch:normal;font-size:22px;line-height:125%;font-family:Avenir;-inkscape-font-specification:Avenir;text-align:center;letter-spacing:0px;word-spacing:0px;writing-mode:lr-tb;text-anchor:middle;fill:#000000;fill-opacity:1;stroke:none;stroke-width:1px;stroke-linecap:butt;stroke-linejoin:miter;stroke-opacity:1"
       transform="matrix(0.67575616,0,0,0.67575616,196.63931,461.84149)">
      <path
         id="path22196"
         d="m 143.41998,-35.3829 q -0.374,-0.572 -1.056,-0.968 -0.66,-0.396 -1.518,-0.396 -0.902,-0.022 -1.628,0.286 -0.704,0.308 -1.21,0.858 -0.506,0.55 -0.77,1.32 -0.264,0.748 -0.264,1.628 0,0.88 0.264,1.65 0.264,0.748 0.77,1.298 0.506,0.55 1.21,0.858 0.726,0.308 1.628,0.286 0.858,0 1.518,-0.396 0.682,-0.396 1.056,-0.968 l 1.188,0.902 q -0.77,0.902 -1.738,1.342 -0.968,0.418 -2.024,0.44 -1.254,0.022 -2.266,-0.374 -1.012,-0.418 -1.738,-1.144 -0.704,-0.726 -1.078,-1.716 -0.374,-1.012 -0.374,-2.178 0,-1.166 0.374,-2.156 0.374,-1.012 1.078,-1.738 0.726,-0.726 1.738,-1.122 1.012,-0.418 2.266,-0.396 1.056,0.022 2.024,0.462 0.968,0.418 1.738,1.32 l -1.188,0.902 z" />
      <path
         id="path22198"
         d="m 146.53127,-44.1389 1.452,0 0,7.986 0.044,0 q 0.242,-0.418 0.616,-0.77 0.374,-0.352 0.836,-0.594 0.462,-0.264 0.968,-0.396 0.528,-0.154 1.034,-0.154 1.98,0 2.926,1.056 0.946,1.034 0.946,2.97 l 0,6.534 -1.452,0 0,-5.698 q 0,-1.716 -0.594,-2.618 -0.594,-0.924 -2.2,-0.924 -0.11,0 -0.616,0.088 -0.506,0.088 -1.078,0.484 -0.55,0.396 -0.99,1.188 -0.44,0.792 -0.44,2.2 l 0,5.28 -1.452,0 0,-16.632 z" />
      <path
         id="path22200"
         d="m 166.78536,-33.4469 q 0,-1.474 -0.88,-2.376 -0.88,-0.924 -2.464,-0.924 -0.704,0 -1.364,0.286 -0.66,0.264 -1.166,0.726 -0.484,0.462 -0.792,1.056 -0.286,0.594 -0.286,1.232 l 6.952,0 z m -6.996,1.188 q 0.066,0.77 0.374,1.452 0.308,0.682 0.814,1.188 0.506,0.484 1.166,0.77 0.66,0.286 1.43,0.286 1.166,0 2.002,-0.528 0.858,-0.55 1.298,-1.254 l 1.122,0.924 q -0.924,1.166 -2.046,1.672 -1.1,0.506 -2.376,0.506 -1.144,0 -2.134,-0.396 -0.968,-0.418 -1.672,-1.144 -0.704,-0.726 -1.122,-1.716 -0.396,-0.99 -0.396,-2.156 0,-1.166 0.396,-2.156 0.396,-0.99 1.1,-1.716 0.704,-0.726 1.65,-1.122 0.946,-0.418 2.046,-0.418 1.166,0 2.09,0.418 0.924,0.418 1.54,1.122 0.638,0.682 0.968,1.628 0.33,0.924 0.33,1.98 l 0,0.66 -8.58,0 z" />
      <path
         id="path22202"
         d="m 178.52545,-35.3829 q -0.374,-0.572 -1.056,-0.968 -0.66,-0.396 -1.518,-0.396 -0.902,-0.022 -1.628,0.286 -0.704,0.308 -1.21,0.858 -0.506,0.55 -0.77,1.32 -0.264,0.748 -0.264,1.628 0,0.88 0.264,1.65 0.264,0.748 0.77,1.298 0.506,0.55 1.21,0.858 0.726,0.308 1.628,0.286 0.858,0 1.518,-0.396 0.682,-0.396 1.056,-0.968 l 1.188,0.902 q -0.77,0.902 -1.738,1.342 -0.968,0.418 -2.024,0.44 -1.254,0.022 -2.266,-0.374 -1.012,-0.418 -1.738,-1.144 -0.704,-0.726 -1.078,-1.716 -0.374,-1.012 -0.374,-2.178 0,-1.166 0.374,-2.156 0.374,-1.012 1.078,-1.738 0.726,-0.726 1.738,-1.122 1.012,-0.418 2.266,-0.396 1.056,0.022 2.024,0.462 0.968,0.418 1.738,1.32 l -1.188,0.902 z" />
      <path
         id="path22204"
         d="m 183.08873,-33.1609 4.862,-4.642 2.178,0 -5.126,4.708 5.676,5.588 -2.244,0 -5.346,-5.412 0,5.412 -1.452,0 0,-16.632 1.452,0 0,10.978 z" />
    </g>
    <g
       id="g25970"
       transform="translate(-1879.7241,16.534346)">
      <path
         id="path19730"
         d="m 2110.1504,423.52734 0,0.67578 33.7891,0 0,-0.67578 -33.7891,0 z"
         style="color:#000000;font-style:normal;font-variant:normal;font-weight:normal;font-stretch:normal;font-size:medium;line-height:normal;font-family:sans-serif;text-indent:0;text-align:start;text-decoration:none;text-decoration-line:none;text-decoration-style:solid;text-decoration-color:#000000;letter-spacing:normal;word-spacing:normal;text-transform:none;direction:ltr;block-progression:tb;writing-mode:lr-tb;baseline-shift:baseline;text-anchor:start;white-space:normal;clip-rule:nonzero;display:inline;overflow:visible;visibility:visible;opacity:1;isolation:auto;mix-blend-mode:normal;color-interpolation:sRGB;color-interpolation-filters:linearRGB;solid-color:#000000;solid-opacity:1;fill:#000000;fill-opacity:1;fill-rule:evenodd;stroke:none;stroke-width:0.67575616px;stroke-linecap:butt;stroke-linejoin:miter;stroke-miterlimit:4;stroke-dasharray:none;stroke-dashoffset:0;stroke-opacity:1;color-rendering:auto;image-rendering:auto;shape-rendering:auto;text-rendering:auto;enable-background:accumulate" />
      <path
         style="fill:#000000;fill-opacity:1;fill-rule:evenodd;stroke:#000000;stroke-width:0.54060497pt;stroke-opacity:1"
         d="m 2137.1814,423.86596 -2.703,2.70302 9.4606,-2.70302 -9.4606,-2.70302 2.703,2.70302 z"
         id="path25976" />
    </g>
    <g
       id="g25978"
       transform="translate(-1879.7241,16.534346)">
      <path
         id="path19732"
         d="m 2346.666,423.52734 0,0.67578 33.7871,0 0,-0.67578 -33.7871,0 z"
         style="color:#000000;font-style:normal;font-variant:normal;font-weight:normal;font-stretch:normal;font-size:medium;line-height:normal;font-family:sans-serif;text-indent:0;text-align:start;text-decoration:none;text-decoration-line:none;text-decoration-style:solid;text-decoration-color:#000000;letter-spacing:normal;word-spacing:normal;text-transform:none;direction:ltr;block-progression:tb;writing-mode:lr-tb;baseline-shift:baseline;text-anchor:start;white-space:normal;clip-rule:nonzero;display:inline;overflow:visible;visibility:visible;opacity:1;isolation:auto;mix-blend-mode:normal;color-interpolation:sRGB;color-interpolation-filters:linearRGB;solid-color:#000000;solid-opacity:1;fill:#000000;fill-opacity:1;fill-rule:evenodd;stroke:none;stroke-width:0.67575616px;stroke-linecap:butt;stroke-linejoin:miter;stroke-miterlimit:4;stroke-dasharray:none;stroke-dashoffset:0;stroke-opacity:1;color-rendering:auto;image-rendering:auto;shape-rendering:auto;text-rendering:auto;enable-background:accumulate" />
      <path
         style="fill:#000000;fill-opacity:1;fill-rule:evenodd;stroke:#000000;stroke-width:0.54060497pt;stroke-opacity:1"
         d="m 2373.6961,423.86598 -2.703,2.70302 9.4606,-2.70302 -9.4606,-2.70302 2.703,2.70302 z"
         id="path25984" />
    </g>
    <g
       id="g26354"
       transform="translate(-1879.7241,16.534346)">
      <path
         id="path20382"
         d="m 2228.4082,423.52734 0,0.67578 33.7891,0 0,-0.67578 -33.7891,0 z"
         style="color:#000000;font-style:normal;font-variant:normal;font-weight:normal;font-stretch:normal;font-size:medium;line-height:normal;font-family:sans-serif;text-indent:0;text-align:start;text-decoration:none;text-decoration-line:none;text-decoration-style:solid;text-decoration-color:#000000;letter-spacing:normal;word-spacing:normal;text-transform:none;direction:ltr;block-progression:tb;writing-mode:lr-tb;baseline-shift:baseline;text-anchor:start;white-space:normal;clip-rule:nonzero;display:inline;overflow:visible;visibility:visible;opacity:1;isolation:auto;mix-blend-mode:normal;color-interpolation:sRGB;color-interpolation-filters:linearRGB;solid-color:#000000;solid-opacity:1;fill:#000000;fill-opacity:1;fill-rule:evenodd;stroke:none;stroke-width:0.67575616px;stroke-linecap:butt;stroke-linejoin:miter;stroke-miterlimit:4;stroke-dasharray:none;stroke-dashoffset:0;stroke-opacity:1;color-rendering:auto;image-rendering:auto;shape-rendering:auto;text-rendering:auto;enable-background:accumulate" />
      <path
         style="fill:#000000;fill-opacity:1;fill-rule:evenodd;stroke:#000000;stroke-width:0.54060497pt;stroke-opacity:1"
         d="m 2255.4388,423.86598 -2.703,2.70302 9.4606,-2.70302 -9.4606,-2.70302 2.703,2.70302 z"
         id="path26360" />
    </g>
    <g
       id="g26362"
       transform="translate(-1879.7241,16.534346)">
      <path
         id="path20384"
         d="m 2228.4082,423.52734 0,0.67578 c 0,0 4.154,0.005 8.2969,2.07618 4.1429,2.07144 8.2597,6.14614 8.2597,14.48047 l 0,16.89453 c 0,8.55958 4.3288,12.93195 8.6329,15.08398 4.304,2.15203 8.5996,2.14649 8.5996,2.14649 l 0,-0.67579 c 0,0 -4.154,-0.005 -8.2969,-2.07617 -4.1429,-2.07144 -8.2598,-6.14418 -8.2598,-14.47851 l 0,-16.89453 c 0,-8.55958 -4.3307,-12.93196 -8.6347,-15.08399 -4.3041,-2.15203 -8.5977,-2.14844 -8.5977,-2.14844 z"
         style="color:#000000;font-style:normal;font-variant:normal;font-weight:normal;font-stretch:normal;font-size:medium;line-height:normal;font-family:sans-serif;text-indent:0;text-align:start;text-decoration:none;text-decoration-line:none;text-decoration-style:solid;text-decoration-color:#000000;letter-spacing:normal;word-spacing:normal;text-transform:none;direction:ltr;block-progression:tb;writing-mode:lr-tb;baseline-shift:baseline;text-anchor:start;white-space:normal;clip-rule:nonzero;display:inline;overflow:visible;visibility:visible;opacity:1;isolation:auto;mix-blend-mode:normal;color-interpolation:sRGB;color-interpolation-filters:linearRGB;solid-color:#000000;solid-opacity:1;fill:#000000;fill-opacity:1;fill-rule:evenodd;stroke:none;stroke-width:0.67575616px;stroke-linecap:butt;stroke-linejoin:miter;stroke-miterlimit:4;stroke-dasharray:none;stroke-dashoffset:0;stroke-opacity:1;color-rendering:auto;image-rendering:auto;shape-rendering:auto;text-rendering:auto;enable-background:accumulate" />
      <path
         style="fill:#000000;fill-opacity:1;fill-rule:evenodd;stroke:#000000;stroke-width:0.54060497pt;stroke-opacity:1"
         d="m 2255.4388,474.54769 -2.703,2.70302 9.4606,-2.70302 -9.4606,-2.70302 2.703,2.70302 z"
         id="path26368" />
    </g>
    <path
       id="path20398"
       d="m 500.72901,440.06169 c 0,0 -4.2936,-0.004 -8.5976,2.14844 -4.3041,2.15203 -8.6328,6.52441 -8.6328,15.08399 l 0,16.89453 c 0,8.33433 -4.1189,12.40707 -8.2618,14.47851 -4.1428,2.07145 -8.2949,2.07617 -8.2949,2.07617 l 0,0.67579 c 0,0 4.2936,0.006 8.5977,-2.14649 4.304,-2.15203 8.6347,-6.5244 8.6347,-15.08398 l 0,-16.89453 c 0,-8.33433 4.1169,-12.40903 8.2598,-14.48047 4.1429,-2.07145 8.2949,-2.07618 8.2949,-2.07618 l 0,-0.67578 z"
       style="color:#000000;font-style:normal;font-variant:normal;font-weight:normal;font-stretch:normal;font-size:medium;line-height:normal;font-family:sans-serif;text-indent:0;text-align:start;text-decoration:none;text-decoration-line:none;text-decoration-style:solid;text-decoration-color:#000000;letter-spacing:normal;word-spacing:normal;text-transform:none;direction:ltr;block-progression:tb;writing-mode:lr-tb;baseline-shift:baseline;text-anchor:start;white-space:normal;clip-rule:nonzero;display:inline;overflow:visible;visibility:visible;opacity:1;isolation:auto;mix-blend-mode:normal;color-interpolation:sRGB;color-interpolation-filters:linearRGB;solid-color:#000000;solid-opacity:1;fill:#000000;fill-opacity:1;fill-rule:evenodd;stroke:none;stroke-width:0.67575616px;stroke-linecap:butt;stroke-linejoin:miter;stroke-miterlimit:4;stroke-dasharray:none;stroke-dashoffset:0;stroke-opacity:1;color-rendering:auto;image-rendering:auto;shape-rendering:auto;text-rendering:auto;enable-background:accumulate" />
  </g>
</svg>
