<?xml version="1.0" encoding="UTF-8" standalone="no"?>
<svg
   xmlns:dc="http://purl.org/dc/elements/1.1/"
   xmlns:cc="http://creativecommons.org/ns#"
   xmlns:rdf="http://www.w3.org/1999/02/22-rdf-syntax-ns#"
   xmlns:svg="http://www.w3.org/2000/svg"
   xmlns="http://www.w3.org/2000/svg"
   version="1.1"
   id="svg16209"
   viewBox="0 0 387.19621 34.234381"
   height="9.6617031mm"
   width="109.27538mm">
  <defs
     id="defs16211" />
  <metadata
     id="metadata16214">
    <rdf:RDF>
      <cc:Work
         rdf:about="">
        <dc:format>image/svg+xml</dc:format>
        <dc:type
           rdf:resource="http://purl.org/dc/dcmitype/StillImage" />
        <dc:title></dc:title>
      </cc:Work>
    </rdf:RDF>
  </metadata>
  <g
     transform="translate(10.741,-443.81644)"
     id="layer1">
    <path
       id="rect8437"
       d="m 37.821532,443.81644 c -8.4902,0 -15.336,6.84581 -15.336,15.33594 l 0,3.5625 c 0,8.49014 6.8458,15.33594 15.336,15.33594 l 53.9082,0 c 8.490098,0 15.333998,-6.8458 15.333998,-15.33594 l 0,-3.5625 c 0,-8.49013 -6.8439,-15.33594 -15.333998,-15.33594 l -53.9082,0 z m 0,0.67188 53.9082,0 c 8.1298,0 14.663998,6.5342 14.663998,14.66406 l 0,3.5625 c 0,8.12987 -6.534198,14.66406 -14.663998,14.66406 l -53.9082,0 c -8.1299,0 -14.6641,-6.53419 -14.6641,-14.66406 l 0,-3.5625 c 0,-8.12986 6.5342,-14.66406 14.6641,-14.66406 z"
       style="color:#000000;font-style:normal;font-variant:normal;font-weight:normal;font-stretch:normal;font-size:medium;line-height:normal;font-family:sans-serif;text-indent:0;text-align:start;text-decoration:none;text-decoration-line:none;text-decoration-style:solid;text-decoration-color:#000000;letter-spacing:normal;word-spacing:normal;text-transform:none;direction:ltr;block-progression:tb;writing-mode:lr-tb;baseline-shift:baseline;text-anchor:start;white-space:normal;clip-rule:nonzero;display:inline;overflow:visible;visibility:visible;opacity:1;isolation:auto;mix-blend-mode:normal;color-interpolation:sRGB;color-interpolation-filters:linearRGB;solid-color:#000000;solid-opacity:1;fill:#000000;fill-opacity:1;fill-rule:nonzero;stroke:none;stroke-width:0.67126107;stroke-linecap:round;stroke-linejoin:round;stroke-miterlimit:4;stroke-dasharray:none;stroke-dashoffset:0;stroke-opacity:1;color-rendering:auto;image-rendering:auto;shape-rendering:auto;text-rendering:auto;enable-background:accumulate" />
    <g
       id="flowRoot8439"
       style="font-style:normal;font-variant:normal;font-weight:normal;font-stretch:normal;font-size:22px;line-height:125%;font-family:Avenir;-inkscape-font-specification:Avenir;text-align:center;letter-spacing:0px;word-spacing:0px;writing-mode:lr-tb;text-anchor:middle;fill:#000000;fill-opacity:1;stroke:none;stroke-width:1px;stroke-linecap:butt;stroke-linejoin:miter;stroke-opacity:1"
       transform="matrix(0.67126109,0,0,0.67126109,-44.304668,482.23227)">
      <path
         id="path12542"
         d="m 135.14987,-32.6549 q 0,-0.858 -0.286,-1.606 -0.264,-0.748 -0.77,-1.298 -0.506,-0.55 -1.232,-0.858 -0.704,-0.33 -1.606,-0.33 -0.902,0 -1.65,0.33 -0.748,0.308 -1.298,0.858 -0.54999,0.55 -0.85799,1.298 -0.308,0.748 -0.308,1.606 0,0.858 0.308,1.606 0.308,0.748 0.85799,1.298 0.55,0.55 1.298,0.88 0.748,0.308 1.65,0.308 0.902,0 1.606,-0.308 0.726,-0.33 1.232,-0.88 0.506,-0.55 0.77,-1.298 0.286,-0.748 0.286,-1.606 z m -9.39399,-5.148 1.452,0 0,1.716 0.044,0 q 0.35201,-0.528 0.836,-0.902 0.484,-0.374 1.012,-0.616 0.528,-0.242 1.078,-0.352 0.572,-0.11 1.078,-0.11 1.21,0 2.2,0.418 1.012,0.396 1.738,1.122 0.726,0.726 1.122,1.716 0.418,0.99 0.418,2.156 0,1.166 -0.418,2.156 -0.396,0.99 -1.122,1.716 -0.726,0.726 -1.738,1.144 -0.99,0.396 -2.2,0.396 -0.506,0 -1.078,-0.11 -0.55,-0.11 -1.078,-0.352 -0.528,-0.242 -1.012,-0.616 -0.48399,-0.374 -0.836,-0.902 l -0.044,0 0,8.052 -1.452,0 0,-16.632 z" />
      <path
         id="path12544"
         d="m 139.35909,-34.5909 q 0,-0.682 -0.044,-1.386 -0.022,-0.704 -0.044,-1.826 l 1.43,0 0,1.914 0.044,0 q 0.154,-0.418 0.44,-0.792 0.286,-0.396 0.682,-0.704 0.418,-0.308 0.946,-0.484 0.55,-0.198 1.232,-0.198 0.616,0 1.078,0.132 l -0.286,1.43 q -0.286,-0.11 -0.836,-0.11 -0.836,0 -1.43,0.33 -0.594,0.308 -0.99,0.814 -0.396,0.484 -0.594,1.056 -0.176,0.572 -0.176,1.1 l 0,5.808 -1.452,0 0,-7.084 z" />
      <path
         id="path12546"
         d="m 154.13106,-33.4469 q 0,-1.474 -0.88,-2.376 -0.88,-0.924 -2.464,-0.924 -0.704,0 -1.364,0.286 -0.66,0.264 -1.166,0.726 -0.484,0.462 -0.792,1.056 -0.286,0.594 -0.286,1.232 l 6.952,0 z m -6.996,1.188 q 0.066,0.77 0.374,1.452 0.308,0.682 0.814,1.188 0.506,0.484 1.166,0.77 0.66,0.286 1.43,0.286 1.166,0 2.002,-0.528 0.858,-0.55 1.298,-1.254 l 1.122,0.924 q -0.924,1.166 -2.046,1.672 -1.1,0.506 -2.376,0.506 -1.144,0 -2.134,-0.396 -0.968,-0.418 -1.672,-1.144 -0.704,-0.726 -1.122,-1.716 -0.396,-0.99 -0.396,-2.156 0,-1.166 0.396,-2.156 0.396,-0.99 1.1,-1.716 0.704,-0.726 1.65,-1.122 0.946,-0.418 2.046,-0.418 1.166,0 2.09,0.418 0.924,0.418 1.54,1.122 0.638,0.682 0.968,1.628 0.33,0.924 0.33,1.98 l 0,0.66 -8.58,0 z" />
      <path
         id="path12548"
         d="m 167.76316,-32.6549 q 0,-0.858 -0.286,-1.606 -0.264,-0.748 -0.77,-1.298 -0.506,-0.55 -1.232,-0.858 -0.704,-0.33 -1.606,-0.33 -0.902,0 -1.65,0.33 -0.748,0.308 -1.298,0.858 -0.55,0.55 -0.858,1.298 -0.308,0.748 -0.308,1.606 0,0.858 0.308,1.606 0.308,0.748 0.858,1.298 0.55,0.55 1.298,0.88 0.748,0.308 1.65,0.308 0.902,0 1.606,-0.308 0.726,-0.33 1.232,-0.88 0.506,-0.55 0.77,-1.298 0.286,-0.748 0.286,-1.606 z m -9.394,-5.148 1.452,0 0,1.716 0.044,0 q 0.352,-0.528 0.836,-0.902 0.484,-0.374 1.012,-0.616 0.528,-0.242 1.078,-0.352 0.572,-0.11 1.078,-0.11 1.21,0 2.2,0.418 1.012,0.396 1.738,1.122 0.726,0.726 1.122,1.716 0.418,0.99 0.418,2.156 0,1.166 -0.418,2.156 -0.396,0.99 -1.122,1.716 -0.726,0.726 -1.738,1.144 -0.99,0.396 -2.2,0.396 -0.506,0 -1.078,-0.11 -0.55,-0.11 -1.078,-0.352 -0.528,-0.242 -1.012,-0.616 -0.484,-0.374 -0.836,-0.902 l -0.044,0 0,8.052 -1.452,0 0,-16.632 z" />
      <path
         id="path12550"
         d="m 177.67037,-32.6329 q -0.55,0 -1.386,0.066 -0.814,0.044 -1.584,0.264 -0.748,0.198 -1.298,0.638 -0.528,0.44 -0.528,1.21 0,0.506 0.198,0.88 0.22,0.352 0.572,0.594 0.352,0.22 0.77,0.33 0.44,0.088 0.88,0.088 0.792,0 1.364,-0.264 0.594,-0.264 0.99,-0.704 0.396,-0.462 0.572,-1.056 0.198,-0.616 0.198,-1.298 l 0,-0.748 -0.748,0 z m 0.748,-1.188 0,-0.264 q 0,-2.662 -2.64,-2.662 -1.804,0 -3.146,1.21 l -0.88,-1.034 q 1.452,-1.496 4.356,-1.496 0.74801,0 1.43,0.22 0.704,0.22 1.21,0.682 0.506,0.44 0.814,1.122 0.308,0.682 0.308,1.628 l 0,4.598 q 0,0.594 0.044,1.254 0.066,0.638 0.132,1.056 l -1.408,0 q -0.066,-0.374 -0.11,-0.814 -0.022,-0.44 -0.022,-0.858 l -0.044,0 q -0.638,1.034 -1.518,1.496 -0.858,0.44 -2.11199,0.44 -0.68201,0 -1.32001,-0.198 -0.638,-0.176 -1.144,-0.55 -0.484,-0.396 -0.79199,-0.946 -0.28601,-0.572 -0.28601,-1.32 0,-1.254 0.638,-1.958 0.66001,-0.726 1.628,-1.078 0.99,-0.352 2.09,-0.44 1.122,-0.088 2.046,-0.088 l 0.726,0 z" />
      <path
         id="path12552"
         d="m 183.40206,-34.5909 q 0,-0.682 -0.044,-1.386 -0.022,-0.704 -0.044,-1.826 l 1.43,0 0,1.914 0.044,0 q 0.154,-0.418 0.44,-0.792 0.286,-0.396 0.682,-0.704 0.418,-0.308 0.946,-0.484 0.55,-0.198 1.232,-0.198 0.616,0 1.078,0.132 l -0.286,1.43 q -0.286,-0.11 -0.836,-0.11 -0.836,0 -1.43,0.33 -0.594,0.308 -0.99,0.814 -0.396,0.484 -0.594,1.056 -0.176,0.572 -0.176,1.1 l 0,5.808 -1.452,0 0,-7.084 z" />
      <path
         id="path12554"
         d="m 198.17403,-33.4469 q 0,-1.474 -0.88,-2.376 -0.88,-0.924 -2.464,-0.924 -0.704,0 -1.364,0.286 -0.66,0.264 -1.166,0.726 -0.484,0.462 -0.792,1.056 -0.286,0.594 -0.286,1.232 l 6.952,0 z m -6.996,1.188 q 0.066,0.77 0.374,1.452 0.308,0.682 0.814,1.188 0.506,0.484 1.166,0.77 0.66,0.286 1.43,0.286 1.166,0 2.002,-0.528 0.858,-0.55 1.298,-1.254 l 1.122,0.924 q -0.924,1.166 -2.046,1.672 -1.1,0.506 -2.376,0.506 -1.144,0 -2.134,-0.396 -0.968,-0.418 -1.672,-1.144 -0.704,-0.726 -1.122,-1.716 -0.396,-0.99 -0.396,-2.156 0,-1.166 0.396,-2.156 0.396,-0.99 1.1,-1.716 0.704,-0.726 1.65,-1.122 0.946,-0.418 2.046,-0.418 1.166,0 2.09,0.418 0.924,0.418 1.54,1.122 0.638,0.682 0.968,1.628 0.33,0.924 0.33,1.98 l 0,0.66 -8.58,0 z" />
    </g>
    <path
       id="rect8447"
       d="m 155.29223,443.81644 c -8.4902,0 -15.336,6.84581 -15.336,15.33594 l 0,3.5625 c 0,8.49014 6.8458,15.33594 15.336,15.33594 l 53.9082,0 c 8.4901,0 15.3359,-6.8458 15.3359,-15.33594 l 0,-3.5625 c 0,-8.49013 -6.8458,-15.33594 -15.3359,-15.33594 l -53.9082,0 z m 0,0.67188 53.9082,0 c 8.1298,0 14.664,6.5342 14.664,14.66406 l 0,3.5625 c 0,8.12987 -6.5342,14.66406 -14.664,14.66406 l -53.9082,0 c -8.1299,0 -14.6641,-6.53419 -14.6641,-14.66406 l 0,-3.5625 c 0,-8.12986 6.5342,-14.66406 14.6641,-14.66406 z"
       style="color:#000000;font-style:normal;font-variant:normal;font-weight:normal;font-stretch:normal;font-size:medium;line-height:normal;font-family:sans-serif;text-indent:0;text-align:start;text-decoration:none;text-decoration-line:none;text-decoration-style:solid;text-decoration-color:#000000;letter-spacing:normal;word-spacing:normal;text-transform:none;direction:ltr;block-progression:tb;writing-mode:lr-tb;baseline-shift:baseline;text-anchor:start;white-space:normal;clip-rule:nonzero;display:inline;overflow:visible;visibility:visible;opacity:1;isolation:auto;mix-blend-mode:normal;color-interpolation:sRGB;color-interpolation-filters:linearRGB;solid-color:#000000;solid-opacity:1;fill:#000000;fill-opacity:1;fill-rule:nonzero;stroke:none;stroke-width:0.67126107;stroke-linecap:round;stroke-linejoin:round;stroke-miterlimit:4;stroke-dasharray:none;stroke-dashoffset:0;stroke-opacity:1;color-rendering:auto;image-rendering:auto;shape-rendering:auto;text-rendering:auto;enable-background:accumulate" />
    <g
       id="flowRoot8449"
       style="font-style:normal;font-variant:normal;font-weight:normal;font-stretch:normal;font-size:22px;line-height:125%;font-family:Avenir;-inkscape-font-specification:Avenir;text-align:center;letter-spacing:0px;word-spacing:0px;writing-mode:lr-tb;text-anchor:middle;fill:#000000;fill-opacity:1;stroke:none;stroke-width:1px;stroke-linecap:butt;stroke-linejoin:miter;stroke-opacity:1"
       transform="matrix(0.67126109,0,0,0.67126109,73.166032,482.23227)">
      <path
         id="path12524"
         d="m 130.67013,-33.4469 q 0,-1.474 -0.88001,-2.376 -0.88,-0.924 -2.46399,-0.924 -0.70401,0 -1.364,0.286 -0.66,0.264 -1.166,0.726 -0.48401,0.462 -0.792,1.056 -0.286,0.594 -0.286,1.232 l 6.952,0 z m -6.996,1.188 q 0.066,0.77 0.374,1.452 0.308,0.682 0.814,1.188 0.506,0.484 1.166,0.77 0.66,0.286 1.42999,0.286 1.166,0 2.002,-0.528 0.858,-0.55 1.298,-1.254 l 1.122,0.924 q -0.924,1.166 -2.046,1.672 -1.1,0.506 -2.376,0.506 -1.14399,0 -2.134,-0.396 -0.96799,-0.418 -1.672,-1.144 -0.70399,-0.726 -1.122,-1.716 -0.396,-0.99 -0.396,-2.156 0,-1.166 0.396,-2.156 0.39601,-0.99 1.10001,-1.716 0.704,-0.726 1.64999,-1.122 0.946,-0.418 2.04601,-0.418 1.16599,0 2.08999,0.418 0.924,0.418 1.54,1.122 0.638,0.682 0.968,1.628 0.33,0.924 0.33,1.98 l 0,0.66 -8.57999,0 z" />
      <path
         id="path12526"
         d="m 139.44022,-27.5069 -1.628,0 -4.18,-10.296 1.738,0 3.278,8.668 0.044,0 3.278,-8.668 1.65,0 -4.18,10.296 z" />
      <path
         id="path12528"
         d="m 151.3735,-32.6329 q -0.55,0 -1.386,0.066 -0.814,0.044 -1.584,0.264 -0.748,0.198 -1.298,0.638 -0.528,0.44 -0.528,1.21 0,0.506 0.198,0.88 0.22,0.352 0.572,0.594 0.352,0.22 0.77,0.33 0.44,0.088 0.88,0.088 0.792,0 1.364,-0.264 0.594,-0.264 0.99,-0.704 0.396,-0.462 0.572,-1.056 0.198,-0.616 0.198,-1.298 l 0,-0.748 -0.748,0 z m 0.748,-1.188 0,-0.264 q 0,-2.662 -2.64,-2.662 -1.804,0 -3.146,1.21 l -0.88,-1.034 q 1.452,-1.496 4.356,-1.496 0.748,0 1.43,0.22 0.704,0.22 1.21,0.682 0.506,0.44 0.814,1.122 0.308,0.682 0.308,1.628 l 0,4.598 q 0,0.594 0.044,1.254 0.066,0.638 0.132,1.056 l -1.408,0 q -0.066,-0.374 -0.11,-0.814 -0.022,-0.44 -0.022,-0.858 l -0.044,0 q -0.638,1.034 -1.518,1.496 -0.858,0.44 -2.112,0.44 -0.682,0 -1.32,-0.198 -0.638,-0.176 -1.144,-0.55 -0.484,-0.396 -0.792,-0.946 -0.286,-0.572 -0.286,-1.32 0,-1.254 0.638,-1.958 0.66,-0.726 1.628,-1.078 0.99,-0.352 2.09,-0.44 1.122,-0.088 2.046,-0.088 l 0.726,0 z" />
      <path
         id="path12530"
         d="m 158.73319,-27.5069 -1.452,0 0,-16.632 1.452,0 0,16.632 z" />
      <path
         id="path12532"
         d="m 169.71531,-27.5069 q -0.044,-0.418 -0.066,-0.814 0,-0.418 0,-0.836 l -0.044,0 q -0.242,0.418 -0.616,0.77 -0.374,0.352 -0.836,0.616 -0.462,0.242 -0.99,0.374 -0.506,0.154 -1.012,0.154 -1.98,0 -2.926,-1.034 -0.946,-1.056 -0.946,-2.992 l 0,-6.534 1.452,0 0,5.698 q 0,0.858 0.132,1.518 0.132,0.66 0.44,1.122 0.33,0.44 0.858,0.682 0.55,0.22 1.364,0.22 0.11,0 0.616,-0.088 0.506,-0.088 1.056,-0.484 0.572,-0.396 1.012,-1.188 0.44,-0.792 0.44,-2.2 l 0,-5.28 1.452,0 0,8.03 q 0,0.418 0.022,1.056 0.044,0.638 0.088,1.21 l -1.496,0 z" />
      <path
         id="path12534"
         d="m 180.37741,-32.6329 q -0.55,0 -1.386,0.066 -0.814,0.044 -1.584,0.264 -0.748,0.198 -1.298,0.638 -0.528,0.44 -0.528,1.21 0,0.506 0.198,0.88 0.22,0.352 0.572,0.594 0.352,0.22 0.77,0.33 0.44,0.088 0.88,0.088 0.792,0 1.364,-0.264 0.594,-0.264 0.99,-0.704 0.396,-0.462 0.572,-1.056 0.198,-0.616 0.198,-1.298 l 0,-0.748 -0.748,0 z m 0.748,-1.188 0,-0.264 q 0,-2.662 -2.64,-2.662 -1.804,0 -3.146,1.21 l -0.88,-1.034 q 1.452,-1.496 4.356,-1.496 0.748,0 1.43,0.22 0.704,0.22 1.21,0.682 0.506,0.44 0.814,1.122 0.308,0.682 0.308,1.628 l 0,4.598 q 0,0.594 0.044,1.254 0.066,0.638 0.132,1.056 l -1.408,0 q -0.066,-0.374 -0.11,-0.814 -0.022,-0.44 -0.022,-0.858 l -0.044,0 q -0.638,1.034 -1.518,1.496 -0.858,0.44 -2.112,0.44 -0.682,0 -1.32,-0.198 -0.638,-0.176 -1.144,-0.55 -0.484,-0.396 -0.792,-0.946 -0.286,-0.572 -0.286,-1.32 0,-1.254 0.638,-1.958 0.66,-0.726 1.628,-1.078 0.99,-0.352 2.09,-0.44 1.122,-0.088 2.046,-0.088 l 0.726,0 z" />
      <path
         id="path12536"
         d="m 191.27909,-36.4829 -2.97,0 0,6.072 q 0,0.572 0.11,0.946 0.11,0.352 0.308,0.55 0.198,0.198 0.462,0.286 0.286,0.066 0.616,0.066 0.374,0 0.77,-0.11 0.396,-0.11 0.726,-0.286 l 0.066,1.342 q -0.814,0.374 -1.958,0.374 -0.418,0 -0.88,-0.11 -0.44,-0.11 -0.814,-0.418 -0.374,-0.308 -0.616,-0.836 -0.242,-0.528 -0.242,-1.386 l 0,-6.49 -2.178,0 0,-1.32 2.178,0 0,-2.904 1.452,0 0,2.904 2.97,0 0,1.32 z" />
      <path
         id="path12538"
         d="m 201.26778,-33.4469 q 0,-1.474 -0.88,-2.376 -0.88,-0.924 -2.464,-0.924 -0.704,0 -1.364,0.286 -0.66,0.264 -1.166,0.726 -0.484,0.462 -0.792,1.056 -0.286,0.594 -0.286,1.232 l 6.952,0 z m -6.996,1.188 q 0.066,0.77 0.374,1.452 0.308,0.682 0.814,1.188 0.506,0.484 1.166,0.77 0.66,0.286 1.43,0.286 1.166,0 2.002,-0.528 0.858,-0.55 1.298,-1.254 l 1.122,0.924 q -0.924,1.166 -2.046,1.672 -1.1,0.506 -2.376,0.506 -1.144,0 -2.134,-0.396 -0.968,-0.418 -1.672,-1.144 -0.704,-0.726 -1.122,-1.716 -0.396,-0.99 -0.396,-2.156 0,-1.166 0.396,-2.156 0.396,-0.99 1.1,-1.716 0.704,-0.726 1.65,-1.122 0.946,-0.418 2.046,-0.418 1.166,0 2.09,0.418 0.924,0.418 1.54,1.122 0.638,0.682 0.968,1.628 0.33,0.924 0.33,1.98 l 0,0.66 -8.58,0 z" />
    </g>
    <path
       id="rect8457"
       d="m 272.76293,443.81644 c -8.4902,0 -15.336,6.84581 -15.336,15.33594 l 0,3.5625 c 0,8.49014 6.8458,15.33594 15.336,15.33594 l 53.9082,0 c 8.4901,0 15.334,-6.8458 15.334,-15.33594 l 0,-3.5625 c 0,-8.49013 -6.8439,-15.33594 -15.334,-15.33594 l -53.9082,0 z m 0,0.67188 53.9082,0 c 8.1298,0 14.664,6.5342 14.664,14.66406 l 0,3.5625 c 0,8.12987 -6.5342,14.66406 -14.664,14.66406 l -53.9082,0 c -8.1299,0 -14.6641,-6.53419 -14.6641,-14.66406 l 0,-3.5625 c 0,-8.12986 6.5342,-14.66406 14.6641,-14.66406 z"
       style="color:#000000;font-style:normal;font-variant:normal;font-weight:normal;font-stretch:normal;font-size:medium;line-height:normal;font-family:sans-serif;text-indent:0;text-align:start;text-decoration:none;text-decoration-line:none;text-decoration-style:solid;text-decoration-color:#000000;letter-spacing:normal;word-spacing:normal;text-transform:none;direction:ltr;block-progression:tb;writing-mode:lr-tb;baseline-shift:baseline;text-anchor:start;white-space:normal;clip-rule:nonzero;display:inline;overflow:visible;visibility:visible;opacity:1;isolation:auto;mix-blend-mode:normal;color-interpolation:sRGB;color-interpolation-filters:linearRGB;solid-color:#000000;solid-opacity:1;fill:#000000;fill-opacity:1;fill-rule:nonzero;stroke:none;stroke-width:0.67126107;stroke-linecap:round;stroke-linejoin:round;stroke-miterlimit:4;stroke-dasharray:none;stroke-dashoffset:0;stroke-opacity:1;color-rendering:auto;image-rendering:auto;shape-rendering:auto;text-rendering:auto;enable-background:accumulate" />
    <g
       id="flowRoot8459"
       style="font-style:normal;font-variant:normal;font-weight:normal;font-stretch:normal;font-size:22px;line-height:125%;font-family:Avenir;-inkscape-font-specification:Avenir;text-align:center;letter-spacing:0px;word-spacing:0px;writing-mode:lr-tb;text-anchor:middle;fill:#000000;fill-opacity:1;stroke:none;stroke-width:1px;stroke-linecap:butt;stroke-linejoin:miter;stroke-opacity:1"
       transform="matrix(0.67126109,0,0,0.67126109,190.63673,482.23227)">
      <path
         id="path12510"
         d="m 134.91183,-34.5909 q 0,-0.682 -0.044,-1.386 -0.022,-0.704 -0.044,-1.826 l 1.43,0 0,1.914 0.044,0 q 0.154,-0.418 0.44,-0.792 0.286,-0.396 0.682,-0.704 0.418,-0.308 0.946,-0.484 0.55,-0.198 1.232,-0.198 0.616,0 1.078,0.132 l -0.286,1.43 q -0.286,-0.11 -0.836,-0.11 -0.836,0 -1.43,0.33 -0.594,0.308 -0.99,0.814 -0.396,0.484 -0.594,1.056 -0.176,0.572 -0.176,1.1 l 0,5.808 -1.452,0 0,-7.084 z" />
      <path
         id="path12512"
         d="m 149.6838,-33.4469 q 0,-1.474 -0.88,-2.376 -0.88,-0.924 -2.464,-0.924 -0.704,0 -1.364,0.286 -0.66,0.264 -1.166,0.726 -0.484,0.462 -0.792,1.056 -0.286,0.594 -0.286,1.232 l 6.952,0 z m -6.996,1.188 q 0.066,0.77 0.374,1.452 0.308,0.682 0.814,1.188 0.506,0.484 1.166,0.77 0.66,0.286 1.43,0.286 1.166,0 2.002,-0.528 0.858,-0.55 1.298,-1.254 l 1.122,0.924 q -0.924,1.166 -2.046,1.672 -1.1,0.506 -2.376,0.506 -1.144,0 -2.134,-0.396 -0.968,-0.418 -1.672,-1.144 -0.704,-0.726 -1.122,-1.716 -0.396,-0.99 -0.396,-2.156 0,-1.166 0.396,-2.156 0.396,-0.99 1.1,-1.716 0.704,-0.726 1.65,-1.122 0.946,-0.418 2.046,-0.418 1.166,0 2.09,0.418 0.924,0.418 1.54,1.122 0.638,0.682 0.968,1.628 0.33,0.924 0.33,1.98 l 0,0.66 -8.58,0 z" />
      <path
         id="path12514"
         d="m 159.24589,-36.4829 -2.97,0 0,6.072 q 0,0.572 0.11,0.946 0.11,0.352 0.308,0.55 0.198,0.198 0.462,0.286 0.286,0.066 0.616,0.066 0.374,0 0.77,-0.11 0.396,-0.11 0.726,-0.286 l 0.066,1.342 q -0.814,0.374 -1.958,0.374 -0.418,0 -0.88,-0.11 -0.44,-0.11 -0.814,-0.418 -0.374,-0.308 -0.616,-0.836 -0.242,-0.528 -0.242,-1.386 l 0,-6.49 -2.178,0 0,-1.32 2.178,0 0,-2.904 1.452,0 0,2.904 2.97,0 0,1.32 z" />
      <path
         id="path12516"
         d="m 168.66258,-27.5069 q -0.044,-0.418 -0.066,-0.814 0,-0.418 0,-0.836 l -0.044,0 q -0.242,0.418 -0.616,0.77 -0.374,0.352 -0.836,0.616 -0.462,0.242 -0.99,0.374 -0.506,0.154 -1.012,0.154 -1.98,0 -2.926,-1.034 -0.946,-1.056 -0.946,-2.992 l 0,-6.534 1.452,0 0,5.698 q 0,0.858 0.132,1.518 0.132,0.66 0.44,1.122 0.33,0.44 0.858,0.682 0.55,0.22 1.364,0.22 0.11,0 0.616,-0.088 0.506,-0.088 1.056,-0.484 0.572,-0.396 1.012,-1.188 0.44,-0.792 0.44,-2.2 l 0,-5.28 1.452,0 0,8.03 q 0,0.418 0.022,1.056 0.044,0.638 0.088,1.21 l -1.496,0 z" />
      <path
         id="path12518"
         d="m 173.62667,-34.5909 q 0,-0.682 -0.044,-1.386 -0.022,-0.704 -0.044,-1.826 l 1.43,0 0,1.914 0.044,0 q 0.154,-0.418 0.44,-0.792 0.286,-0.396 0.682,-0.704 0.418,-0.308 0.946,-0.484 0.55,-0.198 1.232,-0.198 0.616,0 1.078,0.132 l -0.286,1.43 q -0.286,-0.11 -0.836,-0.11 -0.836,0 -1.43,0.33 -0.594,0.308 -0.99,0.814 -0.396,0.484 -0.594,1.056 -0.176,0.572 -0.176,1.1 l 0,5.808 -1.452,0 0,-7.084 z" />
      <path
         id="path12520"
         d="m 182.55008,-37.8029 q 0.044,0.418 0.044,0.836 0.022,0.396 0.022,0.814 l 0.044,0 q 0.242,-0.418 0.616,-0.77 0.374,-0.352 0.836,-0.594 0.462,-0.264 0.968,-0.396 0.528,-0.154 1.034,-0.154 1.98,0 2.926,1.056 0.946,1.034 0.946,2.97 l 0,6.534 -1.452,0 0,-5.698 q 0,-1.716 -0.594,-2.618 -0.594,-0.924 -2.2,-0.924 -0.11,0 -0.616,0.088 -0.506,0.088 -1.078,0.484 -0.55,0.396 -0.99,1.188 -0.44,0.792 -0.44,2.2 l 0,5.28 -1.452,0 0,-8.03 q 0,-0.418 -0.044,-1.056 -0.022,-0.638 -0.066,-1.21 l 1.496,0 z" />
    </g>
    <g
       id="g14331"
       transform="translate(-2071.8133,643.01371)">
      <path
         id="path8467"
         d="m 2061.0723,-182.41602 0,0.67188 33.5625,0 0,-0.67188 -33.5625,0 z"
         style="color:#000000;font-style:normal;font-variant:normal;font-weight:normal;font-stretch:normal;font-size:medium;line-height:normal;font-family:sans-serif;text-indent:0;text-align:start;text-decoration:none;text-decoration-line:none;text-decoration-style:solid;text-decoration-color:#000000;letter-spacing:normal;word-spacing:normal;text-transform:none;direction:ltr;block-progression:tb;writing-mode:lr-tb;baseline-shift:baseline;text-anchor:start;white-space:normal;clip-rule:nonzero;display:inline;overflow:visible;visibility:visible;opacity:1;isolation:auto;mix-blend-mode:normal;color-interpolation:sRGB;color-interpolation-filters:linearRGB;solid-color:#000000;solid-opacity:1;fill:#000000;fill-opacity:1;fill-rule:evenodd;stroke:none;stroke-width:0.67126107px;stroke-linecap:butt;stroke-linejoin:miter;stroke-miterlimit:4;stroke-dasharray:none;stroke-dashoffset:0;stroke-opacity:1;color-rendering:auto;image-rendering:auto;shape-rendering:auto;text-rendering:auto;enable-background:accumulate" />
      <path
         id="path14337"
         d="m 2087.9221,-182.08 -2.6851,2.68504 9.3977,-2.68504 -9.3977,-2.68504 2.6851,2.68504 z"
         style="fill:#000000;fill-opacity:1;fill-rule:evenodd;stroke:#000000;stroke-width:0.53700886pt;stroke-opacity:1" />
    </g>
    <g
       id="g16113"
       transform="translate(-2071.8133,643.01371)">
      <path
         id="path8469"
         d="m 2178.543,-182.41602 0,0.67188 33.5625,0 0,-0.67188 -33.5625,0 z"
         style="color:#000000;font-style:normal;font-variant:normal;font-weight:normal;font-stretch:normal;font-size:medium;line-height:normal;font-family:sans-serif;text-indent:0;text-align:start;text-decoration:none;text-decoration-line:none;text-decoration-style:solid;text-decoration-color:#000000;letter-spacing:normal;word-spacing:normal;text-transform:none;direction:ltr;block-progression:tb;writing-mode:lr-tb;baseline-shift:baseline;text-anchor:start;white-space:normal;clip-rule:nonzero;display:inline;overflow:visible;visibility:visible;opacity:1;isolation:auto;mix-blend-mode:normal;color-interpolation:sRGB;color-interpolation-filters:linearRGB;solid-color:#000000;solid-opacity:1;fill:#000000;fill-opacity:1;fill-rule:evenodd;stroke:none;stroke-width:0.67126107px;stroke-linecap:butt;stroke-linejoin:miter;stroke-miterlimit:4;stroke-dasharray:none;stroke-dashoffset:0;stroke-opacity:1;color-rendering:auto;image-rendering:auto;shape-rendering:auto;text-rendering:auto;enable-background:accumulate" />
      <path
         id="path16119"
         d="m 2205.3928,-182.08 -2.6851,2.68504 9.3977,-2.68504 -9.3977,-2.68504 2.6851,2.68504 z"
         style="fill:#000000;fill-opacity:1;fill-rule:evenodd;stroke:#000000;stroke-width:0.53700886pt;stroke-opacity:1" />
    </g>
    <g
       id="g16121"
       transform="translate(-2071.8133,643.01371)">
      <path
         id="path8471"
         d="m 2296.0137,-182.41602 0,0.67188 33.5625,0 0,-0.67188 -33.5625,0 z"
         style="color:#000000;font-style:normal;font-variant:normal;font-weight:normal;font-stretch:normal;font-size:medium;line-height:normal;font-family:sans-serif;text-indent:0;text-align:start;text-decoration:none;text-decoration-line:none;text-decoration-style:solid;text-decoration-color:#000000;letter-spacing:normal;word-spacing:normal;text-transform:none;direction:ltr;block-progression:tb;writing-mode:lr-tb;baseline-shift:baseline;text-anchor:start;white-space:normal;clip-rule:nonzero;display:inline;overflow:visible;visibility:visible;opacity:1;isolation:auto;mix-blend-mode:normal;color-interpolation:sRGB;color-interpolation-filters:linearRGB;solid-color:#000000;solid-opacity:1;fill:#000000;fill-opacity:1;fill-rule:evenodd;stroke:none;stroke-width:0.67126107px;stroke-linecap:butt;stroke-linejoin:miter;stroke-miterlimit:4;stroke-dasharray:none;stroke-dashoffset:0;stroke-opacity:1;color-rendering:auto;image-rendering:auto;shape-rendering:auto;text-rendering:auto;enable-background:accumulate" />
      <path
         style="fill:#000000;fill-opacity:1;fill-rule:evenodd;stroke:#000000;stroke-width:0.53700886pt;stroke-opacity:1"
         d="m 2322.8635,-182.08 -2.6851,2.68504 9.3977,-2.68504 -9.3977,-2.68504 2.6851,2.68504 z"
         id="path16127" />
    </g>
    <g
       id="g16129"
       transform="translate(-2071.8133,643.01371)">
      <path
         id="path8473"
         d="m 2413.4844,-182.41602 0,0.67188 33.5625,0 0,-0.67188 -33.5625,0 z"
         style="color:#000000;font-style:normal;font-variant:normal;font-weight:normal;font-stretch:normal;font-size:medium;line-height:normal;font-family:sans-serif;text-indent:0;text-align:start;text-decoration:none;text-decoration-line:none;text-decoration-style:solid;text-decoration-color:#000000;letter-spacing:normal;word-spacing:normal;text-transform:none;direction:ltr;block-progression:tb;writing-mode:lr-tb;baseline-shift:baseline;text-anchor:start;white-space:normal;clip-rule:nonzero;display:inline;overflow:visible;visibility:visible;opacity:1;isolation:auto;mix-blend-mode:normal;color-interpolation:sRGB;color-interpolation-filters:linearRGB;solid-color:#000000;solid-opacity:1;fill:#000000;fill-opacity:1;fill-rule:evenodd;stroke:none;stroke-width:0.67126107px;stroke-linecap:butt;stroke-linejoin:miter;stroke-miterlimit:4;stroke-dasharray:none;stroke-dashoffset:0;stroke-opacity:1;color-rendering:auto;image-rendering:auto;shape-rendering:auto;text-rendering:auto;enable-background:accumulate" />
      <path
         id="path16135"
         d="m 2440.3342,-182.08 -2.6851,2.68504 9.3977,-2.68504 -9.3977,-2.68504 2.6851,2.68504 z"
         style="fill:#000000;fill-opacity:1;fill-rule:evenodd;stroke:#000000;stroke-width:0.53700886pt;stroke-opacity:1" />
    </g>
  </g>
</svg>
