<?xml version="1.0" encoding="UTF-8" standalone="no"?>
<!-- Created with Inkscape (http://www.inkscape.org/) -->

<svg
   xmlns:dc="http://purl.org/dc/elements/1.1/"
   xmlns:cc="http://creativecommons.org/ns#"
   xmlns:rdf="http://www.w3.org/1999/02/22-rdf-syntax-ns#"
   xmlns:svg="http://www.w3.org/2000/svg"
   xmlns="http://www.w3.org/2000/svg"
   xmlns:sodipodi="http://sodipodi.sourceforge.net/DTD/sodipodi-0.dtd"
   xmlns:inkscape="http://www.inkscape.org/namespaces/inkscape"
   width="200mm"
   height="80mm"
   viewBox="0 0 708.66141 283.46456"
   id="svg6467"
   version="1.1"
   inkscape:version="0.91 r13725"
   sodipodi:docname="finite_automaton.svg">
  <defs
     id="defs6469">
    <marker
       inkscape:stockid="Arrow2Lend"
       orient="auto"
       refY="0"
       refX="0"
       id="Arrow2Lend"
       style="overflow:visible"
       inkscape:isstock="true">
      <path
         id="path9861"
         style="fill:#000000;fill-opacity:1;fill-rule:evenodd;stroke:#000000;stroke-width:0.625;stroke-linejoin:round;stroke-opacity:1"
         d="M 8.7185878,4.0337352 -2.2072895,0.01601326 8.7185884,-4.0017078 c -1.7454984,2.3720609 -1.7354408,5.6174519 -6e-7,8.035443 z"
         transform="matrix(-1.1,0,0,-1.1,-1.1,0)"
         inkscape:connector-curvature="0" />
    </marker>
    <marker
       inkscape:stockid="Arrow2Lstart"
       orient="auto"
       refY="0"
       refX="0"
       id="marker10123"
       style="overflow:visible"
       inkscape:isstock="true">
      <path
         id="path10125"
         style="fill:#000000;fill-opacity:1;fill-rule:evenodd;stroke:#000000;stroke-width:0.625;stroke-linejoin:round;stroke-opacity:1"
         d="M 8.7185878,4.0337352 -2.2072895,0.01601326 8.7185884,-4.0017078 c -1.7454984,2.3720609 -1.7354408,5.6174519 -6e-7,8.035443 z"
         transform="matrix(1.1,0,0,1.1,1.1,0)"
         inkscape:connector-curvature="0" />
    </marker>
    <marker
       inkscape:stockid="Arrow2Lstart"
       orient="auto"
       refY="0"
       refX="0"
       id="Arrow2Lstart"
       style="overflow:visible"
       inkscape:isstock="true">
      <path
         id="path9858"
         style="fill:#000000;fill-opacity:1;fill-rule:evenodd;stroke:#000000;stroke-width:0.625;stroke-linejoin:round;stroke-opacity:1"
         d="M 8.7185878,4.0337352 -2.2072895,0.01601326 8.7185884,-4.0017078 c -1.7454984,2.3720609 -1.7354408,5.6174519 -6e-7,8.035443 z"
         transform="matrix(1.1,0,0,1.1,1.1,0)"
         inkscape:connector-curvature="0" />
    </marker>
    <marker
       inkscape:isstock="true"
       style="overflow:visible"
       id="marker9401"
       refX="0"
       refY="0"
       orient="auto"
       inkscape:stockid="DotL">
      <path
         transform="matrix(0.8,0,0,0.8,5.92,0.8)"
         style="fill:#000000;fill-opacity:1;fill-rule:evenodd;stroke:#000000;stroke-width:1pt;stroke-opacity:1"
         d="m -2.5,-1 c 0,2.76 -2.24,5 -5,5 -2.76,0 -5,-2.24 -5,-5 0,-2.76 2.24,-5 5,-5 2.76,0 5,2.24 5,5 z"
         id="path9403"
         inkscape:connector-curvature="0" />
    </marker>
    <marker
       inkscape:stockid="Arrow1Lend"
       orient="auto"
       refY="0"
       refX="0"
       id="marker7085"
       style="overflow:visible"
       inkscape:isstock="true">
      <path
         id="path7087"
         d="M 0,0 5,-5 -12.5,0 5,5 0,0 Z"
         style="fill:#000000;fill-opacity:1;fill-rule:evenodd;stroke:#000000;stroke-width:1pt;stroke-opacity:1"
         transform="matrix(-0.8,0,0,-0.8,-10,0)"
         inkscape:connector-curvature="0" />
    </marker>
    <marker
       inkscape:isstock="true"
       style="overflow:visible"
       id="marker4980"
       refX="0"
       refY="0"
       orient="auto"
       inkscape:stockid="Arrow1Lend">
      <path
         inkscape:connector-curvature="0"
         transform="matrix(-0.8,0,0,-0.8,-10,0)"
         style="fill:#000000;fill-opacity:1;fill-rule:evenodd;stroke:#000000;stroke-width:1pt;stroke-opacity:1"
         d="M 0,0 5,-5 -12.5,0 5,5 0,0 Z"
         id="path4982" />
    </marker>
    <marker
       inkscape:stockid="Arrow2Lstart"
       orient="auto"
       refY="0"
       refX="0"
       id="Arrow2Lstart-1"
       style="overflow:visible"
       inkscape:isstock="true">
      <path
         inkscape:connector-curvature="0"
         id="path9858-9"
         style="fill:#000000;fill-opacity:1;fill-rule:evenodd;stroke:#000000;stroke-width:0.625;stroke-linejoin:round;stroke-opacity:1"
         d="M 8.7185878,4.0337352 -2.2072895,0.01601326 8.7185884,-4.0017078 c -1.7454984,2.3720609 -1.7354408,5.6174519 -6e-7,8.035443 z"
         transform="matrix(1.1,0,0,1.1,1.1,0)" />
    </marker>
    <marker
       inkscape:stockid="Arrow2Lstart"
       orient="auto"
       refY="0"
       refX="0"
       id="marker10123-6"
       style="overflow:visible"
       inkscape:isstock="true">
      <path
         inkscape:connector-curvature="0"
         id="path10125-0"
         style="fill:#000000;fill-opacity:1;fill-rule:evenodd;stroke:#000000;stroke-width:0.625;stroke-linejoin:round;stroke-opacity:1"
         d="M 8.7185878,4.0337352 -2.2072895,0.01601326 8.7185884,-4.0017078 c -1.7454984,2.3720609 -1.7354408,5.6174519 -6e-7,8.035443 z"
         transform="matrix(1.1,0,0,1.1,1.1,0)" />
    </marker>
    <marker
       inkscape:stockid="Arrow2Lend"
       orient="auto"
       refY="0"
       refX="0"
       id="Arrow2Lend-8"
       style="overflow:visible"
       inkscape:isstock="true">
      <path
         inkscape:connector-curvature="0"
         id="path9861-3"
         style="fill:#000000;fill-opacity:1;fill-rule:evenodd;stroke:#000000;stroke-width:0.625;stroke-linejoin:round;stroke-opacity:1"
         d="M 8.7185878,4.0337352 -2.2072895,0.01601326 8.7185884,-4.0017078 c -1.7454984,2.3720609 -1.7354408,5.6174519 -6e-7,8.035443 z"
         transform="matrix(-1.1,0,0,-1.1,-1.1,0)" />
    </marker>
  </defs>
  <sodipodi:namedview
     id="base"
     pagecolor="#ffffff"
     bordercolor="#666666"
     borderopacity="1.0"
     inkscape:pageopacity="0.0"
     inkscape:pageshadow="2"
     inkscape:zoom="1.1592166"
     inkscape:cx="376.60708"
     inkscape:cy="41.752932"
     inkscape:document-units="px"
     inkscape:current-layer="g3397"
     showgrid="true"
     fit-margin-top="0"
     fit-margin-left="0"
     fit-margin-right="0"
     fit-margin-bottom="0"
     inkscape:window-width="1304"
     inkscape:window-height="765"
     inkscape:window-x="498"
     inkscape:window-y="25"
     inkscape:window-maximized="0">
    <inkscape:grid
       type="xygrid"
       id="grid8749"
       originx="268.19887"
       originy="10.405001" />
  </sodipodi:namedview>
  <metadata
     id="metadata6472">
    <rdf:RDF>
      <cc:Work
         rdf:about="">
        <dc:format>image/svg+xml</dc:format>
        <dc:type
           rdf:resource="http://purl.org/dc/dcmitype/StillImage" />
        <dc:title />
      </cc:Work>
    </rdf:RDF>
  </metadata>
  <g
     inkscape:label="Layer 1"
     inkscape:groupmode="layer"
     id="layer1"
     transform="translate(137.2703,-205.51689)">
    <g
       id="g3397"
       transform="translate(48.678044,-33.362262)">
      <path
         inkscape:connector-curvature="0"
         id="path4142"
         d="m 68.595703,341.10742 c -23.025515,0 -41.712891,18.68738 -41.712891,41.71289 10e-7,23.02552 18.687376,41.71289 41.712891,41.71289 23.025516,0 41.712887,-18.68737 41.712887,-41.71289 0,-23.02551 -18.687371,-41.71289 -41.712887,-41.71289 z m 0,2.03516 c 21.925833,0 39.679687,17.7519 39.679687,39.67773 0,21.92584 -17.753854,39.67774 -39.679687,39.67774 -21.925833,0 -39.677734,-17.7519 -39.677734,-39.67774 0,-21.92583 17.751901,-39.67773 39.677734,-39.67773 z"
         style="color:#000000;font-style:normal;font-variant:normal;font-weight:normal;font-stretch:normal;font-size:medium;line-height:normal;font-family:sans-serif;text-indent:0;text-align:start;text-decoration:none;text-decoration-line:none;text-decoration-style:solid;text-decoration-color:#000000;letter-spacing:normal;word-spacing:normal;text-transform:none;direction:ltr;block-progression:tb;writing-mode:lr-tb;baseline-shift:baseline;text-anchor:start;white-space:normal;clip-rule:nonzero;display:inline;overflow:visible;visibility:visible;opacity:1;isolation:auto;mix-blend-mode:normal;color-interpolation:sRGB;color-interpolation-filters:linearRGB;solid-color:#000000;solid-opacity:1;fill:#000000;fill-opacity:1;fill-rule:nonzero;stroke:none;stroke-width:2.03479052;stroke-linecap:round;stroke-linejoin:round;stroke-miterlimit:4;stroke-dasharray:none;stroke-dashoffset:0;stroke-opacity:1;color-rendering:auto;image-rendering:auto;shape-rendering:auto;text-rendering:auto;enable-background:accumulate" />
      <g
         id="text9766"
         style="font-style:normal;font-variant:normal;font-weight:normal;font-stretch:normal;font-size:22px;line-height:125%;font-family:Avenir;-inkscape-font-specification:Avenir;text-align:center;letter-spacing:0px;word-spacing:0px;writing-mode:lr-tb;text-anchor:middle;fill:#000000;fill-opacity:1;stroke:none;stroke-width:1px;stroke-linecap:butt;stroke-linejoin:miter;stroke-opacity:1">
        <path
           inkscape:connector-curvature="0"
           id="path4272"
           d="m 47.529893,388.73608 3.036,0 q 0.858,0 1.606,-0.176 0.748,-0.176 1.298,-0.528 0.55,-0.374 0.858,-0.924 0.33,-0.55 0.33,-1.32 0,-1.54 -0.99,-2.288 -0.99,-0.748 -2.904,-0.748 l -3.234,0 0,5.984 z m 0,-7.304 3.19,0 q 0.572,0 1.122,-0.132 0.572,-0.154 1.012,-0.484 0.462,-0.33 0.748,-0.836 0.286,-0.528 0.286,-1.276 0,-0.242 -0.11,-0.682 -0.088,-0.44 -0.44,-0.88 -0.33,-0.44 -0.99,-0.748 -0.66,-0.33 -1.782,-0.33 l -3.036,0 0,5.368 z m -1.584,-6.82 4.642,0 q 0.968,0 1.87,0.198 0.902,0.198 1.606,0.66 0.704,0.462 1.122,1.21 0.418,0.748 0.418,1.848 0,1.276 -0.726,2.2 -0.704,0.902 -2.024,1.21 l 0,0.044 q 1.65,0.132 2.574,1.166 0.946,1.012 0.946,2.728 0,0.374 -0.198,1.1 -0.176,0.726 -0.77,1.452 -0.594,0.704 -1.716,1.232 -1.122,0.528 -2.992,0.528 l -4.752,0 0,-15.576 z" />
        <path
           inkscape:connector-curvature="0"
           id="path4274"
           d="m 68.118799,385.04008 q 0,-0.858 -0.286,-1.606 -0.264,-0.748 -0.77,-1.298 -0.506,-0.55 -1.232,-0.858 -0.704,-0.33 -1.606,-0.33 -0.902,0 -1.628,0.33 -0.704,0.308 -1.21,0.858 -0.484,0.55 -0.77,1.298 -0.264,0.748 -0.264,1.606 0,0.858 0.264,1.606 0.286,0.748 0.77,1.298 0.506,0.55 1.21,0.88 0.726,0.308 1.628,0.308 0.902,0 1.606,-0.308 0.726,-0.33 1.232,-0.88 0.506,-0.55 0.77,-1.298 0.286,-0.748 0.286,-1.606 z m 1.584,0 q 0,1.166 -0.418,2.156 -0.396,0.99 -1.122,1.716 -0.726,0.726 -1.738,1.144 -0.99,0.396 -2.2,0.396 -1.188,0 -2.2,-0.396 -0.99,-0.418 -1.716,-1.144 -0.726,-0.726 -1.144,-1.716 -0.396,-0.99 -0.396,-2.156 0,-1.166 0.396,-2.156 0.418,-0.99 1.144,-1.716 0.726,-0.726 1.716,-1.122 1.012,-0.418 2.2,-0.418 1.21,0 2.2,0.418 1.012,0.396 1.738,1.122 0.726,0.726 1.122,1.716 0.418,0.99 0.418,2.156 z" />
        <path
           inkscape:connector-curvature="0"
           id="path4276"
           d="m 73.239299,385.04008 q 0,0.858 0.264,1.606 0.286,0.748 0.792,1.298 0.506,0.55 1.21,0.88 0.726,0.308 1.628,0.308 0.88,0 1.628,-0.308 0.77,-0.33 1.32,-0.88 0.55,-0.55 0.858,-1.298 0.308,-0.748 0.308,-1.606 0,-0.858 -0.308,-1.606 -0.308,-0.748 -0.858,-1.298 -0.55,-0.55 -1.32,-0.858 -0.748,-0.33 -1.628,-0.33 -0.902,0 -1.628,0.33 -0.704,0.308 -1.21,0.858 -0.506,0.55 -0.792,1.298 -0.264,0.748 -0.264,1.606 z m 9.394,5.148 -1.452,0 0,-1.716 -0.044,0 q -0.352,0.528 -0.836,0.902 -0.484,0.374 -1.012,0.616 -0.528,0.242 -1.1,0.352 -0.55,0.11 -1.056,0.11 -1.21,0 -2.222,-0.396 -0.99,-0.418 -1.716,-1.144 -0.726,-0.726 -1.144,-1.716 -0.396,-0.99 -0.396,-2.156 0,-1.166 0.396,-2.156 0.418,-0.99 1.144,-1.716 0.726,-0.726 1.716,-1.122 1.012,-0.418 2.222,-0.418 0.506,0 1.056,0.11 0.572,0.11 1.1,0.352 0.528,0.242 1.012,0.616 0.484,0.374 0.836,0.902 l 0.044,0 0,-8.052 1.452,0 0,16.632 z" />
        <path
           inkscape:connector-curvature="0"
           id="path4278"
           d="m 89.593549,388.40608 3.146,-8.514 1.76,0 -5.148,12.98 q -0.462,1.188 -1.188,1.892 -0.704,0.704 -2.046,0.704 -0.33,0 -0.682,-0.022 -0.33,-0.022 -0.66,-0.132 l 0.154,-1.408 q 0.462,0.242 1.1,0.242 0.77,0 1.21,-0.484 0.44,-0.484 0.77,-1.364 l 0.748,-1.98 -4.224,-10.428 1.826,0 3.234,8.514 z" />
      </g>
      <path
         inkscape:connector-curvature="0"
         id="path4142-6"
         d="m 250.27344,343.05664 c -15.48529,0 -29.5238,4.60638 -39.73828,12.11719 -10.21448,7.5108 -16.62305,17.98398 -16.62305,29.5957 0,11.61172 6.40857,22.0849 16.62305,29.5957 10.21448,7.51081 24.25299,12.11719 39.73828,12.11719 15.48529,0 29.5238,-4.60638 39.73828,-12.11719 10.21448,-7.5108 16.625,-17.98398 16.625,-29.5957 0,-11.61172 -6.41052,-22.0849 -16.625,-29.5957 -10.21448,-7.51081 -24.25299,-12.11719 -39.73828,-12.11719 z m 0,2.03516 c 15.08098,0 28.71668,4.50252 38.5332,11.7207 9.81652,7.21818 15.79492,17.09308 15.79492,27.95703 0,10.86395 -5.9784,20.73885 -15.79492,27.95703 -9.81652,7.21818 -23.45222,11.72071 -38.5332,11.72071 -15.08099,0 -28.71473,-4.50253 -38.53125,-11.72071 -9.81652,-7.21818 -15.79688,-17.09308 -15.79688,-27.95703 0,-10.86395 5.98036,-20.73885 15.79688,-27.95703 9.81652,-7.21818 23.45026,-11.7207 38.53125,-11.7207 z"
         style="color:#000000;font-style:normal;font-variant:normal;font-weight:normal;font-stretch:normal;font-size:medium;line-height:normal;font-family:sans-serif;text-indent:0;text-align:start;text-decoration:none;text-decoration-line:none;text-decoration-style:solid;text-decoration-color:#000000;letter-spacing:normal;word-spacing:normal;text-transform:none;direction:ltr;block-progression:tb;writing-mode:lr-tb;baseline-shift:baseline;text-anchor:start;white-space:normal;clip-rule:nonzero;display:inline;overflow:visible;visibility:visible;opacity:1;isolation:auto;mix-blend-mode:normal;color-interpolation:sRGB;color-interpolation-filters:linearRGB;solid-color:#000000;solid-opacity:1;fill:#000000;fill-opacity:1;fill-rule:nonzero;stroke:none;stroke-width:2.03479052;stroke-linecap:round;stroke-linejoin:round;stroke-miterlimit:4;stroke-dasharray:none;stroke-dashoffset:0;stroke-opacity:1;color-rendering:auto;image-rendering:auto;shape-rendering:auto;text-rendering:auto;enable-background:accumulate" />
      <g
         id="text9766-8"
         style="font-style:normal;font-variant:normal;font-weight:normal;font-stretch:normal;font-size:22px;line-height:125%;font-family:Avenir;-inkscape-font-specification:Avenir;text-align:center;letter-spacing:0px;word-spacing:0px;writing-mode:lr-tb;text-anchor:middle;fill:#000000;fill-opacity:1;stroke:none;stroke-width:1px;stroke-linecap:butt;stroke-linejoin:miter;stroke-opacity:1"
         transform="translate(0,10.351819)">
        <path
           inkscape:connector-curvature="0"
           id="path4281"
           d="m 216.02568,388.30095 q -0.396,0.594 -0.99,1.122 -0.572,0.528 -1.32,0.924 -0.748,0.374 -1.628,0.594 -0.858,0.22 -1.826,0.22 -1.738,0 -3.234,-0.616 -1.474,-0.616 -2.574,-1.694 -1.078,-1.1 -1.694,-2.596 -0.616,-1.496 -0.616,-3.278 0,-1.782 0.616,-3.278 0.616,-1.496 1.694,-2.574 1.1,-1.1 2.574,-1.716 1.496,-0.616 3.234,-0.616 1.452,0 2.904,0.572 1.452,0.572 2.486,1.892 l -1.386,1.034 q -0.242,-0.374 -0.66,-0.748 -0.418,-0.374 -0.968,-0.66 -0.528,-0.286 -1.144,-0.462 -0.616,-0.176 -1.232,-0.176 -1.496,0 -2.684,0.55 -1.188,0.55 -2.024,1.474 -0.814,0.924 -1.254,2.156 -0.44,1.21 -0.44,2.552 0,1.342 0.44,2.574 0.44,1.21 1.254,2.134 0.836,0.924 2.024,1.474 1.188,0.55 2.684,0.55 0.616,0 1.21,-0.11 0.616,-0.11 1.188,-0.374 0.594,-0.264 1.1,-0.704 0.528,-0.462 0.968,-1.144 l 1.298,0.924 z" />
        <path
           inkscape:connector-curvature="0"
           id="path4283"
           d="m 227.0054,385.61695 q 0,-0.858 -0.286,-1.606 -0.264,-0.748 -0.77,-1.298 -0.506,-0.55 -1.232,-0.858 -0.704,-0.33 -1.606,-0.33 -0.902,0 -1.628,0.33 -0.704,0.308 -1.21,0.858 -0.484,0.55 -0.77,1.298 -0.264,0.748 -0.264,1.606 0,0.858 0.264,1.606 0.286,0.748 0.77,1.298 0.506,0.55 1.21,0.88 0.726,0.308 1.628,0.308 0.902,0 1.606,-0.308 0.726,-0.33 1.232,-0.88 0.506,-0.55 0.77,-1.298 0.286,-0.748 0.286,-1.606 z m 1.584,0 q 0,1.166 -0.418,2.156 -0.396,0.99 -1.122,1.716 -0.726,0.726 -1.738,1.144 -0.99,0.396 -2.2,0.396 -1.188,0 -2.2,-0.396 -0.99,-0.418 -1.716,-1.144 -0.726,-0.726 -1.144,-1.716 -0.396,-0.99 -0.396,-2.156 0,-1.166 0.396,-2.156 0.418,-0.99 1.144,-1.716 0.726,-0.726 1.716,-1.122 1.012,-0.418 2.2,-0.418 1.21,0 2.2,0.418 1.012,0.396 1.738,1.122 0.726,0.726 1.122,1.716 0.418,0.99 0.418,2.156 z" />
        <path
           inkscape:connector-curvature="0"
           id="path4285"
           d="m 231.2459,382.75695 q 0,-0.572 -0.044,-1.144 -0.022,-0.572 -0.066,-1.144 l 1.562,0 0,1.562 0.044,0 q 0.528,-0.902 1.452,-1.364 0.946,-0.462 1.87,-0.462 0.418,0 0.88,0.088 0.484,0.088 0.924,0.33 0.44,0.22 0.814,0.638 0.396,0.418 0.66,1.078 0.44,-0.99 1.386,-1.562 0.968,-0.572 2.002,-0.572 1.98,0 2.926,1.056 0.946,1.034 0.946,2.97 l 0,6.534 -1.452,0 0,-6.006 q 0,-1.562 -0.55,-2.398 -0.55,-0.836 -2.046,-0.836 -0.814,0 -1.364,0.33 -0.55,0.308 -0.902,0.836 -0.33,0.528 -0.484,1.21 -0.154,0.66 -0.154,1.386 l 0,5.478 -1.452,0 0,-6.006 q 0,-1.562 -0.55,-2.398 -0.55,-0.836 -2.046,-0.836 -0.132,0 -0.616,0.088 -0.462,0.088 -0.968,0.484 -0.506,0.396 -0.924,1.188 -0.396,0.792 -0.396,2.2 l 0,5.28 -1.452,0 0,-8.008 z" />
        <path
           inkscape:connector-curvature="0"
           id="path4287"
           d="m 249.98027,382.75695 q 0,-0.572 -0.044,-1.144 -0.022,-0.572 -0.066,-1.144 l 1.562,0 0,1.562 0.044,0 q 0.528,-0.902 1.452,-1.364 0.946,-0.462 1.87,-0.462 0.418,0 0.88,0.088 0.484,0.088 0.924,0.33 0.44,0.22 0.814,0.638 0.396,0.418 0.66,1.078 0.44,-0.99 1.386,-1.562 0.968,-0.572 2.002,-0.572 1.98,0 2.926,1.056 0.946,1.034 0.946,2.97 l 0,6.534 -1.452,0 0,-6.006 q 0,-1.562 -0.55,-2.398 -0.55,-0.836 -2.046,-0.836 -0.814,0 -1.364,0.33 -0.55,0.308 -0.902,0.836 -0.33,0.528 -0.484,1.21 -0.154,0.66 -0.154,1.386 l 0,5.478 -1.452,0 0,-6.006 q 0,-1.562 -0.55,-2.398 -0.55,-0.836 -2.046,-0.836 -0.132,0 -0.616,0.088 -0.462,0.088 -0.968,0.484 -0.506,0.396 -0.924,1.188 -0.396,0.792 -0.396,2.2 l 0,5.28 -1.452,0 0,-8.008 z" />
        <path
           inkscape:connector-curvature="0"
           id="path4289"
           d="m 276.72265,384.82495 q 0,-1.474 -0.88,-2.376 -0.88,-0.924 -2.464,-0.924 -0.704,0 -1.364,0.286 -0.66,0.264 -1.166,0.726 -0.484,0.462 -0.792,1.056 -0.286,0.594 -0.286,1.232 l 6.952,0 z m -6.996,1.188 q 0.066,0.77 0.374,1.452 0.308,0.682 0.814,1.188 0.506,0.484 1.166,0.77 0.66,0.286 1.43,0.286 1.166,0 2.002,-0.528 0.858,-0.55 1.298,-1.254 l 1.122,0.924 q -0.924,1.166 -2.046,1.672 -1.1,0.506 -2.376,0.506 -1.144,0 -2.134,-0.396 -0.968,-0.418 -1.672,-1.144 -0.704,-0.726 -1.122,-1.716 -0.396,-0.99 -0.396,-2.156 0,-1.166 0.396,-2.156 0.396,-0.99 1.1,-1.716 0.704,-0.726 1.65,-1.122 0.946,-0.418 2.046,-0.418 1.166,0 2.09,0.418 0.924,0.418 1.54,1.122 0.638,0.682 0.968,1.628 0.33,0.924 0.33,1.98 l 0,0.66 -8.58,0 z" />
        <path
           inkscape:connector-curvature="0"
           id="path4291"
           d="m 282.34674,380.46895 q 0.044,0.418 0.044,0.836 0.022,0.396 0.022,0.814 l 0.044,0 q 0.242,-0.418 0.616,-0.77 0.374,-0.352 0.836,-0.594 0.462,-0.264 0.968,-0.396 0.528,-0.154 1.034,-0.154 1.98,0 2.926,1.056 0.946,1.034 0.946,2.97 l 0,6.534 -1.452,0 0,-5.698 q 0,-1.716 -0.594,-2.618 -0.594,-0.924 -2.2,-0.924 -0.11,0 -0.616,0.088 -0.506,0.088 -1.078,0.484 -0.55,0.396 -0.99,1.188 -0.44,0.792 -0.44,2.2 l 0,5.28 -1.452,0 0,-8.03 q 0,-0.418 -0.044,-1.056 -0.022,-0.638 -0.066,-1.21 l 1.496,0 z" />
        <path
           inkscape:connector-curvature="0"
           id="path4293"
           d="m 298.53083,381.78895 -2.97,0 0,6.072 q 0,0.572 0.11,0.946 0.11,0.352 0.308,0.55 0.198,0.198 0.462,0.286 0.286,0.066 0.616,0.066 0.374,0 0.77,-0.11 0.396,-0.11 0.726,-0.286 l 0.066,1.342 q -0.814,0.374 -1.958,0.374 -0.418,0 -0.88,-0.11 -0.44,-0.11 -0.814,-0.418 -0.374,-0.308 -0.616,-0.836 -0.242,-0.528 -0.242,-1.386 l 0,-6.49 -2.178,0 0,-1.32 2.178,0 0,-2.904 1.452,0 0,2.904 2.97,0 0,1.32 z" />
      </g>
      <g
         id="g4228">
        <path
           inkscape:connector-curvature="0"
           id="path9793-3"
           d="m 85.826172,422.17188 -1.744141,0.97656 c 0,0 23.819019,42.65429 69.443359,42.65429 45.61377,0 68.02539,-41.95703 68.02539,-41.95703 l -1.76367,-0.94336 c 0,0 -21.87547,40.90039 -66.26172,40.90039 -44.37566,0 -67.699218,-41.63085 -67.699218,-41.63085 z"
           style="color:#000000;font-style:normal;font-variant:normal;font-weight:normal;font-stretch:normal;font-size:medium;line-height:normal;font-family:sans-serif;text-indent:0;text-align:start;text-decoration:none;text-decoration-line:none;text-decoration-style:solid;text-decoration-color:#000000;letter-spacing:normal;word-spacing:normal;text-transform:none;direction:ltr;block-progression:tb;writing-mode:lr-tb;baseline-shift:baseline;text-anchor:start;white-space:normal;clip-rule:nonzero;display:inline;overflow:visible;visibility:visible;opacity:1;isolation:auto;mix-blend-mode:normal;color-interpolation:sRGB;color-interpolation-filters:linearRGB;solid-color:#000000;solid-opacity:1;fill:#000000;fill-opacity:1;fill-rule:evenodd;stroke:none;stroke-width:2;stroke-linecap:butt;stroke-linejoin:miter;stroke-miterlimit:4;stroke-dasharray:none;stroke-dashoffset:0;stroke-opacity:1;color-rendering:auto;image-rendering:auto;shape-rendering:auto;text-rendering:auto;enable-background:accumulate" />
        <path
           id="path4234"
           style="fill:#000000;fill-opacity:1;fill-rule:evenodd;stroke:#000000;stroke-width:1.375;stroke-linejoin:round;stroke-opacity:1"
           d="m 87.64641,445.65193 -4.019395,-25.2932 19.447995,16.66365 c -6.429074,-0.80403 -12.649644,2.70062 -15.4286,8.62955 z"
           inkscape:connector-curvature="0" />
      </g>
      <g
         id="g4236">
        <path
           inkscape:connector-curvature="0"
           id="path9793-3-8"
           d="m 154.46484,302.63281 c -45.61376,0 -69.441403,41.9336 -69.441402,41.9336 l 1.738281,0.99023 c 0,0 23.316871,-40.92383 67.703121,-40.92383 44.37567,0 66.25782,41.60742 66.25782,41.60742 l 1.76953,-0.92968 c 0,0 -22.40301,-42.67774 -68.02735,-42.67774 z"
           style="color:#000000;font-style:normal;font-variant:normal;font-weight:normal;font-stretch:normal;font-size:medium;line-height:normal;font-family:sans-serif;text-indent:0;text-align:start;text-decoration:none;text-decoration-line:none;text-decoration-style:solid;text-decoration-color:#000000;letter-spacing:normal;word-spacing:normal;text-transform:none;direction:ltr;block-progression:tb;writing-mode:lr-tb;baseline-shift:baseline;text-anchor:start;white-space:normal;clip-rule:nonzero;display:inline;overflow:visible;visibility:visible;opacity:1;isolation:auto;mix-blend-mode:normal;color-interpolation:sRGB;color-interpolation-filters:linearRGB;solid-color:#000000;solid-opacity:1;fill:#000000;fill-opacity:1;fill-rule:evenodd;stroke:none;stroke-width:2;stroke-linecap:butt;stroke-linejoin:miter;stroke-miterlimit:4;stroke-dasharray:none;stroke-dashoffset:0;stroke-opacity:1;color-rendering:auto;image-rendering:auto;shape-rendering:auto;text-rendering:auto;enable-background:accumulate" />
        <path
           inkscape:connector-curvature="0"
           id="path4242"
           style="fill:#000000;fill-opacity:1;fill-rule:evenodd;stroke:#000000;stroke-width:1.375;stroke-linejoin:round;stroke-opacity:1"
           d="m 219.5181,322.72099 3.35558,25.38979 -19.0049,-17.16728 c 6.40581,0.97214 12.71604,-2.3684 15.64932,-8.22251 z" />
      </g>
      <g
         id="text10170"
         style="font-style:normal;font-variant:normal;font-weight:normal;font-stretch:normal;font-size:22.5px;line-height:125%;font-family:Avenir;-inkscape-font-specification:Avenir;text-align:center;letter-spacing:0px;word-spacing:0px;writing-mode:lr-tb;text-anchor:middle;fill:#000000;fill-opacity:1;stroke:none;stroke-width:1px;stroke-linecap:butt;stroke-linejoin:miter;stroke-opacity:1">
        <path
           inkscape:connector-curvature="0"
           id="path4296"
           d="m 143.20545,288.98142 -1.305,-0.4275 6.8175,-16.3125 1.2825,0.45 -6.795,16.29 z" />
        <path
           inkscape:connector-curvature="0"
           id="path4298"
           d="m 155.76361,275.86392 3.15,-1.0125 0.4725,1.26 -3.1725,1.0125 2.025,2.7225 -1.08,0.81 -2.07,-2.79 -2.07,2.79 -1.08,-0.81 2.025,-2.7225 -3.1725,-1.0125 0.4725,-1.26 3.15,1.0125 0,-3.2175 1.35,0 0,3.2175 z" />
      </g>
      <g
         id="text10174"
         style="font-style:normal;font-variant:normal;font-weight:normal;font-stretch:normal;font-size:22.5px;line-height:125%;font-family:Avenir;-inkscape-font-specification:Avenir;text-align:center;letter-spacing:0px;word-spacing:0px;writing-mode:lr-tb;text-anchor:middle;fill:#000000;fill-opacity:1;stroke:none;stroke-width:1px;stroke-linecap:butt;stroke-linejoin:miter;stroke-opacity:1">
        <path
           inkscape:connector-curvature="0"
           id="path4301"
           d="m 147.45795,475.86395 3.15,-1.0125 0.4725,1.26 -3.1725,1.0125 2.025,2.7225 -1.08,0.81 -2.07,-2.79 -2.07,2.79 -1.08,-0.81 2.025,-2.7225 -3.1725,-1.0125 0.4725,-1.26 3.15,1.0125 0,-3.2175 1.35,0 0,3.2175 z" />
        <path
           inkscape:connector-curvature="0"
           id="path4303"
           d="m 153.18103,488.98145 -1.305,-0.4275 6.8175,-16.3125 1.2825,0.45 -6.795,16.29 z" />
      </g>
      <g
         id="g4244">
        <path
           inkscape:connector-curvature="0"
           id="path12918"
           d="m -55.96875,342.12109 c -2.766855,0.22619 -5.399138,0.79716 -7.849609,1.77735 -4.900943,1.96037 -9.021783,5.60216 -11.851563,11.26172 -2.82978,5.65956 -4.402344,13.31185 -4.402344,23.41601 10e-7,25.16667 6.315989,38.73022 16.111328,44.60742 9.79534,5.87721 22.628318,3.87563 35.261719,-1.17773 25.2668027,-10.10672 50.296875,-32.68555 50.296875,-32.68555 l -1.33789,-1.48633 c 0,0 -24.9699303,22.42118 -49.703125,32.31446 -12.366598,4.94664 -24.533621,6.69311 -33.488282,1.32031 -8.95466,-5.3728 -15.140624,-18.05924 -15.140625,-42.89258 0,-9.89583 1.552438,-17.24354 4.191407,-22.52148 2.638969,-5.27794 6.332583,-8.50921 10.80664,-10.29883 8.948114,-3.57925 21.237581,-1.20731 33.63086,3.75 24.7865565,9.91462 49.748047,29.85156 49.748047,29.85156 l 1.248046,-1.5625 c 0,0 -25.0385101,-20.06111 -50.251953,-30.14648 -9.455041,-3.78202 -18.968965,-6.20589 -27.269531,-5.52735 z"
           style="color:#000000;font-style:normal;font-variant:normal;font-weight:normal;font-stretch:normal;font-size:medium;line-height:normal;font-family:sans-serif;text-indent:0;text-align:start;text-decoration:none;text-decoration-line:none;text-decoration-style:solid;text-decoration-color:#000000;letter-spacing:normal;word-spacing:normal;text-transform:none;direction:ltr;block-progression:tb;writing-mode:lr-tb;baseline-shift:baseline;text-anchor:start;white-space:normal;clip-rule:nonzero;display:inline;overflow:visible;visibility:visible;opacity:1;isolation:auto;mix-blend-mode:normal;color-interpolation:sRGB;color-interpolation-filters:linearRGB;solid-color:#000000;solid-opacity:1;fill:#000000;fill-opacity:1;fill-rule:evenodd;stroke:none;stroke-width:2;stroke-linecap:butt;stroke-linejoin:miter;stroke-miterlimit:4;stroke-dasharray:none;stroke-dashoffset:0;stroke-opacity:1;color-rendering:auto;image-rendering:auto;shape-rendering:auto;text-rendering:auto;enable-background:accumulate" />
        <path
           inkscape:connector-curvature="0"
           id="path4250"
           style="fill:#000000;fill-opacity:1;fill-rule:evenodd;stroke:#000000;stroke-width:1.375;stroke-linejoin:round;stroke-opacity:1"
           d="M -0.90027995,396.28337 22.879201,386.77348 10.925661,409.42331 C 10.288967,402.97551 5.4962054,397.6833 -0.90027995,396.28337 Z" />
      </g>
      <g
         id="g4252">
        <path
           inkscape:connector-curvature="0"
           id="path12918-7"
           d="m 388.75977,343.14258 c -8.30057,-0.67855 -17.81254,1.74533 -27.26758,5.52734 -25.21345,10.08538 -50.25391,30.14649 -50.25391,30.14649 l 1.25,1.5625 c 0,0 24.95954,-19.93694 49.7461,-29.85157 12.39327,-4.95731 24.68469,-7.32924 33.63281,-3.75 4.47405,1.78963 8.16572,5.02089 10.80469,10.29883 2.63896,5.27794 4.1914,12.62565 4.1914,22.52149 0,24.83333 -6.18596,37.51978 -15.14062,42.89257 -8.95466,5.3728 -21.12169,3.62633 -33.48828,-1.32031 -24.7332,-9.89328 -49.70313,-32.31445 -49.70313,-32.31445 l -1.33789,1.48633 c 0,0 25.03203,22.57882 50.29883,32.68554 12.6334,5.05336 25.46442,7.05494 35.25976,1.17774 9.79534,-5.87721 16.11133,-19.44076 16.11133,-44.60742 0,-10.10417 -1.57256,-17.75646 -4.40234,-23.41602 -2.82978,-5.65956 -6.95062,-9.30134 -11.85156,-11.26172 -2.45048,-0.98019 -5.08276,-1.55116 -7.84961,-1.77734 z"
           style="color:#000000;font-style:normal;font-variant:normal;font-weight:normal;font-stretch:normal;font-size:medium;line-height:normal;font-family:sans-serif;text-indent:0;text-align:start;text-decoration:none;text-decoration-line:none;text-decoration-style:solid;text-decoration-color:#000000;letter-spacing:normal;word-spacing:normal;text-transform:none;direction:ltr;block-progression:tb;writing-mode:lr-tb;baseline-shift:baseline;text-anchor:start;white-space:normal;clip-rule:nonzero;display:inline;overflow:visible;visibility:visible;opacity:1;isolation:auto;mix-blend-mode:normal;color-interpolation:sRGB;color-interpolation-filters:linearRGB;solid-color:#000000;solid-opacity:1;fill:#000000;fill-opacity:1;fill-rule:evenodd;stroke:none;stroke-width:2;stroke-linecap:butt;stroke-linejoin:miter;stroke-miterlimit:4;stroke-dasharray:none;stroke-dashoffset:0;stroke-opacity:1;color-rendering:auto;image-rendering:auto;shape-rendering:auto;text-rendering:auto;enable-background:accumulate" />
        <path
           inkscape:connector-curvature="0"
           id="path4258"
           style="fill:#000000;fill-opacity:1;fill-rule:evenodd;stroke:#000000;stroke-width:1.375;stroke-linejoin:round;stroke-opacity:1"
           d="m 321.81873,410.49735 -11.95353,-22.64983 23.77948,9.50989 c -6.34534,1.31002 -11.10521,6.63184 -11.82595,13.13994 z" />
      </g>
      <g
         id="text18991"
         style="font-style:normal;font-variant:normal;font-weight:normal;font-stretch:normal;font-size:22px;line-height:125%;font-family:Avenir;-inkscape-font-specification:Avenir;text-align:center;letter-spacing:0px;word-spacing:0px;writing-mode:lr-tb;text-anchor:middle;fill:#808080;fill-opacity:1;stroke:none;stroke-width:1px;stroke-linecap:butt;stroke-linejoin:miter;stroke-opacity:1">
        <path
           inkscape:connector-curvature="0"
           id="path4306"
           d="m -127.92032,378.28492 q 0,-0.858 -0.286,-1.606 -0.264,-0.748 -0.77,-1.298 -0.506,-0.55 -1.232,-0.858 -0.704,-0.33 -1.606,-0.33 -0.902,0 -1.628,0.33 -0.704,0.308 -1.21,0.858 -0.484,0.55 -0.77,1.298 -0.264,0.748 -0.264,1.606 0,0.858 0.264,1.606 0.286,0.748 0.77,1.298 0.506,0.55 1.21,0.88 0.726,0.308 1.628,0.308 0.902,0 1.606,-0.308 0.726,-0.33 1.232,-0.88 0.506,-0.55 0.77,-1.298 0.286,-0.748 0.286,-1.606 z m 1.584,0 q 0,1.166 -0.418,2.156 -0.396,0.99 -1.122,1.716 -0.726,0.726 -1.738,1.144 -0.99,0.396 -2.2,0.396 -1.188,0 -2.2,-0.396 -0.99,-0.418 -1.716,-1.144 -0.726,-0.726 -1.144,-1.716 -0.396,-0.99 -0.396,-2.156 0,-1.166 0.396,-2.156 0.418,-0.99 1.144,-1.716 0.726,-0.726 1.716,-1.122 1.012,-0.418 2.2,-0.418 1.21,0 2.2,0.418 1.012,0.396 1.738,1.122 0.726,0.726 1.122,1.716 0.418,0.99 0.418,2.156 z" />
        <path
           inkscape:connector-curvature="0"
           id="path4308"
           d="m -118.35582,374.45692 -2.97,0 0,6.072 q 0,0.572 0.11,0.946 0.11,0.352 0.308,0.55 0.198,0.198 0.462,0.286 0.286,0.066 0.616,0.066 0.374,0 0.77,-0.11 0.396,-0.11 0.726,-0.286 l 0.066,1.342 q -0.814,0.374 -1.958,0.374 -0.418,0 -0.88,-0.11 -0.44,-0.11 -0.814,-0.418 -0.374,-0.308 -0.616,-0.836 -0.242,-0.528 -0.242,-1.386 l 0,-6.49 -2.178,0 0,-1.32 2.178,0 0,-2.904 1.452,0 0,2.904 2.97,0 0,1.32 z" />
        <path
           inkscape:connector-curvature="0"
           id="path4310"
           d="m -116.37514,366.80092 1.452,0 0,7.986 0.044,0 q 0.242,-0.418 0.616,-0.77 0.374,-0.352 0.836,-0.594 0.462,-0.264 0.968,-0.396 0.528,-0.154 1.034,-0.154 1.98,0 2.926,1.056 0.946,1.034 0.946,2.97 l 0,6.534 -1.452,0 0,-5.698 q 0,-1.716 -0.594,-2.618 -0.594,-0.924 -2.2,-0.924 -0.11,0 -0.616,0.088 -0.506,0.088 -1.078,0.484 -0.55,0.396 -0.99,1.188 -0.44,0.792 -0.44,2.2 l 0,5.28 -1.452,0 0,-16.632 z" />
        <path
           inkscape:connector-curvature="0"
           id="path4312"
           d="m -96.121043,377.49292 q 0,-1.474 -0.88,-2.376 -0.88,-0.924 -2.464,-0.924 -0.703997,0 -1.363997,0.286 -0.66,0.264 -1.166,0.726 -0.484,0.462 -0.792,1.056 -0.286,0.594 -0.286,1.232 l 6.951997,0 z m -6.995997,1.188 q 0.066,0.77 0.374,1.452 0.308,0.682 0.814,1.188 0.506,0.484 1.166,0.77 0.66,0.286 1.429997,0.286 1.166,0 2.002,-0.528 0.858,-0.55 1.298,-1.254 l 1.122,0.924 q -0.924,1.166 -2.046,1.672 -1.1,0.506 -2.376,0.506 -1.143997,0 -2.133997,-0.396 -0.968,-0.418 -1.672,-1.144 -0.704,-0.726 -1.122,-1.716 -0.396,-0.99 -0.396,-2.156 0,-1.166 0.396,-2.156 0.396,-0.99 1.1,-1.716 0.704,-0.726 1.65,-1.122 0.946,-0.418 2.045997,-0.418 1.166,0 2.09,0.418 0.924,0.418 1.54,1.122 0.638,0.682 0.968,1.628 0.33,0.924 0.33,1.98 l 0,0.66 -8.579997,0 z" />
        <path
           inkscape:connector-curvature="0"
           id="path4314"
           d="m -91.728949,376.34892 q 0,-0.682 -0.044,-1.386 -0.022,-0.704 -0.044,-1.826 l 1.43,0 0,1.914 0.044,0 q 0.154,-0.418 0.44,-0.792 0.286,-0.396 0.682,-0.704 0.418,-0.308 0.946,-0.484 0.55,-0.198 1.232,-0.198 0.616,0 1.078,0.132 l -0.286,1.43 q -0.286,-0.11 -0.836,-0.11 -0.836,0 -1.43,0.33 -0.594,0.308 -0.99,0.814 -0.396,0.484 -0.594,1.056 -0.176,0.572 -0.176,1.1 l 0,5.808 -1.452,0 0,-7.084 z" />
      </g>
      <g
         id="text18991-2"
         style="font-style:normal;font-variant:normal;font-weight:normal;font-stretch:normal;font-size:22px;line-height:125%;font-family:Avenir;-inkscape-font-specification:Avenir;text-align:center;letter-spacing:0px;word-spacing:0px;writing-mode:lr-tb;text-anchor:middle;fill:#808080;fill-opacity:1;stroke:none;stroke-width:1px;stroke-linecap:butt;stroke-linejoin:miter;stroke-opacity:1">
        <path
           inkscape:connector-curvature="0"
           id="path4261"
           d="m 432.07968,382.91615 q 0,-0.858 -0.286,-1.606 -0.264,-0.748 -0.77,-1.298 -0.506,-0.55 -1.232,-0.858 -0.704,-0.33 -1.606,-0.33 -0.902,0 -1.628,0.33 -0.704,0.308 -1.21,0.858 -0.484,0.55 -0.77,1.298 -0.264,0.748 -0.264,1.606 0,0.858 0.264,1.606 0.286,0.748 0.77,1.298 0.506,0.55 1.21,0.88 0.726,0.308 1.628,0.308 0.902,0 1.606,-0.308 0.726,-0.33 1.232,-0.88 0.506,-0.55 0.77,-1.298 0.286,-0.748 0.286,-1.606 z m 1.584,0 q 0,1.166 -0.418,2.156 -0.396,0.99 -1.122,1.716 -0.726,0.726 -1.738,1.144 -0.99,0.396 -2.2,0.396 -1.188,0 -2.2,-0.396 -0.99,-0.418 -1.716,-1.144 -0.726,-0.726 -1.144,-1.716 -0.396,-0.99 -0.396,-2.156 0,-1.166 0.396,-2.156 0.418,-0.99 1.144,-1.716 0.726,-0.726 1.716,-1.122 1.012,-0.418 2.2,-0.418 1.21,0 2.2,0.418 1.012,0.396 1.738,1.122 0.726,0.726 1.122,1.716 0.418,0.99 0.418,2.156 z" />
        <path
           inkscape:connector-curvature="0"
           id="path4263"
           d="m 441.64418,379.08815 -2.97,0 0,6.072 q 0,0.572 0.11,0.946 0.11,0.352 0.308,0.55 0.198,0.198 0.462,0.286 0.286,0.066 0.616,0.066 0.374,0 0.77,-0.11 0.396,-0.11 0.726,-0.286 l 0.066,1.342 q -0.814,0.374 -1.958,0.374 -0.418,0 -0.88,-0.11 -0.44,-0.11 -0.814,-0.418 -0.374,-0.308 -0.616,-0.836 -0.242,-0.528 -0.242,-1.386 l 0,-6.49 -2.178,0 0,-1.32 2.178,0 0,-2.904 1.452,0 0,2.904 2.97,0 0,1.32 z" />
        <path
           inkscape:connector-curvature="0"
           id="path4265"
           d="m 443.62486,371.43215 1.452,0 0,7.986 0.044,0 q 0.242,-0.418 0.616,-0.77 0.374,-0.352 0.836,-0.594 0.462,-0.264 0.968,-0.396 0.528,-0.154 1.034,-0.154 1.98,0 2.926,1.056 0.946,1.034 0.946,2.97 l 0,6.534 -1.452,0 0,-5.698 q 0,-1.716 -0.594,-2.618 -0.594,-0.924 -2.2,-0.924 -0.11,0 -0.616,0.088 -0.506,0.088 -1.078,0.484 -0.55,0.396 -0.99,1.188 -0.44,0.792 -0.44,2.2 l 0,5.28 -1.452,0 0,-16.632 z" />
        <path
           inkscape:connector-curvature="0"
           id="path4267"
           d="m 463.87896,382.12415 q 0,-1.474 -0.88,-2.376 -0.88,-0.924 -2.464,-0.924 -0.704,0 -1.364,0.286 -0.66,0.264 -1.166,0.726 -0.484,0.462 -0.792,1.056 -0.286,0.594 -0.286,1.232 l 6.952,0 z m -6.996,1.188 q 0.066,0.77 0.374,1.452 0.308,0.682 0.814,1.188 0.506,0.484 1.166,0.77 0.66,0.286 1.43,0.286 1.166,0 2.002,-0.528 0.858,-0.55 1.298,-1.254 l 1.122,0.924 q -0.924,1.166 -2.046,1.672 -1.1,0.506 -2.376,0.506 -1.144,0 -2.134,-0.396 -0.968,-0.418 -1.672,-1.144 -0.704,-0.726 -1.122,-1.716 -0.396,-0.99 -0.396,-2.156 0,-1.166 0.396,-2.156 0.396,-0.99 1.1,-1.716 0.704,-0.726 1.65,-1.122 0.946,-0.418 2.046,-0.418 1.166,0 2.09,0.418 0.924,0.418 1.54,1.122 0.638,0.682 0.968,1.628 0.33,0.924 0.33,1.98 l 0,0.66 -8.58,0 z" />
        <path
           inkscape:connector-curvature="0"
           id="path4269"
           d="m 468.27105,380.98015 q 0,-0.682 -0.044,-1.386 -0.022,-0.704 -0.044,-1.826 l 1.43,0 0,1.914 0.044,0 q 0.154,-0.418 0.44,-0.792 0.286,-0.396 0.682,-0.704 0.418,-0.308 0.946,-0.484 0.55,-0.198 1.232,-0.198 0.616,0 1.078,0.132 l -0.286,1.43 q -0.286,-0.11 -0.836,-0.11 -0.836,0 -1.43,0.33 -0.594,0.308 -0.99,0.814 -0.396,0.484 -0.594,1.056 -0.176,0.572 -0.176,1.1 l 0,5.808 -1.452,0 0,-7.084 z" />
      </g>
    </g>
    <g
       style="font-style:normal;font-variant:normal;font-weight:normal;font-stretch:normal;font-size:22px;line-height:125%;font-family:Avenir;-inkscape-font-specification:Avenir;text-align:center;letter-spacing:0px;word-spacing:0px;writing-mode:lr-tb;text-anchor:middle;fill:#000000;fill-opacity:1;stroke:none;stroke-width:1px;stroke-linecap:butt;stroke-linejoin:miter;stroke-opacity:1"
       id="text4252">
      <path
         d="m 266.55926,343.61922 5.258,-12.672 2.42,0 0,15.576 -1.584,0 0,-13.464 -0.044,0 -5.632,13.464 -0.836,0 -5.632,-13.464 -0.044,0 0,13.464 -1.584,0 0,-15.576 2.42,0 5.258,12.672 z"
         style=""
         id="path4257" />
      <path
         d="m 285.34004,346.52322 q -0.044,-0.418 -0.066,-0.814 0,-0.418 0,-0.836 l -0.044,0 q -0.242,0.418 -0.616,0.77 -0.374,0.352 -0.836,0.616 -0.462,0.242 -0.99,0.374 -0.506,0.154 -1.012,0.154 -1.98,0 -2.926,-1.034 -0.946,-1.056 -0.946,-2.992 l 0,-6.534 1.452,0 0,5.698 q 0,0.858 0.132,1.518 0.132,0.66 0.44,1.122 0.33,0.44 0.858,0.682 0.55,0.22 1.364,0.22 0.11,0 0.616,-0.088 0.506,-0.088 1.056,-0.484 0.572,-0.396 1.012,-1.188 0.44,-0.792 0.44,-2.2 l 0,-5.28 1.452,0 0,8.03 q 0,0.418 0.022,1.056 0.044,0.638 0.088,1.21 l -1.496,0 z"
         style=""
         id="path4259" />
      <path
         d="m 291.93213,346.52322 -1.452,0 0,-16.632 1.452,0 0,16.632 z"
         style=""
         id="path4262" />
      <path
         d="m 300.80226,337.54722 -2.97,0 0,6.072 q 0,0.572 0.11,0.946 0.11,0.352 0.308,0.55 0.198,0.198 0.462,0.286 0.286,0.066 0.616,0.066 0.374,0 0.77,-0.11 0.396,-0.11 0.726,-0.286 l 0.066,1.342 q -0.814,0.374 -1.958,0.374 -0.418,0 -0.88,-0.11 -0.44,-0.11 -0.814,-0.418 -0.374,-0.308 -0.616,-0.836 -0.242,-0.528 -0.242,-1.386 l 0,-6.49 -2.178,0 0,-1.32 2.178,0 0,-2.904 1.452,0 0,2.904 2.97,0 0,1.32 z"
         style=""
         id="path4264" />
      <path
         d="m 304.89494,332.26722 q 0,0.462 -0.33,0.77 -0.33,0.286 -0.726,0.286 -0.396,0 -0.726,-0.286 -0.33,-0.308 -0.33,-0.77 0,-0.462 0.33,-0.748 0.33,-0.308 0.726,-0.308 0.396,0 0.726,0.308 0.33,0.286 0.33,0.748 z m -0.33,14.256 -1.452,0 0,-10.296 1.452,0 0,10.296 z"
         style=""
         id="path4266" />
      <path
         d="m 309.8501,346.52322 -1.452,0 0,-16.632 1.452,0 0,16.632 z"
         style=""
         id="path4268" />
      <path
         d="m 315.50823,332.26722 q 0,0.462 -0.33,0.77 -0.33,0.286 -0.726,0.286 -0.396,0 -0.726,-0.286 -0.33,-0.308 -0.33,-0.77 0,-0.462 0.33,-0.748 0.33,-0.308 0.726,-0.308 0.396,0 0.726,0.308 0.33,0.286 0.33,0.748 z m -0.33,14.256 -1.452,0 0,-10.296 1.452,0 0,10.296 z"
         style=""
         id="path4270" />
      <path
         d="m 320.06738,336.22722 q 0.044,0.418 0.044,0.836 0.022,0.396 0.022,0.814 l 0.044,0 q 0.242,-0.418 0.616,-0.77 0.374,-0.352 0.836,-0.594 0.462,-0.264 0.968,-0.396 0.528,-0.154 1.034,-0.154 1.98,0 2.926,1.056 0.946,1.034 0.946,2.97 l 0,6.534 -1.452,0 0,-5.698 q 0,-1.716 -0.594,-2.618 -0.594,-0.924 -2.2,-0.924 -0.11,0 -0.616,0.088 -0.506,0.088 -1.078,0.484 -0.55,0.396 -0.99,1.188 -0.44,0.792 -0.44,2.2 l 0,5.28 -1.452,0 0,-8.03 q 0,-0.418 -0.044,-1.056 -0.022,-0.638 -0.066,-1.21 l 1.496,0 z"
         style=""
         id="path4273" />
      <path
         d="m 338.93548,340.58322 q 0,-1.474 -0.88,-2.376 -0.88,-0.924 -2.464,-0.924 -0.704,0 -1.364,0.286 -0.66,0.264 -1.166,0.726 -0.484,0.462 -0.792,1.056 -0.286,0.594 -0.286,1.232 l 6.952,0 z m -6.996,1.188 q 0.066,0.77 0.374,1.452 0.308,0.682 0.814,1.188 0.506,0.484 1.166,0.77 0.66,0.286 1.43,0.286 1.166,0 2.002,-0.528 0.858,-0.55 1.298,-1.254 l 1.122,0.924 q -0.924,1.166 -2.046,1.672 -1.1,0.506 -2.376,0.506 -1.144,0 -2.134,-0.396 -0.968,-0.418 -1.672,-1.144 -0.704,-0.726 -1.122,-1.716 -0.396,-0.99 -0.396,-2.156 0,-1.166 0.396,-2.156 0.396,-0.99 1.1,-1.716 0.704,-0.726 1.65,-1.122 0.946,-0.418 2.046,-0.418 1.166,0 2.09,0.418 0.924,0.418 1.54,1.122 0.638,0.682 0.968,1.628 0.33,0.924 0.33,1.98 l 0,0.66 -8.58,0 z"
         style=""
         id="path4275" />
    </g>
  </g>
</svg>
