<?xml version="1.0" encoding="UTF-8" standalone="no"?>
<!-- Created with Inkscape (http://www.inkscape.org/) -->

<svg
   xmlns:dc="http://purl.org/dc/elements/1.1/"
   xmlns:cc="http://creativecommons.org/ns#"
   xmlns:rdf="http://www.w3.org/1999/02/22-rdf-syntax-ns#"
   xmlns:svg="http://www.w3.org/2000/svg"
   xmlns="http://www.w3.org/2000/svg"
   xmlns:sodipodi="http://sodipodi.sourceforge.net/DTD/sodipodi-0.dtd"
   xmlns:inkscape="http://www.inkscape.org/namespaces/inkscape"
   id="svg3355"
   version="1.1"
   inkscape:version="0.91 r13725"
   xml:space="preserve"
   width="950.44849"
   height="300.01999"
   viewBox="0 0 950.44849 300.01999"
   sodipodi:docname="mavb.svg"><metadata
     id="metadata3361"><rdf:RDF><cc:Work
         rdf:about=""><dc:format>image/svg+xml</dc:format><dc:type
           rdf:resource="http://purl.org/dc/dcmitype/StillImage" /><dc:title></dc:title></cc:Work></rdf:RDF></metadata><defs
     id="defs3359"><clipPath
       clipPathUnits="userSpaceOnUse"
       id="clipPath3371"><path
         d="m 0,0 1024,0 0,768 L 0,768 0,0 Z"
         id="path3373"
         inkscape:connector-curvature="0" /></clipPath><clipPath
       clipPathUnits="userSpaceOnUse"
       id="clipPath3383"><path
         d="m 470.4598,393.3428 110.8617,0 0,109.7715 -110.8617,0 0,-109.7715 z"
         id="path3385"
         inkscape:connector-curvature="0" /></clipPath><clipPath
       clipPathUnits="userSpaceOnUse"
       id="clipPath3397"><path
         d="m 0,0 1024,0 0,768 L 0,768 0,0 Z"
         id="path3399"
         inkscape:connector-curvature="0" /></clipPath><clipPath
       clipPathUnits="userSpaceOnUse"
       id="clipPath3407"><path
         d="m 167.3451,393.3428 110.7921,0 0,109.7715 -110.7921,0 0,-109.7715 z"
         id="path3409"
         inkscape:connector-curvature="0" /></clipPath><clipPath
       clipPathUnits="userSpaceOnUse"
       id="clipPath3421"><path
         d="m 0,0 1024,0 0,768 L 0,768 0,0 Z"
         id="path3423"
         inkscape:connector-curvature="0" /></clipPath><clipPath
       clipPathUnits="userSpaceOnUse"
       id="clipPath3431"><path
         d="m 32.47938,393.3428 110.8478,0 0,109.7715 -110.8478,0 0,-109.7715 z"
         id="path3433"
         inkscape:connector-curvature="0" /></clipPath><clipPath
       clipPathUnits="userSpaceOnUse"
       id="clipPath3445"><path
         d="m 0,0 1024,0 0,768 L 0,768 0,0 Z"
         id="path3447"
         inkscape:connector-curvature="0" /></clipPath><clipPath
       clipPathUnits="userSpaceOnUse"
       id="clipPath3455"><path
         d="m 605.5015,393.3428 110.7782,0 0,109.7715 -110.7782,0 0,-109.7715 z"
         id="path3457"
         inkscape:connector-curvature="0" /></clipPath><clipPath
       clipPathUnits="userSpaceOnUse"
       id="clipPath3469"><path
         d="m 0,0 1024,0 0,768 L 0,768 0,0 Z"
         id="path3471"
         inkscape:connector-curvature="0" /></clipPath></defs><sodipodi:namedview
     pagecolor="#ffffff"
     bordercolor="#666666"
     borderopacity="1"
     objecttolerance="10"
     gridtolerance="10"
     guidetolerance="10"
     inkscape:pageopacity="0"
     inkscape:pageshadow="2"
     inkscape:window-width="1756"
     inkscape:window-height="765"
     id="namedview3357"
     showgrid="false"
     fit-margin-top="0"
     fit-margin-left="0"
     fit-margin-right="0"
     fit-margin-bottom="0"
     inkscape:zoom="1.1991353"
     inkscape:cx="460.11082"
     inkscape:cy="140.02212"
     inkscape:window-x="114"
     inkscape:window-y="49"
     inkscape:window-maximized="0"
     inkscape:current-layer="g3522" /><g
     id="g3363"
     inkscape:groupmode="layer"
     inkscape:label="Untitled"
     transform="matrix(1.25,0,0,-1.25,-41.265803,717.92)"><g
       id="g3365"
       transform="matrix(0.86245328,0,0,0.86245328,56.833208,65.24226)" /><g
       id="g3367"
       transform="matrix(0.86245328,0,0,0.86245328,56.833208,65.24226)"><g
         id="g3369"
         clip-path="url(#clipPath3371)" /></g><g
       id="g3522"
       transform="matrix(0.86245328,0,0,0.86245328,53.471844,68.334657)"><path
         inkscape:connector-curvature="0"
         id="path3377"
         style="fill:#61d836;fill-opacity:1;fill-rule:nonzero;stroke:none"
         d="m 607.39324,483.07309 c 21.4342,-21.4342 21.4342,-56.1859 0,-77.6202 -21.4342,-21.4342 -56.1859,-21.4342 -77.6201,0 -21.4343,21.4343 -21.4343,56.186 0,77.6202 21.4342,21.4342 56.1859,21.4342 77.6201,0 z" /><g
         transform="translate(42.697436,-3.9655072)"
         id="g3379"><g
           clip-path="url(#clipPath3383)"
           id="g3381"><g
             transform="translate(483,440)"
             id="g3387"><text
               id="text3389"
               style="font-variant:normal;font-weight:500;font-size:22px;font-family:'Helvetica Neue';-inkscape-font-specification:HelveticaNeue-Medium;writing-mode:lr-tb;fill:#ffffff;fill-opacity:1;fill-rule:nonzero;stroke:none"
               transform="scale(1,-1)"
               x="2.3206384"
               y="-0.77354616"><tspan
                 id="tspan3391"
                 sodipodi:role="line"
                 x="2.3206384"
                 y="-0.77354616">Adapter</tspan></text>
</g></g></g><g
         transform="translate(42.697436,-3.9655072)"
         id="g3393"><g
           clip-path="url(#clipPath3397)"
           id="g3395"><path
             inkscape:connector-curvature="0"
             id="path3401"
             style="fill:#61d836;fill-opacity:1;fill-rule:nonzero;stroke:none"
             d="m 261.5464,487.0386 c 21.4342,-21.4342 21.4342,-56.1859 0,-77.6202 -21.4343,-21.4342 -56.186,-21.4342 -77.6202,0 -21.4342,21.4343 -21.4342,56.186 0,77.6202 21.4342,21.4342 56.1859,21.4342 77.6202,0 z" /></g></g><g
         transform="translate(42.697436,-3.9655072)"
         id="g3403"><g
           clip-path="url(#clipPath3407)"
           id="g3405"><g
             transform="translate(189,440)"
             id="g3411"><text
               id="text3413"
               style="font-variant:normal;font-weight:500;font-size:22px;font-family:'Helvetica Neue';-inkscape-font-specification:HelveticaNeue-Medium;writing-mode:lr-tb;fill:#ffffff;fill-opacity:1;fill-rule:nonzero;stroke:none"
               transform="scale(1,-1)"><tspan
                 id="tspan3415"
                 sodipodi:role="line"
                 y="0"
                 x="0 15.488 20.790001 33.417999 46.860001 59.091999">Binder</tspan></text>
</g></g></g><g
         transform="translate(42.697436,-3.9655072)"
         id="g3417"><g
           clip-path="url(#clipPath3421)"
           id="g3419"><path
             inkscape:connector-curvature="0"
             id="path3425"
             style="fill:#00a2ff;fill-opacity:1;fill-rule:nonzero;stroke:none"
             d="m 126.7085,487.0386 c 21.4342,-21.4342 21.4342,-56.1859 0,-77.6202 -21.4343,-21.4342 -56.18598,-21.4342 -77.6202,0 -21.43421,21.4343 -21.43421,56.186 0,77.6202 21.43422,21.4342 56.1859,21.4342 77.6202,0 z" /></g></g><g
         transform="translate(42.697436,-3.9655072)"
         id="g3427"><g
           clip-path="url(#clipPath3431)"
           id="g3429"><g
             transform="translate(64,440)"
             id="g3435"><text
               id="text3437"
               style="font-variant:normal;font-weight:500;font-size:22px;font-family:'Helvetica Neue';-inkscape-font-specification:HelveticaNeue-Medium;writing-mode:lr-tb;fill:#ffffff;fill-opacity:1;fill-rule:nonzero;stroke:none"
               transform="scale(1,-1)"><tspan
                 id="tspan3439"
                 sodipodi:role="line"
                 y="0"
                 x="0 13.662 18.964001 31.195999">View</tspan></text>
</g></g></g><g
         transform="translate(42.697436,-3.9655072)"
         id="g3441"><g
           clip-path="url(#clipPath3445)"
           id="g3443"><path
             inkscape:connector-curvature="0"
             id="path3449"
             style="fill:#00a2ff;fill-opacity:1;fill-rule:nonzero;stroke:none"
             d="m 699.6958,487.0386 c 21.4342,-21.4342 21.4342,-56.1859 0,-77.6202 -21.4342,-21.4342 -56.1859,-21.4342 -77.6201,0 -21.4343,21.4343 -21.4343,56.186 0,77.6202 21.4342,21.4342 56.1859,21.4342 77.6201,0 z" /></g></g><g
         transform="translate(42.697436,-3.9655072)"
         id="g3451"><g
           clip-path="url(#clipPath3455)"
           id="g3453"><g
             transform="translate(629,440)"
             id="g3459"><text
               id="text3461"
               style="font-variant:normal;font-weight:500;font-size:22px;font-family:'Helvetica Neue';-inkscape-font-specification:HelveticaNeue-Medium;writing-mode:lr-tb;fill:#ffffff;fill-opacity:1;fill-rule:nonzero;stroke:none"
               transform="scale(1,-1)"><tspan
                 id="tspan3463"
                 sodipodi:role="line"
                 y="0"
                 x="0 19.558001 32.604 46.046001 58.278">Model</tspan></text>
</g></g></g><g
         transform="translate(42.697436,-3.9655072)"
         id="g3465"><g
           clip-path="url(#clipPath3469)"
           id="g3467"><g
             transform="matrix(1,0,0,-1,261.4757,531.3581)"
             id="g3473"><path
               inkscape:connector-curvature="0"
               id="path3475"
               style="fill:none;stroke:#000000;stroke-width:5;stroke-linecap:butt;stroke-linejoin:miter;stroke-miterlimit:4;stroke-dasharray:none;stroke-opacity:1"
               d="m 0,44.24146 c 67.34502,-56.51557 137.8347,-58.88493 211.4691,-7.10809 l 2.0091,1.49118" /></g><path
             inkscape:connector-curvature="0"
             id="path3477"
             style="fill:#000000;fill-opacity:1;fill-rule:nonzero;stroke:none"
             d="m 462.7721,489.0725 22.4601,-3.9676 -10.302,20.3486 -1.9838,-11.23 -10.1743,-5.151 z" /><g
             transform="matrix(1,0,0,-1,263.0573,411.8648)"
             id="g3479"><path
               inkscape:connector-curvature="0"
               id="path3481"
               style="fill:none;stroke:#000000;stroke-width:5;stroke-linecap:butt;stroke-linejoin:miter;stroke-miterlimit:4;stroke-dasharray:none;stroke-opacity:1"
               d="M 221.7149,0 C 150.6081,53.47952 80.82334,56.77819 12.36058,9.895997 L 10.3394,8.42095" /></g><path
             inkscape:connector-curvature="0"
             id="path3483"
             style="fill:#000000;fill-opacity:1;fill-rule:nonzero;stroke:none"
             d="m 285.5487,407.2028 -22.4914,3.7867 10.4655,-20.2651 1.8934,11.2457 10.1325,5.2327 z" /><g
             transform="translate(290,550)"
             id="g3485"><text
               id="text3487"
               style="font-variant:normal;font-weight:bold;font-size:24px;font-family:'Helvetica Neue';-inkscape-font-specification:HelveticaNeue-Bold;writing-mode:lr-tb;fill:#000000;fill-opacity:1;fill-rule:nonzero;stroke:none"
               transform="scale(1,-1)"><tspan
                 id="tspan3489"
                 sodipodi:role="line"
                 y="0"
                 x="0 13.776 27.552 36 42.192001 56.855999 71.087997 77.760002 92.424004 98.615997 112.848 127.512 133.70399 147.936">action binding</tspan></text>
</g><g
             transform="translate(296,339)"
             id="g3491"><text
               id="text3493"
               style="font-variant:normal;font-weight:bold;font-size:24px;font-family:'Helvetica Neue';-inkscape-font-specification:HelveticaNeue-Bold;writing-mode:lr-tb;fill:#000000;fill-opacity:1;fill-rule:nonzero;stroke:none"
               transform="scale(1,-1)"><tspan
                 id="tspan3495"
                 sodipodi:role="line"
                 y="0"
                 x="0 12.48 26.256001 32.448002 46.68 60.456001 67.127998 81.792 87.984001 102.216 116.88 123.072 137.304">value binding</tspan></text>
</g><g
             transform="matrix(-1,0,0,1,168.0859,437.6143)"
             id="g3497"><path
               inkscape:connector-curvature="0"
               id="path3499"
               style="fill:none;stroke:#000000;stroke-width:3;stroke-linecap:butt;stroke-linejoin:miter;stroke-miterlimit:4;stroke-dasharray:none;stroke-opacity:1"
               d="m 0,0 13.29294,0 1.5,0" /></g><path
             inkscape:connector-curvature="0"
             id="path3501"
             style="fill:#000000;fill-opacity:1;fill-rule:nonzero;stroke:none"
             d="m 154.793,444.2143 -13.2,-6.6 13.2,-6.6 0,13.2 z" /><g
             transform="matrix(1,0,0,-1,142.593,456.2285)"
             id="g3503"><path
               inkscape:connector-curvature="0"
               id="path3505"
               style="fill:none;stroke:#000000;stroke-width:3;stroke-linecap:butt;stroke-linejoin:miter;stroke-miterlimit:4;stroke-dasharray:none;stroke-opacity:1"
               d="m 0,0 13.29294,0 1.5,0" /></g><path
             inkscape:connector-curvature="0"
             id="path3507"
             style="fill:#000000;fill-opacity:1;fill-rule:nonzero;stroke:none"
             d="m 155.8859,449.6285 13.2,6.6 -13.2,6.6 0,-13.2 z" /><g
             transform="matrix(-1,0,0,1,606.0859,438.9214)"
             id="g3509"><path
               inkscape:connector-curvature="0"
               id="path3511"
               style="fill:none;stroke:#000000;stroke-width:3;stroke-linecap:butt;stroke-linejoin:miter;stroke-miterlimit:4;stroke-dasharray:none;stroke-opacity:1"
               d="m 0,0 13.29294,0 1.5,0" /></g><path
             inkscape:connector-curvature="0"
             id="path3513"
             style="fill:#000000;fill-opacity:1;fill-rule:nonzero;stroke:none"
             d="m 592.793,445.5214 -13.2,-6.6 13.2,-6.6 0,13.2 z" /><g
             transform="matrix(1,0,0,-1,580.593,457.5357)"
             id="g3515"><path
               inkscape:connector-curvature="0"
               id="path3517"
               style="fill:none;stroke:#000000;stroke-width:3;stroke-linecap:butt;stroke-linejoin:miter;stroke-miterlimit:4;stroke-dasharray:none;stroke-opacity:1"
               d="m 0,0 13.29294,0 1.5,0" /></g><path
             inkscape:connector-curvature="0"
             id="path3519"
             style="fill:#000000;fill-opacity:1;fill-rule:nonzero;stroke:none"
             d="m 593.8859,450.9357 13.2,6.6 -13.2,6.6 0,-13.2 z" /></g></g></g></g></svg>