<?xml version="1.0" encoding="UTF-8" standalone="no"?>
<!-- Created with Inkscape (http://www.inkscape.org/) -->

<svg
   xmlns:dc="http://purl.org/dc/elements/1.1/"
   xmlns:cc="http://creativecommons.org/ns#"
   xmlns:rdf="http://www.w3.org/1999/02/22-rdf-syntax-ns#"
   xmlns:svg="http://www.w3.org/2000/svg"
   xmlns="http://www.w3.org/2000/svg"
   xmlns:sodipodi="http://sodipodi.sourceforge.net/DTD/sodipodi-0.dtd"
   xmlns:inkscape="http://www.inkscape.org/namespaces/inkscape"
   id="svg2"
   version="1.1"
   inkscape:version="0.91 r13725"
   xml:space="preserve"
   width="1070.2606"
   height="440.25266"
   viewBox="0 0 1070.2606 440.25266"
   sodipodi:docname="not_ideal_mvc.svg"><metadata
     id="metadata8"><rdf:RDF><cc:Work
         rdf:about=""><dc:format>image/svg+xml</dc:format><dc:type
           rdf:resource="http://purl.org/dc/dcmitype/StillImage" /><dc:title /></cc:Work></rdf:RDF></metadata><defs
     id="defs6"><clipPath
       clipPathUnits="userSpaceOnUse"
       id="clipPath18"><path
         d="m 0,0 1024,0 0,768 L 0,768 0,0 Z"
         id="path20"
         inkscape:connector-curvature="0" /></clipPath><clipPath
       clipPathUnits="userSpaceOnUse"
       id="clipPath30"><path
         d="m 403.2678,546.5957 127.8706,0 0,126.4043 -127.8706,0 0,-126.4043 z"
         id="path32"
         inkscape:connector-curvature="0" /></clipPath><clipPath
       clipPathUnits="userSpaceOnUse"
       id="clipPath44"><path
         d="m 0,0 1024,0 0,768 L 0,768 0,0 Z"
         id="path46"
         inkscape:connector-curvature="0" /></clipPath><clipPath
       clipPathUnits="userSpaceOnUse"
       id="clipPath54"><path
         d="m 403.2678,320.7979 127.8706,0 0,126.4043 -127.8706,0 0,-126.4043 z"
         id="path56"
         inkscape:connector-curvature="0" /></clipPath><clipPath
       clipPathUnits="userSpaceOnUse"
       id="clipPath68"><path
         d="m 0,0 1024,0 0,768 L 0,768 0,0 Z"
         id="path70"
         inkscape:connector-curvature="0" /></clipPath><clipPath
       clipPathUnits="userSpaceOnUse"
       id="clipPath78"><path
         d="m 169.2586,428.5957 127.8891,0 0,126.4043 -127.8891,0 0,-126.4043 z"
         id="path80"
         inkscape:connector-curvature="0" /></clipPath><clipPath
       clipPathUnits="userSpaceOnUse"
       id="clipPath92"><path
         d="m 0,0 1024,0 0,768 L 0,768 0,0 Z"
         id="path94"
         inkscape:connector-curvature="0" /></clipPath><clipPath
       clipPathUnits="userSpaceOnUse"
       id="clipPath102"><path
         d="m 775.6283,428.5957 127.9262,0 0,126.4043 -127.9262,0 0,-126.4043 z"
         id="path104"
         inkscape:connector-curvature="0" /></clipPath><clipPath
       clipPathUnits="userSpaceOnUse"
       id="clipPath116"><path
         d="m 0,0 1024,0 0,768 L 0,768 0,0 Z"
         id="path118"
         inkscape:connector-curvature="0" /></clipPath></defs><sodipodi:namedview
     pagecolor="#ffffff"
     bordercolor="#666666"
     borderopacity="1"
     objecttolerance="10"
     gridtolerance="10"
     guidetolerance="10"
     inkscape:pageopacity="0"
     inkscape:pageshadow="2"
     inkscape:window-width="1292"
     inkscape:window-height="560"
     id="namedview4"
     showgrid="false"
     fit-margin-top="0"
     fit-margin-left="0"
     fit-margin-right="0"
     fit-margin-bottom="0"
     inkscape:zoom="0.69163882"
     inkscape:cx="486.56153"
     inkscape:cy="256.36729"
     inkscape:window-x="0"
     inkscape:window-y="0"
     inkscape:window-maximized="0"
     inkscape:current-layer="g114" /><g
     id="g10"
     inkscape:groupmode="layer"
     inkscape:label="Untitled 3"
     transform="matrix(1.25,0,0,-1.25,-58.23,841.25)"><g
       id="g12" /><g
       id="g14"
       transform="matrix(1.0630481,0,0,1.0630481,-29.928172,-31.328512)"><g
         id="g16"
         clip-path="url(#clipPath18)"
         transform="matrix(0.81422227,0,0,0.81422227,88.186506,92.312755)"><path
           d="m 511.8928,654.4885 c 24.682,-24.682 24.682,-64.6993 0,-89.3813 -24.682,-24.682 -64.6993,-24.682 -89.3813,0 -24.682,24.682 -24.682,64.6993 0,89.3813 24.682,24.682 64.6993,24.682 89.3813,0 z"
           style="fill:#00a2ff;fill-opacity:1;fill-rule:nonzero;stroke:none"
           id="path24"
           inkscape:connector-curvature="0" /></g></g><g
       id="g26"
       transform="matrix(0.8655574,0,0,0.8655574,63.818322,66.804383)"><g
         id="g28"
         clip-path="url(#clipPath30)"><g
           id="g34"
           transform="translate(417,602)"><text
             transform="scale(1,-1)"
             style="font-variant:normal;font-weight:500;font-size:22px;font-family:'Helvetica Neue';-inkscape-font-specification:HelveticaNeue-Medium;writing-mode:lr-tb;fill:#ffffff;fill-opacity:1;fill-rule:nonzero;stroke:none"
             id="text36"><tspan
               x="0 15.884 28.93 41.557999 48.883999 56.231998 69.278 74.580002 79.882004 92.113998"
               y="0"
               sodipodi:role="line"
               id="tspan38">Controller</tspan></text>
</g></g></g><g
       id="g40"
       transform="matrix(0.8655574,0,0,0.8655574,63.818322,66.804383)"><g
         id="g42"
         clip-path="url(#clipPath44)"><path
           d="m 511.8928,428.6907 c 24.682,-24.682 24.682,-64.6994 0,-89.3814 -24.682,-24.6819 -64.6993,-24.6819 -89.3813,0 -24.682,24.682 -24.682,64.6994 0,89.3814 24.682,24.6819 64.6993,24.6819 89.3813,0 z"
           style="fill:#00a2ff;fill-opacity:1;fill-rule:nonzero;stroke:none"
           id="path48"
           inkscape:connector-curvature="0" /></g></g><g
       id="g50"
       transform="matrix(0.8655574,0,0,0.8655574,63.818322,66.804383)"><g
         id="g52"
         clip-path="url(#clipPath54)"><g
           id="g58"
           transform="translate(417,376)"><text
             transform="scale(1,-1)"
             style="font-variant:normal;font-weight:500;font-size:22px;font-family:'Helvetica Neue';-inkscape-font-specification:HelveticaNeue-Medium;writing-mode:lr-tb;fill:#ffffff;fill-opacity:1;fill-rule:nonzero;stroke:none"
             id="text60"><tspan
               x="0 15.884 28.93 41.557999 48.883999 56.231998 69.278 74.580002 79.882004 92.113998"
               y="0"
               sodipodi:role="line"
               id="tspan62">Controller</tspan></text>
</g></g></g><g
       id="g64"
       transform="matrix(0.8655574,0,0,0.8655574,63.818322,66.804383)"><g
         id="g66"
         clip-path="url(#clipPath68)"><path
           d="m 277.8928,536.4885 c 24.682,-24.682 24.682,-64.6993 0,-89.3813 -24.682,-24.682 -64.6993,-24.682 -89.3813,0 -24.682,24.682 -24.682,64.6993 0,89.3813 24.682,24.682 64.6993,24.682 89.3813,0 z"
           style="fill:#00a2ff;fill-opacity:1;fill-rule:nonzero;stroke:none"
           id="path72"
           inkscape:connector-curvature="0" /></g></g><g
       id="g74"
       transform="matrix(0.8655574,0,0,0.8655574,63.818322,66.804383)"><g
         id="g76"
         clip-path="url(#clipPath78)"><g
           id="g82"
           transform="translate(209,484)"><text
             transform="scale(1,-1)"
             style="font-variant:normal;font-weight:500;font-size:22px;font-family:'Helvetica Neue';-inkscape-font-specification:HelveticaNeue-Medium;writing-mode:lr-tb;fill:#ffffff;fill-opacity:1;fill-rule:nonzero;stroke:none"
             id="text84"><tspan
               x="0 13.662 18.964001 31.195999"
               y="0"
               sodipodi:role="line"
               id="tspan86">View</tspan></text>
</g></g></g><g
       id="g88"
       transform="matrix(0.8655574,0,0,0.8655574,63.818322,66.804383)"><g
         id="g90"
         clip-path="url(#clipPath92)"><path
           d="m 884.2811,536.4885 c 24.6819,-24.682 24.6819,-64.6993 0,-89.3813 -24.682,-24.682 -64.6994,-24.682 -89.3814,0 -24.6819,24.682 -24.6819,64.6993 0,89.3813 24.682,24.682 64.6994,24.682 89.3814,0 z"
           style="fill:#00a2ff;fill-opacity:1;fill-rule:nonzero;stroke:none"
           id="path96"
           inkscape:connector-curvature="0" /></g></g><g
       id="g98"
       transform="matrix(0.8655574,0,0,0.8655574,63.818322,66.804383)"><g
         id="g100"
         clip-path="url(#clipPath102)"><g
           id="g106"
           transform="translate(808,484)"><text
             transform="scale(1,-1)"
             style="font-variant:normal;font-weight:500;font-size:22px;font-family:'Helvetica Neue';-inkscape-font-specification:HelveticaNeue-Medium;writing-mode:lr-tb;fill:#ffffff;fill-opacity:1;fill-rule:nonzero;stroke:none"
             id="text108"><tspan
               x="0 19.558001 32.604 46.046001 58.278"
               y="0"
               sodipodi:role="line"
               id="tspan110">Model</tspan></text>
</g></g></g><g
       id="g112"
       transform="matrix(0.81422227,0,0,0.81422227,88.186506,92.312755)"><g
         id="g114"
         clip-path="url(#clipPath116)"><g
           id="g120"
           transform="matrix(1.0630481,0,0,-1.0630481,243.9145,622.39385)"><path
             d="M 0,64.82892 C 27.63721,21.36099 71.26274,-0.2479323 130.8766,0.00214576 l 1.9992,0.05799602"
             style="fill:none;stroke:#000000;stroke-width:4;stroke-linecap:butt;stroke-linejoin:miter;stroke-miterlimit:4;stroke-dasharray:none;stroke-opacity:1"
             id="path122"
             inkscape:connector-curvature="0" /></g><path
           d="m 378.32076,613.5951 18.11062,8.40797 -17.59281,9.4438 4.20404,-9.05536 -4.72185,-8.79641 z"
           style="fill:#000000;fill-opacity:1;fill-rule:nonzero;stroke:none"
           id="path124"
           inkscape:connector-curvature="0" /><g
           id="g126"
           transform="matrix(1.0630481,0,0,-1.0630481,259.36175,438.5366)"><path
             d="M 131.928,60.77275 C 84.65712,57.16877 43.72485,39.8053 9.131229,8.682317 L 7.68178,7.304126"
             style="fill:none;stroke:#000000;stroke-width:4;stroke-linecap:butt;stroke-linejoin:miter;stroke-miterlimit:4;stroke-dasharray:none;stroke-opacity:1"
             id="path128"
             inkscape:connector-curvature="0" /></g><path
           d="m 278.45729,432.70164 -19.09554,5.83496 6.78937,-18.77747 2.91743,9.54777 9.38874,3.39474 z"
           style="fill:#000000;fill-opacity:1;fill-rule:nonzero;stroke:none"
           id="path130"
           inkscape:connector-curvature="0" /><g
           id="g132"
           transform="matrix(1.0630481,0,0,1.0630481,179.49229,642.64396)"><text
             transform="scale(1,-1)"
             style="font-variant:normal;font-weight:bold;font-size:24px;font-family:'Helvetica Neue';-inkscape-font-specification:HelveticaNeue-Bold;writing-mode:lr-tb;fill:#000000;fill-opacity:1;fill-rule:nonzero;stroke:none"
             id="text134"
             x="-7.102932"
             y="-7.102932"><tspan
               sodipodi:role="line"
               id="tspan136"
               x="-7.102932"
               y="-7.102932">Target-action</tspan></text>
<text
             y="20.294224"
             x="7.8224459"
             style="font-variant:normal;font-weight:bold;font-size:23.99999809px;font-family:'Helvetica Neue';-inkscape-font-specification:HelveticaNeue-Bold;writing-mode:lr-tb;fill:#000000;fill-opacity:1;fill-rule:nonzero;stroke:none"
             id="text134-3"
             transform="scale(1,-1)"><tspan
               sodipodi:role="line"
               id="tspan136-7"
               x="7.8224459"
               y="20.294224">or Delegate</tspan></text>
</g><g
           id="g138"
           transform="matrix(1.0630481,0,0,1.0630481,162.48353,330.10783)"><text
             transform="scale(1,-1)"
             style="font-variant:normal;font-weight:bold;font-size:24px;font-family:'Helvetica Neue';-inkscape-font-specification:HelveticaNeue-Bold;writing-mode:lr-tb;fill:#000000;fill-opacity:1;fill-rule:nonzero;stroke:none"
             id="text140"><tspan
               sodipodi:role="line"
               id="tspan142"
               x="0"
               y="0">apply new value</tspan></text>
</g><g
           id="g144"
           transform="matrix(1.0630481,0,0,-1.0630481,21.457328,514.93521)"><path
             d="m 0,0 113.8043,0 2,0"
             style="fill:none;stroke:#000000;stroke-width:4;stroke-linecap:butt;stroke-linejoin:miter;stroke-miterlimit:4;stroke-dasharray:none;stroke-opacity:1"
             id="path146"
             inkscape:connector-curvature="0" /></g><path
           d="m 137.97198,506.00561 17.8592,8.9296 -17.8592,8.9296 4.4648,-8.9296 -4.4648,-8.9296 z"
           style="fill:#000000;fill-opacity:1;fill-rule:nonzero;stroke:none"
           id="path148"
           inkscape:connector-curvature="0" /><g
           id="g150"
           transform="matrix(1.0630481,0,0,1.0630481,17.90899,539.52829)"><text
             transform="scale(1,-1)"
             style="font-variant:normal;font-weight:bold;font-size:24px;font-family:'Helvetica Neue';-inkscape-font-specification:HelveticaNeue-Bold;writing-mode:lr-tb;fill:#000000;fill-opacity:1;fill-rule:nonzero;stroke:none"
             id="text152"><tspan
               x="0 17.784 30.672001 44.448002 52.464001 62.231998 76.008003 89.783997 98.232002 104.424 119.088"
               y="0"
               sodipodi:role="line"
               id="tspan154">User-action</tspan></text>
</g><g
           id="g156"
           transform="matrix(-1.0630481,0,0,1.0630481,155.83118,471.35024)"><path
             d="m 0,0 113.8043,0 2,0"
             style="fill:none;stroke:#000000;stroke-width:4;stroke-linecap:butt;stroke-linejoin:miter;stroke-miterlimit:4;stroke-dasharray:none;stroke-opacity:1"
             id="path158"
             inkscape:connector-curvature="0" /></g><path
           d="m 39.316525,480.27984 -17.859208,-8.9296 17.859208,-8.92961 -4.464802,8.92961 4.464802,8.9296 z"
           style="fill:#000000;fill-opacity:1;fill-rule:nonzero;stroke:none"
           id="path160"
           inkscape:connector-curvature="0" /><g
           id="g162"
           transform="matrix(1.0630481,0,0,1.0630481,44.485192,427.90825)"><text
             transform="scale(1,-1)"
             style="font-variant:normal;font-weight:bold;font-size:24px;font-family:'Helvetica Neue';-inkscape-font-specification:HelveticaNeue-Bold;writing-mode:lr-tb;fill:#000000;fill-opacity:1;fill-rule:nonzero;stroke:none"
             id="text164"><tspan
               x="0 17.784 23.976 36.863998 51.528 57.720001 71.496002"
               y="0"
               sodipodi:role="line"
               id="tspan166">Display</tspan></text>
</g><g
           id="g168"
           transform="matrix(1.0630481,0,0,-1.0630481,507.24128,563.3056)"><path
             d="m 0,0 c 39.19984,59.04813 47.78006,104.3443 25.74068,135.8885 l -1.2883,1.5308"
             style="fill:none;stroke:#000000;stroke-width:4;stroke-linecap:butt;stroke-linejoin:miter;stroke-miterlimit:4;stroke-dasharray:none;stroke-opacity:1"
             id="path170"
             inkscape:connector-curvature="0" /></g><path
           d="m 530.64726,428.01487 -4.66774,-19.41402 18.33173,7.91418 -9.7069,2.33392 -3.95709,9.16592 z"
           style="fill:#000000;fill-opacity:1;fill-rule:nonzero;stroke:none"
           id="path172"
           inkscape:connector-curvature="0" /><g
           id="g174"
           transform="matrix(1.0630481,0,0,1.0630481,404.85848,502.32161)"><text
             transform="scale(1,-1)"
             style="font-variant:normal;font-weight:bold;font-size:24px;font-family:'Helvetica Neue';-inkscape-font-specification:HelveticaNeue-Bold;writing-mode:lr-tb;fill:#000000;fill-opacity:1;fill-rule:nonzero;stroke:none"
             id="text176"><tspan
               sodipodi:role="line"
               id="tspan178"
               x="0"
               y="0">perform</tspan></text>
</g><g
           id="g180"
           transform="matrix(1.0630481,0,0,1.0630481,417.61506,471.49322)"><text
             transform="scale(1,-1)"
             style="font-variant:normal;font-weight:bold;font-size:24px;font-family:'Helvetica Neue';-inkscape-font-specification:HelveticaNeue-Bold;writing-mode:lr-tb;fill:#000000;fill-opacity:1;fill-rule:nonzero;stroke:none"
             id="text182"><tspan
               x="0 12.888 26.664 41.327999 55.560001"
               y="0"
               sodipodi:role="line"
               id="tspan184">segue</tspan></text>
</g><g
           id="g186"
           transform="matrix(1.0630481,0,0,1.0630481,569.63093,502.32161)"><text
             transform="scale(1,-1)"
             style="font-variant:normal;font-weight:bold;font-size:24px;font-family:'Helvetica Neue';-inkscape-font-specification:HelveticaNeue-Bold;writing-mode:lr-tb;fill:#000000;fill-opacity:1;fill-rule:nonzero;stroke:none"
             id="text188"><tspan
               sodipodi:role="line"
               id="tspan190"
               x="0"
               y="0">prepare</tspan></text>
</g><g
           id="g192"
           transform="matrix(1.0630481,0,0,1.0630481,559.00045,471.49322)"><text
             transform="scale(1,-1)"
             style="font-variant:normal;font-weight:bold;font-size:24px;font-family:'Helvetica Neue';-inkscape-font-specification:HelveticaNeue-Bold;writing-mode:lr-tb;fill:#000000;fill-opacity:1;fill-rule:nonzero;stroke:none"
             id="text194"><tspan
               x="0 7.9920001 22.656 31.992001 38.664001 51.551998 65.328003 79.991997 94.223999"
               y="0"
               sodipodi:role="line"
               id="tspan196">for segue</tspan></text>
</g><g
           id="g198"
           transform="matrix(1.0630481,0,0,-1.0630481,502.33999,561.62183)"><path
             d="M 2.424104,0 C 18.1986,34.68468 19.00154,70.86203 4.832937,108.532 l -0.768198,1.8502"
             style="fill:none;stroke:#000000;stroke-width:4;stroke-linecap:butt;stroke-linejoin:miter;stroke-miterlimit:4;stroke-dasharray:none;stroke-opacity:1"
             id="path200"
             inkscape:connector-curvature="0" /></g><path
           d="m 500.94144,453.79155 1.39855,-19.91811 15.09539,13.06975 -9.95906,-0.69928 -6.53488,7.54764 z"
           style="fill:#000000;fill-opacity:1;fill-rule:nonzero;stroke:none"
           id="path202"
           inkscape:connector-curvature="0" /></g></g></g></svg>