<?xml version="1.0" encoding="UTF-8" standalone="no"?>
<svg
   xmlns:dc="http://purl.org/dc/elements/1.1/"
   xmlns:cc="http://creativecommons.org/ns#"
   xmlns:rdf="http://www.w3.org/1999/02/22-rdf-syntax-ns#"
   xmlns:svg="http://www.w3.org/2000/svg"
   xmlns="http://www.w3.org/2000/svg"
   version="1.1"
   id="svg2"
   viewBox="0 0 350.26217 450.99063"
   height="127.27958mm"
   width="98.851768mm">
  <defs
     id="defs4">
    <marker
       orient="auto"
       refY="0"
       refX="0"
       id="marker5180"
       style="overflow:visible">
      <path
         id="path5182"
         d="M 0,0 5,-5 -12.5,0 5,5 0,0 Z"
         style="fill:#000000;fill-opacity:1;fill-rule:evenodd;stroke:#000000;stroke-width:1pt;stroke-opacity:1"
         transform="matrix(-0.8,0,0,-0.8,-10,0)" />
    </marker>
    <marker
       style="overflow:visible"
       id="Arrow1Lend"
       refX="0"
       refY="0"
       orient="auto">
      <path
         transform="matrix(-0.8,0,0,-0.8,-10,0)"
         style="fill:#000000;fill-opacity:1;fill-rule:evenodd;stroke:#000000;stroke-width:1pt;stroke-opacity:1"
         d="M 0,0 5,-5 -12.5,0 5,5 0,0 Z"
         id="path4186" />
    </marker>
    <marker
       style="overflow:visible"
       id="marker4571"
       refX="0"
       refY="0"
       orient="auto">
      <path
         transform="matrix(-0.8,0,0,-0.8,-10,0)"
         style="fill:#000000;fill-opacity:1;fill-rule:evenodd;stroke:#000000;stroke-width:1pt;stroke-opacity:1"
         d="M 0,0 5,-5 -12.5,0 5,5 0,0 Z"
         id="path4573" />
    </marker>
    <marker
       orient="auto"
       refY="0"
       refX="0"
       id="marker4529"
       style="overflow:visible">
      <path
         id="path4531"
         d="M 0,0 5,-5 -12.5,0 5,5 0,0 Z"
         style="fill:#000000;fill-opacity:1;fill-rule:evenodd;stroke:#000000;stroke-width:1pt;stroke-opacity:1"
         transform="matrix(-0.8,0,0,-0.8,-10,0)" />
    </marker>
    <marker
       style="overflow:visible"
       id="Arrow1Lstart"
       refX="0"
       refY="0"
       orient="auto">
      <path
         transform="matrix(0.8,0,0,0.8,10,0)"
         style="fill:#000000;fill-opacity:1;fill-rule:evenodd;stroke:#000000;stroke-width:1pt;stroke-opacity:1"
         d="M 0,0 5,-5 -12.5,0 5,5 0,0 Z"
         id="path4183" />
    </marker>
  </defs>
  <metadata
     id="metadata7">
    <rdf:RDF>
      <cc:Work
         rdf:about="">
        <dc:format>image/svg+xml</dc:format>
        <dc:type
           rdf:resource="http://purl.org/dc/dcmitype/StillImage" />
        <dc:title></dc:title>
      </cc:Work>
    </rdf:RDF>
  </metadata>
  <g
     transform="translate(-184.27103,-119.97359)"
     id="layer1">
    <rect
       ry="9.32693"
       rx="9.3271503"
       y="204.91476"
       x="185.02103"
       height="261.7034"
       width="348.76218"
       id="rect4142"
       style="opacity:1;fill:#e6e6e6;fill-opacity:1;stroke:#000000;stroke-width:1.5;stroke-linecap:round;stroke-linejoin:round;stroke-miterlimit:4;stroke-dasharray:none;stroke-dashoffset:0;stroke-opacity:1" />
    <rect
       ry="9.32693"
       rx="9.3271503"
       y="365.77264"
       x="211.50609"
       height="83.968819"
       width="292.9812"
       id="rect4138-2"
       style="opacity:1;fill:#ffffff;fill-opacity:1;stroke:#000000;stroke-width:1.5;stroke-linecap:round;stroke-linejoin:round;stroke-miterlimit:4;stroke-dasharray:none;stroke-dashoffset:0;stroke-opacity:1" />
    <g
       id="text4159"
       style="font-style:normal;font-variant:normal;font-weight:normal;font-stretch:normal;font-size:40px;line-height:125%;font-family:Avenir;-inkscape-font-specification:Avenir;text-align:center;letter-spacing:0px;word-spacing:0px;writing-mode:lr-tb;text-anchor:middle;fill:#000000;fill-opacity:1;stroke:none;stroke-width:1px;stroke-linecap:butt;stroke-linejoin:miter;stroke-opacity:1">
      <path
         id="path5594"
         style="font-size:20px;text-align:center;text-anchor:middle;fill:#999999"
         d="m 266.09624,134.13359 -1.44,0 0,-14.16 1.44,0 0,14.16 z" />
      <path
         id="path5596"
         style="font-size:20px;text-align:center;text-anchor:middle;fill:#999999"
         d="m 270.70967,124.77359 q 0.04,0.38 0.04,0.76 0.02,0.36 0.02,0.74 l 0.04,0 q 0.22,-0.38 0.56,-0.7 0.34,-0.32 0.76,-0.54 0.42,-0.24 0.88,-0.36 0.48,-0.14 0.94,-0.14 1.8,0 2.66,0.96 0.86,0.94 0.86,2.7 l 0,5.94 -1.32,0 0,-5.18 q 0,-1.56 -0.54,-2.38 -0.54,-0.84 -2,-0.84 -0.1,0 -0.56,0.08 -0.46,0.08 -0.98,0.44 -0.5,0.36 -0.9,1.08 -0.4,0.72 -0.4,2 l 0,4.8 -1.32,0 0,-7.3 q 0,-0.38 -0.04,-0.96 -0.02,-0.58 -0.06,-1.1 l 1.36,0 z" />
      <path
         id="path5598"
         style="font-size:20px;text-align:center;text-anchor:middle;fill:#999999"
         d="m 287.40249,126.97359 q -0.34,-0.52 -0.96,-0.88 -0.6,-0.36 -1.38,-0.36 -0.82,-0.02 -1.48,0.26 -0.64,0.28 -1.1,0.78 -0.46,0.5 -0.7,1.2 -0.24,0.68 -0.24,1.48 0,0.8 0.24,1.5 0.24,0.68 0.7,1.18 0.46,0.5 1.1,0.78 0.66,0.28 1.48,0.26 0.78,0 1.38,-0.36 0.62,-0.36 0.96,-0.88 l 1.08,0.82 q -0.7,0.82 -1.58,1.22 -0.88,0.38 -1.84,0.4 -1.14,0.02 -2.06,-0.34 -0.92,-0.38 -1.58,-1.04 -0.64,-0.66 -0.98,-1.56 -0.34,-0.92 -0.34,-1.98 0,-1.06 0.34,-1.96 0.34,-0.92 0.98,-1.58 0.66,-0.66 1.58,-1.02 0.92,-0.38 2.06,-0.36 0.96,0.02 1.84,0.42 0.88,0.38 1.58,1.2 l -1.08,0.82 z" />
      <path
         id="path5600"
         style="font-size:20px;text-align:center;text-anchor:middle;fill:#999999"
         d="m 298.25092,129.45359 q 0,-0.78 -0.26,-1.46 -0.24,-0.68 -0.7,-1.18 -0.46,-0.5 -1.12,-0.78 -0.64,-0.3 -1.46,-0.3 -0.82,0 -1.48,0.3 -0.64,0.28 -1.1,0.78 -0.44,0.5 -0.7,1.18 -0.24,0.68 -0.24,1.46 0,0.78 0.24,1.46 0.26,0.68 0.7,1.18 0.46,0.5 1.1,0.8 0.66,0.28 1.48,0.28 0.82,0 1.46,-0.28 0.66,-0.3 1.12,-0.8 0.46,-0.5 0.7,-1.18 0.26,-0.68 0.26,-1.46 z m 1.44,0 q 0,1.06 -0.38,1.96 -0.36,0.9 -1.02,1.56 -0.66,0.66 -1.58,1.04 -0.9,0.36 -2,0.36 -1.08,0 -2,-0.36 -0.9,-0.38 -1.56,-1.04 -0.66,-0.66 -1.04,-1.56 -0.36,-0.9 -0.36,-1.96 0,-1.06 0.36,-1.96 0.38,-0.9 1.04,-1.56 0.66,-0.66 1.56,-1.02 0.92,-0.38 2,-0.38 1.1,0 2,0.38 0.92,0.36 1.58,1.02 0.66,0.66 1.02,1.56 0.38,0.9 0.38,1.96 z" />
      <path
         id="path5602"
         style="font-size:20px;text-align:center;text-anchor:middle;fill:#999999"
         d="m 302.10592,126.85359 q 0,-0.52 -0.04,-1.04 -0.02,-0.52 -0.06,-1.04 l 1.42,0 0,1.42 0.04,0 q 0.48,-0.82 1.32,-1.24 0.86,-0.42 1.7,-0.42 0.38,0 0.8,0.08 0.44,0.08 0.84,0.3 0.4,0.2 0.74,0.58 0.36,0.38 0.6,0.98 0.4,-0.9 1.26,-1.42 0.88,-0.52 1.82,-0.52 1.8,0 2.66,0.96 0.86,0.94 0.86,2.7 l 0,5.94 -1.32,0 0,-5.46 q 0,-1.42 -0.5,-2.18 -0.5,-0.76 -1.86,-0.76 -0.74,0 -1.24,0.3 -0.5,0.28 -0.82,0.76 -0.3,0.48 -0.44,1.1 -0.14,0.6 -0.14,1.26 l 0,4.98 -1.32,0 0,-5.46 q 0,-1.42 -0.5,-2.18 -0.5,-0.76 -1.86,-0.76 -0.12,0 -0.56,0.08 -0.42,0.08 -0.88,0.44 -0.46,0.36 -0.84,1.08 -0.36,0.72 -0.36,2 l 0,4.8 -1.32,0 0,-7.28 z" />
      <path
         id="path5604"
         style="font-size:20px;text-align:center;text-anchor:middle;fill:#999999"
         d="m 321.05717,121.17359 q 0,0.42 -0.3,0.7 -0.3,0.26 -0.66,0.26 -0.36,0 -0.66,-0.26 -0.3,-0.28 -0.3,-0.7 0,-0.42 0.3,-0.68 0.3,-0.28 0.66,-0.28 0.36,0 0.66,0.28 0.3,0.26 0.3,0.68 z m -0.3,12.96 -1.32,0 0,-9.36 1.32,0 0,9.36 z" />
      <path
         id="path5606"
         style="font-size:20px;text-align:center;text-anchor:middle;fill:#999999"
         d="m 325.20186,124.77359 q 0.04,0.38 0.04,0.76 0.02,0.36 0.02,0.74 l 0.04,0 q 0.22,-0.38 0.56,-0.7 0.34,-0.32 0.76,-0.54 0.42,-0.24 0.88,-0.36 0.48,-0.14 0.94,-0.14 1.8,0 2.66,0.96 0.86,0.94 0.86,2.7 l 0,5.94 -1.32,0 0,-5.18 q 0,-1.56 -0.54,-2.38 -0.54,-0.84 -2,-0.84 -0.1,0 -0.56,0.08 -0.46,0.08 -0.98,0.44 -0.5,0.36 -0.9,1.08 -0.4,0.72 -0.4,2 l 0,4.8 -1.32,0 0,-7.3 q 0,-0.38 -0.04,-0.96 -0.02,-0.58 -0.06,-1.1 l 1.36,0 z" />
      <path
         id="path5608"
         style="font-size:20px;text-align:center;text-anchor:middle;fill:#999999"
         d="m 336.03467,129.33359 q 0,0.74 0.26,1.4 0.28,0.64 0.74,1.14 0.48,0.48 1.1,0.78 0.64,0.28 1.38,0.28 0.72,0 1.36,-0.26 0.66,-0.26 1.16,-0.72 0.5,-0.48 0.76,-1.14 0.28,-0.66 0.26,-1.48 0,-0.74 -0.24,-1.38 -0.24,-0.66 -0.7,-1.14 -0.46,-0.5 -1.12,-0.78 -0.66,-0.3 -1.48,-0.3 -0.74,0 -1.38,0.3 -0.62,0.28 -1.1,0.78 -0.46,0.48 -0.74,1.14 -0.26,0.64 -0.26,1.38 z m -0.24,6.68 q 0.58,0.78 1.5,1.24 0.94,0.48 2.08,0.48 1,0 1.7,-0.3 0.7,-0.28 1.12,-0.78 0.44,-0.5 0.62,-1.18 0.2,-0.66 0.2,-1.42 l 0,-1.68 -0.04,0 q -0.64,0.96 -1.56,1.36 -0.92,0.4 -1.94,0.4 -1.02,0 -1.92,-0.36 -0.88,-0.36 -1.54,-0.98 -0.66,-0.64 -1.04,-1.52 -0.38,-0.88 -0.38,-1.9 0,-1.02 0.36,-1.9 0.36,-0.88 0.98,-1.54 0.64,-0.66 1.5,-1.02 0.88,-0.38 1.92,-0.38 0.42,0 0.88,0.08 0.48,0.08 0.94,0.28 0.48,0.2 0.94,0.56 0.46,0.34 0.86,0.88 l 0.04,0 0,-1.56 1.32,0 0,9.28 q 0,0.76 -0.2,1.62 -0.18,0.86 -0.74,1.58 -0.54,0.72 -1.52,1.2 -0.98,0.48 -2.56,0.48 -1.4,0 -2.5,-0.46 -1.1,-0.46 -2,-1.42 l 0.98,-1.04 z" />
      <path
         id="path5610"
         style="font-size:20px;text-align:center;text-anchor:middle;fill:#999999"
         d="m 352.84811,126.85359 q 0,-0.52 -0.04,-1.04 -0.02,-0.52 -0.06,-1.04 l 1.42,0 0,1.42 0.04,0 q 0.48,-0.82 1.32,-1.24 0.86,-0.42 1.7,-0.42 0.38,0 0.8,0.08 0.44,0.08 0.84,0.3 0.4,0.2 0.74,0.58 0.36,0.38 0.6,0.98 0.4,-0.9 1.26,-1.42 0.88,-0.52 1.82,-0.52 1.8,0 2.66,0.96 0.86,0.94 0.86,2.7 l 0,5.94 -1.32,0 0,-5.46 q 0,-1.42 -0.5,-2.18 -0.5,-0.76 -1.86,-0.76 -0.74,0 -1.24,0.3 -0.5,0.28 -0.82,0.76 -0.3,0.48 -0.44,1.1 -0.14,0.6 -0.14,1.26 l 0,4.98 -1.32,0 0,-5.46 q 0,-1.42 -0.5,-2.18 -0.5,-0.76 -1.86,-0.76 -0.12,0 -0.56,0.08 -0.42,0.08 -0.88,0.44 -0.46,0.36 -0.84,1.08 -0.36,0.72 -0.36,2 l 0,4.8 -1.32,0 0,-7.28 z" />
      <path
         id="path5612"
         style="font-size:20px;text-align:center;text-anchor:middle;fill:#999999"
         d="m 377.15936,128.73359 q 0,-1.34 -0.8,-2.16 -0.8,-0.84 -2.24,-0.84 -0.64,0 -1.24,0.26 -0.6,0.24 -1.06,0.66 -0.44,0.42 -0.72,0.96 -0.26,0.54 -0.26,1.12 l 6.32,0 z m -6.36,1.08 q 0.06,0.7 0.34,1.32 0.28,0.62 0.74,1.08 0.46,0.44 1.06,0.7 0.6,0.26 1.3,0.26 1.06,0 1.82,-0.48 0.78,-0.5 1.18,-1.14 l 1.02,0.84 q -0.84,1.06 -1.86,1.52 -1,0.46 -2.16,0.46 -1.04,0 -1.94,-0.36 -0.88,-0.38 -1.52,-1.04 -0.64,-0.66 -1.02,-1.56 -0.36,-0.9 -0.36,-1.96 0,-1.06 0.36,-1.96 0.36,-0.9 1,-1.56 0.64,-0.66 1.5,-1.02 0.86,-0.38 1.86,-0.38 1.06,0 1.9,0.38 0.84,0.38 1.4,1.02 0.58,0.62 0.88,1.48 0.3,0.84 0.3,1.8 l 0,0.6 -7.8,0 z" />
      <path
         id="path5614"
         style="font-size:20px;text-align:center;text-anchor:middle;fill:#999999"
         d="m 385.97217,126.99359 q -0.3,-0.58 -0.8,-0.92 -0.5,-0.34 -1.22,-0.34 -0.34,0 -0.7,0.08 -0.34,0.08 -0.62,0.26 -0.28,0.16 -0.46,0.42 -0.16,0.26 -0.16,0.64 0,0.66 0.46,0.96 0.46,0.3 1.38,0.52 l 1.34,0.32 q 0.98,0.22 1.62,0.9 0.66,0.66 0.66,1.66 0,0.76 -0.32,1.32 -0.3,0.54 -0.82,0.9 -0.5,0.34 -1.16,0.5 -0.66,0.16 -1.34,0.16 -1.08,0 -2.02,-0.4 -0.92,-0.42 -1.58,-1.42 l 1.14,-0.78 q 0.4,0.64 1,1.02 0.62,0.38 1.46,0.38 0.4,0 0.8,-0.08 0.4,-0.1 0.7,-0.28 0.32,-0.2 0.5,-0.5 0.2,-0.3 0.2,-0.7 0,-0.7 -0.52,-1 -0.52,-0.32 -1.26,-0.5 l -1.28,-0.3 q -0.24,-0.06 -0.66,-0.2 -0.4,-0.14 -0.8,-0.42 -0.38,-0.28 -0.66,-0.72 -0.28,-0.46 -0.28,-1.12 0,-0.72 0.28,-1.26 0.3,-0.54 0.78,-0.88 0.5,-0.34 1.12,-0.5 0.62,-0.18 1.28,-0.18 0.98,0 1.82,0.38 0.84,0.38 1.3,1.3 l -1.18,0.78 z" />
      <path
         id="path5616"
         style="font-size:20px;text-align:center;text-anchor:middle;fill:#999999"
         d="m 394.52686,126.99359 q -0.3,-0.58 -0.8,-0.92 -0.5,-0.34 -1.22,-0.34 -0.34,0 -0.7,0.08 -0.34,0.08 -0.62,0.26 -0.28,0.16 -0.46,0.42 -0.16,0.26 -0.16,0.64 0,0.66 0.46,0.96 0.46,0.3 1.38,0.52 l 1.34,0.32 q 0.98,0.22 1.62,0.9 0.66,0.66 0.66,1.66 0,0.76 -0.32,1.32 -0.3,0.54 -0.82,0.9 -0.5,0.34 -1.16,0.5 -0.66,0.16 -1.34,0.16 -1.08,0 -2.02,-0.4 -0.92,-0.42 -1.58,-1.42 l 1.14,-0.78 q 0.4,0.64 1,1.02 0.62,0.38 1.46,0.38 0.4,0 0.8,-0.08 0.4,-0.1 0.7,-0.28 0.32,-0.2 0.5,-0.5 0.2,-0.3 0.2,-0.7 0,-0.7 -0.52,-1 -0.52,-0.32 -1.26,-0.5 l -1.28,-0.3 q -0.24,-0.06 -0.66,-0.2 -0.4,-0.14 -0.8,-0.42 -0.38,-0.28 -0.66,-0.72 -0.28,-0.46 -0.28,-1.12 0,-0.72 0.28,-1.26 0.3,-0.54 0.78,-0.88 0.5,-0.34 1.12,-0.5 0.62,-0.18 1.28,-0.18 0.98,0 1.82,0.38 0.84,0.38 1.3,1.3 l -1.18,0.78 z" />
      <path
         id="path5618"
         style="font-size:20px;text-align:center;text-anchor:middle;fill:#999999"
         d="m 403.44155,129.47359 q -0.5,0 -1.26,0.06 -0.74,0.04 -1.44,0.24 -0.68,0.18 -1.18,0.58 -0.48,0.4 -0.48,1.1 0,0.46 0.18,0.8 0.2,0.32 0.52,0.54 0.32,0.2 0.7,0.3 0.4,0.08 0.8,0.08 0.72,0 1.24,-0.24 0.54,-0.24 0.9,-0.64 0.36,-0.42 0.52,-0.96 0.18,-0.56 0.18,-1.18 l 0,-0.68 -0.68,0 z m 0.68,-1.08 0,-0.24 q 0,-2.42 -2.4,-2.42 -1.64,0 -2.86,1.1 l -0.8,-0.94 q 1.32,-1.36 3.96,-1.36 0.68,0 1.3,0.2 0.64,0.2 1.1,0.62 0.46,0.4 0.74,1.02 0.28,0.62 0.28,1.48 l 0,4.18 q 0,0.54 0.04,1.14 0.06,0.58 0.12,0.96 l -1.28,0 q -0.06,-0.34 -0.1,-0.74 -0.02,-0.4 -0.02,-0.78 l -0.04,0 q -0.58,0.94 -1.38,1.36 -0.78,0.4 -1.92,0.4 -0.62,0 -1.2,-0.18 -0.58,-0.16 -1.04,-0.5 -0.44,-0.36 -0.72,-0.86 -0.26,-0.52 -0.26,-1.2 0,-1.14 0.58,-1.78 0.6,-0.66 1.48,-0.98 0.9,-0.32 1.9,-0.4 1.02,-0.08 1.86,-0.08 l 0.66,0 z" />
      <path
         id="path5620"
         style="font-size:20px;text-align:center;text-anchor:middle;fill:#999999"
         d="m 409.47217,129.33359 q 0,0.74 0.26,1.4 0.28,0.64 0.74,1.14 0.48,0.48 1.1,0.78 0.64,0.28 1.38,0.28 0.72,0 1.36,-0.26 0.66,-0.26 1.16,-0.72 0.5,-0.48 0.76,-1.14 0.28,-0.66 0.26,-1.48 0,-0.74 -0.24,-1.38 -0.24,-0.66 -0.7,-1.14 -0.46,-0.5 -1.12,-0.78 -0.66,-0.3 -1.48,-0.3 -0.74,0 -1.38,0.3 -0.62,0.28 -1.1,0.78 -0.46,0.48 -0.74,1.14 -0.26,0.64 -0.26,1.38 z m -0.24,6.68 q 0.58,0.78 1.5,1.24 0.94,0.48 2.08,0.48 1,0 1.7,-0.3 0.7,-0.28 1.12,-0.78 0.44,-0.5 0.62,-1.18 0.2,-0.66 0.2,-1.42 l 0,-1.68 -0.04,0 q -0.64,0.96 -1.56,1.36 -0.92,0.4 -1.94,0.4 -1.02,0 -1.92,-0.36 -0.88,-0.36 -1.54,-0.98 -0.66,-0.64 -1.04,-1.52 -0.38,-0.88 -0.38,-1.9 0,-1.02 0.36,-1.9 0.36,-0.88 0.98,-1.54 0.64,-0.66 1.5,-1.02 0.88,-0.38 1.92,-0.38 0.42,0 0.88,0.08 0.48,0.08 0.94,0.28 0.48,0.2 0.94,0.56 0.46,0.34 0.86,0.88 l 0.04,0 0,-1.56 1.32,0 0,9.28 q 0,0.76 -0.2,1.62 -0.18,0.86 -0.74,1.58 -0.54,0.72 -1.52,1.2 -0.98,0.48 -2.56,0.48 -1.4,0 -2.5,-0.46 -1.1,-0.46 -2,-1.42 l 0.98,-1.04 z" />
      <path
         id="path5622"
         style="font-size:20px;text-align:center;text-anchor:middle;fill:#999999"
         d="m 428.01874,128.73359 q 0,-1.34 -0.8,-2.16 -0.8,-0.84 -2.24,-0.84 -0.64,0 -1.24,0.26 -0.6,0.24 -1.06,0.66 -0.44,0.42 -0.72,0.96 -0.26,0.54 -0.26,1.12 l 6.32,0 z m -6.36,1.08 q 0.06,0.7 0.34,1.32 0.28,0.62 0.74,1.08 0.46,0.44 1.06,0.7 0.6,0.26 1.3,0.26 1.06,0 1.82,-0.48 0.78,-0.5 1.18,-1.14 l 1.02,0.84 q -0.84,1.06 -1.86,1.52 -1,0.46 -2.16,0.46 -1.04,0 -1.94,-0.36 -0.88,-0.38 -1.52,-1.04 -0.64,-0.66 -1.02,-1.56 -0.36,-0.9 -0.36,-1.96 0,-1.06 0.36,-1.96 0.36,-0.9 1,-1.56 0.64,-0.66 1.5,-1.02 0.86,-0.38 1.86,-0.38 1.06,0 1.9,0.38 0.84,0.38 1.4,1.02 0.58,0.62 0.88,1.48 0.3,0.84 0.3,1.8 l 0,0.6 -7.8,0 z" />
      <path
         id="path5624"
         style="font-size:20px;text-align:center;text-anchor:middle;fill:#999999"
         d="m 436.83155,126.99359 q -0.3,-0.58 -0.8,-0.92 -0.5,-0.34 -1.22,-0.34 -0.34,0 -0.7,0.08 -0.34,0.08 -0.62,0.26 -0.28,0.16 -0.46,0.42 -0.16,0.26 -0.16,0.64 0,0.66 0.46,0.96 0.46,0.3 1.38,0.52 l 1.34,0.32 q 0.98,0.22 1.62,0.9 0.66,0.66 0.66,1.66 0,0.76 -0.32,1.32 -0.3,0.54 -0.82,0.9 -0.5,0.34 -1.16,0.5 -0.66,0.16 -1.34,0.16 -1.08,0 -2.02,-0.4 -0.92,-0.42 -1.58,-1.42 l 1.14,-0.78 q 0.4,0.64 1,1.02 0.62,0.38 1.46,0.38 0.4,0 0.8,-0.08 0.4,-0.1 0.7,-0.28 0.32,-0.2 0.5,-0.5 0.2,-0.3 0.2,-0.7 0,-0.7 -0.52,-1 -0.52,-0.32 -1.26,-0.5 l -1.28,-0.3 q -0.24,-0.06 -0.66,-0.2 -0.4,-0.14 -0.8,-0.42 -0.38,-0.28 -0.66,-0.72 -0.28,-0.46 -0.28,-1.12 0,-0.72 0.28,-1.26 0.3,-0.54 0.78,-0.88 0.5,-0.34 1.12,-0.5 0.62,-0.18 1.28,-0.18 0.98,0 1.82,0.38 0.84,0.38 1.3,1.3 l -1.18,0.78 z" />
      <path
         id="path5626"
         style="font-size:20px;text-align:center;text-anchor:middle"
         d="m 317.25503,154.47359 q -0.5,0 -1.26,0.06 -0.74,0.04 -1.44,0.24 -0.68,0.18 -1.18,0.58 -0.48,0.4 -0.48,1.1 0,0.46 0.18,0.8 0.2,0.32 0.52,0.54 0.32,0.2 0.7,0.3 0.4,0.08 0.8,0.08 0.72,0 1.24,-0.24 0.54,-0.24 0.9,-0.64 0.36,-0.42 0.52,-0.96 0.18,-0.56 0.18,-1.18 l 0,-0.68 -0.68,0 z m 0.68,-1.08 0,-0.24 q 0,-2.42 -2.4,-2.42 -1.64,0 -2.86,1.1 l -0.8,-0.94 q 1.32,-1.36 3.96,-1.36 0.68,0 1.3,0.2 0.64,0.2 1.1,0.62 0.46,0.4 0.74,1.02 0.28,0.62 0.28,1.48 l 0,4.18 q 0,0.54 0.04,1.14 0.06,0.58 0.12,0.96 l -1.28,0 q -0.06,-0.34 -0.1,-0.74 -0.02,-0.4 -0.02,-0.78 l -0.04,0 q -0.58,0.94 -1.38,1.36 -0.78,0.4 -1.92,0.4 -0.62,0 -1.2,-0.18 -0.58,-0.16 -1.04,-0.5 -0.44,-0.36 -0.72,-0.86 -0.26,-0.52 -0.26,-1.2 0,-1.14 0.58,-1.78 0.6,-0.66 1.48,-0.98 0.9,-0.32 1.9,-0.4 1.02,-0.08 1.86,-0.08 l 0.66,0 z" />
      <path
         id="path5628"
         style="font-size:64.99999762%;baseline-shift:sub"
         d="m 325.40965,163.13359 -0.936,0 0,-8.034 -1.651,1.456 -0.585,-0.702 2.34,-1.924 0.832,0 0,9.204 z" />
      <path
         id="path5630"
         style="font-size:20px;text-align:center;text-anchor:middle"
         d="m 330.76198,161.93359 -1.34,0 1.34,-4.7 1.62,0 -1.62,4.7 z" />
      <path
         id="path5632"
         style="font-size:20px;text-align:center;text-anchor:middle"
         d="m 345.97573,154.47359 q -0.5,0 -1.26,0.06 -0.74,0.04 -1.44,0.24 -0.68,0.18 -1.18,0.58 -0.48,0.4 -0.48,1.1 0,0.46 0.18,0.8 0.2,0.32 0.52,0.54 0.32,0.2 0.7,0.3 0.4,0.08 0.8,0.08 0.72,0 1.24,-0.24 0.54,-0.24 0.9,-0.64 0.36,-0.42 0.52,-0.96 0.18,-0.56 0.18,-1.18 l 0,-0.68 -0.68,0 z m 0.68,-1.08 0,-0.24 q 0,-2.42 -2.4,-2.42 -1.64,0 -2.86,1.1 l -0.8,-0.94 q 1.32,-1.36 3.96,-1.36 0.68,0 1.3,0.2 0.64,0.2 1.1,0.62 0.46,0.4 0.74,1.02 0.28,0.62 0.28,1.48 l 0,4.18 q 0,0.54 0.04,1.14 0.06,0.58 0.12,0.96 l -1.28,0 q -0.06,-0.34 -0.1,-0.74 -0.02,-0.4 -0.02,-0.78 l -0.04,0 q -0.58,0.94 -1.38,1.36 -0.78,0.4 -1.92,0.4 -0.62,0 -1.2,-0.18 -0.58,-0.16 -1.04,-0.5 -0.44,-0.36 -0.72,-0.86 -0.26,-0.52 -0.26,-1.2 0,-1.14 0.58,-1.78 0.6,-0.66 1.48,-0.98 0.9,-0.32 1.9,-0.4 1.02,-0.08 1.86,-0.08 l 0.66,0 z" />
      <path
         id="path5634"
         style="font-size:64.99999762%;baseline-shift:sub"
         d="m 356.08035,163.13359 -5.85,0 0,-1.079 3.666,-3.731 q 0.208,-0.208 0.416,-0.442 0.208,-0.234 0.377,-0.494 0.169,-0.26 0.273,-0.546 0.104,-0.286 0.104,-0.598 0,-0.377 -0.143,-0.676 -0.13,-0.299 -0.377,-0.507 -0.247,-0.208 -0.572,-0.312 -0.325,-0.117 -0.689,-0.117 -0.702,0 -1.196,0.39 -0.494,0.39 -0.637,1.053 l -0.988,-0.104 q 0.195,-1.027 0.936,-1.612 0.754,-0.585 1.82,-0.585 0.559,0 1.053,0.156 0.507,0.143 0.884,0.442 0.39,0.299 0.611,0.754 0.234,0.442 0.234,1.04 0,0.533 -0.169,0.975 -0.156,0.442 -0.416,0.832 -0.26,0.39 -0.598,0.741 -0.325,0.351 -0.676,0.689 l -2.899,2.873 4.836,0 0,0.858 z" />
      <path
         id="path5636"
         style="font-size:20px;text-align:center;text-anchor:middle"
         d="m 360.70268,158.17359 q 0,0.42 -0.3,0.76 -0.3,0.32 -0.78,0.32 -0.48,0 -0.78,-0.32 -0.3,-0.34 -0.3,-0.76 0,-0.42 0.3,-0.74 0.3,-0.34 0.78,-0.34 0.48,0 0.78,0.34 0.3,0.32 0.3,0.74 z" />
      <path
         id="path5638"
         style="font-size:20px;text-align:center;text-anchor:middle"
         d="m 366.28862,158.17359 q 0,0.42 -0.3,0.76 -0.3,0.32 -0.78,0.32 -0.48,0 -0.78,-0.32 -0.3,-0.34 -0.3,-0.76 0,-0.42 0.3,-0.74 0.3,-0.34 0.78,-0.34 0.48,0 0.78,0.34 0.3,0.32 0.3,0.74 z" />
      <path
         id="path5640"
         style="font-size:20px;text-align:center;text-anchor:middle"
         d="m 371.87456,158.17359 q 0,0.42 -0.3,0.76 -0.3,0.32 -0.78,0.32 -0.48,0 -0.78,-0.32 -0.3,-0.34 -0.3,-0.76 0,-0.42 0.3,-0.74 0.3,-0.34 0.78,-0.34 0.48,0 0.78,0.34 0.3,0.32 0.3,0.74 z" />
      <path
         id="path5642"
         style="font-size:20px;text-align:center;text-anchor:middle"
         d="m 380.36049,154.47359 q -0.5,0 -1.26,0.06 -0.74,0.04 -1.44,0.24 -0.68,0.18 -1.18,0.58 -0.48,0.4 -0.48,1.1 0,0.46 0.18,0.8 0.2,0.32 0.52,0.54 0.32,0.2 0.7,0.3 0.4,0.08 0.8,0.08 0.72,0 1.24,-0.24 0.54,-0.24 0.9,-0.64 0.36,-0.42 0.52,-0.96 0.18,-0.56 0.18,-1.18 l 0,-0.68 -0.68,0 z m 0.68,-1.08 0,-0.24 q 0,-2.42 -2.4,-2.42 -1.64,0 -2.86,1.1 l -0.8,-0.94 q 1.32,-1.36 3.96,-1.36 0.68,0 1.3,0.2 0.64,0.2 1.1,0.62 0.46,0.4 0.74,1.02 0.28,0.62 0.28,1.48 l 0,4.18 q 0,0.54 0.04,1.14 0.06,0.58 0.12,0.96 l -1.28,0 q -0.06,-0.34 -0.1,-0.74 -0.02,-0.4 -0.02,-0.78 l -0.04,0 q -0.58,0.94 -1.38,1.36 -0.78,0.4 -1.92,0.4 -0.62,0 -1.2,-0.18 -0.58,-0.16 -1.04,-0.5 -0.44,-0.36 -0.72,-0.86 -0.26,-0.52 -0.26,-1.2 0,-1.14 0.58,-1.78 0.6,-0.66 1.48,-0.98 0.9,-0.32 1.9,-0.4 1.02,-0.08 1.86,-0.08 l 0.66,0 z" />
      <path
         id="path5644"
         style="font-size:64.99999762%;baseline-shift:sub"
         d="m 385.74612,157.04959 q 0.026,0.247 0.026,0.494 0.013,0.234 0.013,0.481 l 0.026,0 q 0.143,-0.247 0.364,-0.455 0.221,-0.208 0.494,-0.351 0.273,-0.156 0.572,-0.234 0.312,-0.091 0.611,-0.091 1.17,0 1.729,0.624 0.559,0.611 0.559,1.755 l 0,3.861 -0.858,0 0,-3.367 q 0,-1.014 -0.351,-1.547 -0.351,-0.546 -1.3,-0.546 -0.065,0 -0.364,0.052 -0.299,0.052 -0.637,0.286 -0.325,0.234 -0.585,0.702 -0.26,0.468 -0.26,1.3 l 0,3.12 -0.858,0 0,-4.745 q 0,-0.247 -0.026,-0.624 -0.013,-0.377 -0.039,-0.715 l 0.884,0 z" />
    </g>
    <rect
       ry="9.32693"
       rx="9.3271503"
       y="259.39246"
       x="211.12189"
       height="76.771614"
       width="290.92389"
       id="rect4167"
       style="opacity:1;fill:#ffffff;fill-opacity:1;stroke:#000000;stroke-width:1.5;stroke-linecap:round;stroke-linejoin:round;stroke-miterlimit:4;stroke-dasharray:none;stroke-dashoffset:0;stroke-opacity:1" />
    <g
       id="text4169"
       style="font-style:normal;font-variant:normal;font-weight:normal;font-stretch:normal;font-size:40px;line-height:125%;font-family:Avenir;-inkscape-font-specification:Avenir;text-align:start;letter-spacing:0px;word-spacing:0px;writing-mode:lr-tb;text-anchor:start;fill:#000000;fill-opacity:1;stroke:none;stroke-width:1px;stroke-linecap:butt;stroke-linejoin:miter;stroke-opacity:1">
      <path
         id="path5680"
         style="font-size:20px"
         d="m 260.43874,306.92038 -3.4,-4.36 1.8,0 2.6,3.5 2.48,-3.5 1.64,0 -3.26,4.36 3.92,5 -1.8,0 -3.14,-4.1 -3.02,4.1 -1.68,0 3.86,-5 z" />
      <path
         id="path5682"
         style="font-size:64.99999762%;baseline-shift:sub"
         d="m 269.84117,307.41838 q -0.754,0 -1.196,0.403 -0.429,0.403 -0.65,1.001 -0.221,0.598 -0.286,1.274 -0.052,0.676 -0.052,1.222 0,0.546 0.052,1.222 0.065,0.676 0.286,1.274 0.221,0.598 0.65,1.001 0.442,0.403 1.196,0.403 0.754,0 1.183,-0.403 0.442,-0.403 0.663,-1.001 0.221,-0.598 0.273,-1.274 0.065,-0.676 0.065,-1.222 0,-0.546 -0.065,-1.222 -0.052,-0.676 -0.273,-1.274 -0.221,-0.598 -0.663,-1.001 -0.429,-0.403 -1.183,-0.403 z m 0,-0.858 q 0.988,0 1.599,0.455 0.611,0.455 0.949,1.157 0.338,0.702 0.455,1.547 0.117,0.832 0.117,1.599 0,0.767 -0.117,1.612 -0.117,0.832 -0.455,1.534 -0.338,0.702 -0.949,1.157 -0.611,0.455 -1.599,0.455 -0.988,0 -1.599,-0.455 -0.611,-0.455 -0.949,-1.157 -0.338,-0.702 -0.455,-1.534 -0.117,-0.845 -0.117,-1.612 0,-0.767 0.117,-1.599 0.117,-0.845 0.455,-1.547 0.338,-0.702 0.949,-1.157 0.611,-0.455 1.599,-0.455 z" />
      <path
         id="path5684"
         style="font-size:20px"
         d="m 290.77038,306.76038 0,1.2 -10.2,0 0,-1.2 10.2,0 z m 0,-3 0,1.2 -10.2,0 0,-1.2 10.2,0 z" />
      <path
         id="path5686"
         style="font-size:20px"
         d="m 306.13756,304.76038 q -0.34,-0.52 -0.96,-0.88 -0.6,-0.36 -1.38,-0.36 -0.82,-0.02 -1.48,0.26 -0.64,0.28 -1.1,0.78 -0.46,0.5 -0.7,1.2 -0.24,0.68 -0.24,1.48 0,0.8 0.24,1.5 0.24,0.68 0.7,1.18 0.46,0.5 1.1,0.78 0.66,0.28 1.48,0.26 0.78,0 1.38,-0.36 0.62,-0.36 0.96,-0.88 l 1.08,0.82 q -0.7,0.82 -1.58,1.22 -0.88,0.38 -1.84,0.4 -1.14,0.02 -2.06,-0.34 -0.92,-0.38 -1.58,-1.04 -0.64,-0.66 -0.98,-1.56 -0.34,-0.92 -0.34,-1.98 0,-1.06 0.34,-1.96 0.34,-0.92 0.98,-1.58 0.66,-0.66 1.58,-1.02 0.92,-0.38 2.06,-0.36 0.96,0.02 1.84,0.42 0.88,0.38 1.58,1.2 l -1.08,0.82 z" />
      <path
         id="path5688"
         style="font-size:20px"
         d="m 321.25975,314.72038 -1.34,0 1.34,-4.7 1.62,0 -1.62,4.7 z" />
      <path
         id="path5690"
         style="font-size:20px"
         d="m 339.12038,306.92038 -3.4,-4.36 1.8,0 2.6,3.5 2.48,-3.5 1.64,0 -3.26,4.36 3.92,5 -1.8,0 -3.14,-4.1 -3.02,4.1 -1.68,0 3.86,-5 z" />
      <path
         id="path5692"
         style="font-size:64.99999762%;baseline-shift:sub"
         d="m 346.66381,309.83638 q 0.026,0.247 0.026,0.494 0.013,0.234 0.013,0.481 l 0.026,0 q 0.143,-0.247 0.364,-0.455 0.221,-0.208 0.494,-0.351 0.273,-0.156 0.572,-0.234 0.312,-0.091 0.611,-0.091 1.17,0 1.729,0.624 0.559,0.611 0.559,1.755 l 0,3.861 -0.858,0 0,-3.367 q 0,-1.014 -0.351,-1.547 -0.351,-0.546 -1.3,-0.546 -0.065,0 -0.364,0.052 -0.299,0.052 -0.637,0.286 -0.325,0.234 -0.585,0.702 -0.26,0.468 -0.26,1.3 l 0,3.12 -0.858,0 0,-4.745 q 0,-0.247 -0.026,-0.624 -0.013,-0.377 -0.039,-0.715 l 0.884,0 z" />
      <path
         id="path5694"
         style="font-size:20px"
         d="m 369.45202,306.76038 0,1.2 -10.2,0 0,-1.2 10.2,0 z m 0,-3 0,1.2 -10.2,0 0,-1.2 10.2,0 z" />
      <path
         id="path5696"
         style="font-size:20px"
         d="m 382.3592,303.76038 -2.22,0 0,8.16 -1.32,0 0,-8.16 -1.98,0 0,-1.2 1.98,0 0,-2.56 q 0,-1.86 0.86,-2.64 0.86,-0.8 2.28,-0.8 0.28,0 0.56,0.04 0.3,0.04 0.58,0.1 l -0.24,1.2 q -0.24,-0.06 -0.5,-0.1 -0.26,-0.04 -0.52,-0.04 -0.54,0 -0.88,0.18 -0.34,0.18 -0.52,0.52 -0.18,0.32 -0.24,0.76 -0.06,0.44 -0.06,0.94 l 0,2.4 2.22,0 0,1.2 z" />
      <path
         id="path5698"
         style="font-size:20px"
         d="m 387.49764,297.88038 q -0.64,1.02 -1.14,1.98 -0.48,0.96 -0.82,1.96 -0.34,0.98 -0.52,2.04 -0.16,1.06 -0.16,2.3 0,1.24 0.16,2.28 0.18,1.04 0.5,2 0.32,0.96 0.8,1.9 0.48,0.94 1.1,1.98 l -1.06,0.8 q -1.34,-1.88 -2.08,-4.2 -0.74,-2.32 -0.74,-4.76 0,-2.32 0.72,-4.66 0.74,-2.34 2.18,-4.3 l 1.06,0.68 z" />
      <path
         id="path5700"
         style="font-size:20px"
         d="m 391.55202,306.92038 -3.4,-4.36 1.8,0 2.6,3.5 2.48,-3.5 1.64,0 -3.26,4.36 3.92,5 -1.8,0 -3.14,-4.1 -3.02,4.1 -1.68,0 3.86,-5 z" />
      <path
         id="path5702"
         style="font-size:64.99999762%;baseline-shift:sub"
         d="m 399.09545,309.83638 q 0.026,0.247 0.026,0.494 0.013,0.234 0.013,0.481 l 0.026,0 q 0.143,-0.247 0.364,-0.455 0.221,-0.208 0.494,-0.351 0.273,-0.156 0.572,-0.234 0.312,-0.091 0.611,-0.091 1.17,0 1.729,0.624 0.559,0.611 0.559,1.755 l 0,3.861 -0.858,0 0,-3.367 q 0,-1.014 -0.351,-1.547 -0.351,-0.546 -1.3,-0.546 -0.065,0 -0.364,0.052 -0.299,0.052 -0.637,0.286 -0.325,0.234 -0.585,0.702 -0.26,0.468 -0.26,1.3 l 0,3.12 -0.858,0 0,-4.745 q 0,-0.247 -0.026,-0.624 -0.013,-0.377 -0.039,-0.715 l 0.884,0 z" />
      <path
         id="path5704"
         style="font-size:64.99999762%;baseline-shift:sub"
         d="m 408.41178,313.22938 -3.341,0 0,-0.858 3.341,0 0,0.858 z" />
      <path
         id="path5706"
         style="font-size:64.99999762%;baseline-shift:sub"
         d="m 413.41719,315.92038 -0.936,0 0,-8.034 -1.651,1.456 -0.585,-0.702 2.34,-1.924 0.832,0 0,9.204 z" />
      <path
         id="path5708"
         style="font-size:20px"
         d="m 418.76952,314.72038 -1.34,0 1.34,-4.7 1.62,0 -1.62,4.7 z" />
      <path
         id="path5710"
         style="font-size:20px"
         d="m 433.98327,307.26038 q -0.5,0 -1.26,0.06 -0.74,0.04 -1.44,0.24 -0.68,0.18 -1.18,0.58 -0.48,0.4 -0.48,1.1 0,0.46 0.18,0.8 0.2,0.32 0.52,0.54 0.32,0.2 0.7,0.3 0.4,0.08 0.8,0.08 0.72,0 1.24,-0.24 0.54,-0.24 0.9,-0.64 0.36,-0.42 0.52,-0.96 0.18,-0.56 0.18,-1.18 l 0,-0.68 -0.68,0 z m 0.68,-1.08 0,-0.24 q 0,-2.42 -2.4,-2.42 -1.64,0 -2.86,1.1 l -0.8,-0.94 q 1.32,-1.36 3.96,-1.36 0.68,0 1.3,0.2 0.64,0.2 1.1,0.62 0.46,0.4 0.74,1.02 0.28,0.62 0.28,1.48 l 0,4.18 q 0,0.54 0.04,1.14 0.06,0.58 0.12,0.96 l -1.28,0 q -0.06,-0.34 -0.1,-0.74 -0.02,-0.4 -0.02,-0.78 l -0.04,0 q -0.58,0.94 -1.38,1.36 -0.78,0.4 -1.92,0.4 -0.62,0 -1.2,-0.18 -0.58,-0.16 -1.04,-0.5 -0.44,-0.36 -0.72,-0.86 -0.26,-0.52 -0.26,-1.2 0,-1.14 0.58,-1.78 0.6,-0.66 1.48,-0.98 0.9,-0.32 1.9,-0.4 1.02,-0.08 1.86,-0.08 l 0.66,0 z" />
      <path
         id="path5712"
         style="font-size:64.99999762%;baseline-shift:sub"
         d="m 439.36889,309.83638 q 0.026,0.247 0.026,0.494 0.013,0.234 0.013,0.481 l 0.026,0 q 0.143,-0.247 0.364,-0.455 0.221,-0.208 0.494,-0.351 0.273,-0.156 0.572,-0.234 0.312,-0.091 0.611,-0.091 1.17,0 1.729,0.624 0.559,0.611 0.559,1.755 l 0,3.861 -0.858,0 0,-3.367 q 0,-1.014 -0.351,-1.547 -0.351,-0.546 -1.3,-0.546 -0.065,0 -0.364,0.052 -0.299,0.052 -0.637,0.286 -0.325,0.234 -0.585,0.702 -0.26,0.468 -0.26,1.3 l 0,3.12 -0.858,0 0,-4.745 q 0,-0.247 -0.026,-0.624 -0.013,-0.377 -0.039,-0.715 l 0.884,0 z" />
      <path
         id="path5714"
         style="font-size:20px"
         d="m 445.01022,314.44038 q 0.64,-1.02 1.12,-1.98 0.5,-0.96 0.84,-1.94 0.34,-1 0.5,-2.06 0.18,-1.06 0.18,-2.3 0,-1.24 -0.18,-2.28 -0.16,-1.04 -0.48,-2 -0.32,-0.96 -0.8,-1.9 -0.48,-0.94 -1.1,-1.98 l 1.06,-0.8 q 1.34,1.88 2.08,4.2 0.74,2.32 0.74,4.76 0,2.32 -0.74,4.66 -0.72,2.34 -2.16,4.3 l -1.06,-0.68 z" />
    </g>
    <text
       id="text4511"
       y="389.70212"
       x="226.27417"
       style="font-style:normal;font-variant:normal;font-weight:normal;font-stretch:normal;font-size:20px;line-height:125%;font-family:Avenir;-inkscape-font-specification:Avenir;text-align:start;letter-spacing:0px;word-spacing:0px;writing-mode:lr-tb;text-anchor:start;fill:#000000;fill-opacity:1;stroke:none;stroke-width:1px;stroke-linecap:butt;stroke-linejoin:miter;stroke-opacity:1"
       xml:space="preserve"><tspan
         y="389.70212"
         x="226.27417"
         id="tspan4513" /></text>
    <g
       id="text4515"
       style="font-style:normal;font-variant:normal;font-weight:normal;font-stretch:normal;font-size:20px;line-height:125%;font-family:Avenir;-inkscape-font-specification:Avenir;text-align:center;letter-spacing:0px;word-spacing:0px;writing-mode:lr-tb;text-anchor:middle;fill:#000000;fill-opacity:1;stroke:none;stroke-width:1px;stroke-linecap:butt;stroke-linejoin:miter;stroke-opacity:1">
      <path
         id="path5748"
         style="fill:#999999"
         d="m 238.15765,391.27414 q -0.72,-0.76 -1.72,-1.2 -1,-0.44 -2.32,-0.44 -1.36,0 -2.44,0.5 -1.08,0.5 -1.84,1.34 -0.74,0.84 -1.14,1.96 -0.4,1.1 -0.4,2.32 0,1.22 0.4,2.34 0.4,1.1 1.14,1.94 0.76,0.84 1.84,1.34 1.08,0.5 2.44,0.5 1.1,0 2.1,-0.26 1.02,-0.28 1.82,-0.74 l 0,-4.74 -3.38,0 0,-1.32 4.82,0 0,6.94 q -1.2,0.7 -2.64,1.08 -1.42,0.36 -2.72,0.36 -1.58,0 -2.94,-0.56 -1.34,-0.56 -2.34,-1.54 -0.98,-1 -1.54,-2.36 -0.56,-1.36 -0.56,-2.98 0,-1.62 0.56,-2.98 0.56,-1.36 1.54,-2.34 1,-1 2.34,-1.56 1.36,-0.56 2.94,-0.56 1.7,0 2.92,0.48 1.24,0.46 2.2,1.42 l -1.08,1.06 z" />
      <path
         id="path5750"
         style="fill:#999999"
         d="m 250.08359,397.43414 q 0,-1.34 -0.8,-2.16 -0.8,-0.84 -2.24,-0.84 -0.64,0 -1.24,0.26 -0.6,0.24 -1.06,0.66 -0.44,0.42 -0.72,0.96 -0.26,0.54 -0.26,1.12 l 6.32,0 z m -6.36,1.08 q 0.06,0.7 0.34,1.32 0.28,0.62 0.74,1.08 0.46,0.44 1.06,0.7 0.6,0.26 1.3,0.26 1.06,0 1.82,-0.48 0.78,-0.5 1.18,-1.14 l 1.02,0.84 q -0.84,1.06 -1.86,1.52 -1,0.46 -2.16,0.46 -1.04,0 -1.94,-0.36 -0.88,-0.38 -1.52,-1.04 -0.64,-0.66 -1.02,-1.56 -0.36,-0.9 -0.36,-1.96 0,-1.06 0.36,-1.96 0.36,-0.9 1,-1.56 0.64,-0.66 1.5,-1.02 0.86,-0.38 1.86,-0.38 1.06,0 1.9,0.38 0.84,0.38 1.4,1.02 0.58,0.62 0.88,1.48 0.3,0.84 0.3,1.8 l 0,0.6 -7.8,0 z" />
      <path
         id="path5752"
         style="fill:#999999"
         d="m 255.1964,393.47414 q 0.04,0.38 0.04,0.76 0.02,0.36 0.02,0.74 l 0.04,0 q 0.22,-0.38 0.56,-0.7 0.34,-0.32 0.76,-0.54 0.42,-0.24 0.88,-0.36 0.48,-0.14 0.94,-0.14 1.8,0 2.66,0.96 0.86,0.94 0.86,2.7 l 0,5.94 -1.32,0 0,-5.18 q 0,-1.56 -0.54,-2.38 -0.54,-0.84 -2,-0.84 -0.1,0 -0.56,0.08 -0.46,0.08 -0.98,0.44 -0.5,0.36 -0.9,1.08 -0.4,0.72 -0.4,2 l 0,4.8 -1.32,0 0,-7.3 q 0,-0.38 -0.04,-0.96 -0.02,-0.58 -0.06,-1.1 l 1.36,0 z" />
      <path
         id="path5754"
         style="fill:#999999"
         d="m 272.34921,397.43414 q 0,-1.34 -0.8,-2.16 -0.8,-0.84 -2.24,-0.84 -0.64,0 -1.24,0.26 -0.6,0.24 -1.06,0.66 -0.44,0.42 -0.72,0.96 -0.26,0.54 -0.26,1.12 l 6.32,0 z m -6.36,1.08 q 0.06,0.7 0.34,1.32 0.28,0.62 0.74,1.08 0.46,0.44 1.06,0.7 0.6,0.26 1.3,0.26 1.06,0 1.82,-0.48 0.78,-0.5 1.18,-1.14 l 1.02,0.84 q -0.84,1.06 -1.86,1.52 -1,0.46 -2.16,0.46 -1.04,0 -1.94,-0.36 -0.88,-0.38 -1.52,-1.04 -0.64,-0.66 -1.02,-1.56 -0.36,-0.9 -0.36,-1.96 0,-1.06 0.36,-1.96 0.36,-0.9 1,-1.56 0.64,-0.66 1.5,-1.02 0.86,-0.38 1.86,-0.38 1.06,0 1.9,0.38 0.84,0.38 1.4,1.02 0.58,0.62 0.88,1.48 0.3,0.84 0.3,1.8 l 0,0.6 -7.8,0 z" />
      <path
         id="path5756"
         style="fill:#999999"
         d="m 276.34202,396.39414 q 0,-0.62 -0.04,-1.26 -0.02,-0.64 -0.04,-1.66 l 1.3,0 0,1.74 0.04,0 q 0.14,-0.38 0.4,-0.72 0.26,-0.36 0.62,-0.64 0.38,-0.28 0.86,-0.44 0.5,-0.18 1.12,-0.18 0.56,0 0.98,0.12 l -0.26,1.3 q -0.26,-0.1 -0.76,-0.1 -0.76,0 -1.3,0.3 -0.54,0.28 -0.9,0.74 -0.36,0.44 -0.54,0.96 -0.16,0.52 -0.16,1 l 0,5.28 -1.32,0 0,-6.44 z" />
      <path
         id="path5758"
         style="fill:#999999"
         d="m 288.16265,398.17414 q -0.5,0 -1.26,0.06 -0.74,0.04 -1.44,0.24 -0.68,0.18 -1.18,0.58 -0.48,0.4 -0.48,1.1 0,0.46 0.18,0.8 0.2,0.32 0.52,0.54 0.32,0.2 0.7,0.3 0.4,0.08 0.8,0.08 0.72,0 1.24,-0.24 0.54,-0.24 0.9,-0.64 0.36,-0.42 0.52,-0.96 0.18,-0.56 0.18,-1.18 l 0,-0.68 -0.68,0 z m 0.68,-1.08 0,-0.24 q 0,-2.42 -2.4,-2.42 -1.64,0 -2.86,1.1 l -0.8,-0.94 q 1.32,-1.36 3.96,-1.36 0.68,0 1.3,0.2 0.64,0.2 1.1,0.62 0.46,0.4 0.74,1.02 0.28,0.62 0.28,1.48 l 0,4.18 q 0,0.54 0.04,1.14 0.06,0.58 0.12,0.96 l -1.28,0 q -0.06,-0.34 -0.1,-0.74 -0.02,-0.4 -0.02,-0.78 l -0.04,0 q -0.58,0.94 -1.38,1.36 -0.78,0.4 -1.92,0.4 -0.62,0 -1.2,-0.18 -0.58,-0.16 -1.04,-0.5 -0.44,-0.36 -0.72,-0.86 -0.26,-0.52 -0.26,-1.2 0,-1.14 0.58,-1.78 0.6,-0.66 1.48,-0.98 0.9,-0.32 1.9,-0.4 1.02,-0.08 1.86,-0.08 l 0.66,0 z" />
      <path
         id="path5760"
         style="fill:#999999"
         d="m 298.07327,394.67414 -2.7,0 0,5.52 q 0,0.52 0.1,0.86 0.1,0.32 0.28,0.5 0.18,0.18 0.42,0.26 0.26,0.06 0.56,0.06 0.34,0 0.7,-0.1 0.36,-0.1 0.66,-0.26 l 0.06,1.22 q -0.74,0.34 -1.78,0.34 -0.38,0 -0.8,-0.1 -0.4,-0.1 -0.74,-0.38 -0.34,-0.28 -0.56,-0.76 -0.22,-0.48 -0.22,-1.26 l 0,-5.9 -1.98,0 0,-1.2 1.98,0 0,-2.64 1.32,0 0,2.64 2.7,0 0,1.2 z" />
      <path
         id="path5762"
         style="fill:#999999"
         d="m 307.1539,397.43414 q 0,-1.34 -0.8,-2.16 -0.8,-0.84 -2.24,-0.84 -0.64,0 -1.24,0.26 -0.6,0.24 -1.06,0.66 -0.44,0.42 -0.72,0.96 -0.26,0.54 -0.26,1.12 l 6.32,0 z m -6.36,1.08 q 0.06,0.7 0.34,1.32 0.28,0.62 0.74,1.08 0.46,0.44 1.06,0.7 0.6,0.26 1.3,0.26 1.06,0 1.82,-0.48 0.78,-0.5 1.18,-1.14 l 1.02,0.84 q -0.84,1.06 -1.86,1.52 -1,0.46 -2.16,0.46 -1.04,0 -1.94,-0.36 -0.88,-0.38 -1.52,-1.04 -0.64,-0.66 -1.02,-1.56 -0.36,-0.9 -0.36,-1.96 0,-1.06 0.36,-1.96 0.36,-0.9 1,-1.56 0.64,-0.66 1.5,-1.02 0.86,-0.38 1.86,-0.38 1.06,0 1.9,0.38 0.84,0.38 1.4,1.02 0.58,0.62 0.88,1.48 0.3,0.84 0.3,1.8 l 0,0.6 -7.8,0 z" />
      <path
         id="path5764"
         style="fill:#999999"
         d="m 324.57359,398.15414 q 0,-0.78 -0.26,-1.46 -0.24,-0.68 -0.7,-1.18 -0.46,-0.5 -1.12,-0.78 -0.64,-0.3 -1.46,-0.3 -0.82,0 -1.48,0.3 -0.64,0.28 -1.1,0.78 -0.44,0.5 -0.7,1.18 -0.24,0.68 -0.24,1.46 0,0.78 0.24,1.46 0.26,0.68 0.7,1.18 0.46,0.5 1.1,0.8 0.66,0.28 1.48,0.28 0.82,0 1.46,-0.28 0.66,-0.3 1.12,-0.8 0.46,-0.5 0.7,-1.18 0.26,-0.68 0.26,-1.46 z m 1.44,0 q 0,1.06 -0.38,1.96 -0.36,0.9 -1.02,1.56 -0.66,0.66 -1.58,1.04 -0.9,0.36 -2,0.36 -1.08,0 -2,-0.36 -0.9,-0.38 -1.56,-1.04 -0.66,-0.66 -1.04,-1.56 -0.36,-0.9 -0.36,-1.96 0,-1.06 0.36,-1.96 0.38,-0.9 1.04,-1.56 0.66,-0.66 1.56,-1.02 0.92,-0.38 2,-0.38 1.1,0 2,0.38 0.92,0.36 1.58,1.02 0.66,0.66 1.02,1.56 0.38,0.9 0.38,1.96 z" />
      <path
         id="path5766"
         style="fill:#999999"
         d="m 335.18859,402.83414 q -0.04,-0.38 -0.06,-0.74 0,-0.38 0,-0.76 l -0.04,0 q -0.22,0.38 -0.56,0.7 -0.34,0.32 -0.76,0.56 -0.42,0.22 -0.9,0.34 -0.46,0.14 -0.92,0.14 -1.8,0 -2.66,-0.94 -0.86,-0.96 -0.86,-2.72 l 0,-5.94 1.32,0 0,5.18 q 0,0.78 0.12,1.38 0.12,0.6 0.4,1.02 0.3,0.4 0.78,0.62 0.5,0.2 1.24,0.2 0.1,0 0.56,-0.08 0.46,-0.08 0.96,-0.44 0.52,-0.36 0.92,-1.08 0.4,-0.72 0.4,-2 l 0,-4.8 1.32,0 0,7.3 q 0,0.38 0.02,0.96 0.04,0.58 0.08,1.1 l -1.36,0 z" />
      <path
         id="path5768"
         style="fill:#999999"
         d="m 344.4014,394.67414 -2.7,0 0,5.52 q 0,0.52 0.1,0.86 0.1,0.32 0.28,0.5 0.18,0.18 0.42,0.26 0.26,0.06 0.56,0.06 0.34,0 0.7,-0.1 0.36,-0.1 0.66,-0.26 l 0.06,1.22 q -0.74,0.34 -1.78,0.34 -0.38,0 -0.8,-0.1 -0.4,-0.1 -0.74,-0.38 -0.34,-0.28 -0.56,-0.76 -0.22,-0.48 -0.22,-1.26 l 0,-5.9 -1.98,0 0,-1.2 1.98,0 0,-2.64 1.32,0 0,2.64 2.7,0 0,1.2 z" />
      <path
         id="path5770"
         style="fill:#999999"
         d="m 347.16202,398.03414 q 0,0.74 0.26,1.4 0.28,0.64 0.74,1.14 0.48,0.48 1.1,0.78 0.64,0.28 1.38,0.28 0.72,0 1.36,-0.26 0.66,-0.26 1.16,-0.72 0.5,-0.48 0.76,-1.14 0.28,-0.66 0.26,-1.48 0,-0.74 -0.24,-1.38 -0.24,-0.66 -0.7,-1.14 -0.46,-0.5 -1.12,-0.78 -0.66,-0.3 -1.48,-0.3 -0.74,0 -1.38,0.3 -0.62,0.28 -1.1,0.78 -0.46,0.48 -0.74,1.14 -0.26,0.64 -0.26,1.38 z m -0.24,6.68 q 0.58,0.78 1.5,1.24 0.94,0.48 2.08,0.48 1,0 1.7,-0.3 0.7,-0.28 1.12,-0.78 0.44,-0.5 0.62,-1.18 0.2,-0.66 0.2,-1.42 l 0,-1.68 -0.04,0 q -0.64,0.96 -1.56,1.36 -0.92,0.4 -1.94,0.4 -1.02,0 -1.92,-0.36 -0.88,-0.36 -1.54,-0.98 -0.66,-0.64 -1.04,-1.52 -0.38,-0.88 -0.38,-1.9 0,-1.02 0.36,-1.9 0.36,-0.88 0.98,-1.54 0.64,-0.66 1.5,-1.02 0.88,-0.38 1.92,-0.38 0.42,0 0.88,0.08 0.48,0.08 0.94,0.28 0.48,0.2 0.94,0.56 0.46,0.34 0.86,0.88 l 0.04,0 0,-1.56 1.32,0 0,9.28 q 0,0.76 -0.2,1.62 -0.18,0.86 -0.74,1.58 -0.54,0.72 -1.52,1.2 -0.98,0.48 -2.56,0.48 -1.4,0 -2.5,-0.46 -1.1,-0.46 -2,-1.42 l 0.98,-1.04 z" />
      <path
         id="path5772"
         style="fill:#999999"
         d="m 366.44859,398.15414 q 0,-0.78 -0.26,-1.46 -0.24,-0.68 -0.7,-1.18 -0.46,-0.5 -1.12,-0.78 -0.64,-0.3 -1.46,-0.3 -0.82,0 -1.48,0.3 -0.64,0.28 -1.1,0.78 -0.44,0.5 -0.7,1.18 -0.24,0.68 -0.24,1.46 0,0.78 0.24,1.46 0.26,0.68 0.7,1.18 0.46,0.5 1.1,0.8 0.66,0.28 1.48,0.28 0.82,0 1.46,-0.28 0.66,-0.3 1.12,-0.8 0.46,-0.5 0.7,-1.18 0.26,-0.68 0.26,-1.46 z m 1.44,0 q 0,1.06 -0.38,1.96 -0.36,0.9 -1.02,1.56 -0.66,0.66 -1.58,1.04 -0.9,0.36 -2,0.36 -1.08,0 -2,-0.36 -0.9,-0.38 -1.56,-1.04 -0.66,-0.66 -1.04,-1.56 -0.36,-0.9 -0.36,-1.96 0,-1.06 0.36,-1.96 0.38,-0.9 1.04,-1.56 0.66,-0.66 1.56,-1.02 0.92,-0.38 2,-0.38 1.1,0 2,0.38 0.92,0.36 1.58,1.02 0.66,0.66 1.02,1.56 0.38,0.9 0.38,1.96 z" />
      <path
         id="path5774"
         style="fill:#999999"
         d="m 372.22359,389.87414 q 0,0.42 -0.3,0.7 -0.3,0.26 -0.66,0.26 -0.36,0 -0.66,-0.26 -0.3,-0.28 -0.3,-0.7 0,-0.42 0.3,-0.68 0.3,-0.28 0.66,-0.28 0.36,0 0.66,0.28 0.3,0.26 0.3,0.68 z m -0.3,12.96 -1.32,0 0,-9.36 1.32,0 0,9.36 z" />
      <path
         id="path5776"
         style="fill:#999999"
         d="m 376.36827,393.47414 q 0.04,0.38 0.04,0.76 0.02,0.36 0.02,0.74 l 0.04,0 q 0.22,-0.38 0.56,-0.7 0.34,-0.32 0.76,-0.54 0.42,-0.24 0.88,-0.36 0.48,-0.14 0.94,-0.14 1.8,0 2.66,0.96 0.86,0.94 0.86,2.7 l 0,5.94 -1.32,0 0,-5.18 q 0,-1.56 -0.54,-2.38 -0.54,-0.84 -2,-0.84 -0.1,0 -0.56,0.08 -0.46,0.08 -0.98,0.44 -0.5,0.36 -0.9,1.08 -0.4,0.72 -0.4,2 l 0,4.8 -1.32,0 0,-7.3 q 0,-0.38 -0.04,-0.96 -0.02,-0.58 -0.06,-1.1 l 1.36,0 z" />
      <path
         id="path5778"
         style="fill:#999999"
         d="m 387.20109,398.03414 q 0,0.74 0.26,1.4 0.28,0.64 0.74,1.14 0.48,0.48 1.1,0.78 0.64,0.28 1.38,0.28 0.72,0 1.36,-0.26 0.66,-0.26 1.16,-0.72 0.5,-0.48 0.76,-1.14 0.28,-0.66 0.26,-1.48 0,-0.74 -0.24,-1.38 -0.24,-0.66 -0.7,-1.14 -0.46,-0.5 -1.12,-0.78 -0.66,-0.3 -1.48,-0.3 -0.74,0 -1.38,0.3 -0.62,0.28 -1.1,0.78 -0.46,0.48 -0.74,1.14 -0.26,0.64 -0.26,1.38 z m -0.24,6.68 q 0.58,0.78 1.5,1.24 0.94,0.48 2.08,0.48 1,0 1.7,-0.3 0.7,-0.28 1.12,-0.78 0.44,-0.5 0.62,-1.18 0.2,-0.66 0.2,-1.42 l 0,-1.68 -0.04,0 q -0.64,0.96 -1.56,1.36 -0.92,0.4 -1.94,0.4 -1.02,0 -1.92,-0.36 -0.88,-0.36 -1.54,-0.98 -0.66,-0.64 -1.04,-1.52 -0.38,-0.88 -0.38,-1.9 0,-1.02 0.36,-1.9 0.36,-0.88 0.98,-1.54 0.64,-0.66 1.5,-1.02 0.88,-0.38 1.92,-0.38 0.42,0 0.88,0.08 0.48,0.08 0.94,0.28 0.48,0.2 0.94,0.56 0.46,0.34 0.86,0.88 l 0.04,0 0,-1.56 1.32,0 0,9.28 q 0,0.76 -0.2,1.62 -0.18,0.86 -0.74,1.58 -0.54,0.72 -1.52,1.2 -0.98,0.48 -2.56,0.48 -1.4,0 -2.5,-0.46 -1.1,-0.46 -2,-1.42 l 0.98,-1.04 z" />
      <path
         id="path5780"
         style="fill:#999999"
         d="m 404.01452,395.55414 q 0,-0.52 -0.04,-1.04 -0.02,-0.52 -0.06,-1.04 l 1.42,0 0,1.42 0.04,0 q 0.48,-0.82 1.32,-1.24 0.86,-0.42 1.7,-0.42 0.38,0 0.8,0.08 0.44,0.08 0.84,0.3 0.4,0.2 0.74,0.58 0.36,0.38 0.6,0.98 0.4,-0.9 1.26,-1.42 0.88,-0.52 1.82,-0.52 1.8,0 2.66,0.96 0.86,0.94 0.86,2.7 l 0,5.94 -1.32,0 0,-5.46 q 0,-1.42 -0.5,-2.18 -0.5,-0.76 -1.86,-0.76 -0.74,0 -1.24,0.3 -0.5,0.28 -0.82,0.76 -0.3,0.48 -0.44,1.1 -0.14,0.6 -0.14,1.26 l 0,4.98 -1.32,0 0,-5.46 q 0,-1.42 -0.5,-2.18 -0.5,-0.76 -1.86,-0.76 -0.12,0 -0.56,0.08 -0.42,0.08 -0.88,0.44 -0.46,0.36 -0.84,1.08 -0.36,0.72 -0.36,2 l 0,4.8 -1.32,0 0,-7.28 z" />
      <path
         id="path5782"
         style="fill:#999999"
         d="m 428.32577,397.43414 q 0,-1.34 -0.8,-2.16 -0.8,-0.84 -2.24,-0.84 -0.64,0 -1.24,0.26 -0.6,0.24 -1.06,0.66 -0.44,0.42 -0.72,0.96 -0.26,0.54 -0.26,1.12 l 6.32,0 z m -6.36,1.08 q 0.06,0.7 0.34,1.32 0.28,0.62 0.74,1.08 0.46,0.44 1.06,0.7 0.6,0.26 1.3,0.26 1.06,0 1.82,-0.48 0.78,-0.5 1.18,-1.14 l 1.02,0.84 q -0.84,1.06 -1.86,1.52 -1,0.46 -2.16,0.46 -1.04,0 -1.94,-0.36 -0.88,-0.38 -1.52,-1.04 -0.64,-0.66 -1.02,-1.56 -0.36,-0.9 -0.36,-1.96 0,-1.06 0.36,-1.96 0.36,-0.9 1,-1.56 0.64,-0.66 1.5,-1.02 0.86,-0.38 1.86,-0.38 1.06,0 1.9,0.38 0.84,0.38 1.4,1.02 0.58,0.62 0.88,1.48 0.3,0.84 0.3,1.8 l 0,0.6 -7.8,0 z" />
      <path
         id="path5784"
         style="fill:#999999"
         d="m 437.13859,395.69414 q -0.3,-0.58 -0.8,-0.92 -0.5,-0.34 -1.22,-0.34 -0.34,0 -0.7,0.08 -0.34,0.08 -0.62,0.26 -0.28,0.16 -0.46,0.42 -0.16,0.26 -0.16,0.64 0,0.66 0.46,0.96 0.46,0.3 1.38,0.52 l 1.34,0.32 q 0.98,0.22 1.62,0.9 0.66,0.66 0.66,1.66 0,0.76 -0.32,1.32 -0.3,0.54 -0.82,0.9 -0.5,0.34 -1.16,0.5 -0.66,0.16 -1.34,0.16 -1.08,0 -2.02,-0.4 -0.92,-0.42 -1.58,-1.42 l 1.14,-0.78 q 0.4,0.64 1,1.02 0.62,0.38 1.46,0.38 0.4,0 0.8,-0.08 0.4,-0.1 0.7,-0.28 0.32,-0.2 0.5,-0.5 0.2,-0.3 0.2,-0.7 0,-0.7 -0.52,-1 -0.52,-0.32 -1.26,-0.5 l -1.28,-0.3 q -0.24,-0.06 -0.66,-0.2 -0.4,-0.14 -0.8,-0.42 -0.38,-0.28 -0.66,-0.72 -0.28,-0.46 -0.28,-1.12 0,-0.72 0.28,-1.26 0.3,-0.54 0.78,-0.88 0.5,-0.34 1.12,-0.5 0.62,-0.18 1.28,-0.18 0.98,0 1.82,0.38 0.84,0.38 1.3,1.3 l -1.18,0.78 z" />
      <path
         id="path5786"
         style="fill:#999999"
         d="m 445.69327,395.69414 q -0.3,-0.58 -0.8,-0.92 -0.5,-0.34 -1.22,-0.34 -0.34,0 -0.7,0.08 -0.34,0.08 -0.62,0.26 -0.28,0.16 -0.46,0.42 -0.16,0.26 -0.16,0.64 0,0.66 0.46,0.96 0.46,0.3 1.38,0.52 l 1.34,0.32 q 0.98,0.22 1.62,0.9 0.66,0.66 0.66,1.66 0,0.76 -0.32,1.32 -0.3,0.54 -0.82,0.9 -0.5,0.34 -1.16,0.5 -0.66,0.16 -1.34,0.16 -1.08,0 -2.02,-0.4 -0.92,-0.42 -1.58,-1.42 l 1.14,-0.78 q 0.4,0.64 1,1.02 0.62,0.38 1.46,0.38 0.4,0 0.8,-0.08 0.4,-0.1 0.7,-0.28 0.32,-0.2 0.5,-0.5 0.2,-0.3 0.2,-0.7 0,-0.7 -0.52,-1 -0.52,-0.32 -1.26,-0.5 l -1.28,-0.3 q -0.24,-0.06 -0.66,-0.2 -0.4,-0.14 -0.8,-0.42 -0.38,-0.28 -0.66,-0.72 -0.28,-0.46 -0.28,-1.12 0,-0.72 0.28,-1.26 0.3,-0.54 0.78,-0.88 0.5,-0.34 1.12,-0.5 0.62,-0.18 1.28,-0.18 0.98,0 1.82,0.38 0.84,0.38 1.3,1.3 l -1.18,0.78 z" />
      <path
         id="path5788"
         style="fill:#999999"
         d="m 454.60796,398.17414 q -0.5,0 -1.26,0.06 -0.74,0.04 -1.44,0.24 -0.68,0.18 -1.18,0.58 -0.48,0.4 -0.48,1.1 0,0.46 0.18,0.8 0.2,0.32 0.52,0.54 0.32,0.2 0.7,0.3 0.4,0.08 0.8,0.08 0.72,0 1.24,-0.24 0.54,-0.24 0.9,-0.64 0.36,-0.42 0.52,-0.96 0.18,-0.56 0.18,-1.18 l 0,-0.68 -0.68,0 z m 0.68,-1.08 0,-0.24 q 0,-2.42 -2.4,-2.42 -1.64,0 -2.86,1.1 l -0.8,-0.94 q 1.32,-1.36 3.96,-1.36 0.68,0 1.3,0.2 0.64,0.2 1.1,0.62 0.46,0.4 0.74,1.02 0.28,0.62 0.28,1.48 l 0,4.18 q 0,0.54 0.04,1.14 0.06,0.58 0.12,0.96 l -1.28,0 q -0.06,-0.34 -0.1,-0.74 -0.02,-0.4 -0.02,-0.78 l -0.04,0 q -0.58,0.94 -1.38,1.36 -0.78,0.4 -1.92,0.4 -0.62,0 -1.2,-0.18 -0.58,-0.16 -1.04,-0.5 -0.44,-0.36 -0.72,-0.86 -0.26,-0.52 -0.26,-1.2 0,-1.14 0.58,-1.78 0.6,-0.66 1.48,-0.98 0.9,-0.32 1.9,-0.4 1.02,-0.08 1.86,-0.08 l 0.66,0 z" />
      <path
         id="path5790"
         style="fill:#999999"
         d="m 460.63859,398.03414 q 0,0.74 0.26,1.4 0.28,0.64 0.74,1.14 0.48,0.48 1.1,0.78 0.64,0.28 1.38,0.28 0.72,0 1.36,-0.26 0.66,-0.26 1.16,-0.72 0.5,-0.48 0.76,-1.14 0.28,-0.66 0.26,-1.48 0,-0.74 -0.24,-1.38 -0.24,-0.66 -0.7,-1.14 -0.46,-0.5 -1.12,-0.78 -0.66,-0.3 -1.48,-0.3 -0.74,0 -1.38,0.3 -0.62,0.28 -1.1,0.78 -0.46,0.48 -0.74,1.14 -0.26,0.64 -0.26,1.38 z m -0.24,6.68 q 0.58,0.78 1.5,1.24 0.94,0.48 2.08,0.48 1,0 1.7,-0.3 0.7,-0.28 1.12,-0.78 0.44,-0.5 0.62,-1.18 0.2,-0.66 0.2,-1.42 l 0,-1.68 -0.04,0 q -0.64,0.96 -1.56,1.36 -0.92,0.4 -1.94,0.4 -1.02,0 -1.92,-0.36 -0.88,-0.36 -1.54,-0.98 -0.66,-0.64 -1.04,-1.52 -0.38,-0.88 -0.38,-1.9 0,-1.02 0.36,-1.9 0.36,-0.88 0.98,-1.54 0.64,-0.66 1.5,-1.02 0.88,-0.38 1.92,-0.38 0.42,0 0.88,0.08 0.48,0.08 0.94,0.28 0.48,0.2 0.94,0.56 0.46,0.34 0.86,0.88 l 0.04,0 0,-1.56 1.32,0 0,9.28 q 0,0.76 -0.2,1.62 -0.18,0.86 -0.74,1.58 -0.54,0.72 -1.52,1.2 -0.98,0.48 -2.56,0.48 -1.4,0 -2.5,-0.46 -1.1,-0.46 -2,-1.42 l 0.98,-1.04 z" />
      <path
         id="path5792"
         style="fill:#999999"
         d="m 479.18515,397.43414 q 0,-1.34 -0.8,-2.16 -0.8,-0.84 -2.24,-0.84 -0.64,0 -1.24,0.26 -0.6,0.24 -1.06,0.66 -0.44,0.42 -0.72,0.96 -0.26,0.54 -0.26,1.12 l 6.32,0 z m -6.36,1.08 q 0.06,0.7 0.34,1.32 0.28,0.62 0.74,1.08 0.46,0.44 1.06,0.7 0.6,0.26 1.3,0.26 1.06,0 1.82,-0.48 0.78,-0.5 1.18,-1.14 l 1.02,0.84 q -0.84,1.06 -1.86,1.52 -1,0.46 -2.16,0.46 -1.04,0 -1.94,-0.36 -0.88,-0.38 -1.52,-1.04 -0.64,-0.66 -1.02,-1.56 -0.36,-0.9 -0.36,-1.96 0,-1.06 0.36,-1.96 0.36,-0.9 1,-1.56 0.64,-0.66 1.5,-1.02 0.86,-0.38 1.86,-0.38 1.06,0 1.9,0.38 0.84,0.38 1.4,1.02 0.58,0.62 0.88,1.48 0.3,0.84 0.3,1.8 l 0,0.6 -7.8,0 z" />
      <path
         id="path5794"
         d="m 340.2596,423.15414 q 0,-0.78 -0.26,-1.46 -0.24,-0.68 -0.7,-1.18 -0.46,-0.5 -1.12,-0.78 -0.64,-0.3 -1.46,-0.3 -0.82,0 -1.5,0.3 -0.68,0.28 -1.18,0.78 -0.5,0.5 -0.78,1.18 -0.28,0.68 -0.28,1.46 0,0.78 0.28,1.46 0.28,0.68 0.78,1.18 0.5,0.5 1.18,0.8 0.68,0.28 1.5,0.28 0.82,0 1.46,-0.28 0.66,-0.3 1.12,-0.8 0.46,-0.5 0.7,-1.18 0.26,-0.68 0.26,-1.46 z m -8.54,-10.44 1.32,0 0,7.32 0.04,0 q 0.32,-0.48 0.76,-0.82 0.44,-0.34 0.92,-0.56 0.48,-0.22 0.98,-0.32 0.52,-0.1 0.98,-0.1 1.1,0 2,0.38 0.92,0.36 1.58,1.02 0.66,0.66 1.02,1.56 0.38,0.9 0.38,1.96 0,1.06 -0.38,1.96 -0.36,0.9 -1.02,1.56 -0.66,0.66 -1.58,1.04 -0.9,0.36 -2,0.36 -0.46,0 -0.98,-0.1 -0.5,-0.1 -0.98,-0.32 -0.48,-0.22 -0.92,-0.56 -0.44,-0.34 -0.76,-0.82 l -0.04,0 0,1.56 -1.32,0 0,-15.12 z" />
      <path
         id="path5796"
         style="font-size:64.99999762%;baseline-shift:sub"
         d="m 344.26116,425.75014 q 0.026,0.247 0.026,0.494 0.013,0.234 0.013,0.481 l 0.026,0 q 0.143,-0.247 0.364,-0.455 0.221,-0.208 0.494,-0.351 0.273,-0.156 0.572,-0.234 0.312,-0.091 0.611,-0.091 1.17,0 1.729,0.624 0.559,0.611 0.559,1.755 l 0,3.861 -0.858,0 0,-3.367 q 0,-1.014 -0.351,-1.547 -0.351,-0.546 -1.3,-0.546 -0.065,0 -0.364,0.052 -0.299,0.052 -0.637,0.286 -0.325,0.234 -0.585,0.702 -0.26,0.468 -0.26,1.3 l 0,3.12 -0.858,0 0,-4.745 q 0,-0.247 -0.026,-0.624 -0.013,-0.377 -0.039,-0.715 l 0.884,0 z" />
      <path
         id="path5798"
         d="m 354.78249,413.79414 q -0.64,1.02 -1.14,1.98 -0.48,0.96 -0.82,1.96 -0.34,0.98 -0.52,2.04 -0.16,1.06 -0.16,2.3 0,1.24 0.16,2.28 0.18,1.04 0.5,2 0.32,0.96 0.8,1.9 0.48,0.94 1.1,1.98 l -1.06,0.8 q -1.34,-1.88 -2.08,-4.2 -0.74,-2.32 -0.74,-4.76 0,-2.32 0.72,-4.66 0.74,-2.34 2.18,-4.3 l 1.06,0.68 z" />
      <path
         id="path5800"
         d="m 358.83687,422.83414 -3.4,-4.36 1.8,0 2.6,3.5 2.48,-3.5 1.64,0 -3.26,4.36 3.92,5 -1.8,0 -3.14,-4.1 -3.02,4.1 -1.68,0 3.86,-5 z" />
      <path
         id="path5802"
         style="font-size:64.99999762%;baseline-shift:sub"
         d="m 366.38031,425.75014 q 0.026,0.247 0.026,0.494 0.013,0.234 0.013,0.481 l 0.026,0 q 0.143,-0.247 0.364,-0.455 0.221,-0.208 0.494,-0.351 0.273,-0.156 0.572,-0.234 0.312,-0.091 0.611,-0.091 1.17,0 1.729,0.624 0.559,0.611 0.559,1.755 l 0,3.861 -0.858,0 0,-3.367 q 0,-1.014 -0.351,-1.547 -0.351,-0.546 -1.3,-0.546 -0.065,0 -0.364,0.052 -0.299,0.052 -0.637,0.286 -0.325,0.234 -0.585,0.702 -0.26,0.468 -0.26,1.3 l 0,3.12 -0.858,0 0,-4.745 q 0,-0.247 -0.026,-0.624 -0.013,-0.377 -0.039,-0.715 l 0.884,0 z" />
      <path
         id="path5804"
         d="m 372.02163,430.35414 q 0.64,-1.02 1.12,-1.98 0.5,-0.96 0.84,-1.94 0.34,-1 0.5,-2.06 0.18,-1.06 0.18,-2.3 0,-1.24 -0.18,-2.28 -0.16,-1.04 -0.48,-2 -0.32,-0.96 -0.8,-1.9 -0.48,-0.94 -1.1,-1.98 l 1.06,-0.8 q 1.34,1.88 2.08,4.2 0.74,2.32 0.74,4.76 0,2.32 -0.74,4.66 -0.72,2.34 -2.16,4.3 l -1.06,-0.68 z" />
    </g>
    <path
       id="path4521"
       d="m 345.47217,336.16405 0,28.28427"
       style="color:#000000;clip-rule:nonzero;display:inline;overflow:visible;visibility:visible;opacity:1;isolation:auto;mix-blend-mode:normal;color-interpolation:sRGB;color-interpolation-filters:linearRGB;solid-color:#000000;solid-opacity:1;fill:none;fill-opacity:1;fill-rule:evenodd;stroke:#000000;stroke-width:1px;stroke-linecap:butt;stroke-linejoin:miter;stroke-miterlimit:4;stroke-dasharray:none;stroke-dashoffset:0;stroke-opacity:1;marker-end:url(#marker4529);color-rendering:auto;image-rendering:auto;shape-rendering:auto;text-rendering:auto;enable-background:accumulate" />
    <g
       id="text5029"
       style="font-style:normal;font-variant:normal;font-weight:normal;font-stretch:normal;font-size:20px;line-height:125%;font-family:Avenir;-inkscape-font-specification:Avenir;text-align:start;letter-spacing:0px;word-spacing:0px;writing-mode:lr-tb;text-anchor:start;fill:#000000;fill-opacity:1;stroke:none;stroke-width:1px;stroke-linecap:butt;stroke-linejoin:miter;stroke-opacity:1">
      <path
         id="path5647"
         d="m 364.99461,230.79835 7.58,0 0,1.32 -9.02,0 0,-14.16 8.78,0 0,1.32 -7.34,0 0,4.82 6.86,0 0,1.32 -6.86,0 0,5.38 z" />
      <path
         id="path5649"
         d="m 377.36961,227.11835 -3.4,-4.36 1.8,0 2.6,3.5 2.48,-3.5 1.64,0 -3.26,4.36 3.92,5 -1.8,0 -3.14,-4.1 -3.02,4.1 -1.68,0 3.86,-5 z" />
      <path
         id="path5651"
         d="m 391.87805,226.71835 q 0,-1.34 -0.8,-2.16 -0.8,-0.84 -2.24,-0.84 -0.64,0 -1.24,0.26 -0.6,0.24 -1.06,0.66 -0.44,0.42 -0.72,0.96 -0.26,0.54 -0.26,1.12 l 6.32,0 z m -6.36,1.08 q 0.06,0.7 0.34,1.32 0.28,0.62 0.74,1.08 0.46,0.44 1.06,0.7 0.6,0.26 1.3,0.26 1.06,0 1.82,-0.48 0.78,-0.5 1.18,-1.14 l 1.02,0.84 q -0.84,1.06 -1.86,1.52 -1,0.46 -2.16,0.46 -1.04,0 -1.94,-0.36 -0.88,-0.38 -1.52,-1.04 -0.64,-0.66 -1.02,-1.56 -0.36,-0.9 -0.36,-1.96 0,-1.06 0.36,-1.96 0.36,-0.9 1,-1.56 0.64,-0.66 1.5,-1.02 0.86,-0.38 1.86,-0.38 1.06,0 1.9,0.38 0.84,0.38 1.4,1.02 0.58,0.62 0.88,1.48 0.3,0.84 0.3,1.8 l 0,0.6 -7.8,0 z" />
      <path
         id="path5653"
         d="m 402.55086,224.95835 q -0.34,-0.52 -0.96,-0.88 -0.6,-0.36 -1.38,-0.36 -0.82,-0.02 -1.48,0.26 -0.64,0.28 -1.1,0.78 -0.46,0.5 -0.7,1.2 -0.24,0.68 -0.24,1.48 0,0.8 0.24,1.5 0.24,0.68 0.7,1.18 0.46,0.5 1.1,0.78 0.66,0.28 1.48,0.26 0.78,0 1.38,-0.36 0.62,-0.36 0.96,-0.88 l 1.08,0.82 q -0.7,0.82 -1.58,1.22 -0.88,0.38 -1.84,0.4 -1.14,0.02 -2.06,-0.34 -0.92,-0.38 -1.58,-1.04 -0.64,-0.66 -0.98,-1.56 -0.34,-0.92 -0.34,-1.98 0,-1.06 0.34,-1.96 0.34,-0.92 0.98,-1.58 0.66,-0.66 1.58,-1.02 0.92,-0.38 2.06,-0.36 0.96,0.02 1.84,0.42 0.88,0.38 1.58,1.2 l -1.08,0.82 z" />
      <path
         id="path5655"
         d="m 412.1393,232.11835 q -0.04,-0.38 -0.06,-0.74 0,-0.38 0,-0.76 l -0.04,0 q -0.22,0.38 -0.56,0.7 -0.34,0.32 -0.76,0.56 -0.42,0.22 -0.9,0.34 -0.46,0.14 -0.92,0.14 -1.8,0 -2.66,-0.94 -0.86,-0.96 -0.86,-2.72 l 0,-5.94 1.32,0 0,5.18 q 0,0.78 0.12,1.38 0.12,0.6 0.4,1.02 0.3,0.4 0.78,0.62 0.5,0.2 1.24,0.2 0.1,0 0.56,-0.08 0.46,-0.08 0.96,-0.44 0.52,-0.36 0.92,-1.08 0.4,-0.72 0.4,-2 l 0,-4.8 1.32,0 0,7.3 q 0,0.38 0.02,0.96 0.04,0.58 0.08,1.1 l -1.36,0 z" />
      <path
         id="path5657"
         d="m 421.35211,223.95835 -2.7,0 0,5.52 q 0,0.52 0.1,0.86 0.1,0.32 0.28,0.5 0.18,0.18 0.42,0.26 0.26,0.06 0.56,0.06 0.34,0 0.7,-0.1 0.36,-0.1 0.66,-0.26 l 0.06,1.22 q -0.74,0.34 -1.78,0.34 -0.38,0 -0.8,-0.1 -0.4,-0.1 -0.74,-0.38 -0.34,-0.28 -0.56,-0.76 -0.22,-0.48 -0.22,-1.26 l 0,-5.9 -1.98,0 0,-1.2 1.98,0 0,-2.64 1.32,0 0,2.64 2.7,0 0,1.2 z" />
      <path
         id="path5659"
         d="m 425.07274,219.15835 q 0,0.42 -0.3,0.7 -0.3,0.26 -0.66,0.26 -0.36,0 -0.66,-0.26 -0.3,-0.28 -0.3,-0.7 0,-0.42 0.3,-0.68 0.3,-0.28 0.66,-0.28 0.36,0 0.66,0.28 0.3,0.26 0.3,0.68 z m -0.3,12.96 -1.32,0 0,-9.36 1.32,0 0,9.36 z" />
      <path
         id="path5661"
         d="m 435.97743,227.43835 q 0,-0.78 -0.26,-1.46 -0.24,-0.68 -0.7,-1.18 -0.46,-0.5 -1.12,-0.78 -0.64,-0.3 -1.46,-0.3 -0.82,0 -1.48,0.3 -0.64,0.28 -1.1,0.78 -0.44,0.5 -0.7,1.18 -0.24,0.68 -0.24,1.46 0,0.78 0.24,1.46 0.26,0.68 0.7,1.18 0.46,0.5 1.1,0.8 0.66,0.28 1.48,0.28 0.82,0 1.46,-0.28 0.66,-0.3 1.12,-0.8 0.46,-0.5 0.7,-1.18 0.26,-0.68 0.26,-1.46 z m 1.44,0 q 0,1.06 -0.38,1.96 -0.36,0.9 -1.02,1.56 -0.66,0.66 -1.58,1.04 -0.9,0.36 -2,0.36 -1.08,0 -2,-0.36 -0.9,-0.38 -1.56,-1.04 -0.66,-0.66 -1.04,-1.56 -0.36,-0.9 -0.36,-1.96 0,-1.06 0.36,-1.96 0.38,-0.9 1.04,-1.56 0.66,-0.66 1.56,-1.02 0.92,-0.38 2,-0.38 1.1,0 2,0.38 0.92,0.36 1.58,1.02 0.66,0.66 1.02,1.56 0.38,0.9 0.38,1.96 z" />
      <path
         id="path5663"
         d="m 441.09243,222.75835 q 0.04,0.38 0.04,0.76 0.02,0.36 0.02,0.74 l 0.04,0 q 0.22,-0.38 0.56,-0.7 0.34,-0.32 0.76,-0.54 0.42,-0.24 0.88,-0.36 0.48,-0.14 0.94,-0.14 1.8,0 2.66,0.96 0.86,0.94 0.86,2.7 l 0,5.94 -1.32,0 0,-5.18 q 0,-1.56 -0.54,-2.38 -0.54,-0.84 -2,-0.84 -0.1,0 -0.56,0.08 -0.46,0.08 -0.98,0.44 -0.5,0.36 -0.9,1.08 -0.4,0.72 -0.4,2 l 0,4.8 -1.32,0 0,-7.3 q 0,-0.38 -0.04,-0.96 -0.02,-0.58 -0.06,-1.1 l 1.36,0 z" />
      <path
         id="path5665"
         d="m 463.33211,224.95835 q -0.34,-0.52 -0.96,-0.88 -0.6,-0.36 -1.38,-0.36 -0.82,-0.02 -1.48,0.26 -0.64,0.28 -1.1,0.78 -0.46,0.5 -0.7,1.2 -0.24,0.68 -0.24,1.48 0,0.8 0.24,1.5 0.24,0.68 0.7,1.18 0.46,0.5 1.1,0.78 0.66,0.28 1.48,0.26 0.78,0 1.38,-0.36 0.62,-0.36 0.96,-0.88 l 1.08,0.82 q -0.7,0.82 -1.58,1.22 -0.88,0.38 -1.84,0.4 -1.14,0.02 -2.06,-0.34 -0.92,-0.38 -1.58,-1.04 -0.64,-0.66 -0.98,-1.56 -0.34,-0.92 -0.34,-1.98 0,-1.06 0.34,-1.96 0.34,-0.92 0.98,-1.58 0.66,-0.66 1.58,-1.02 0.92,-0.38 2.06,-0.36 0.96,0.02 1.84,0.42 0.88,0.38 1.58,1.2 l -1.08,0.82 z" />
      <path
         id="path5667"
         d="m 474.18055,227.43835 q 0,-0.78 -0.26,-1.46 -0.24,-0.68 -0.7,-1.18 -0.46,-0.5 -1.12,-0.78 -0.64,-0.3 -1.46,-0.3 -0.82,0 -1.48,0.3 -0.64,0.28 -1.1,0.78 -0.44,0.5 -0.7,1.18 -0.24,0.68 -0.24,1.46 0,0.78 0.24,1.46 0.26,0.68 0.7,1.18 0.46,0.5 1.1,0.8 0.66,0.28 1.48,0.28 0.82,0 1.46,-0.28 0.66,-0.3 1.12,-0.8 0.46,-0.5 0.7,-1.18 0.26,-0.68 0.26,-1.46 z m 1.44,0 q 0,1.06 -0.38,1.96 -0.36,0.9 -1.02,1.56 -0.66,0.66 -1.58,1.04 -0.9,0.36 -2,0.36 -1.08,0 -2,-0.36 -0.9,-0.38 -1.56,-1.04 -0.66,-0.66 -1.04,-1.56 -0.36,-0.9 -0.36,-1.96 0,-1.06 0.36,-1.96 0.38,-0.9 1.04,-1.56 0.66,-0.66 1.56,-1.02 0.92,-0.38 2,-0.38 1.1,0 2,0.38 0.92,0.36 1.58,1.02 0.66,0.66 1.02,1.56 0.38,0.9 0.38,1.96 z" />
      <path
         id="path5669"
         d="m 479.29555,222.75835 q 0.04,0.38 0.04,0.76 0.02,0.36 0.02,0.74 l 0.04,0 q 0.22,-0.38 0.56,-0.7 0.34,-0.32 0.76,-0.54 0.42,-0.24 0.88,-0.36 0.48,-0.14 0.94,-0.14 1.8,0 2.66,0.96 0.86,0.94 0.86,2.7 l 0,5.94 -1.32,0 0,-5.18 q 0,-1.56 -0.54,-2.38 -0.54,-0.84 -2,-0.84 -0.1,0 -0.56,0.08 -0.46,0.08 -0.98,0.44 -0.5,0.36 -0.9,1.08 -0.4,0.72 -0.4,2 l 0,4.8 -1.32,0 0,-7.3 q 0,-0.38 -0.04,-0.96 -0.02,-0.58 -0.06,-1.1 l 1.36,0 z" />
      <path
         id="path5671"
         d="m 494.00836,223.95835 -2.7,0 0,5.52 q 0,0.52 0.1,0.86 0.1,0.32 0.28,0.5 0.18,0.18 0.42,0.26 0.26,0.06 0.56,0.06 0.34,0 0.7,-0.1 0.36,-0.1 0.66,-0.26 l 0.06,1.22 q -0.74,0.34 -1.78,0.34 -0.38,0 -0.8,-0.1 -0.4,-0.1 -0.74,-0.38 -0.34,-0.28 -0.56,-0.76 -0.22,-0.48 -0.22,-1.26 l 0,-5.9 -1.98,0 0,-1.2 1.98,0 0,-2.64 1.32,0 0,2.64 2.7,0 0,1.2 z" />
      <path
         id="path5673"
         d="m 503.08899,226.71835 q 0,-1.34 -0.8,-2.16 -0.8,-0.84 -2.24,-0.84 -0.64,0 -1.24,0.26 -0.6,0.24 -1.06,0.66 -0.44,0.42 -0.72,0.96 -0.26,0.54 -0.26,1.12 l 6.32,0 z m -6.36,1.08 q 0.06,0.7 0.34,1.32 0.28,0.62 0.74,1.08 0.46,0.44 1.06,0.7 0.6,0.26 1.3,0.26 1.06,0 1.82,-0.48 0.78,-0.5 1.18,-1.14 l 1.02,0.84 q -0.84,1.06 -1.86,1.52 -1,0.46 -2.16,0.46 -1.04,0 -1.94,-0.36 -0.88,-0.38 -1.52,-1.04 -0.64,-0.66 -1.02,-1.56 -0.36,-0.9 -0.36,-1.96 0,-1.06 0.36,-1.96 0.36,-0.9 1,-1.56 0.64,-0.66 1.5,-1.02 0.86,-0.38 1.86,-0.38 1.06,0 1.9,0.38 0.84,0.38 1.4,1.02 0.58,0.62 0.88,1.48 0.3,0.84 0.3,1.8 l 0,0.6 -7.8,0 z" />
      <path
         id="path5675"
         d="m 509.3618,227.11835 -3.4,-4.36 1.8,0 2.6,3.5 2.48,-3.5 1.64,0 -3.26,4.36 3.92,5 -1.8,0 -3.14,-4.1 -3.02,4.1 -1.68,0 3.86,-5 z" />
      <path
         id="path5677"
         d="m 521.43024,223.95835 -2.7,0 0,5.52 q 0,0.52 0.1,0.86 0.1,0.32 0.28,0.5 0.18,0.18 0.42,0.26 0.26,0.06 0.56,0.06 0.34,0 0.7,-0.1 0.36,-0.1 0.66,-0.26 l 0.06,1.22 q -0.74,0.34 -1.78,0.34 -0.38,0 -0.8,-0.1 -0.4,-0.1 -0.74,-0.38 -0.34,-0.28 -0.56,-0.76 -0.22,-0.48 -0.22,-1.26 l 0,-5.9 -1.98,0 0,-1.2 1.98,0 0,-2.64 1.32,0 0,2.64 2.7,0 0,1.2 z" />
    </g>
    <g
       id="text5051"
       style="font-style:normal;font-variant:normal;font-weight:normal;font-stretch:normal;font-size:20px;line-height:125%;font-family:Avenir;-inkscape-font-specification:Avenir;text-align:start;letter-spacing:0px;word-spacing:0px;writing-mode:lr-tb;text-anchor:start;fill:#000000;fill-opacity:1;stroke:none;stroke-width:1px;stroke-linecap:butt;stroke-linejoin:miter;stroke-opacity:1">
      <path
         id="path5717"
         style="fill:#999999"
         d="m 278.23997,283.41643 q -0.36,0.54 -0.9,1.02 -0.52,0.48 -1.2,0.84 -0.68,0.34 -1.48,0.54 -0.78,0.2 -1.66,0.2 -1.58,0 -2.94,-0.56 -1.34,-0.56 -2.34,-1.54 -0.98,-1 -1.54,-2.36 -0.56,-1.36 -0.56,-2.98 0,-1.62 0.56,-2.98 0.56,-1.36 1.54,-2.34 1,-1 2.34,-1.56 1.36,-0.56 2.94,-0.56 1.32,0 2.64,0.52 1.32,0.52 2.26,1.72 l -1.26,0.94 q -0.22,-0.34 -0.6,-0.68 -0.38,-0.34 -0.88,-0.6 -0.48,-0.26 -1.04,-0.42 -0.56,-0.16 -1.12,-0.16 -1.36,0 -2.44,0.5 -1.08,0.5 -1.84,1.34 -0.74,0.84 -1.14,1.96 -0.4,1.1 -0.4,2.32 0,1.22 0.4,2.34 0.4,1.1 1.14,1.94 0.76,0.84 1.84,1.34 1.08,0.5 2.44,0.5 0.56,0 1.1,-0.1 0.56,-0.1 1.08,-0.34 0.54,-0.24 1,-0.64 0.48,-0.42 0.88,-1.04 l 1.18,0.84 z" />
      <path
         id="path5719"
         style="fill:#999999"
         d="m 288.22154,280.97643 q 0,-0.78 -0.26,-1.46 -0.24,-0.68 -0.7,-1.18 -0.46,-0.5 -1.12,-0.78 -0.64,-0.3 -1.46,-0.3 -0.82,0 -1.48,0.3 -0.64,0.28 -1.1,0.78 -0.44,0.5 -0.7,1.18 -0.24,0.68 -0.24,1.46 0,0.78 0.24,1.46 0.26,0.68 0.7,1.18 0.46,0.5 1.1,0.8 0.66,0.28 1.48,0.28 0.82,0 1.46,-0.28 0.66,-0.3 1.12,-0.8 0.46,-0.5 0.7,-1.18 0.26,-0.68 0.26,-1.46 z m 1.44,0 q 0,1.06 -0.38,1.96 -0.36,0.9 -1.02,1.56 -0.66,0.66 -1.58,1.04 -0.9,0.36 -2,0.36 -1.08,0 -2,-0.36 -0.9,-0.38 -1.56,-1.04 -0.66,-0.66 -1.04,-1.56 -0.36,-0.9 -0.36,-1.96 0,-1.06 0.36,-1.96 0.38,-0.9 1.04,-1.56 0.66,-0.66 1.56,-1.02 0.92,-0.38 2,-0.38 1.1,0 2,0.38 0.92,0.36 1.58,1.02 0.66,0.66 1.02,1.56 0.38,0.9 0.38,1.96 z" />
      <path
         id="path5721"
         style="fill:#999999"
         d="m 292.07654,278.37643 q 0,-0.52 -0.04,-1.04 -0.02,-0.52 -0.06,-1.04 l 1.42,0 0,1.42 0.04,0 q 0.48,-0.82 1.32,-1.24 0.86,-0.42 1.7,-0.42 0.38,0 0.8,0.08 0.44,0.08 0.84,0.3 0.4,0.2 0.74,0.58 0.36,0.38 0.6,0.98 0.4,-0.9 1.26,-1.42 0.88,-0.52 1.82,-0.52 1.8,0 2.66,0.96 0.86,0.94 0.86,2.7 l 0,5.94 -1.32,0 0,-5.46 q 0,-1.42 -0.5,-2.18 -0.5,-0.76 -1.86,-0.76 -0.74,0 -1.24,0.3 -0.5,0.28 -0.82,0.76 -0.3,0.48 -0.44,1.1 -0.14,0.6 -0.14,1.26 l 0,4.98 -1.32,0 0,-5.46 q 0,-1.42 -0.5,-2.18 -0.5,-0.76 -1.86,-0.76 -0.12,0 -0.56,0.08 -0.42,0.08 -0.88,0.44 -0.46,0.36 -0.84,1.08 -0.36,0.72 -0.36,2 l 0,4.8 -1.32,0 0,-7.28 z" />
      <path
         id="path5723"
         style="fill:#999999"
         d="m 317.64779,280.97643 q 0,-0.78 -0.26,-1.46 -0.24,-0.68 -0.7,-1.18 -0.46,-0.5 -1.12,-0.78 -0.64,-0.3 -1.46,-0.3 -0.82,0 -1.5,0.3 -0.68,0.28 -1.18,0.78 -0.5,0.5 -0.78,1.18 -0.28,0.68 -0.28,1.46 0,0.78 0.28,1.46 0.28,0.68 0.78,1.18 0.5,0.5 1.18,0.8 0.68,0.28 1.5,0.28 0.82,0 1.46,-0.28 0.66,-0.3 1.12,-0.8 0.46,-0.5 0.7,-1.18 0.26,-0.68 0.26,-1.46 z m -8.54,-4.68 1.32,0 0,1.56 0.04,0 q 0.32,-0.48 0.76,-0.82 0.44,-0.34 0.92,-0.56 0.48,-0.22 0.98,-0.32 0.52,-0.1 0.98,-0.1 1.1,0 2,0.38 0.92,0.36 1.58,1.02 0.66,0.66 1.02,1.56 0.38,0.9 0.38,1.96 0,1.06 -0.38,1.96 -0.36,0.9 -1.02,1.56 -0.66,0.66 -1.58,1.04 -0.9,0.36 -2,0.36 -0.46,0 -0.98,-0.1 -0.5,-0.1 -0.98,-0.32 -0.48,-0.22 -0.92,-0.56 -0.44,-0.34 -0.76,-0.82 l -0.04,0 0,7.32 -1.32,0 0,-15.12 z" />
      <path
         id="path5725"
         style="fill:#999999"
         d="m 328.09435,285.65643 q -0.04,-0.38 -0.06,-0.74 0,-0.38 0,-0.76 l -0.04,0 q -0.22,0.38 -0.56,0.7 -0.34,0.32 -0.76,0.56 -0.42,0.22 -0.9,0.34 -0.46,0.14 -0.92,0.14 -1.8,0 -2.66,-0.94 -0.86,-0.96 -0.86,-2.72 l 0,-5.94 1.32,0 0,5.18 q 0,0.78 0.12,1.38 0.12,0.6 0.4,1.02 0.3,0.4 0.78,0.62 0.5,0.2 1.24,0.2 0.1,0 0.56,-0.08 0.46,-0.08 0.96,-0.44 0.52,-0.36 0.92,-1.08 0.4,-0.72 0.4,-2 l 0,-4.8 1.32,0 0,7.3 q 0,0.38 0.02,0.96 0.04,0.58 0.08,1.1 l -1.36,0 z" />
      <path
         id="path5727"
         style="fill:#999999"
         d="m 337.30716,277.49643 -2.7,0 0,5.52 q 0,0.52 0.1,0.86 0.1,0.32 0.28,0.5 0.18,0.18 0.42,0.26 0.26,0.06 0.56,0.06 0.34,0 0.7,-0.1 0.36,-0.1 0.66,-0.26 l 0.06,1.22 q -0.74,0.34 -1.78,0.34 -0.38,0 -0.8,-0.1 -0.4,-0.1 -0.74,-0.38 -0.34,-0.28 -0.56,-0.76 -0.22,-0.48 -0.22,-1.26 l 0,-5.9 -1.98,0 0,-1.2 1.98,0 0,-2.64 1.32,0 0,2.64 2.7,0 0,1.2 z" />
      <path
         id="path5729"
         style="fill:#999999"
         d="m 346.38779,280.25643 q 0,-1.34 -0.8,-2.16 -0.8,-0.84 -2.24,-0.84 -0.64,0 -1.24,0.26 -0.6,0.24 -1.06,0.66 -0.44,0.42 -0.72,0.96 -0.26,0.54 -0.26,1.12 l 6.32,0 z m -6.36,1.08 q 0.06,0.7 0.34,1.32 0.28,0.62 0.74,1.08 0.46,0.44 1.06,0.7 0.6,0.26 1.3,0.26 1.06,0 1.82,-0.48 0.78,-0.5 1.18,-1.14 l 1.02,0.84 q -0.84,1.06 -1.86,1.52 -1,0.46 -2.16,0.46 -1.04,0 -1.94,-0.36 -0.88,-0.38 -1.52,-1.04 -0.64,-0.66 -1.02,-1.56 -0.36,-0.9 -0.36,-1.96 0,-1.06 0.36,-1.96 0.36,-0.9 1,-1.56 0.64,-0.66 1.5,-1.02 0.86,-0.38 1.86,-0.38 1.06,0 1.9,0.38 0.84,0.38 1.4,1.02 0.58,0.62 0.88,1.48 0.3,0.84 0.3,1.8 l 0,0.6 -7.8,0 z" />
      <path
         id="path5731"
         style="fill:#999999"
         d="m 357.04747,276.29643 q 0.04,0.38 0.04,0.76 0.02,0.36 0.02,0.74 l 0.04,0 q 0.22,-0.38 0.56,-0.7 0.34,-0.32 0.76,-0.54 0.42,-0.24 0.88,-0.36 0.48,-0.14 0.94,-0.14 1.8,0 2.66,0.96 0.86,0.94 0.86,2.7 l 0,5.94 -1.32,0 0,-5.18 q 0,-1.56 -0.54,-2.38 -0.54,-0.84 -2,-0.84 -0.1,0 -0.56,0.08 -0.46,0.08 -0.98,0.44 -0.5,0.36 -0.9,1.08 -0.4,0.72 -0.4,2 l 0,4.8 -1.32,0 0,-7.3 q 0,-0.38 -0.04,-0.96 -0.02,-0.58 -0.06,-1.1 l 1.36,0 z" />
      <path
         id="path5733"
         style="fill:#999999"
         d="m 374.20029,280.25643 q 0,-1.34 -0.8,-2.16 -0.8,-0.84 -2.24,-0.84 -0.64,0 -1.24,0.26 -0.6,0.24 -1.06,0.66 -0.44,0.42 -0.72,0.96 -0.26,0.54 -0.26,1.12 l 6.32,0 z m -6.36,1.08 q 0.06,0.7 0.34,1.32 0.28,0.62 0.74,1.08 0.46,0.44 1.06,0.7 0.6,0.26 1.3,0.26 1.06,0 1.82,-0.48 0.78,-0.5 1.18,-1.14 l 1.02,0.84 q -0.84,1.06 -1.86,1.52 -1,0.46 -2.16,0.46 -1.04,0 -1.94,-0.36 -0.88,-0.38 -1.52,-1.04 -0.64,-0.66 -1.02,-1.56 -0.36,-0.9 -0.36,-1.96 0,-1.06 0.36,-1.96 0.36,-0.9 1,-1.56 0.64,-0.66 1.5,-1.02 0.86,-0.38 1.86,-0.38 1.06,0 1.9,0.38 0.84,0.38 1.4,1.02 0.58,0.62 0.88,1.48 0.3,0.84 0.3,1.8 l 0,0.6 -7.8,0 z" />
      <path
         id="path5735"
         style="fill:#999999"
         d="m 378.4531,276.29643 2.16,7.6 0.04,0 2.5,-7.6 1.36,0 2.5,7.6 0.04,0 2.16,-7.6 1.56,0 -2.96,9.36 -1.48,0 -2.48,-7.68 -0.04,0 -2.48,7.68 -1.48,0 -2.96,-9.36 1.56,0 z" />
      <path
         id="path5737"
         style="fill:#999999"
         d="m 403.0131,278.51643 q -0.3,-0.58 -0.8,-0.92 -0.5,-0.34 -1.22,-0.34 -0.34,0 -0.7,0.08 -0.34,0.08 -0.62,0.26 -0.28,0.16 -0.46,0.42 -0.16,0.26 -0.16,0.64 0,0.66 0.46,0.96 0.46,0.3 1.38,0.52 l 1.34,0.32 q 0.98,0.22 1.62,0.9 0.66,0.66 0.66,1.66 0,0.76 -0.32,1.32 -0.3,0.54 -0.82,0.9 -0.5,0.34 -1.16,0.5 -0.66,0.16 -1.34,0.16 -1.08,0 -2.02,-0.4 -0.92,-0.42 -1.58,-1.42 l 1.14,-0.78 q 0.4,0.64 1,1.02 0.62,0.38 1.46,0.38 0.4,0 0.8,-0.08 0.4,-0.1 0.7,-0.28 0.32,-0.2 0.5,-0.5 0.2,-0.3 0.2,-0.7 0,-0.7 -0.52,-1 -0.52,-0.32 -1.26,-0.5 l -1.28,-0.3 q -0.24,-0.06 -0.66,-0.2 -0.4,-0.14 -0.8,-0.42 -0.38,-0.28 -0.66,-0.72 -0.28,-0.46 -0.28,-1.12 0,-0.72 0.28,-1.26 0.3,-0.54 0.78,-0.88 0.5,-0.34 1.12,-0.5 0.62,-0.18 1.28,-0.18 0.98,0 1.82,0.38 0.84,0.38 1.3,1.3 l -1.18,0.78 z" />
      <path
         id="path5739"
         style="fill:#999999"
         d="m 411.44779,277.49643 -2.7,0 0,5.52 q 0,0.52 0.1,0.86 0.1,0.32 0.28,0.5 0.18,0.18 0.42,0.26 0.26,0.06 0.56,0.06 0.34,0 0.7,-0.1 0.36,-0.1 0.66,-0.26 l 0.06,1.22 q -0.74,0.34 -1.78,0.34 -0.38,0 -0.8,-0.1 -0.4,-0.1 -0.74,-0.38 -0.34,-0.28 -0.56,-0.76 -0.22,-0.48 -0.22,-1.26 l 0,-5.9 -1.98,0 0,-1.2 1.98,0 0,-2.64 1.32,0 0,2.64 2.7,0 0,1.2 z" />
      <path
         id="path5741"
         style="fill:#999999"
         d="m 418.56841,280.99643 q -0.5,0 -1.26,0.06 -0.74,0.04 -1.44,0.24 -0.68,0.18 -1.18,0.58 -0.48,0.4 -0.48,1.1 0,0.46 0.18,0.8 0.2,0.32 0.52,0.54 0.32,0.2 0.7,0.3 0.4,0.08 0.8,0.08 0.72,0 1.24,-0.24 0.54,-0.24 0.9,-0.64 0.36,-0.42 0.52,-0.96 0.18,-0.56 0.18,-1.18 l 0,-0.68 -0.68,0 z m 0.68,-1.08 0,-0.24 q 0,-2.42 -2.4,-2.42 -1.64,0 -2.86,1.1 l -0.8,-0.94 q 1.32,-1.36 3.96,-1.36 0.68,0 1.3,0.2 0.64,0.2 1.1,0.62 0.46,0.4 0.74,1.02 0.28,0.62 0.28,1.48 l 0,4.18 q 0,0.54 0.04,1.14 0.06,0.58 0.12,0.96 l -1.28,0 q -0.06,-0.34 -0.1,-0.74 -0.02,-0.4 -0.02,-0.78 l -0.04,0 q -0.58,0.94 -1.38,1.36 -0.78,0.4 -1.92,0.4 -0.62,0 -1.2,-0.18 -0.58,-0.16 -1.04,-0.5 -0.44,-0.36 -0.72,-0.86 -0.26,-0.52 -0.26,-1.2 0,-1.14 0.58,-1.78 0.6,-0.66 1.48,-0.98 0.9,-0.32 1.9,-0.4 1.02,-0.08 1.86,-0.08 l 0.66,0 z" />
      <path
         id="path5743"
         style="fill:#999999"
         d="m 428.47904,277.49643 -2.7,0 0,5.52 q 0,0.52 0.1,0.86 0.1,0.32 0.28,0.5 0.18,0.18 0.42,0.26 0.26,0.06 0.56,0.06 0.34,0 0.7,-0.1 0.36,-0.1 0.66,-0.26 l 0.06,1.22 q -0.74,0.34 -1.78,0.34 -0.38,0 -0.8,-0.1 -0.4,-0.1 -0.74,-0.38 -0.34,-0.28 -0.56,-0.76 -0.22,-0.48 -0.22,-1.26 l 0,-5.9 -1.98,0 0,-1.2 1.98,0 0,-2.64 1.32,0 0,2.64 2.7,0 0,1.2 z" />
      <path
         id="path5745"
         style="fill:#999999"
         d="m 437.55966,280.25643 q 0,-1.34 -0.8,-2.16 -0.8,-0.84 -2.24,-0.84 -0.64,0 -1.24,0.26 -0.6,0.24 -1.06,0.66 -0.44,0.42 -0.72,0.96 -0.26,0.54 -0.26,1.12 l 6.32,0 z m -6.36,1.08 q 0.06,0.7 0.34,1.32 0.28,0.62 0.74,1.08 0.46,0.44 1.06,0.7 0.6,0.26 1.3,0.26 1.06,0 1.82,-0.48 0.78,-0.5 1.18,-1.14 l 1.02,0.84 q -0.84,1.06 -1.86,1.52 -1,0.46 -2.16,0.46 -1.04,0 -1.94,-0.36 -0.88,-0.38 -1.52,-1.04 -0.64,-0.66 -1.02,-1.56 -0.36,-0.9 -0.36,-1.96 0,-1.06 0.36,-1.96 0.36,-0.9 1,-1.56 0.64,-0.66 1.5,-1.02 0.86,-0.38 1.86,-0.38 1.06,0 1.9,0.38 0.84,0.38 1.4,1.02 0.58,0.62 0.88,1.48 0.3,0.84 0.3,1.8 l 0,0.6 -7.8,0 z" />
    </g>
    <g
       id="text4159-3"
       style="font-style:normal;font-variant:normal;font-weight:normal;font-stretch:normal;font-size:40px;line-height:125%;font-family:Avenir;-inkscape-font-specification:Avenir;text-align:center;letter-spacing:0px;word-spacing:0px;writing-mode:lr-tb;text-anchor:middle;fill:#000000;fill-opacity:1;stroke:none;stroke-width:1px;stroke-linecap:butt;stroke-linejoin:miter;stroke-opacity:1">
      <path
         id="path5807"
         style="font-size:20px;text-align:center;text-anchor:middle;fill:#999999"
         d="m 274.10888,534.72823 q 0,-1.22 -0.4,-2.32 -0.4,-1.12 -1.16,-1.96 -0.74,-0.84 -1.82,-1.34 -1.08,-0.5 -2.44,-0.5 -1.36,0 -2.44,0.5 -1.08,0.5 -1.84,1.34 -0.74,0.84 -1.14,1.96 -0.4,1.1 -0.4,2.32 0,1.22 0.4,2.34 0.4,1.1 1.14,1.94 0.76,0.84 1.84,1.34 1.08,0.5 2.44,0.5 1.36,0 2.44,-0.5 1.08,-0.5 1.82,-1.34 0.76,-0.84 1.16,-1.94 0.4,-1.12 0.4,-2.34 z m 1.56,0 q 0,1.62 -0.56,2.98 -0.56,1.36 -1.56,2.36 -0.98,0.98 -2.34,1.54 -1.34,0.56 -2.92,0.56 -1.58,0 -2.94,-0.56 -1.34,-0.56 -2.34,-1.54 -0.98,-1 -1.54,-2.36 -0.56,-1.36 -0.56,-2.98 0,-1.62 0.56,-2.98 0.56,-1.36 1.54,-2.34 1,-1 2.34,-1.56 1.36,-0.56 2.94,-0.56 1.58,0 2.92,0.56 1.36,0.56 2.34,1.56 1,0.98 1.56,2.34 0.56,1.36 0.56,2.98 z" />
      <path
         id="path5809"
         style="font-size:20px;text-align:center;text-anchor:middle;fill:#999999"
         d="m 284.86763,541.80823 q -0.04,-0.38 -0.06,-0.74 0,-0.38 0,-0.76 l -0.04,0 q -0.22,0.38 -0.56,0.7 -0.34,0.32 -0.76,0.56 -0.42,0.22 -0.9,0.34 -0.46,0.14 -0.92,0.14 -1.8,0 -2.66,-0.94 -0.86,-0.96 -0.86,-2.72 l 0,-5.94 1.32,0 0,5.18 q 0,0.78 0.12,1.38 0.12,0.6 0.4,1.02 0.3,0.4 0.78,0.62 0.5,0.2 1.24,0.2 0.1,0 0.56,-0.08 0.46,-0.08 0.96,-0.44 0.52,-0.36 0.92,-1.08 0.4,-0.72 0.4,-2 l 0,-4.8 1.32,0 0,7.3 q 0,0.38 0.02,0.96 0.04,0.58 0.08,1.1 l -1.36,0 z" />
      <path
         id="path5811"
         style="font-size:20px;text-align:center;text-anchor:middle;fill:#999999"
         d="m 294.08045,533.64823 -2.7,0 0,5.52 q 0,0.52 0.1,0.86 0.1,0.32 0.28,0.5 0.18,0.18 0.42,0.26 0.26,0.06 0.56,0.06 0.34,0 0.7,-0.1 0.36,-0.1 0.66,-0.26 l 0.06,1.22 q -0.74,0.34 -1.78,0.34 -0.38,0 -0.8,-0.1 -0.4,-0.1 -0.74,-0.38 -0.34,-0.28 -0.56,-0.76 -0.22,-0.48 -0.22,-1.26 l 0,-5.9 -1.98,0 0,-1.2 1.98,0 0,-2.64 1.32,0 0,2.64 2.7,0 0,1.2 z" />
      <path
         id="path5813"
         style="font-size:20px;text-align:center;text-anchor:middle;fill:#999999"
         d="m 296.84107,537.00823 q 0,0.74 0.26,1.4 0.28,0.64 0.74,1.14 0.48,0.48 1.1,0.78 0.64,0.28 1.38,0.28 0.72,0 1.36,-0.26 0.66,-0.26 1.16,-0.72 0.5,-0.48 0.76,-1.14 0.28,-0.66 0.26,-1.48 0,-0.74 -0.24,-1.38 -0.24,-0.66 -0.7,-1.14 -0.46,-0.5 -1.12,-0.78 -0.66,-0.3 -1.48,-0.3 -0.74,0 -1.38,0.3 -0.62,0.28 -1.1,0.78 -0.46,0.48 -0.74,1.14 -0.26,0.64 -0.26,1.38 z m -0.24,6.68 q 0.58,0.78 1.5,1.24 0.94,0.48 2.08,0.48 1,0 1.7,-0.3 0.7,-0.28 1.12,-0.78 0.44,-0.5 0.62,-1.18 0.2,-0.66 0.2,-1.42 l 0,-1.68 -0.04,0 q -0.64,0.96 -1.56,1.36 -0.92,0.4 -1.94,0.4 -1.02,0 -1.92,-0.36 -0.88,-0.36 -1.54,-0.98 -0.66,-0.64 -1.04,-1.52 -0.38,-0.88 -0.38,-1.9 0,-1.02 0.36,-1.9 0.36,-0.88 0.98,-1.54 0.64,-0.66 1.5,-1.02 0.88,-0.38 1.92,-0.38 0.42,0 0.88,0.08 0.48,0.08 0.94,0.28 0.48,0.2 0.94,0.56 0.46,0.34 0.86,0.88 l 0.04,0 0,-1.56 1.32,0 0,9.28 q 0,0.76 -0.2,1.62 -0.18,0.86 -0.74,1.58 -0.54,0.72 -1.52,1.2 -0.98,0.48 -2.56,0.48 -1.4,0 -2.5,-0.46 -1.1,-0.46 -2,-1.42 l 0.98,-1.04 z" />
      <path
         id="path5815"
         style="font-size:20px;text-align:center;text-anchor:middle;fill:#999999"
         d="m 316.12763,537.12823 q 0,-0.78 -0.26,-1.46 -0.24,-0.68 -0.7,-1.18 -0.46,-0.5 -1.12,-0.78 -0.64,-0.3 -1.46,-0.3 -0.82,0 -1.48,0.3 -0.64,0.28 -1.1,0.78 -0.44,0.5 -0.7,1.18 -0.24,0.68 -0.24,1.46 0,0.78 0.24,1.46 0.26,0.68 0.7,1.18 0.46,0.5 1.1,0.8 0.66,0.28 1.48,0.28 0.82,0 1.46,-0.28 0.66,-0.3 1.12,-0.8 0.46,-0.5 0.7,-1.18 0.26,-0.68 0.26,-1.46 z m 1.44,0 q 0,1.06 -0.38,1.96 -0.36,0.9 -1.02,1.56 -0.66,0.66 -1.58,1.04 -0.9,0.36 -2,0.36 -1.08,0 -2,-0.36 -0.9,-0.38 -1.56,-1.04 -0.66,-0.66 -1.04,-1.56 -0.36,-0.9 -0.36,-1.96 0,-1.06 0.36,-1.96 0.38,-0.9 1.04,-1.56 0.66,-0.66 1.56,-1.02 0.92,-0.38 2,-0.38 1.1,0 2,0.38 0.92,0.36 1.58,1.02 0.66,0.66 1.02,1.56 0.38,0.9 0.38,1.96 z" />
      <path
         id="path5817"
         style="font-size:20px;text-align:center;text-anchor:middle;fill:#999999"
         d="m 321.90263,528.84823 q 0,0.42 -0.3,0.7 -0.3,0.26 -0.66,0.26 -0.36,0 -0.66,-0.26 -0.3,-0.28 -0.3,-0.7 0,-0.42 0.3,-0.68 0.3,-0.28 0.66,-0.28 0.36,0 0.66,0.28 0.3,0.26 0.3,0.68 z m -0.3,12.96 -1.32,0 0,-9.36 1.32,0 0,9.36 z" />
      <path
         id="path5819"
         style="font-size:20px;text-align:center;text-anchor:middle;fill:#999999"
         d="m 326.04732,532.44823 q 0.04,0.38 0.04,0.76 0.02,0.36 0.02,0.74 l 0.04,0 q 0.22,-0.38 0.56,-0.7 0.34,-0.32 0.76,-0.54 0.42,-0.24 0.88,-0.36 0.48,-0.14 0.94,-0.14 1.8,0 2.66,0.96 0.86,0.94 0.86,2.7 l 0,5.94 -1.32,0 0,-5.18 q 0,-1.56 -0.54,-2.38 -0.54,-0.84 -2,-0.84 -0.1,0 -0.56,0.08 -0.46,0.08 -0.98,0.44 -0.5,0.36 -0.9,1.08 -0.4,0.72 -0.4,2 l 0,4.8 -1.32,0 0,-7.3 q 0,-0.38 -0.04,-0.96 -0.02,-0.58 -0.06,-1.1 l 1.36,0 z" />
      <path
         id="path5821"
         style="font-size:20px;text-align:center;text-anchor:middle;fill:#999999"
         d="m 336.88013,537.00823 q 0,0.74 0.26,1.4 0.28,0.64 0.74,1.14 0.48,0.48 1.1,0.78 0.64,0.28 1.38,0.28 0.72,0 1.36,-0.26 0.66,-0.26 1.16,-0.72 0.5,-0.48 0.76,-1.14 0.28,-0.66 0.26,-1.48 0,-0.74 -0.24,-1.38 -0.24,-0.66 -0.7,-1.14 -0.46,-0.5 -1.12,-0.78 -0.66,-0.3 -1.48,-0.3 -0.74,0 -1.38,0.3 -0.62,0.28 -1.1,0.78 -0.46,0.48 -0.74,1.14 -0.26,0.64 -0.26,1.38 z m -0.24,6.68 q 0.58,0.78 1.5,1.24 0.94,0.48 2.08,0.48 1,0 1.7,-0.3 0.7,-0.28 1.12,-0.78 0.44,-0.5 0.62,-1.18 0.2,-0.66 0.2,-1.42 l 0,-1.68 -0.04,0 q -0.64,0.96 -1.56,1.36 -0.92,0.4 -1.94,0.4 -1.02,0 -1.92,-0.36 -0.88,-0.36 -1.54,-0.98 -0.66,-0.64 -1.04,-1.52 -0.38,-0.88 -0.38,-1.9 0,-1.02 0.36,-1.9 0.36,-0.88 0.98,-1.54 0.64,-0.66 1.5,-1.02 0.88,-0.38 1.92,-0.38 0.42,0 0.88,0.08 0.48,0.08 0.94,0.28 0.48,0.2 0.94,0.56 0.46,0.34 0.86,0.88 l 0.04,0 0,-1.56 1.32,0 0,9.28 q 0,0.76 -0.2,1.62 -0.18,0.86 -0.74,1.58 -0.54,0.72 -1.52,1.2 -0.98,0.48 -2.56,0.48 -1.4,0 -2.5,-0.46 -1.1,-0.46 -2,-1.42 l 0.98,-1.04 z" />
      <path
         id="path5823"
         style="font-size:20px;text-align:center;text-anchor:middle;fill:#999999"
         d="m 353.69357,534.52823 q 0,-0.52 -0.04,-1.04 -0.02,-0.52 -0.06,-1.04 l 1.42,0 0,1.42 0.04,0 q 0.48,-0.82 1.32,-1.24 0.86,-0.42 1.7,-0.42 0.38,0 0.8,0.08 0.44,0.08 0.84,0.3 0.4,0.2 0.74,0.58 0.36,0.38 0.6,0.98 0.4,-0.9 1.26,-1.42 0.88,-0.52 1.82,-0.52 1.8,0 2.66,0.96 0.86,0.94 0.86,2.7 l 0,5.94 -1.32,0 0,-5.46 q 0,-1.42 -0.5,-2.18 -0.5,-0.76 -1.86,-0.76 -0.74,0 -1.24,0.3 -0.5,0.28 -0.82,0.76 -0.3,0.48 -0.44,1.1 -0.14,0.6 -0.14,1.26 l 0,4.98 -1.32,0 0,-5.46 q 0,-1.42 -0.5,-2.18 -0.5,-0.76 -1.86,-0.76 -0.12,0 -0.56,0.08 -0.42,0.08 -0.88,0.44 -0.46,0.36 -0.84,1.08 -0.36,0.72 -0.36,2 l 0,4.8 -1.32,0 0,-7.28 z" />
      <path
         id="path5825"
         style="font-size:20px;text-align:center;text-anchor:middle;fill:#999999"
         d="m 378.00482,536.40823 q 0,-1.34 -0.8,-2.16 -0.8,-0.84 -2.24,-0.84 -0.64,0 -1.24,0.26 -0.6,0.24 -1.06,0.66 -0.44,0.42 -0.72,0.96 -0.26,0.54 -0.26,1.12 l 6.32,0 z m -6.36,1.08 q 0.06,0.7 0.34,1.32 0.28,0.62 0.74,1.08 0.46,0.44 1.06,0.7 0.6,0.26 1.3,0.26 1.06,0 1.82,-0.48 0.78,-0.5 1.18,-1.14 l 1.02,0.84 q -0.84,1.06 -1.86,1.52 -1,0.46 -2.16,0.46 -1.04,0 -1.94,-0.36 -0.88,-0.38 -1.52,-1.04 -0.64,-0.66 -1.02,-1.56 -0.36,-0.9 -0.36,-1.96 0,-1.06 0.36,-1.96 0.36,-0.9 1,-1.56 0.64,-0.66 1.5,-1.02 0.86,-0.38 1.86,-0.38 1.06,0 1.9,0.38 0.84,0.38 1.4,1.02 0.58,0.62 0.88,1.48 0.3,0.84 0.3,1.8 l 0,0.6 -7.8,0 z" />
      <path
         id="path5827"
         style="font-size:20px;text-align:center;text-anchor:middle;fill:#999999"
         d="m 386.81763,534.66823 q -0.3,-0.58 -0.8,-0.92 -0.5,-0.34 -1.22,-0.34 -0.34,0 -0.7,0.08 -0.34,0.08 -0.62,0.26 -0.28,0.16 -0.46,0.42 -0.16,0.26 -0.16,0.64 0,0.66 0.46,0.96 0.46,0.3 1.38,0.52 l 1.34,0.32 q 0.98,0.22 1.62,0.9 0.66,0.66 0.66,1.66 0,0.76 -0.32,1.32 -0.3,0.54 -0.82,0.9 -0.5,0.34 -1.16,0.5 -0.66,0.16 -1.34,0.16 -1.08,0 -2.02,-0.4 -0.92,-0.42 -1.58,-1.42 l 1.14,-0.78 q 0.4,0.64 1,1.02 0.62,0.38 1.46,0.38 0.4,0 0.8,-0.08 0.4,-0.1 0.7,-0.28 0.32,-0.2 0.5,-0.5 0.2,-0.3 0.2,-0.7 0,-0.7 -0.52,-1 -0.52,-0.32 -1.26,-0.5 l -1.28,-0.3 q -0.24,-0.06 -0.66,-0.2 -0.4,-0.14 -0.8,-0.42 -0.38,-0.28 -0.66,-0.72 -0.28,-0.46 -0.28,-1.12 0,-0.72 0.28,-1.26 0.3,-0.54 0.78,-0.88 0.5,-0.34 1.12,-0.5 0.62,-0.18 1.28,-0.18 0.98,0 1.82,0.38 0.84,0.38 1.3,1.3 l -1.18,0.78 z" />
      <path
         id="path5829"
         style="font-size:20px;text-align:center;text-anchor:middle;fill:#999999"
         d="m 395.37232,534.66823 q -0.3,-0.58 -0.8,-0.92 -0.5,-0.34 -1.22,-0.34 -0.34,0 -0.7,0.08 -0.34,0.08 -0.62,0.26 -0.28,0.16 -0.46,0.42 -0.16,0.26 -0.16,0.64 0,0.66 0.46,0.96 0.46,0.3 1.38,0.52 l 1.34,0.32 q 0.98,0.22 1.62,0.9 0.66,0.66 0.66,1.66 0,0.76 -0.32,1.32 -0.3,0.54 -0.82,0.9 -0.5,0.34 -1.16,0.5 -0.66,0.16 -1.34,0.16 -1.08,0 -2.02,-0.4 -0.92,-0.42 -1.58,-1.42 l 1.14,-0.78 q 0.4,0.64 1,1.02 0.62,0.38 1.46,0.38 0.4,0 0.8,-0.08 0.4,-0.1 0.7,-0.28 0.32,-0.2 0.5,-0.5 0.2,-0.3 0.2,-0.7 0,-0.7 -0.52,-1 -0.52,-0.32 -1.26,-0.5 l -1.28,-0.3 q -0.24,-0.06 -0.66,-0.2 -0.4,-0.14 -0.8,-0.42 -0.38,-0.28 -0.66,-0.72 -0.28,-0.46 -0.28,-1.12 0,-0.72 0.28,-1.26 0.3,-0.54 0.78,-0.88 0.5,-0.34 1.12,-0.5 0.62,-0.18 1.28,-0.18 0.98,0 1.82,0.38 0.84,0.38 1.3,1.3 l -1.18,0.78 z" />
      <path
         id="path5831"
         style="font-size:20px;text-align:center;text-anchor:middle;fill:#999999"
         d="m 404.28701,537.14823 q -0.5,0 -1.26,0.06 -0.74,0.04 -1.44,0.24 -0.68,0.18 -1.18,0.58 -0.48,0.4 -0.48,1.1 0,0.46 0.18,0.8 0.2,0.32 0.52,0.54 0.32,0.2 0.7,0.3 0.4,0.08 0.8,0.08 0.72,0 1.24,-0.24 0.54,-0.24 0.9,-0.64 0.36,-0.42 0.52,-0.96 0.18,-0.56 0.18,-1.18 l 0,-0.68 -0.68,0 z m 0.68,-1.08 0,-0.24 q 0,-2.42 -2.4,-2.42 -1.64,0 -2.86,1.1 l -0.8,-0.94 q 1.32,-1.36 3.96,-1.36 0.68,0 1.3,0.2 0.64,0.2 1.1,0.62 0.46,0.4 0.74,1.02 0.28,0.62 0.28,1.48 l 0,4.18 q 0,0.54 0.04,1.14 0.06,0.58 0.12,0.96 l -1.28,0 q -0.06,-0.34 -0.1,-0.74 -0.02,-0.4 -0.02,-0.78 l -0.04,0 q -0.58,0.94 -1.38,1.36 -0.78,0.4 -1.92,0.4 -0.62,0 -1.2,-0.18 -0.58,-0.16 -1.04,-0.5 -0.44,-0.36 -0.72,-0.86 -0.26,-0.52 -0.26,-1.2 0,-1.14 0.58,-1.78 0.6,-0.66 1.48,-0.98 0.9,-0.32 1.9,-0.4 1.02,-0.08 1.86,-0.08 l 0.66,0 z" />
      <path
         id="path5833"
         style="font-size:20px;text-align:center;text-anchor:middle;fill:#999999"
         d="m 410.31763,537.00823 q 0,0.74 0.26,1.4 0.28,0.64 0.74,1.14 0.48,0.48 1.1,0.78 0.64,0.28 1.38,0.28 0.72,0 1.36,-0.26 0.66,-0.26 1.16,-0.72 0.5,-0.48 0.76,-1.14 0.28,-0.66 0.26,-1.48 0,-0.74 -0.24,-1.38 -0.24,-0.66 -0.7,-1.14 -0.46,-0.5 -1.12,-0.78 -0.66,-0.3 -1.48,-0.3 -0.74,0 -1.38,0.3 -0.62,0.28 -1.1,0.78 -0.46,0.48 -0.74,1.14 -0.26,0.64 -0.26,1.38 z m -0.24,6.68 q 0.58,0.78 1.5,1.24 0.94,0.48 2.08,0.48 1,0 1.7,-0.3 0.7,-0.28 1.12,-0.78 0.44,-0.5 0.62,-1.18 0.2,-0.66 0.2,-1.42 l 0,-1.68 -0.04,0 q -0.64,0.96 -1.56,1.36 -0.92,0.4 -1.94,0.4 -1.02,0 -1.92,-0.36 -0.88,-0.36 -1.54,-0.98 -0.66,-0.64 -1.04,-1.52 -0.38,-0.88 -0.38,-1.9 0,-1.02 0.36,-1.9 0.36,-0.88 0.98,-1.54 0.64,-0.66 1.5,-1.02 0.88,-0.38 1.92,-0.38 0.42,0 0.88,0.08 0.48,0.08 0.94,0.28 0.48,0.2 0.94,0.56 0.46,0.34 0.86,0.88 l 0.04,0 0,-1.56 1.32,0 0,9.28 q 0,0.76 -0.2,1.62 -0.18,0.86 -0.74,1.58 -0.54,0.72 -1.52,1.2 -0.98,0.48 -2.56,0.48 -1.4,0 -2.5,-0.46 -1.1,-0.46 -2,-1.42 l 0.98,-1.04 z" />
      <path
         id="path5835"
         style="font-size:20px;text-align:center;text-anchor:middle;fill:#999999"
         d="m 428.8642,536.40823 q 0,-1.34 -0.8,-2.16 -0.8,-0.84 -2.24,-0.84 -0.64,0 -1.24,0.26 -0.6,0.24 -1.06,0.66 -0.44,0.42 -0.72,0.96 -0.26,0.54 -0.26,1.12 l 6.32,0 z m -6.36,1.08 q 0.06,0.7 0.34,1.32 0.28,0.62 0.74,1.08 0.46,0.44 1.06,0.7 0.6,0.26 1.3,0.26 1.06,0 1.82,-0.48 0.78,-0.5 1.18,-1.14 l 1.02,0.84 q -0.84,1.06 -1.86,1.52 -1,0.46 -2.16,0.46 -1.04,0 -1.94,-0.36 -0.88,-0.38 -1.52,-1.04 -0.64,-0.66 -1.02,-1.56 -0.36,-0.9 -0.36,-1.96 0,-1.06 0.36,-1.96 0.36,-0.9 1,-1.56 0.64,-0.66 1.5,-1.02 0.86,-0.38 1.86,-0.38 1.06,0 1.9,0.38 0.84,0.38 1.4,1.02 0.58,0.62 0.88,1.48 0.3,0.84 0.3,1.8 l 0,0.6 -7.8,0 z" />
      <path
         id="path5837"
         style="font-size:20px;text-align:center;text-anchor:middle;fill:#999999"
         d="m 437.67701,534.66823 q -0.3,-0.58 -0.8,-0.92 -0.5,-0.34 -1.22,-0.34 -0.34,0 -0.7,0.08 -0.34,0.08 -0.62,0.26 -0.28,0.16 -0.46,0.42 -0.16,0.26 -0.16,0.64 0,0.66 0.46,0.96 0.46,0.3 1.38,0.52 l 1.34,0.32 q 0.98,0.22 1.62,0.9 0.66,0.66 0.66,1.66 0,0.76 -0.32,1.32 -0.3,0.54 -0.82,0.9 -0.5,0.34 -1.16,0.5 -0.66,0.16 -1.34,0.16 -1.08,0 -2.02,-0.4 -0.92,-0.42 -1.58,-1.42 l 1.14,-0.78 q 0.4,0.64 1,1.02 0.62,0.38 1.46,0.38 0.4,0 0.8,-0.08 0.4,-0.1 0.7,-0.28 0.32,-0.2 0.5,-0.5 0.2,-0.3 0.2,-0.7 0,-0.7 -0.52,-1 -0.52,-0.32 -1.26,-0.5 l -1.28,-0.3 q -0.24,-0.06 -0.66,-0.2 -0.4,-0.14 -0.8,-0.42 -0.38,-0.28 -0.66,-0.72 -0.28,-0.46 -0.28,-1.12 0,-0.72 0.28,-1.26 0.3,-0.54 0.78,-0.88 0.5,-0.34 1.12,-0.5 0.62,-0.18 1.28,-0.18 0.98,0 1.82,0.38 0.84,0.38 1.3,1.3 l -1.18,0.78 z" />
      <path
         id="path5839"
         style="font-size:20px;text-align:center;text-anchor:middle"
         d="m 301.47185,562.12823 q 0,-0.78 -0.26,-1.46 -0.24,-0.68 -0.7,-1.18 -0.46,-0.5 -1.12,-0.78 -0.64,-0.3 -1.46,-0.3 -0.82,0 -1.5,0.3 -0.68,0.28 -1.18,0.78 -0.5,0.5 -0.78,1.18 -0.28,0.68 -0.28,1.46 0,0.78 0.28,1.46 0.28,0.68 0.78,1.18 0.5,0.5 1.18,0.8 0.68,0.28 1.5,0.28 0.82,0 1.46,-0.28 0.66,-0.3 1.12,-0.8 0.46,-0.5 0.7,-1.18 0.26,-0.68 0.26,-1.46 z m -8.54,-10.44 1.32,0 0,7.32 0.04,0 q 0.32,-0.48 0.76,-0.82 0.44,-0.34 0.92,-0.56 0.48,-0.22 0.98,-0.32 0.52,-0.1 0.98,-0.1 1.1,0 2,0.38 0.92,0.36 1.58,1.02 0.66,0.66 1.02,1.56 0.38,0.9 0.38,1.96 0,1.06 -0.38,1.96 -0.36,0.9 -1.02,1.56 -0.66,0.66 -1.58,1.04 -0.9,0.36 -2,0.36 -0.46,0 -0.98,-0.1 -0.5,-0.1 -0.98,-0.32 -0.48,-0.22 -0.92,-0.56 -0.44,-0.34 -0.76,-0.82 l -0.04,0 0,1.56 -1.32,0 0,-15.12 z" />
      <path
         id="path5841"
         style="font-size:64.99999762%;baseline-shift:sub"
         d="m 307.33241,562.30623 q -0.754,0 -1.196,0.403 -0.429,0.403 -0.65,1.001 -0.221,0.598 -0.286,1.274 -0.052,0.676 -0.052,1.222 0,0.546 0.052,1.222 0.065,0.676 0.286,1.274 0.221,0.598 0.65,1.001 0.442,0.403 1.196,0.403 0.754,0 1.183,-0.403 0.442,-0.403 0.663,-1.001 0.221,-0.598 0.273,-1.274 0.065,-0.676 0.065,-1.222 0,-0.546 -0.065,-1.222 -0.052,-0.676 -0.273,-1.274 -0.221,-0.598 -0.663,-1.001 -0.429,-0.403 -1.183,-0.403 z m 0,-0.858 q 0.988,0 1.599,0.455 0.611,0.455 0.949,1.157 0.338,0.702 0.455,1.547 0.117,0.832 0.117,1.599 0,0.767 -0.117,1.612 -0.117,0.832 -0.455,1.534 -0.338,0.702 -0.949,1.157 -0.611,0.455 -1.599,0.455 -0.988,0 -1.599,-0.455 -0.611,-0.455 -0.949,-1.157 -0.338,-0.702 -0.455,-1.534 -0.117,-0.845 -0.117,-1.612 0,-0.767 0.117,-1.599 0.117,-0.845 0.455,-1.547 0.338,-0.702 0.949,-1.157 0.611,-0.455 1.599,-0.455 z" />
      <path
         id="path5843"
         style="font-size:20px;text-align:center;text-anchor:middle"
         d="m 313.59474,569.60823 -1.34,0 1.34,-4.7 1.62,0 -1.62,4.7 z" />
      <path
         id="path5845"
         style="font-size:20px;text-align:center;text-anchor:middle"
         d="m 332.02849,562.12823 q 0,-0.78 -0.26,-1.46 -0.24,-0.68 -0.7,-1.18 -0.46,-0.5 -1.12,-0.78 -0.64,-0.3 -1.46,-0.3 -0.82,0 -1.5,0.3 -0.68,0.28 -1.18,0.78 -0.5,0.5 -0.78,1.18 -0.28,0.68 -0.28,1.46 0,0.78 0.28,1.46 0.28,0.68 0.78,1.18 0.5,0.5 1.18,0.8 0.68,0.28 1.5,0.28 0.82,0 1.46,-0.28 0.66,-0.3 1.12,-0.8 0.46,-0.5 0.7,-1.18 0.26,-0.68 0.26,-1.46 z m -8.54,-10.44 1.32,0 0,7.32 0.04,0 q 0.32,-0.48 0.76,-0.82 0.44,-0.34 0.92,-0.56 0.48,-0.22 0.98,-0.32 0.52,-0.1 0.98,-0.1 1.1,0 2,0.38 0.92,0.36 1.58,1.02 0.66,0.66 1.02,1.56 0.38,0.9 0.38,1.96 0,1.06 -0.38,1.96 -0.36,0.9 -1.02,1.56 -0.66,0.66 -1.58,1.04 -0.9,0.36 -2,0.36 -0.46,0 -0.98,-0.1 -0.5,-0.1 -0.98,-0.32 -0.48,-0.22 -0.92,-0.56 -0.44,-0.34 -0.76,-0.82 l -0.04,0 0,1.56 -1.32,0 0,-15.12 z" />
      <path
         id="path5847"
         style="font-size:64.99999762%;baseline-shift:sub"
         d="m 338.79905,570.80823 -0.936,0 0,-8.034 -1.651,1.456 -0.585,-0.702 2.34,-1.924 0.832,0 0,9.204 z" />
      <path
         id="path5849"
         style="font-size:20px;text-align:center;text-anchor:middle"
         d="m 344.15138,569.60823 -1.34,0 1.34,-4.7 1.62,0 -1.62,4.7 z" />
      <path
         id="path5851"
         style="font-size:20px;text-align:center;text-anchor:middle"
         d="m 362.58513,562.12823 q 0,-0.78 -0.26,-1.46 -0.24,-0.68 -0.7,-1.18 -0.46,-0.5 -1.12,-0.78 -0.64,-0.3 -1.46,-0.3 -0.82,0 -1.5,0.3 -0.68,0.28 -1.18,0.78 -0.5,0.5 -0.78,1.18 -0.28,0.68 -0.28,1.46 0,0.78 0.28,1.46 0.28,0.68 0.78,1.18 0.5,0.5 1.18,0.8 0.68,0.28 1.5,0.28 0.82,0 1.46,-0.28 0.66,-0.3 1.12,-0.8 0.46,-0.5 0.7,-1.18 0.26,-0.68 0.26,-1.46 z m -8.54,-10.44 1.32,0 0,7.32 0.04,0 q 0.32,-0.48 0.76,-0.82 0.44,-0.34 0.92,-0.56 0.48,-0.22 0.98,-0.32 0.52,-0.1 0.98,-0.1 1.1,0 2,0.38 0.92,0.36 1.58,1.02 0.66,0.66 1.02,1.56 0.38,0.9 0.38,1.96 0,1.06 -0.38,1.96 -0.36,0.9 -1.02,1.56 -0.66,0.66 -1.58,1.04 -0.9,0.36 -2,0.36 -0.46,0 -0.98,-0.1 -0.5,-0.1 -0.98,-0.32 -0.48,-0.22 -0.92,-0.56 -0.44,-0.34 -0.76,-0.82 l -0.04,0 0,1.56 -1.32,0 0,-15.12 z" />
      <path
         id="path5853"
         style="font-size:64.99999762%;baseline-shift:sub"
         d="m 371.3057,570.80823 -5.85,0 0,-1.079 3.666,-3.731 q 0.208,-0.208 0.416,-0.442 0.208,-0.234 0.377,-0.494 0.169,-0.26 0.273,-0.546 0.104,-0.286 0.104,-0.598 0,-0.377 -0.143,-0.676 -0.13,-0.299 -0.377,-0.507 -0.247,-0.208 -0.572,-0.312 -0.325,-0.117 -0.689,-0.117 -0.702,0 -1.196,0.39 -0.494,0.39 -0.637,1.053 l -0.988,-0.104 q 0.195,-1.027 0.936,-1.612 0.754,-0.585 1.82,-0.585 0.559,0 1.053,0.156 0.507,0.143 0.884,0.442 0.39,0.299 0.611,0.754 0.234,0.442 0.234,1.04 0,0.533 -0.169,0.975 -0.156,0.442 -0.416,0.832 -0.26,0.39 -0.598,0.741 -0.325,0.351 -0.676,0.689 l -2.899,2.873 4.836,0 0,0.858 z" />
      <path
         id="path5855"
         style="font-size:20px;text-align:center;text-anchor:middle"
         d="m 375.92802,565.84823 q 0,0.42 -0.3,0.76 -0.3,0.32 -0.78,0.32 -0.48,0 -0.78,-0.32 -0.3,-0.34 -0.3,-0.76 0,-0.42 0.3,-0.74 0.3,-0.34 0.78,-0.34 0.48,0 0.78,0.34 0.3,0.32 0.3,0.74 z" />
      <path
         id="path5857"
         style="font-size:20px;text-align:center;text-anchor:middle"
         d="m 381.51396,565.84823 q 0,0.42 -0.3,0.76 -0.3,0.32 -0.78,0.32 -0.48,0 -0.78,-0.32 -0.3,-0.34 -0.3,-0.76 0,-0.42 0.3,-0.74 0.3,-0.34 0.78,-0.34 0.48,0 0.78,0.34 0.3,0.32 0.3,0.74 z" />
      <path
         id="path5859"
         style="font-size:20px;text-align:center;text-anchor:middle"
         d="m 387.0999,565.84823 q 0,0.42 -0.3,0.76 -0.3,0.32 -0.78,0.32 -0.48,0 -0.78,-0.32 -0.3,-0.34 -0.3,-0.76 0,-0.42 0.3,-0.74 0.3,-0.34 0.78,-0.34 0.48,0 0.78,0.34 0.3,0.32 0.3,0.74 z" />
      <path
         id="path5861"
         style="font-size:20px;text-align:center;text-anchor:middle"
         d="m 398.80584,562.12823 q 0,-0.78 -0.26,-1.46 -0.24,-0.68 -0.7,-1.18 -0.46,-0.5 -1.12,-0.78 -0.64,-0.3 -1.46,-0.3 -0.82,0 -1.5,0.3 -0.68,0.28 -1.18,0.78 -0.5,0.5 -0.78,1.18 -0.28,0.68 -0.28,1.46 0,0.78 0.28,1.46 0.28,0.68 0.78,1.18 0.5,0.5 1.18,0.8 0.68,0.28 1.5,0.28 0.82,0 1.46,-0.28 0.66,-0.3 1.12,-0.8 0.46,-0.5 0.7,-1.18 0.26,-0.68 0.26,-1.46 z m -8.54,-10.44 1.32,0 0,7.32 0.04,0 q 0.32,-0.48 0.76,-0.82 0.44,-0.34 0.92,-0.56 0.48,-0.22 0.98,-0.32 0.52,-0.1 0.98,-0.1 1.1,0 2,0.38 0.92,0.36 1.58,1.02 0.66,0.66 1.02,1.56 0.38,0.9 0.38,1.96 0,1.06 -0.38,1.96 -0.36,0.9 -1.02,1.56 -0.66,0.66 -1.58,1.04 -0.9,0.36 -2,0.36 -0.46,0 -0.98,-0.1 -0.5,-0.1 -0.98,-0.32 -0.48,-0.22 -0.92,-0.56 -0.44,-0.34 -0.76,-0.82 l -0.04,0 0,1.56 -1.32,0 0,-15.12 z" />
      <path
         id="path5863"
         style="font-size:64.99999762%;baseline-shift:sub"
         d="m 402.8074,564.72423 q 0.026,0.247 0.026,0.494 0.013,0.234 0.013,0.481 l 0.026,0 q 0.143,-0.247 0.364,-0.455 0.221,-0.208 0.494,-0.351 0.273,-0.156 0.572,-0.234 0.312,-0.091 0.611,-0.091 1.17,0 1.729,0.624 0.559,0.611 0.559,1.755 l 0,3.861 -0.858,0 0,-3.367 q 0,-1.014 -0.351,-1.547 -0.351,-0.546 -1.3,-0.546 -0.065,0 -0.364,0.052 -0.299,0.052 -0.637,0.286 -0.325,0.234 -0.585,0.702 -0.26,0.468 -0.26,1.3 l 0,3.12 -0.858,0 0,-4.745 q 0,-0.247 -0.026,-0.624 -0.013,-0.377 -0.039,-0.715 l 0.884,0 z" />
    </g>
    <path
       id="path5096"
       d="m 347.49248,449.30114 0,68.69037"
       style="color:#000000;clip-rule:nonzero;display:inline;overflow:visible;visibility:visible;opacity:1;isolation:auto;mix-blend-mode:normal;color-interpolation:sRGB;color-interpolation-filters:linearRGB;solid-color:#000000;solid-opacity:1;fill:none;fill-opacity:1;fill-rule:evenodd;stroke:#000000;stroke-width:1px;stroke-linecap:butt;stroke-linejoin:miter;stroke-miterlimit:4;stroke-dasharray:none;stroke-dashoffset:0;stroke-opacity:1;marker-end:url(#Arrow1Lend);color-rendering:auto;image-rendering:auto;shape-rendering:auto;text-rendering:auto;enable-background:accumulate" />
    <path
       id="path5098"
       d="m 350.52293,172.51934 0,83.84266"
       style="color:#000000;clip-rule:nonzero;display:inline;overflow:visible;visibility:visible;opacity:1;isolation:auto;mix-blend-mode:normal;color-interpolation:sRGB;color-interpolation-filters:linearRGB;solid-color:#000000;solid-opacity:1;fill:none;fill-opacity:1;fill-rule:evenodd;stroke:#000000;stroke-width:1px;stroke-linecap:butt;stroke-linejoin:miter;stroke-miterlimit:4;stroke-dasharray:none;stroke-dashoffset:0;stroke-opacity:1;marker-end:url(#marker5180);color-rendering:auto;image-rendering:auto;shape-rendering:auto;text-rendering:auto;enable-background:accumulate" />
  </g>
</svg>
