<?xml version="1.0" encoding="UTF-8" standalone="no"?>
<svg
   xmlns:dc="http://purl.org/dc/elements/1.1/"
   xmlns:cc="http://creativecommons.org/ns#"
   xmlns:rdf="http://www.w3.org/1999/02/22-rdf-syntax-ns#"
   xmlns:svg="http://www.w3.org/2000/svg"
   xmlns="http://www.w3.org/2000/svg"
   version="1.1"
   id="svg6467"
   viewBox="0 0 280.2094 127.85847"
   height="36.084503mm"
   width="79.081322mm">
  <defs
     id="defs6469">
    <marker
       orient="auto"
       refY="0"
       refX="0"
       id="marker9401"
       style="overflow:visible">
      <path
         id="path9403"
         d="m -2.5,-1 c 0,2.76 -2.24,5 -5,5 -2.76,0 -5,-2.24 -5,-5 0,-2.76 2.24,-5 5,-5 2.76,0 5,2.24 5,5 z"
         style="fill:#000000;fill-opacity:1;fill-rule:evenodd;stroke:#000000;stroke-width:1pt;stroke-opacity:1"
         transform="matrix(0.8,0,0,0.8,5.92,0.8)" />
    </marker>
    <marker
       style="overflow:visible"
       id="DotL"
       refX="0"
       refY="0"
       orient="auto">
      <path
         transform="matrix(0.8,0,0,0.8,5.92,0.8)"
         style="fill:#000000;fill-opacity:1;fill-rule:evenodd;stroke:#000000;stroke-width:1pt;stroke-opacity:1"
         d="m -2.5,-1 c 0,2.76 -2.24,5 -5,5 -2.76,0 -5,-2.24 -5,-5 0,-2.76 2.24,-5 5,-5 2.76,0 5,2.24 5,5 z"
         id="path9132" />
    </marker>
    <marker
       style="overflow:visible"
       id="marker7085"
       refX="0"
       refY="0"
       orient="auto">
      <path
         transform="matrix(-0.8,0,0,-0.8,-10,0)"
         style="fill:#000000;fill-opacity:1;fill-rule:evenodd;stroke:#000000;stroke-width:1pt;stroke-opacity:1"
         d="M 0,0 5,-5 -12.5,0 5,5 0,0 Z"
         id="path7087" />
    </marker>
    <marker
       orient="auto"
       refY="0"
       refX="0"
       id="marker4934"
       style="overflow:visible">
      <path
         id="path4936"
         d="M 0,0 5,-5 -12.5,0 5,5 0,0 Z"
         style="fill:#000000;fill-opacity:1;fill-rule:evenodd;stroke:#000000;stroke-width:1pt;stroke-opacity:1"
         transform="matrix(-0.8,0,0,-0.8,-10,0)" />
    </marker>
    <marker
       orient="auto"
       refY="0"
       refX="0"
       id="marker4980"
       style="overflow:visible">
      <path
         id="path4982"
         d="M 0,0 5,-5 -12.5,0 5,5 0,0 Z"
         style="fill:#000000;fill-opacity:1;fill-rule:evenodd;stroke:#000000;stroke-width:1pt;stroke-opacity:1"
         transform="matrix(-0.8,0,0,-0.8,-10,0)" />
    </marker>
    <marker
       orient="auto"
       refY="0"
       refX="0"
       id="marker4934-4"
       style="overflow:visible">
      <path
         id="path4936-8"
         d="M 0,0 5,-5 -12.5,0 5,5 0,0 Z"
         style="fill:#000000;fill-opacity:1;fill-rule:evenodd;stroke:#000000;stroke-width:1pt;stroke-opacity:1"
         transform="matrix(-0.8,0,0,-0.8,-10,0)" />
    </marker>
    <marker
       orient="auto"
       refY="0"
       refX="0"
       id="marker4934-2"
       style="overflow:visible">
      <path
         id="path4936-7"
         d="M 0,0 5,-5 -12.5,0 5,5 0,0 Z"
         style="fill:#000000;fill-opacity:1;fill-rule:evenodd;stroke:#000000;stroke-width:1pt;stroke-opacity:1"
         transform="matrix(-0.8,0,0,-0.8,-10,0)" />
    </marker>
    <marker
       orient="auto"
       refY="0"
       refX="0"
       id="marker4934-3"
       style="overflow:visible">
      <path
         id="path4936-81"
         d="M 0,0 5,-5 -12.5,0 5,5 0,0 Z"
         style="fill:#000000;fill-opacity:1;fill-rule:evenodd;stroke:#000000;stroke-width:1pt;stroke-opacity:1"
         transform="matrix(-0.8,0,0,-0.8,-10,0)" />
    </marker>
    <marker
       style="overflow:visible"
       id="DotL-0"
       refX="0"
       refY="0"
       orient="auto">
      <path
         transform="matrix(0.8,0,0,0.8,5.92,0.8)"
         style="fill:#000000;fill-opacity:1;fill-rule:evenodd;stroke:#000000;stroke-width:1pt;stroke-opacity:1"
         d="m -2.5,-1 c 0,2.76 -2.24,5 -5,5 -2.76,0 -5,-2.24 -5,-5 0,-2.76 2.24,-5 5,-5 2.76,0 5,2.24 5,5 z"
         id="path9132-9" />
    </marker>
    <marker
       orient="auto"
       refY="0"
       refX="0"
       id="marker4934-2-6"
       style="overflow:visible">
      <path
         id="path4936-7-0"
         d="M 0,0 5,-5 -12.5,0 5,5 0,0 Z"
         style="fill:#000000;fill-opacity:1;fill-rule:evenodd;stroke:#000000;stroke-width:1pt;stroke-opacity:1"
         transform="matrix(-0.8,0,0,-0.8,-10,0)" />
    </marker>
  </defs>
  <metadata
     id="metadata6472">
    <rdf:RDF>
      <cc:Work
         rdf:about="">
        <dc:format>image/svg+xml</dc:format>
        <dc:type
           rdf:resource="http://purl.org/dc/dcmitype/StillImage" />
        <dc:title></dc:title>
      </cc:Work>
    </rdf:RDF>
  </metadata>
  <g
     transform="translate(29.901515,-437.57648)"
     id="layer1">
    <path
       style="color:#000000;font-style:normal;font-variant:normal;font-weight:normal;font-stretch:normal;font-size:medium;line-height:normal;font-family:sans-serif;text-indent:0;text-align:start;text-decoration:none;text-decoration-line:none;text-decoration-style:solid;text-decoration-color:#000000;letter-spacing:normal;word-spacing:normal;text-transform:none;direction:ltr;block-progression:tb;writing-mode:lr-tb;baseline-shift:baseline;text-anchor:start;white-space:normal;clip-rule:nonzero;display:inline;overflow:visible;visibility:visible;opacity:1;isolation:auto;mix-blend-mode:normal;color-interpolation:sRGB;color-interpolation-filters:linearRGB;solid-color:#000000;solid-opacity:1;fill:#000000;fill-opacity:1;fill-rule:nonzero;stroke:none;stroke-width:1;stroke-linecap:round;stroke-linejoin:round;stroke-miterlimit:4;stroke-dasharray:none;stroke-dashoffset:0;stroke-opacity:1;color-rendering:auto;image-rendering:auto;shape-rendering:auto;text-rendering:auto;enable-background:accumulate"
       d="m 151.42773,437.57617 c -11.31591,0 -20.5,9.18409 -20.5,20.5 0,11.31592 9.18409,20.5 20.5,20.5 11.31592,0 20.5,-9.18408 20.5,-20.5 0,-11.31591 -9.18408,-20.5 -20.5,-20.5 z m 0,1 c 10.77548,0 19.5,8.72453 19.5,19.5 0,10.77548 -8.72452,19.5 -19.5,19.5 -10.77547,0 -19.5,-8.72452 -19.5,-19.5 0,-10.77547 8.72453,-19.5 19.5,-19.5 z"
       id="path4142" />
    <g
       transform="translate(-0.77459408,0)"
       id="g22133">
      <path
         style="color:#000000;font-style:normal;font-variant:normal;font-weight:normal;font-stretch:normal;font-size:medium;line-height:normal;font-family:sans-serif;text-indent:0;text-align:start;text-decoration:none;text-decoration-line:none;text-decoration-style:solid;text-decoration-color:#000000;letter-spacing:normal;word-spacing:normal;text-transform:none;direction:ltr;block-progression:tb;writing-mode:lr-tb;baseline-shift:baseline;text-anchor:start;white-space:normal;clip-rule:nonzero;display:inline;overflow:visible;visibility:visible;opacity:1;isolation:auto;mix-blend-mode:normal;color-interpolation:sRGB;color-interpolation-filters:linearRGB;solid-color:#000000;solid-opacity:1;fill:#000000;fill-opacity:1;fill-rule:evenodd;stroke:none;stroke-width:1px;stroke-linecap:butt;stroke-linejoin:miter;stroke-miterlimit:4;stroke-dasharray:none;stroke-dashoffset:0;stroke-opacity:1;color-rendering:auto;image-rendering:auto;shape-rendering:auto;text-rendering:auto;enable-background:accumulate"
         d="m 211.07227,454.08203 -38.64649,0.31641 0.01,1 38.64648,-0.31641 -0.01,-1 z"
         id="path4144" />
      <path
         style="fill:#000000;fill-opacity:1;fill-rule:evenodd;stroke:#000000;stroke-width:0.8pt;stroke-opacity:1"
         d="m 201.07756,454.66433 -3.96712,4.03262 13.96678,-4.1145 -14.03228,-3.88523 4.03262,3.96711 z"
         id="path22139" />
    </g>
    <path
       style="color:#000000;font-style:normal;font-variant:normal;font-weight:normal;font-stretch:normal;font-size:medium;line-height:normal;font-family:sans-serif;text-indent:0;text-align:start;text-decoration:none;text-decoration-line:none;text-decoration-style:solid;text-decoration-color:#000000;letter-spacing:normal;word-spacing:normal;text-transform:none;direction:ltr;block-progression:tb;writing-mode:lr-tb;baseline-shift:baseline;text-anchor:start;white-space:normal;clip-rule:nonzero;display:inline;overflow:visible;visibility:visible;opacity:1;isolation:auto;mix-blend-mode:normal;color-interpolation:sRGB;color-interpolation-filters:linearRGB;solid-color:#000000;solid-opacity:1;fill:#000000;fill-opacity:1;fill-rule:nonzero;stroke:none;stroke-width:1;stroke-linecap:round;stroke-linejoin:round;stroke-miterlimit:4;stroke-dasharray:none;stroke-dashoffset:0;stroke-opacity:1;color-rendering:auto;image-rendering:auto;shape-rendering:auto;text-rendering:auto;enable-background:accumulate"
       d="m 229.80859,439.04688 c -11.31591,0 -20.5,9.18408 -20.5,20.5 0,11.31591 9.18409,20.49999 20.5,20.5 11.31592,0 20.5,-9.18409 20.5,-20.5 0,-11.31592 -9.18408,-20.5 -20.5,-20.5 z m 0,1 c 10.77548,0 19.5,8.72452 19.5,19.5 0,10.77547 -8.72452,19.5 -19.5,19.5 -10.77547,0 -19.5,-8.72453 -19.5,-19.5 0,-10.77548 8.72453,-19.50001 19.5,-19.5 z"
       id="path4146" />
    <path
       style="color:#000000;font-style:normal;font-variant:normal;font-weight:normal;font-stretch:normal;font-size:medium;line-height:normal;font-family:sans-serif;text-indent:0;text-align:start;text-decoration:none;text-decoration-line:none;text-decoration-style:solid;text-decoration-color:#000000;letter-spacing:normal;word-spacing:normal;text-transform:none;direction:ltr;block-progression:tb;writing-mode:lr-tb;baseline-shift:baseline;text-anchor:start;white-space:normal;clip-rule:nonzero;display:inline;overflow:visible;visibility:visible;opacity:1;isolation:auto;mix-blend-mode:normal;color-interpolation:sRGB;color-interpolation-filters:linearRGB;solid-color:#000000;solid-opacity:1;fill:#000000;fill-opacity:1;fill-rule:nonzero;stroke:none;stroke-width:1;stroke-linecap:round;stroke-linejoin:round;stroke-miterlimit:4;stroke-dasharray:none;stroke-dashoffset:0;stroke-opacity:1;color-rendering:auto;image-rendering:auto;shape-rendering:auto;text-rendering:auto;enable-background:accumulate"
       d="m 152.58398,524.43555 c -11.31591,0 -20.5,9.18408 -20.5,20.5 0,11.31591 9.18409,20.5 20.5,20.5 11.31592,0 20.5,-9.18409 20.5,-20.5 0,-11.31592 -9.18408,-20.5 -20.5,-20.5 z m 0,1 c 10.77548,0 19.5,8.72452 19.5,19.5 0,10.77547 -8.72452,19.5 -19.5,19.5 -10.77547,0 -19.5,-8.72453 -19.5,-19.5 0,-10.77548 8.72453,-19.5 19.5,-19.5 z"
       id="path4148" />
    <path
       style="font-style:normal;font-variant:normal;font-weight:normal;font-stretch:normal;font-size:medium;line-height:125%;font-family:Avenir;-inkscape-font-specification:Avenir;text-align:center;letter-spacing:0px;word-spacing:0px;writing-mode:lr-tb;text-anchor:middle;fill:#000000;fill-opacity:1;stroke:none;stroke-width:1px;stroke-linecap:butt;stroke-linejoin:miter;stroke-opacity:1"
       d="m 232.35741,465.36925 -1.584,0 0,-13.596 -2.794,2.464 -0.99,-1.188 3.96,-3.256 1.408,0 0,15.576 z"
       id="path11909" />
    <path
       style="font-style:normal;font-variant:normal;font-weight:normal;font-stretch:normal;font-size:medium;line-height:125%;font-family:Avenir;-inkscape-font-specification:Avenir;text-align:center;letter-spacing:0px;word-spacing:0px;writing-mode:lr-tb;text-anchor:middle;fill:#000000;fill-opacity:1;stroke:none;stroke-width:1px;stroke-linecap:butt;stroke-linejoin:miter;stroke-opacity:1"
       d="m 156.79415,464.12836 -9.9,0 0,-1.826 6.204,-6.314 q 0.352,-0.352 0.704,-0.748 0.352,-0.396 0.638,-0.836 0.286,-0.44 0.462,-0.924 0.176,-0.484 0.176,-1.012 0,-0.638 -0.242,-1.144 -0.22,-0.506 -0.638,-0.858 -0.418,-0.352 -0.968,-0.528 -0.55,-0.198 -1.166,-0.198 -1.188,0 -2.024,0.66 -0.836,0.66 -1.078,1.782 l -1.672,-0.176 q 0.33,-1.738 1.584,-2.728 1.276,-0.99 3.08,-0.99 0.946,0 1.782,0.264 0.858,0.242 1.496,0.748 0.66,0.506 1.034,1.276 0.396,0.748 0.396,1.76 0,0.902 -0.286,1.65 -0.264,0.748 -0.704,1.408 -0.44,0.66 -1.012,1.254 -0.55,0.594 -1.144,1.166 l -4.906,4.862 8.184,0 0,1.452 z"
       id="path11906" />
    <path
       style="font-style:normal;font-variant:normal;font-weight:normal;font-stretch:normal;font-size:medium;line-height:125%;font-family:Avenir;-inkscape-font-specification:Avenir;text-align:center;letter-spacing:0px;word-spacing:0px;writing-mode:lr-tb;text-anchor:middle;fill:#000000;fill-opacity:1;stroke:none;stroke-width:1px;stroke-linecap:butt;stroke-linejoin:miter;stroke-opacity:1"
       d="m 150.94875,542.17784 0.814,0 q 0.682,0 1.298,-0.154 0.638,-0.154 1.1,-0.484 0.462,-0.352 0.726,-0.902 0.286,-0.55 0.286,-1.32 0,-1.254 -0.77,-1.936 -0.748,-0.704 -2.112,-0.704 -0.99,0 -1.738,0.44 -0.748,0.44 -1.232,1.276 l -1.386,-0.704 q 0.704,-1.254 1.782,-1.848 1.1,-0.616 2.53,-0.616 0.924,0 1.738,0.264 0.814,0.264 1.43,0.792 0.616,0.506 0.968,1.276 0.374,0.748 0.374,1.716 0,0.638 -0.22,1.21 -0.198,0.572 -0.572,1.034 -0.352,0.462 -0.836,0.814 -0.484,0.33 -1.012,0.506 l 0.066,0.044 q 0.66,0.132 1.21,0.506 0.55,0.352 0.946,0.88 0.396,0.528 0.616,1.188 0.22,0.66 0.22,1.386 0,1.078 -0.396,1.914 -0.396,0.836 -1.078,1.408 -0.682,0.572 -1.584,0.88 -0.902,0.286 -1.914,0.286 -1.716,0 -2.992,-0.748 -1.276,-0.748 -1.914,-2.398 l 1.672,-0.506 q 0.396,1.122 1.166,1.672 0.792,0.528 2.2,0.528 0.66,0 1.254,-0.22 0.594,-0.22 1.034,-0.616 0.462,-0.418 0.704,-0.99 0.264,-0.572 0.264,-1.254 0,-0.88 -0.33,-1.474 -0.33,-0.616 -0.88,-0.99 -0.55,-0.374 -1.276,-0.528 -0.704,-0.176 -1.474,-0.176 l -0.682,0 0,-1.452 z"
       id="path11903" />
    <g
       id="g22145">
      <path
         style="color:#000000;font-style:normal;font-variant:normal;font-weight:normal;font-stretch:normal;font-size:medium;line-height:normal;font-family:sans-serif;text-indent:0;text-align:start;text-decoration:none;text-decoration-line:none;text-decoration-style:solid;text-decoration-color:#000000;letter-spacing:normal;word-spacing:normal;text-transform:none;direction:ltr;block-progression:tb;writing-mode:lr-tb;baseline-shift:baseline;text-anchor:start;white-space:normal;clip-rule:nonzero;display:inline;overflow:visible;visibility:visible;opacity:1;isolation:auto;mix-blend-mode:normal;color-interpolation:sRGB;color-interpolation-filters:linearRGB;solid-color:#000000;solid-opacity:1;fill:#000000;fill-opacity:1;fill-rule:evenodd;stroke:none;stroke-width:1px;stroke-linecap:butt;stroke-linejoin:miter;stroke-miterlimit:4;stroke-dasharray:none;stroke-dashoffset:0;stroke-opacity:1;color-rendering:auto;image-rendering:auto;shape-rendering:auto;text-rendering:auto;enable-background:accumulate"
         d="m 91.072266,457.93359 0,1 40.000004,0 0,-1 -40.000004,0 z"
         id="path4144-8" />
      <path
         id="path22151"
         d="m 94.991427,458.43363 c 0,2.208 -1.792,4 -4,4 -2.208,0 -4,-1.792 -4,-4 0,-2.208 1.792,-4 4,-4 2.208,0 4,1.792 4,4 z"
         style="fill:#000000;fill-opacity:1;fill-rule:evenodd;stroke:#000000;stroke-width:0.8pt;stroke-opacity:1" />
      <path
         style="fill:#000000;fill-opacity:1;fill-rule:evenodd;stroke:#000000;stroke-width:0.8pt;stroke-opacity:1"
         d="m 121.07142,458.43363 -4,4 14,-4 -14,-4 4,4 z"
         id="path22153" />
    </g>
    <g
       id="g22155">
      <path
         style="color:#000000;font-style:normal;font-variant:normal;font-weight:normal;font-stretch:normal;font-size:medium;line-height:normal;font-family:sans-serif;text-indent:0;text-align:start;text-decoration:none;text-decoration-line:none;text-decoration-style:solid;text-decoration-color:#000000;letter-spacing:normal;word-spacing:normal;text-transform:none;direction:ltr;block-progression:tb;writing-mode:lr-tb;baseline-shift:baseline;text-anchor:start;white-space:normal;clip-rule:nonzero;display:inline;overflow:visible;visibility:visible;opacity:1;isolation:auto;mix-blend-mode:normal;color-interpolation:sRGB;color-interpolation-filters:linearRGB;solid-color:#000000;solid-opacity:1;fill:#000000;fill-opacity:1;fill-rule:evenodd;stroke:none;stroke-width:1px;stroke-linecap:butt;stroke-linejoin:miter;stroke-miterlimit:4;stroke-dasharray:none;stroke-dashoffset:0;stroke-opacity:1;color-rendering:auto;image-rendering:auto;shape-rendering:auto;text-rendering:auto;enable-background:accumulate"
         d="m 171.86914,544.79297 0,1 40,0 0,-1 -40,0 z"
         id="path4144-8-1" />
      <path
         style="fill:#000000;fill-opacity:1;fill-rule:evenodd;stroke:#000000;stroke-width:0.8pt;stroke-opacity:1"
         d="m 215.78951,545.29211 c 0,2.208 -1.792,4 -4,4 -2.208,0 -4,-1.792 -4,-4 0,-2.208 1.792,-4 4,-4 2.208,0 4,1.792 4,4 z"
         id="path22161" />
    </g>
    <g
       id="g22163">
      <path
         style="color:#000000;font-style:normal;font-variant:normal;font-weight:normal;font-stretch:normal;font-size:medium;line-height:normal;font-family:sans-serif;text-indent:0;text-align:start;text-decoration:none;text-decoration-line:none;text-decoration-style:solid;text-decoration-color:#000000;letter-spacing:normal;word-spacing:normal;text-transform:none;direction:ltr;block-progression:tb;writing-mode:lr-tb;baseline-shift:baseline;text-anchor:start;white-space:normal;clip-rule:nonzero;display:inline;overflow:visible;visibility:visible;opacity:1;isolation:auto;mix-blend-mode:normal;color-interpolation:sRGB;color-interpolation-filters:linearRGB;solid-color:#000000;solid-opacity:1;fill:#000000;fill-opacity:1;fill-rule:evenodd;stroke:none;stroke-width:1px;stroke-linecap:butt;stroke-linejoin:miter;stroke-miterlimit:4;stroke-dasharray:none;stroke-dashoffset:0;stroke-opacity:1;color-rendering:auto;image-rendering:auto;shape-rendering:auto;text-rendering:auto;enable-background:accumulate"
         d="m 210.88672,463.32422 -40.72852,0.3164 0.008,1 40.72851,-0.3164 -0.008,-1 z"
         id="path4144-9" />
      <path
         style="fill:#000000;fill-opacity:1;fill-rule:evenodd;stroke:#000000;stroke-width:0.8pt;stroke-opacity:1"
         d="m 180.16207,464.06321 3.9688,-4.03096 -13.9685,4.10865 14.03066,3.89111 -4.03096,-3.9688 z"
         id="path22169" />
    </g>
    <g
       id="g22171">
      <path
         style="color:#000000;font-style:normal;font-variant:normal;font-weight:normal;font-stretch:normal;font-size:medium;line-height:normal;font-family:sans-serif;text-indent:0;text-align:start;text-decoration:none;text-decoration-line:none;text-decoration-style:solid;text-decoration-color:#000000;letter-spacing:normal;word-spacing:normal;text-transform:none;direction:ltr;block-progression:tb;writing-mode:lr-tb;baseline-shift:baseline;text-anchor:start;white-space:normal;clip-rule:nonzero;display:inline;overflow:visible;visibility:visible;opacity:1;isolation:auto;mix-blend-mode:normal;color-interpolation:sRGB;color-interpolation-filters:linearRGB;solid-color:#000000;solid-opacity:1;fill:#000000;fill-opacity:1;fill-rule:evenodd;stroke:none;stroke-width:1px;stroke-linecap:butt;stroke-linejoin:miter;stroke-miterlimit:4;stroke-dasharray:none;stroke-dashoffset:0;stroke-opacity:1;color-rendering:auto;image-rendering:auto;shape-rendering:auto;text-rendering:auto;enable-background:accumulate"
         d="m 91.146484,545.29883 0,1 39.999996,0 0,-1 -39.999996,0 z"
         id="path4144-8-9" />
      <path
         id="path22177"
         d="m 95.066545,545.7994 c 0,2.208 -1.792,4 -4,4 -2.208,0 -4,-1.792 -4,-4 0,-2.208 1.792,-4 4,-4 2.208,0 4,1.792 4,4 z"
         style="fill:#000000;fill-opacity:1;fill-rule:evenodd;stroke:#000000;stroke-width:0.8pt;stroke-opacity:1" />
      <path
         style="fill:#000000;fill-opacity:1;fill-rule:evenodd;stroke:#000000;stroke-width:0.8pt;stroke-opacity:1"
         d="m 121.14653,545.7994 -4,4 14,-4 -14,-4 4,4 z"
         id="path22179" />
    </g>
    <g
       id="g22181">
      <path
         style="color:#000000;font-style:normal;font-variant:normal;font-weight:normal;font-stretch:normal;font-size:medium;line-height:normal;font-family:sans-serif;text-indent:0;text-align:start;text-decoration:none;text-decoration-line:none;text-decoration-style:solid;text-decoration-color:#000000;letter-spacing:normal;word-spacing:normal;text-transform:none;direction:ltr;block-progression:tb;writing-mode:lr-tb;baseline-shift:baseline;text-anchor:start;white-space:normal;clip-rule:nonzero;display:inline;overflow:visible;visibility:visible;opacity:1;isolation:auto;mix-blend-mode:normal;color-interpolation:sRGB;color-interpolation-filters:linearRGB;solid-color:#000000;solid-opacity:1;fill:#000000;fill-opacity:1;fill-rule:evenodd;stroke:none;stroke-width:1px;stroke-linecap:butt;stroke-linejoin:miter;stroke-miterlimit:4;stroke-dasharray:none;stroke-dashoffset:0;stroke-opacity:1;color-rendering:auto;image-rendering:auto;shape-rendering:auto;text-rendering:auto;enable-background:accumulate"
         d="m 168.26367,471.25586 -0.63867,0.76953 c 0,0 4.64607,3.87492 7.48438,9.45508 1.41915,2.79008 2.37799,5.98992 2.10937,9.33398 -0.26862,3.34406 -1.75041,6.85384 -5.31641,10.32813 -5.46541,5.32485 -10.87567,6.84329 -16.33203,6.30469 -5.45636,-0.53861 -10.96984,-3.18912 -16.4375,-6.32618 -5.46765,-3.13705 -10.8831,-6.75063 -16.20508,-9.16015 -5.32197,-2.40953 -10.5955,-3.62324 -15.68359,-1.82227 -8.385928,2.96828 -13.616385,7.79086 -16.77539,13.41797 -3.159005,5.62711 -4.258593,12.03711 -4.505859,18.21875 -0.491686,12.29214 -0.05469,19.80274 -0.05469,19.80273 l 0.998047,-0.0566 c 0,0 -0.433452,-7.45471 0.05664,-19.70703 0.243624,-6.09059 1.330313,-12.33909 4.378906,-17.76953 3.048593,-5.43043 8.047028,-10.06421 16.236323,-12.96289 4.75024,-1.68139 9.72636,-0.57028 14.9375,1.78906 5.21115,2.35935 10.61156,5.95723 16.11915,9.11719 5.50758,3.15997 11.12761,5.8916 16.83593,6.45508 5.70832,0.56348 11.49287,-1.09485 17.12891,-6.58594 3.70933,-3.61394 5.32736,-7.37916 5.61523,-10.96289 0.28788,-3.58373 -0.73832,-6.96432 -2.21484,-9.86719 -2.95304,-5.80573 -7.73633,-9.77148 -7.73633,-9.77148 z"
         id="path21893" />
      <path
         id="path22187"
         d="m 85.826068,531.56675 -4.225695,-3.76078 4.806833,13.74388 3.179647,-14.20879 -3.760785,4.22569 z"
         style="fill:#000000;fill-opacity:1;fill-rule:evenodd;stroke:#000000;stroke-width:0.8pt;stroke-opacity:1" />
    </g>
    <g
       style="font-style:normal;font-variant:normal;font-weight:normal;font-stretch:normal;font-size:22px;line-height:125%;font-family:Avenir;-inkscape-font-specification:Avenir;text-align:center;letter-spacing:0px;word-spacing:0px;writing-mode:lr-tb;text-anchor:middle;fill:#000000;fill-opacity:1;stroke:none;stroke-width:1px;stroke-linecap:butt;stroke-linejoin:miter;stroke-opacity:1"
       id="text21895">
      <path
         d="m -22.510331,463.30359 -1.584,0 0,-14.124 -5.214,0 0,-1.452 12.012,0 0,1.452 -5.214,0 0,14.124 z"
         style=""
         id="path22115" />
      <path
         d="m -15.399519,446.67159 1.452,0 0,7.986 0.044,0 q 0.242,-0.418 0.616,-0.77 0.374,-0.352 0.836,-0.594 0.462,-0.264 0.968,-0.396 0.528,-0.154 1.034,-0.154 1.9800004,0 2.9260004,1.056 0.946,1.034 0.946,2.97 l 0,6.534 -1.452,0 0,-5.698 q 0,-1.716 -0.594,-2.618 -0.594,-0.924 -2.2000004,-0.924 -0.11,0 -0.616,0.088 -0.506,0.088 -1.078,0.484 -0.55,0.396 -0.99,1.188 -0.44,0.792 -0.44,2.2 l 0,5.28 -1.452,0 0,-16.632 z"
         style=""
         id="path22117" />
      <path
         d="m -2.9994249,456.21959 q 0,-0.682 -0.044,-1.386 -0.022,-0.704 -0.044,-1.826 l 1.43,0 0,1.914 0.044,0 q 0.154,-0.418 0.44,-0.792 0.28600005,-0.396 0.68200005,-0.704 0.418,-0.308 0.946,-0.484 0.54999995,-0.198 1.23199995,-0.198 0.616,0 1.078,0.132 l -0.286,1.43 q -0.286,-0.11 -0.836,-0.11 -0.83599995,0 -1.42999995,0.33 -0.594,0.308 -0.99,0.814 -0.39600005,0.484 -0.59400005,1.056 -0.176,0.572 -0.176,1.1 l 0,5.808 -1.452,0 0,-7.084 z"
         style=""
         id="path22119" />
      <path
         d="m 11.772544,457.36359 q 0,-1.474 -0.88,-2.376 -0.88,-0.924 -2.4640001,-0.924 -0.704,0 -1.364,0.286 -0.66,0.264 -1.166,0.726 -0.484,0.462 -0.792,1.056 -0.286,0.594 -0.286,1.232 l 6.9520001,0 z m -6.9960001,1.188 q 0.066,0.77 0.374,1.452 0.308,0.682 0.814,1.188 0.506,0.484 1.166,0.77 0.66,0.286 1.43,0.286 1.166,0 2.0020001,-0.528 0.858,-0.55 1.298,-1.254 l 1.122,0.924 q -0.924,1.166 -2.046,1.672 -1.1000001,0.506 -2.3760001,0.506 -1.144,0 -2.134,-0.396 -0.968,-0.418 -1.672,-1.144 -0.704,-0.726 -1.122,-1.716 -0.396,-0.99 -0.396,-2.156 0,-1.166 0.396,-2.156 0.396,-0.99 1.1,-1.716 0.704,-0.726 1.65,-1.122 0.946,-0.418 2.046,-0.418 1.166,0 2.0900001,0.418 0.924,0.418 1.54,1.122 0.638,0.682 0.968,1.628 0.33,0.924 0.33,1.98 l 0,0.66 -8.5800001,0 z"
         style=""
         id="path22121" />
      <path
         d="m 21.862638,458.17759 q -0.55,0 -1.386,0.066 -0.814,0.044 -1.584,0.264 -0.748,0.198 -1.298,0.638 -0.528,0.44 -0.528,1.21 0,0.506 0.198,0.88 0.22,0.352 0.572,0.594 0.352,0.22 0.77,0.33 0.44,0.088 0.88,0.088 0.792,0 1.364,-0.264 0.594,-0.264 0.99,-0.704 0.396,-0.462 0.572,-1.056 0.198,-0.616 0.198,-1.298 l 0,-0.748 -0.748,0 z m 0.748,-1.188 0,-0.264 q 0,-2.662 -2.64,-2.662 -1.804,0 -3.146,1.21 l -0.88,-1.034 q 1.452,-1.496 4.356,-1.496 0.748,0 1.43,0.22 0.704,0.22 1.21,0.682 0.506,0.44 0.814,1.122 0.308,0.682 0.308,1.628 l 0,4.598 q 0,0.594 0.044,1.254 0.066,0.638 0.132,1.056 l -1.408,0 q -0.066,-0.374 -0.11,-0.814 -0.022,-0.44 -0.022,-0.858 l -0.044,0 q -0.638,1.034 -1.518,1.496 -0.858,0.44 -2.112,0.44 -0.682,0 -1.32,-0.198 -0.638,-0.176 -1.144,-0.55 -0.484,-0.396 -0.792,-0.946 -0.286,-0.572 -0.286,-1.32 0,-1.254 0.638,-1.958 0.66,-0.726 1.628,-1.078 0.99,-0.352 2.09,-0.44 1.122,-0.088 2.046,-0.088 l 0.726,0 z"
         style=""
         id="path22123" />
      <path
         d="m 28.320325,458.15559 q 0,0.858 0.264,1.606 0.286,0.748 0.792,1.298 0.506,0.55 1.21,0.88 0.726,0.308 1.628,0.308 0.88,0 1.628,-0.308 0.77,-0.33 1.32,-0.88 0.55,-0.55 0.858,-1.298 0.308,-0.748 0.308,-1.606 0,-0.858 -0.308,-1.606 -0.308,-0.748 -0.858,-1.298 -0.55,-0.55 -1.32,-0.858 -0.748,-0.33 -1.628,-0.33 -0.902,0 -1.628,0.33 -0.704,0.308 -1.21,0.858 -0.506,0.55 -0.792,1.298 -0.264,0.748 -0.264,1.606 z m 9.394,5.148 -1.452,0 0,-1.716 -0.044,0 q -0.352,0.528 -0.836,0.902 -0.484,0.374 -1.012,0.616 -0.528,0.242 -1.1,0.352 -0.55,0.11 -1.056,0.11 -1.21,0 -2.222,-0.396 -0.99,-0.418 -1.716,-1.144 -0.726,-0.726 -1.144,-1.716 -0.396,-0.99 -0.396,-2.156 0,-1.166 0.396,-2.156 0.418,-0.99 1.144,-1.716 0.726,-0.726 1.716,-1.122 1.012,-0.418 2.222,-0.418 0.506,0 1.056,0.11 0.572,0.11 1.1,0.352 0.528,0.242 1.012,0.616 0.484,0.374 0.836,0.902 l 0.044,0 0,-8.052 1.452,0 0,16.632 z"
         style=""
         id="path22125" />
      <path
         d="m 53.020138,463.30359 -1.584,0 0,-13.596 -2.794,2.464 -0.99,-1.188 3.96,-3.256 1.408,0 0,15.576 z"
         style=""
         id="path22127" />
      <path
         d="m 61.856231,462.24759 q 0,0.462 -0.33,0.836 -0.33,0.352 -0.858,0.352 -0.528,0 -0.858,-0.352 -0.33,-0.374 -0.33,-0.836 0,-0.462 0.33,-0.814 0.33,-0.374 0.858,-0.374 0.528,0 0.858,0.374 0.33,0.352 0.33,0.814 z m 0,-8.162 q 0,0.462 -0.33,0.836 -0.33,0.352 -0.858,0.352 -0.528,0 -0.858,-0.352 -0.33,-0.374 -0.33,-0.836 0,-0.462 0.33,-0.814 0.33,-0.374 0.858,-0.374 0.528,0 0.858,0.374 0.33,0.352 0.33,0.814 z"
         style=""
         id="path22129" />
    </g>
    <g
       style="font-style:normal;font-variant:normal;font-weight:normal;font-stretch:normal;font-size:22px;line-height:125%;font-family:Avenir;-inkscape-font-specification:Avenir;text-align:center;letter-spacing:0px;word-spacing:0px;writing-mode:lr-tb;text-anchor:middle;fill:#000000;fill-opacity:1;stroke:none;stroke-width:1px;stroke-linecap:butt;stroke-linejoin:miter;stroke-opacity:1"
       id="text21895-4">
      <path
         d="m -23.103515,551.32312 -1.584,0 0,-14.124 -5.214,0 0,-1.452 12.012,0 0,1.452 -5.214,0 0,14.124 z"
         style=""
         id="path22098" />
      <path
         d="m -15.992702,534.69112 1.452,0 0,7.986 0.044,0 q 0.242,-0.418 0.616,-0.77 0.374,-0.352 0.836,-0.594 0.462,-0.264 0.968,-0.396 0.528,-0.154 1.034,-0.154 1.9799999,0 2.9259999,1.056 0.946,1.034 0.946,2.97 l 0,6.534 -1.452,0 0,-5.698 q 0,-1.716 -0.594,-2.618 -0.594,-0.924 -2.1999999,-0.924 -0.11,0 -0.616,0.088 -0.506,0.088 -1.078,0.484 -0.55,0.396 -0.99,1.188 -0.44,0.792 -0.44,2.2 l 0,5.28 -1.452,0 0,-16.632 z"
         style=""
         id="path22100" />
      <path
         d="m -3.5926084,544.23912 q 0,-0.682 -0.044,-1.386 -0.022,-0.704 -0.044,-1.826 l 1.43,0 0,1.914 0.044,0 q 0.154,-0.418 0.44,-0.792 0.286,-0.396 0.682,-0.704 0.41800003,-0.308 0.94600003,-0.484 0.55,-0.198 1.23199997,-0.198 0.616,0 1.078,0.132 l -0.286,1.43 q -0.286,-0.11 -0.836,-0.11 -0.83599997,0 -1.42999997,0.33 -0.594,0.308 -0.99000003,0.814 -0.396,0.484 -0.594,1.056 -0.176,0.572 -0.176,1.1 l 0,5.808 -1.452,0 0,-7.084 z"
         style=""
         id="path22102" />
      <path
         d="m 11.17936,545.38312 q 0,-1.474 -0.88,-2.376 -0.8799996,-0.924 -2.4639996,-0.924 -0.704,0 -1.364,0.286 -0.66,0.264 -1.166,0.726 -0.484,0.462 -0.792,1.056 -0.286,0.594 -0.286,1.232 l 6.9519996,0 z m -6.9959996,1.188 q 0.066,0.77 0.374,1.452 0.308,0.682 0.814,1.188 0.506,0.484 1.166,0.77 0.66,0.286 1.43,0.286 1.166,0 2.002,-0.528 0.8579996,-0.55 1.2979996,-1.254 l 1.122,0.924 q -0.924,1.166 -2.046,1.672 -1.0999996,0.506 -2.3759996,0.506 -1.144,0 -2.134,-0.396 -0.968,-0.418 -1.672,-1.144 -0.704,-0.726 -1.122,-1.716 -0.396,-0.99 -0.396,-2.156 0,-1.166 0.396,-2.156 0.396,-0.99 1.1,-1.716 0.704,-0.726 1.65,-1.122 0.946,-0.418 2.046,-0.418 1.166,0 2.09,0.418 0.9239996,0.418 1.5399996,1.122 0.638,0.682 0.968,1.628 0.33,0.924 0.33,1.98 l 0,0.66 -8.5799996,0 z"
         style=""
         id="path22104" />
      <path
         d="m 21.269454,546.19712 q -0.55,0 -1.386,0.066 -0.814,0.044 -1.584,0.264 -0.748,0.198 -1.298,0.638 -0.528,0.44 -0.528,1.21 0,0.506 0.198,0.88 0.22,0.352 0.572,0.594 0.352,0.22 0.77,0.33 0.44,0.088 0.88,0.088 0.792,0 1.364,-0.264 0.594,-0.264 0.99,-0.704 0.396,-0.462 0.572,-1.056 0.198,-0.616 0.198,-1.298 l 0,-0.748 -0.748,0 z m 0.748,-1.188 0,-0.264 q 0,-2.662 -2.64,-2.662 -1.804,0 -3.146,1.21 l -0.88,-1.034 q 1.452,-1.496 4.356,-1.496 0.748,0 1.43,0.22 0.704,0.22 1.21,0.682 0.506,0.44 0.814,1.122 0.308,0.682 0.308,1.628 l 0,4.598 q 0,0.594 0.044,1.254 0.066,0.638 0.132,1.056 l -1.408,0 q -0.066,-0.374 -0.11,-0.814 -0.022,-0.44 -0.022,-0.858 l -0.044,0 q -0.638,1.034 -1.518,1.496 -0.858,0.44 -2.112,0.44 -0.682,0 -1.32,-0.198 -0.638,-0.176 -1.144,-0.55 -0.484,-0.396 -0.792,-0.946 -0.286,-0.572 -0.286,-1.32 0,-1.254 0.638,-1.958 0.66,-0.726 1.628,-1.078 0.99,-0.352 2.09,-0.44 1.122,-0.088 2.046,-0.088 l 0.726,0 z"
         style=""
         id="path22106" />
      <path
         d="m 27.727142,546.17512 q 0,0.858 0.264,1.606 0.286,0.748 0.792,1.298 0.506,0.55 1.21,0.88 0.726,0.308 1.628,0.308 0.88,0 1.628,-0.308 0.77,-0.33 1.32,-0.88 0.55,-0.55 0.858,-1.298 0.308,-0.748 0.308,-1.606 0,-0.858 -0.308,-1.606 -0.308,-0.748 -0.858,-1.298 -0.55,-0.55 -1.32,-0.858 -0.748,-0.33 -1.628,-0.33 -0.902,0 -1.628,0.33 -0.704,0.308 -1.21,0.858 -0.506,0.55 -0.792,1.298 -0.264,0.748 -0.264,1.606 z m 9.394,5.148 -1.452,0 0,-1.716 -0.044,0 q -0.352,0.528 -0.836,0.902 -0.484,0.374 -1.012,0.616 -0.528,0.242 -1.1,0.352 -0.55,0.11 -1.056,0.11 -1.21,0 -2.222,-0.396 -0.99,-0.418 -1.716,-1.144 -0.726,-0.726 -1.144,-1.716 -0.396,-0.99 -0.396,-2.156 0,-1.166 0.396,-2.156 0.418,-0.99 1.144,-1.716 0.726,-0.726 1.716,-1.122 1.012,-0.418 2.222,-0.418 0.506,0 1.056,0.11 0.572,0.11 1.1,0.352 0.528,0.242 1.012,0.616 0.484,0.374 0.836,0.902 l 0.044,0 0,-8.052 1.452,0 0,16.632 z"
         style=""
         id="path22108" />
      <path
         d="m 55.726954,551.32312 -9.9,0 0,-1.826 6.204,-6.314 q 0.352,-0.352 0.704,-0.748 0.352,-0.396 0.638,-0.836 0.286,-0.44 0.462,-0.924 0.176,-0.484 0.176,-1.012 0,-0.638 -0.242,-1.144 -0.22,-0.506 -0.638,-0.858 -0.418,-0.352 -0.968,-0.528 -0.55,-0.198 -1.166,-0.198 -1.188,0 -2.024,0.66 -0.836,0.66 -1.078,1.782 l -1.672,-0.176 q 0.33,-1.738 1.584,-2.728 1.276,-0.99 3.08,-0.99 0.946,0 1.782,0.264 0.858,0.242 1.496,0.748 0.66,0.506 1.034,1.276 0.396,0.748 0.396,1.76 0,0.902 -0.286,1.65 -0.264,0.748 -0.704,1.408 -0.44,0.66 -1.012,1.254 -0.55,0.594 -1.144,1.166 l -4.906,4.862 8.184,0 0,1.452 z"
         style=""
         id="path22110" />
      <path
         d="m 61.263048,550.26712 q 0,0.462 -0.33,0.836 -0.33,0.352 -0.858,0.352 -0.528,0 -0.858,-0.352 -0.33,-0.374 -0.33,-0.836 0,-0.462 0.33,-0.814 0.33,-0.374 0.858,-0.374 0.528,0 0.858,0.374 0.33,0.352 0.33,0.814 z m 0,-8.162 q 0,0.462 -0.33,0.836 -0.33,0.352 -0.858,0.352 -0.528,0 -0.858,-0.352 -0.33,-0.374 -0.33,-0.836 0,-0.462 0.33,-0.814 0.33,-0.374 0.858,-0.374 0.528,0 0.858,0.374 0.33,0.352 0.33,0.814 z"
         style=""
         id="path22112" />
    </g>
  </g>
</svg>
